<?xml version="1.0" encoding="utf-8"?>
<!-- Generator: Adobe Illustrator 16.0.0, SVG Export Plug-In . SVG Version: 6.00 Build 0)  -->
<!DOCTYPE svg PUBLIC "-//W3C//DTD SVG 1.1//EN" "http://www.w3.org/Graphics/SVG/1.1/DTD/svg11.dtd">
<svg version="1.1" id="圖層_1" xmlns="http://www.w3.org/2000/svg" xmlns:xlink="http://www.w3.org/1999/xlink" x="0px" y="0px"
	 width="595.28px" height="278.841px" viewBox="0 0 595.28 278.841" enable-background="new 0 0 595.28 278.841"
	 xml:space="preserve">
<g>
	<g>
		<path fill-rule="evenodd" clip-rule="evenodd" fill="#697D31" d="M53.404,85.344c35.547-2.858,59.998,11.51,76.058,43.095
			c9.679-17.929,23.856-29.265,42.312-35.583c-4.104-13.581-11.305-24.565-22.459-31.477c-10.544-6.532-22.601-10.623-34.799-16.152
			c1.958-0.345,3.833-1.139,5.579-0.913c37.356,4.823,63.997,39.686,58.643,76.605c-5.239,36.104-34.782,60.837-70.957,59.407
			c-28.384-1.123-54.593-21.393-62.172-48.084c-8.377-29.512,2.195-60.16,26.829-76.42c5.663-3.74,12.127-6.309,18.376-9.082
			c1.23-0.549,3.151,0.438,4.752,0.717c-1.089,1.133-1.979,2.835-3.305,3.312c-15.184,5.428-27.494,14.402-35.784,28.45
			C55.499,80.876,54.742,82.66,53.404,85.344z M113.539,156.652c2.536-7.834,4.856-14.849,7.084-21.891
			c2.918-9.265-1.825-20.17-11.483-25.372c-1.609,8.891-2.353,17.821-4.96,26.167C101.132,145.314,105.914,150.696,113.539,156.652z
			 M108.637,160.631c-5.954-10.847-12.81-16.325-24.097-11.059c-0.694,0.322-1.609,0.133-2.391,0.314
			c-5.895,1.351-11.778,2.738-17.666,4.116c-0.183,0.794-0.37,1.592-0.553,2.387c5.105,3.295,10.173,9.229,15.333,9.309
			C88.843,165.849,98.476,162.581,108.637,160.631z M98.738,140.589c1.85-10.348,3.617-19.387,5.055-28.475
			c1.497-9.415-2.021-13.734-12.738-15.487c-1.002,6.515-1.052,13.375-3.227,19.474C83.787,127.429,90.805,133.135,98.738,140.589z
			 M53.017,137.396c2.378,5.328,3.039,12.196,8.893,11.676c10.24-0.91,20.293-3.929,31.834-6.363
			c-3.529-3.977-5.883-6.922-8.573-9.515c-1.326-1.281-3.513-2.969-4.914-2.663C71.306,132.491,62.463,134.954,53.017,137.396z
			 M77.48,125.976c-6.24-10.483-8.315-11.473-18.879-9.596c-1.792,0.318-3.592,0.703-5.4,0.794c-4.303,0.22-6.424,1.839-4.84,6.485
			c0.711,2.096,0.732,4.47,1.676,6.421c0.536,1.108,2.515,2.493,3.488,2.26C61.486,130.437,69.364,128.181,77.48,125.976z
			 M82.39,121.895c1.206-8.151,1.601-15.2,3.421-21.86c1.722-6.28-1.097-7.679-6.169-8.679c-6.037-1.191-5.309,2.996-5.725,6.482
			c-0.166,1.391-0.225,2.854-0.724,4.135C69.676,111.017,75.106,116.066,82.39,121.895z M120.806,174.089
			c-4.128-8.404-6.81-9.852-15.142-8.141c-6.037,1.237-12.078,2.484-19.682,4.05C97.54,175.947,113.871,177.496,120.806,174.089z
			 M125.99,170.033c3.825-9.369,3.397-27.876-1.147-33.302c-1.9,6.133-3.712,11.804-5.409,17.51
			C116.856,162.919,117.438,164.3,125.99,170.033z M148.67,147.223c14.709,1.547,18.534,0.651,20.123-11.327
			C153.098,134.417,152.071,136.559,148.67,147.223z M159.554,154.835c-13.699-4.964-20.16-0.129-22.123,16.25
			C144.808,165.667,152.179,160.25,159.554,154.835z M135.549,127.699c-7.463,11.049,0.195,21.597-1.834,31.806
			C141.972,151.247,142.483,141.554,135.549,127.699z M65.303,111.11c-5.592-6.141-9.979-10.955-14.36-15.77
			c-0.645,0.243-1.289,0.488-1.933,0.731c-0.653,5.334-1.306,10.67-2.079,16.986C53.287,112.385,58.206,111.863,65.303,111.11z
			 M157.862,130.318c12.959,2.49,17.528-0.796,15.408-10.748C162.29,119.132,161.7,119.527,157.862,130.318z M66.33,105.163
			c0.852-0.225,1.705-0.449,2.553-0.671c0-4.798,1.667-10.756-0.582-13.988c-1.501-2.149-8.585-0.407-13.171-0.407
			c-0.187,0.634-0.374,1.266-0.561,1.9C58.488,96.386,62.409,100.774,66.33,105.163z M145.252,140.465
			c4.07-5.226,3.712-15.115-0.532-23.929C139.515,119.866,139.648,129.518,145.252,140.465z M155.135,107.242
			c-6.332,2.621-7.001,9.431-1.838,18.659C159.509,118.446,159.791,115.573,155.135,107.242z M173.158,101.594
			c-2.769,5.001-4.707,8.502-6.789,12.263C175.137,115.351,175.968,114.004,173.158,101.594z M168.007,100.598
			c-8.324,1.517-9.01,2.775-5.151,9.346C164.614,106.751,166.161,103.947,168.007,100.598z"/>
		<path fill-rule="evenodd" clip-rule="evenodd" fill="#697D31" d="M106.687,46.502c0,1.23-1.002,2.229-2.229,2.229
			c-1.231,0-2.229-0.998-2.229-2.229s0.998-2.227,2.229-2.227C105.685,44.275,106.687,45.271,106.687,46.502z"/>
	</g>
	<g>
		<path fill="#697D31" d="M261.697,60.322c1.321,1.437,0.993,4.914-0.994,10.436l-4.141,11.263l13.911-0.994
			c7.396-0.331,11.429,0.331,12.094,1.987l0.162,2.484c-3.421,11.818-6.02,20.266-7.782,25.342
			c-2.761,8.064-5.962,16.179-9.608,24.349c0.665,0.885,3.866,3.479,9.608,7.785c5.301,4.089,8.281,6.737,8.942,7.952
			c0.773,1.879,1.052,3.7,0.832,5.467c-0.89,1.877-2.379,2.1-4.474,0.661l-5.8-4.638l-6.956-5.465
			c-2.761-1.987-4.86-3.754-6.294-5.301c-4.416,5.081-8.669,9.276-12.756,12.589c-5.854,4.417-10.764,6.625-14.738,6.625
			c-2.761,0-5.413-0.663-7.953-1.987c-2.873-1.657-3.975-3.588-3.31-5.798l0.661-0.497c7.949-2.428,13.416-4.308,16.397-5.632
			c5.521-2.428,10.323-5.741,14.41-9.938c-5.409-3.421-8.341-5.245-8.777-5.465c-3.87-2.208-7.018-3.588-9.441-4.141l-3.975-0.663
			c-1.105-0.333-1.767-1.104-1.991-2.32c-0.441-1.212,0.107-3.147,1.658-5.798l3.809-5.795c0.886-1.545,2.652-5.634,5.301-12.259
			c3.313-8.39,4.969-12.641,4.969-12.753c-3.643,0.553-6.956,0.994-9.937,1.324c-3.538,0.333-6.848,0.497-9.94,0.497
			c-1.322-0.441-1.88-1.435-1.655-2.981c0.333-1.657,1.269-3.035,2.814-4.141c1.326-0.994,4.64-1.544,9.94-1.657l10.436,0.333
			l2.815-10.932c1.102-4.085,2.041-7.398,2.814-9.938c0.886-1.435,2.319-2.154,4.308-2.154
			C259.044,58.168,260.591,58.887,261.697,60.322z M253.581,87.818c-1.326,4.638-3.371,10.161-6.132,16.563
			c-2.54,5.962-4.969,11.155-7.288,15.57c0.553,0.443,3.533,2.376,8.946,5.798c4.969,3.204,8.17,5.135,9.608,5.798
			c2.981-4.64,6.07-11.319,9.275-20.043c2.536-7.176,4.636-14.08,6.295-20.705c-0.558-1.214-1.106-2.208-1.659-2.981h-9.608H253.581
			z M315.196,61.481c5.634-0.11,11.762-0.166,18.385-0.166h18.717c2.761,0,4.694,0.553,5.8,1.657
			c1.103,1.216,0.936,2.873-0.499,4.968c-4.199,3.093-9.001,7.07-14.41,11.926L329.44,92.456l2.984,7.785l2.814,7.785h19.379
			c5.521-0.22,11.928-1.214,19.216-2.981c0,0.331,0.104,1.546,0.329,3.644c0.107,1.324,0,2.374-0.329,3.147
			c-0.444,1.214-2.045,3.037-4.806,5.465c-2.761,2.43-4.694,3.867-5.796,4.307c-2.212,0.884-4.806,0.719-7.787-0.497l-7.949-3.644
			c-0.773-0.333-2.595-0.884-5.467-1.657c-2.648-0.663-4.308-1.16-4.969-1.491c0,14.466-0.058,22.141-0.166,23.022
			c-0.661,9.275-2.814,16.233-6.461,20.871c-1.767,2.209-3.367,3.81-4.802,4.804c-1.326,0.771-3.538,1.711-6.627,2.815
			c-1.215,0.44-3.917,0.663-8.116,0.663c-4.198,0-6.623-0.331-7.288-0.994c-0.553-0.663-1.434-2.376-2.648-5.135
			c-0.773-1.875-1.492-3.754-2.153-5.631c0.882-0.883,3.255-0.938,7.122-0.166c4.527,0.994,7.454,1.326,8.78,0.994
			c1.763-0.441,3.643-1.324,5.63-2.65c1.763-1.435,3.039-2.815,3.813-4.141c1.987-3.089,3.309-8.887,3.975-17.391
			c0.549-7.839,0.387-13.749-0.499-17.724c-5.854,0-10.822,0.112-14.909,0.331c-5.741,0.333-10.489,0.942-14.244,1.823l-6.623,1.987
			c-2.98,0.885-5.026,0.939-6.128,0.166c-1.767-1.214-2.05-2.871-0.831-4.97c1.102-1.987,2.873-3.422,5.301-4.305
			c5.741-0.44,11.928-0.717,18.551-0.83c3.975-0.108,10.107-0.164,18.389-0.164c-1.883-4.748-3.039-7.564-3.479-8.448
			c-1.435-3.313-2.873-5.908-4.308-7.785c-0.225-0.221-2.1-1.765-5.629-4.638c-1.884-1.544-2.266-2.981-1.16-4.307
			c1.102-1.324,3.147-1.102,6.128,0.663l6.956,4.472c2.096-2.095,4.86-5.301,8.281-9.606c3.75-4.638,6.07-8.005,6.956-10.105
			c-12.148,0-19.873,0.112-23.187,0.333c-5.742,0.22-13.529,0.939-23.357,2.151c-2.212-0.438-3.205-1.598-2.98-3.478
			c0.22-1.875,1.492-3.313,3.808-4.307c2.32-0.331,5.193-0.605,8.614-0.828c4.083-0.22,7.015-0.384,8.781-0.497L315.196,61.481z"/>
		<path fill="#697D31" d="M468.082,79.37c0.881,1.216,1.597,2.43,2.153,3.644c12.477,6.407,21.752,10.932,27.826,13.583
			c12.478,5.411,22.302,8.504,29.481,9.275c1.435,0.331,3.422,0.609,5.966,0.828c2.536,0.222,4.578,0.497,6.129,0.829
			c1.214,1.216,0.827,3.037-1.16,5.465c-1.551,1.879-3.588,3.59-6.129,5.135c-0.772,0.663-2.818,1.438-6.128,2.32
			c-3.313,0.885-5.413,1.16-6.294,0.827c-1.219-0.551-2.32-0.938-3.314-1.158c-7.4-5.079-15.96-10.876-25.672-17.393
			c-11.596-7.951-20.103-13.637-25.512-17.061c-11.815,9.829-19.818,16.289-24.018,19.38c-11.483,8.725-20.372,13.969-26.667,15.734
			c-2.212,0.775-3.975,1.216-5.301,1.326c-1.767,0.222-3.476,0.056-5.134-0.497c-1.326-0.551-3.256-1.601-5.796-3.147
			c-2.873-1.765-4.474-3.147-4.807-4.141l0.994-2.983l13.088-1.655c5.521-0.773,9.712-1.711,12.589-2.817
			c6.295-2.65,13.138-6.348,20.538-11.098c6.623-4.193,12.859-8.667,18.718-13.417c1.763-1.435,3.255-2.372,4.474-2.815
			C465.762,78.765,467.088,78.707,468.082,79.37z M432.302,53.53c0.333,0.331,0.607,1.933,0.827,4.804c0,1.546,0,3.424,0,5.631
			h8.282h8.281c3.646,0.443,5.688,1.546,6.133,3.312c0.437,1.769-1.105,2.929-4.64,3.48c-1.879,0-4.694-0.054-8.448-0.167
			c-3.754-0.108-6.52-0.167-8.282-0.167l0.167,6.958c-0.225,2.43-1.16,3.92-2.814,4.471c-2.1,0.663-3.705-0.274-4.807-2.814
			l-2.315-7.621l-13.255,1.493c-6.848,0.661-10.822,0.223-11.924-1.326c-1.434-1.657-1.551-3.255-0.332-4.804
			c1.102-1.434,2.923-2.372,5.467-2.814c2.096,0,5.243-0.054,9.441-0.167c4.195-0.108,7.396-0.166,9.608-0.166
			c-0.444-0.994-0.831-2.815-1.16-5.465c-0.332-2.65-0.224-4.361,0.329-5.134c0.885-1.875,2.486-2.759,4.806-2.65
			C429.874,50.605,431.416,51.655,432.302,53.53z M437.769,143.306l0.333,1.491c-0.333,3.313-3.039,7.455-8.12,12.423
			c-5.296,4.858-9.495,6.899-12.584,6.128c-1.884-0.553-3.538-2.43-4.973-5.631c-1.435-3.313-1.713-5.742-0.827-7.288l0.827-0.497
			c0.886-0.664,2.486-0.717,4.806-0.167c2.757,0.663,4.636,0.886,5.63,0.663c0.993-0.331,3.588-1.765,7.787-4.307
			C434.069,143.916,436.442,142.974,437.769,143.306z M470.73,107.032c0.332,0.663,0.387,2.814,0.166,6.459l-0.333,6.46
			c3.313,0,8.34-0.054,15.075-0.166c6.731-0.108,11.866-0.167,15.404-0.167c0.993,2.763,0.936,4.75-0.167,5.964
			c-0.993,1.216-2.872,1.823-5.633,1.823c-5.521,0-9.662-0.054-12.423-0.167c-4.527-0.11-8.61-0.384-12.257-0.829l1.16,19.38
			c0.665,10.269,0.665,16.507,0,18.717c-0.993,3.313-2.212,5.243-3.642,5.798c-1.551,0.663-3.147-0.389-4.807-3.147
			c-1.322-2.1-1.713-8.06-1.159-17.89l1.159-19.047c0-1.102,0-2.372,0-3.811c-4.083,0-7.288,0.058-9.604,0.166
			c-4.087,0.112-7.513,0.389-10.273,0.83l-7.616,0.994c-2.981,0.331-4.915-0.166-5.801-1.493c-0.553-1.987-0.107-3.862,1.327-5.631
			c1.546-1.765,6.515-2.592,14.908-2.484l17.059,0.827l-0.827-7.122c-0.225-3.645,0.054-5.962,0.827-6.956
			c1.326-1.544,2.652-2.153,3.979-1.823C468.576,103.94,469.736,105.044,470.73,107.032z M505.35,52.703
			c0.437,0.661,0.437,2.209,0,4.638c-0.557,2.981-0.827,4.527-0.827,4.638c2.757,0,6.844-0.054,12.257-0.167
			c5.409-0.108,9.441-0.166,12.09-0.166c1.88,1.438,2.153,3.147,0.827,5.134c-1.218,1.99-3.255,3.206-6.128,3.644
			c-2.761-0.33-6.295-0.661-10.602-0.994c-4.415-0.33-8.008-0.661-10.764-0.994l-1.659,7.619c-0.886,3.313-2.096,5.301-3.643,5.964
			c-1.551,0.553-2.76,0.112-3.646-1.324c-0.221-0.663-0.274-2.65-0.162-5.964l0.494-6.295c-5.08,0.775-8.34,1.216-9.77,1.327
			c-3.538,0.442-6.739,0.661-9.608,0.661c-2.32-0.438-3.372-1.708-3.147-3.808c0.333-2.098,1.763-3.644,4.308-4.638
			c0.993-0.333,3.533-0.441,7.616-0.333c3.313,0.222,5.854,0.389,7.621,0.497l2.98-0.497c0.221-0.551,0.661-2.262,1.327-5.135
			c0.436-2.428,1.047-4.029,1.82-4.804c1.435-1.324,2.981-1.929,4.64-1.821C503.251,49.999,504.577,50.936,505.35,52.703z
			 M495.409,139.993c3.205,2.1,6.901,3.977,11.101,5.631c4.195,1.769,8.004,2.983,11.43,3.644c2.207,0,4.028,0.389,5.463,1.16
			c1.546,2.542,0,5.467-4.636,8.779c-4.308,2.981-8.008,4.251-11.097,3.81l-1.825-0.663c-0.108-0.331-2.374-3.478-6.789-9.441
			c-3.646-5.079-5.468-8.336-5.468-9.772C493.48,141.928,494.087,140.878,495.409,139.993z"/>
	</g>
	<g>
		<path fill="#697D31" d="M312.739,203.158l-1.189-0.278c1.098-2.915,2.083-5.686,2.952-8.319c0.562,0.514,0.977,0.844,1.26,0.998
			c0.278,0.147,0.777,0.272,1.501,0.366c1.492,0.185,4.881,0.278,10.165,0.278h17.687c0.44,0,1.862-0.022,4.262-0.07
			c2.398-0.044,3.771-0.069,4.119-0.069c0.981,0,1.63-0.064,1.959-0.191c0.328-0.128,0.673-0.403,1.052-0.823
			c0.203,0.326,0.507,0.617,0.906,0.875c-0.815,2.214-1.46,4.603-1.921,7.166l-1.505,0.21c0.116-0.767,0.212-1.817,0.282-3.147
			c-0.656-0.557-1.704-1.008-3.151-1.345c-1.442-0.337-3.758-0.507-6.951-0.507c-2.337,0-3.871,0.017-4.619,0.052
			c-0.744,0.036-1.21,0.131-1.396,0.281c-0.188,0.154-0.304,0.484-0.35,0.998l-0.212,4.688c0,0.746-0.066,2.8-0.208,6.157
			c-0.021,0.842-0.046,3.133-0.066,6.876c-0.025,3.742-0.05,6.991-0.071,9.744c0,3.496,0.034,5.951,0.104,7.363
			c0.066,1.412,0.267,2.49,0.595,3.237c0.324,0.748,0.818,1.237,1.484,1.47c0.665,0.232,1.8,0.453,3.404,0.665
			c1.048,0.089,1.576,0.239,1.576,0.441c0,0.455-0.021,0.728-0.07,0.819c-0.35,0.046-0.803,0.068-1.36,0.068
			c-1.422-0.093-2.669-0.164-3.741-0.21c-1.563-0.141-2.823-0.212-3.775-0.212c-2.266,0-4.744,0.212-7.446,0.632
			c-1.492,0.256-2.312,0.383-2.448,0.383c-0.35,0-0.599-0.079-0.753-0.243c-0.149-0.165-0.308-0.468-0.47-0.909
			c0.304-0.093,1.022-0.281,2.166-0.559c1.634-0.374,2.803-0.713,3.518-1.015c0.707-0.303,1.155-0.675,1.343-1.118
			c0.183-0.443,0.278-1.141,0.278-2.098c0-1.143,0.096-2.459,0.283-3.95c0,0.14,0.021-1.247,0.066-4.16
			c0.05-2.914,0.083-4.982,0.107-6.207c0.021-1.222,0.033-2.684,0.033-4.384c0-4.989-0.016-8.554-0.054-10.699
			c-0.033-2.143-0.108-3.802-0.225-4.979c-0.116-1.181-0.308-2.104-0.557-2.782c-2.004-0.185-4.208-0.278-6.61-0.278
			c-2.516,0-4.47,0.081-5.854,0.245c-1.389,0.162-2.461,0.43-3.218,0.802c-0.757,0.375-1.293,0.794-1.608,1.26
			C313.699,201.144,313.275,201.971,312.739,203.158z"/>
		<path fill="#697D31" d="M374.192,222.562l-17.483,3.773c0.121,2.191,0.333,3.89,0.653,5.089c0.312,1.2,0.936,2.418,1.871,3.652
			c1.787,2.354,3.957,3.53,6.498,3.53c1.048,0,2.166-0.197,3.355-0.594c1.188-0.397,2.507-1.106,3.949-2.131l0.628,0.838
			c-4.054,2.912-7.65,4.37-10.802,4.37c-3.33,0-5.929-1.258-7.791-3.777c-1.862-2.515-2.798-5.405-2.798-8.668
			c0-3.332,0.706-6.099,2.133-8.3c1.422-2.204,3.019-3.807,4.789-4.806c1.768-1.004,3.114-1.505,4.021-1.505
			c1.048,0,2.137,0.17,3.268,0.507s2.232,0.985,3.318,1.939c1.085,0.958,1.991,2.262,2.715,3.917
			c0.203,0.349,0.407,0.582,0.59,0.698c0.188,0.117,0.524,0.177,1.015,0.177L374.192,222.562z M356.78,224.973l4.581-0.979
			c0.184-0.094,0.89-0.281,2.116-0.562c1.223-0.278,2.046-0.453,2.466-0.524c1.21-0.278,1.979-0.476,2.304-0.592
			c0.328-0.116,0.49-0.304,0.49-0.559c0-0.375-0.278-1.008-0.84-1.906c-0.558-0.896-1.355-1.717-2.395-2.463
			c-1.035-0.747-2.254-1.119-3.65-1.119c-1.746,0-2.989,0.921-3.726,2.763C357.396,220.872,356.946,222.851,356.78,224.973z"/>
		<path fill="#697D31" d="M384.224,220.115l-4.299,1.921c-0.187-0.746-0.278-1.293-0.278-1.642c0-1.189,0.724-2.291,2.183-3.303
			c1.455-1.015,3.102-1.835,4.931-2.465c1.83-0.628,3.106-0.942,3.825-0.942c0.632,0,1.409,0.279,2.345,0.838
			c0.932,0.559,1.676,1.118,2.232,1.678c0.491,0.465,0.874,0.927,1.14,1.38c0.266,0.455,0.507,1.172,0.715,2.149
			c0.208,0.981,0.316,2.228,0.316,3.742c0,0.44-0.059,2.004-0.175,4.684l-0.142,2.623c-0.092,1.258-0.137,2.258-0.137,3.004
			c0,0.957,0.124,1.983,0.382,3.077c0.237,1.121,0.757,1.678,1.572,1.678c0.914,0,2.12-0.337,3.634-1.013v1.433l-5.135,2.062
			c-1.027,0.351-1.609,0.526-1.751,0.526c-0.532,0-1.063-0.355-1.584-1.066c-0.527-0.711-0.956-1.557-1.28-2.534
			c-4.312,2.401-7.621,3.601-9.928,3.601c-1.422,0-2.495-0.414-3.214-1.241c-0.724-0.827-1.085-2.068-1.085-3.723
			c0-1.586,0.19-2.761,0.577-3.532c0.383-0.769,1.007-1.374,1.871-1.817c1.746-0.885,3.597-1.544,5.559-1.977
			c1.954-0.428,4.008-0.796,6.153-1.1l0.17-4.299v-1.153c0-1.981-0.564-3.549-1.695-4.702c-1.127-1.154-2.449-1.73-3.967-1.73
			c-0.724,0-1.451,0.204-2.183,0.611c-0.736,0.407-1.102,0.983-1.102,1.729C383.875,218.984,383.991,219.483,384.224,220.115z
			 M392.51,236.649c-0.074-0.769,0-2.96,0.208-6.573c-3.068-0.21-5.525,0.164-7.384,1.118c-1.858,0.956-2.785,2.156-2.785,3.601
			c0,1.05,0.282,2.039,0.852,2.973c0.565,0.931,1.352,1.397,2.35,1.397C386.864,239.165,389.117,238.327,392.51,236.649z"/>
		<path fill="#697D31" d="M424.456,240.878l-1.43-0.071c0.046-3.239-0.595-7.13-1.925-11.674c0.562-0.165,0.936-0.256,1.118-0.281
			c0.562,1.75,0.998,3.012,1.313,3.794c0.316,0.781,0.72,1.467,1.223,2.062s1.197,1.126,2.079,1.59
			c1.518,0.792,3.264,1.503,5.246,2.133c1.979,0.63,4.112,0.946,6.395,0.946c1.983,0,3.971-0.493,5.958-1.47
			c1.995-0.979,2.989-3.135,2.989-6.467c0-1.68-0.287-3.122-0.869-4.334s-1.347-2.191-2.291-2.938
			c-0.943-0.746-2.041-1.409-3.284-1.991c-1.251-0.584-2.86-1.248-4.844-1.994c-2.748-1.002-5.018-2.027-6.802-3.075
			c-1.783-1.05-3.197-2.343-4.244-3.881c-1.048-1.538-1.572-3.416-1.572-5.629c0-3.517,1.289-6.448,3.879-8.791
			c2.591-2.341,6.282-3.513,11.08-3.513c2.445,0,4.86,0.256,7.238,0.769c0.957,0.185,1.551,0.279,1.784,0.279
			c0.698,0,1.396-0.233,2.095-0.699l0.279-0.139c0.187,0,0.42,0.046,0.698,0.139c-0.066,0.537-0.133,1.066-0.191,1.59
			s-0.116,1.1-0.175,1.731c-0.058,0.63-0.1,1.119-0.12,1.468c-0.025,0.349-0.046,0.582-0.071,0.699
			c0.308,2.821,0.441,4.359,0.42,4.615l-1.047,0.068c-0.188-2.376-0.969-4.247-2.346-5.608c-1.371-1.366-2.922-2.289-4.647-2.779
			c-1.722-0.491-3.376-0.734-4.965-0.734c-3.87,0-6.427,1.008-7.675,3.022c-1.247,2.017-1.866,3.923-1.866,5.717
			c0,1.888,0.466,3.455,1.396,4.7c0.932,1.249,2.092,2.224,3.476,2.935c1.389,0.707,3.339,1.549,5.862,2.521
			c2.84,1.114,5.122,2.144,6.848,3.091c1.722,0.944,3.264,2.308,4.615,4.091c1.351,1.786,2.024,3.998,2.024,6.629
			c0,2.241-0.582,4.259-1.746,6.053c-1.164,1.798-2.914,3.22-5.242,4.27c-2.333,1.048-5.189,1.574-8.569,1.574
			c-3.284,0-6.697-0.479-10.235-1.433c-0.633-0.141-1.015-0.212-1.156-0.212C424.552,239.653,424.319,240.063,424.456,240.878z"/>
		<path fill="#697D31" d="M454.906,198.232v-1.347c0.512-0.258,0.853-0.435,1.015-0.528l6.781-3.297l1.151-0.632l1.155,0.563
			c-0.44,2.095-0.756,4.513-0.943,7.25c-0.188,2.74-0.328,6.216-0.42,10.434l-0.212,7.095c2.752-1.187,4.98-2.062,6.698-2.621
			c1.713-0.557,3.359-0.838,4.943-0.838c2.24,0,3.87,0.682,4.893,2.045c1.027,1.364,1.663,3.027,1.908,4.998
			c0.246,1.971,0.366,4.563,0.366,7.779c0,0.627-0.004,1.212-0.017,1.748c-0.013,0.537-0.029,1.287-0.054,2.255
			c-0.021,0.965-0.05,1.853-0.088,2.657c-0.028,0.803-0.054,1.264-0.054,1.38c0,1.002,0.245,1.665,0.731,1.992
			c0.487,0.326,1.83,0.488,4.029,0.488l-0.071,1.083h-2.27c-0.346,0-1.779,0.015-4.303,0.038c-2.524,0.023-3.817,0.033-3.888,0.033
			c-0.071,0-0.582,0.119-1.534,0.351c-0.232,0-0.35-0.164-0.35-0.49c0-0.233,0.188-0.397,0.562-0.489
			c0.886-0.212,1.542-0.582,1.975-1.118c0.429-0.537,0.724-1.447,0.878-2.728c0.149-1.28,0.225-3.391,0.225-6.326
			c0-4.638-0.375-7.949-1.119-9.928c-0.748-1.981-2.448-2.971-5.105-2.971c-1.376,0-2.89,0.254-4.544,0.767
			c-1.654,0.514-2.877,0.979-3.667,1.399c0,0.65-0.05,1.748-0.146,3.286l-0.312,8.423c0,0.539-0.004,1.025-0.017,1.468
			c-0.013,0.445-0.033,0.933-0.055,1.47c0,2.259,0.154,3.717,0.453,4.37c0.121,0.395,0.399,0.669,0.84,0.821
			c0.445,0.152,1.622,0.308,3.534,0.474v1.22c-0.773-0.091-2.403-0.139-4.897-0.139c-2.582,0-5.372,0.118-8.353,0.349l0.07-1.152
			c1.493-0.303,2.475-0.601,2.956-0.892c0.475-0.291,0.803-0.844,0.978-1.659c0.17-0.813,0.295-2.339,0.365-4.578
			c0.067-3.654,0.162-6.787,0.279-9.396l0.141-9.783c0.046-1,0.071-3.224,0.071-6.673c0-3.143-0.138-5.467-0.399-6.968
			c-0.274-1.501-0.932-2.251-1.979-2.251C456.948,197.667,456.212,197.854,454.906,198.232z"/>
		<path fill="#697D31" d="M489.934,227.63c0-2.052,0.379-3.91,1.14-5.575c0.752-1.667,1.8-3.106,3.126-4.318
			s2.877-2.145,4.648-2.798c1.771-0.651,3.671-0.977,5.7-0.977c1.838,0,3.579,0.339,5.226,1.014
			c1.643,0.674,3.081,1.607,4.315,2.794c1.235,1.189,2.208,2.594,2.919,4.214c0.711,1.619,1.064,3.361,1.064,5.226
			c0,2.424-0.574,4.696-1.729,6.816c-1.152,2.122-2.786,3.827-4.89,5.122c-2.112,1.293-4.54,1.939-7.292,1.939
			c-2.07,0-4.212-0.453-6.415-1.364c-2.204-0.909-4.054-2.372-5.555-4.386C490.687,233.321,489.934,230.752,489.934,227.63z
			 M494.511,225.707c0,2.168,0.433,4.324,1.298,6.467c0.86,2.144,2.066,3.904,3.612,5.278c1.551,1.374,3.26,2.062,5.127,2.062
			c1.63,0,3.109-0.447,4.436-1.345c1.331-0.898,2.391-2.174,3.185-3.827c0.79-1.657,1.189-3.532,1.189-5.629
			c0-2.121-0.462-4.189-1.385-6.203c-0.919-2.019-2.187-3.659-3.808-4.931c-1.622-1.268-3.409-1.904-5.368-1.904
			c-1.584,0-3.006,0.432-4.266,1.291c-1.255,0.865-2.24,2.066-2.951,3.603C494.869,222.106,494.511,223.819,494.511,225.707z"/>
		<path fill="#697D31" d="M521.885,218.926l-0.278-0.996c1.118-0.68,1.903-1.112,2.345-1.299c0.324,0,1.347-0.491,3.063-1.472
			c1.718-0.981,2.902-1.881,3.56-2.7c0.179,0.559,0.428,2.201,0.748,4.929l3.006-1.189c3.122-1.306,5.488-1.956,7.097-1.956
			c1.751,0,3.492,0.569,5.227,1.71c1.733,1.144,3.143,2.68,4.228,4.615c1.086,1.933,1.626,4.008,1.626,6.224
			c0,2.819-0.641,5.166-1.921,7.043c-1.284,1.875-2.86,3.322-4.739,4.334c-1.871,1.015-3.68,1.719-5.418,2.116
			c-1.737,0.395-3.047,0.593-3.933,0.593c-1.442,0-3.168-0.337-5.172-1.013c0,0.418-0.021,1.732-0.07,3.944
			c-0.046,2.209-0.071,3.499-0.071,3.873v6.349c0,1.49,0.063,2.548,0.179,3.174c0.116,0.63,0.333,1.031,0.645,1.206
			c0.316,0.177,0.856,0.285,1.626,0.333l2.553,0.137c0.582,0,0.873,0.229,0.873,0.684c0,0.285-0.088,0.465-0.262,0.536
			c-0.175,0.073-0.587,0.11-1.239,0.11c-2.894,0-4.694,0.017-5.422,0.05c-0.723,0.038-3.097,0.183-7.13,0.438
			c0-0.42-0.025-0.769-0.07-1.05c1.188-0.091,1.979-0.262,2.378-0.505c0.395-0.246,0.715-0.646,0.943-1.206
			c0.374-1.025,0.62-3.081,0.736-6.168s0.17-6.307,0.17-9.66l0.075-4.37c0-3.353-0.025-6.818-0.075-10.394
			c-0.046-3.576-0.137-5.76-0.278-6.552c-0.116-0.464-0.299-0.915-0.536-1.345c-0.249-0.43-0.54-0.782-0.877-1.05
			c-0.337-0.266-0.683-0.399-1.031-0.399C524.18,218.001,523.327,218.309,521.885,218.926z M531.252,218.82l-0.071,17.688
			l3.218,1.083c2.445,0.817,4.149,1.224,5.105,1.224c1.14,0,2.412-0.285,3.809-0.854c1.397-0.572,2.628-1.534,3.688-2.886
			c1.061-1.351,1.593-3.112,1.593-5.28c0-2.376-0.549-4.573-1.646-6.588c-1.094-2.016-2.457-3.596-4.087-4.737
			c-1.634-1.141-3.185-1.713-4.648-1.713C537.463,216.758,535.147,217.446,531.252,218.82z"/>
	</g>
</g>
</svg>
