<?xml version="1.0" encoding="utf-8"?>
<!-- Generator: Adobe Illustrator 16.0.0, SVG Export Plug-In . SVG Version: 6.00 Build 0)  -->
<!DOCTYPE svg PUBLIC "-//W3C//DTD SVG 1.1//EN" "http://www.w3.org/Graphics/SVG/1.1/DTD/svg11.dtd">
<svg version="1.1" id="圖層_1" xmlns="http://www.w3.org/2000/svg" xmlns:xlink="http://www.w3.org/1999/xlink" x="0px" y="0px"
	 width="595.279px" height="278.84px" viewBox="0 0 595.279 278.84" enable-background="new 0 0 595.279 278.84"
	 xml:space="preserve">
<g>
	<g>
		<path fill="#4C5125" d="M53.404,85.344c35.548-2.858,59.998,11.51,76.059,43.095c9.679-17.929,23.855-29.265,42.312-35.583
			c-4.104-13.581-11.305-24.565-22.459-31.477c-10.544-6.532-22.601-10.623-34.799-16.152c1.958-0.345,3.833-1.139,5.579-0.913
			c37.356,4.823,63.997,39.686,58.643,76.605c-5.238,36.104-34.781,60.837-70.957,59.408c-28.384-1.123-54.593-21.394-62.172-48.084
			c-8.377-29.512,2.195-60.16,26.829-76.42c5.663-3.74,12.127-6.309,18.376-9.082c1.23-0.549,3.151,0.438,4.752,0.717
			c-1.089,1.133-1.979,2.835-3.305,3.312c-15.184,5.428-27.494,14.402-35.784,28.45C55.499,80.876,54.742,82.66,53.404,85.344z
			 M113.539,156.652c2.536-7.834,4.855-14.849,7.084-21.891c2.918-9.265-1.825-20.17-11.483-25.372
			c-1.609,8.891-2.353,17.821-4.96,26.167C101.132,145.314,105.914,150.696,113.539,156.652z M108.637,160.631
			c-5.954-10.848-12.81-16.325-24.097-11.059c-0.694,0.321-1.609,0.133-2.392,0.313c-5.895,1.352-11.777,2.738-17.666,4.117
			c-0.183,0.793-0.37,1.592-0.553,2.387c5.105,3.295,10.173,9.229,15.333,9.309C88.843,165.849,98.476,162.581,108.637,160.631z
			 M98.738,140.588c1.851-10.347,3.617-19.386,5.056-28.474c1.497-9.415-2.021-13.734-12.738-15.487
			c-1.002,6.515-1.052,13.375-3.227,19.474C83.787,127.429,90.805,133.135,98.738,140.588z M53.017,137.396
			c2.378,5.328,3.039,12.196,8.894,11.677c10.239-0.91,20.293-3.93,31.834-6.363c-3.529-3.978-5.884-6.922-8.573-9.516
			c-1.326-1.281-3.513-2.969-4.914-2.663C71.306,132.491,62.463,134.954,53.017,137.396z M77.48,125.976
			c-6.239-10.483-8.314-11.473-18.879-9.596c-1.792,0.318-3.592,0.703-5.399,0.794c-4.304,0.22-6.425,1.839-4.841,6.485
			c0.711,2.096,0.732,4.47,1.677,6.421c0.536,1.108,2.515,2.493,3.487,2.26C61.486,130.437,69.364,128.181,77.48,125.976z
			 M82.39,121.895c1.206-8.151,1.602-15.2,3.421-21.86c1.723-6.28-1.097-7.679-6.169-8.679c-6.037-1.191-5.309,2.996-5.725,6.482
			c-0.166,1.391-0.226,2.854-0.725,4.135C69.676,111.017,75.106,116.066,82.39,121.895z M120.806,174.088
			c-4.128-8.403-6.81-9.852-15.142-8.141c-6.037,1.237-12.078,2.484-19.683,4.051C97.54,175.948,113.871,177.497,120.806,174.088z
			 M125.99,170.034c3.824-9.369,3.396-27.877-1.147-33.303c-1.9,6.133-3.712,11.805-5.409,17.51
			C116.856,162.918,117.438,164.299,125.99,170.034z M148.67,147.223c14.709,1.547,18.534,0.65,20.123-11.327
			C153.098,134.417,152.071,136.559,148.67,147.223z M159.554,154.834c-13.699-4.963-20.16-0.129-22.123,16.25
			C144.808,165.667,152.179,160.25,159.554,154.834z M135.549,127.699c-7.463,11.049,0.195,21.596-1.834,31.805
			C141.972,151.247,142.483,141.554,135.549,127.699z M65.303,111.11c-5.592-6.141-9.979-10.955-14.36-15.77
			c-0.645,0.243-1.289,0.488-1.933,0.731c-0.653,5.334-1.306,10.67-2.079,16.986C53.287,112.385,58.206,111.863,65.303,111.11z
			 M157.862,130.318c12.959,2.49,17.528-0.796,15.408-10.748C162.29,119.132,161.7,119.527,157.862,130.318z M66.33,105.163
			c0.852-0.225,1.705-0.449,2.553-0.671c0-4.798,1.667-10.756-0.582-13.988c-1.501-2.149-8.585-0.407-13.171-0.407
			c-0.188,0.634-0.374,1.266-0.562,1.9C58.488,96.386,62.409,100.774,66.33,105.163z M145.252,140.465
			c4.069-5.226,3.712-15.115-0.532-23.929C139.515,119.866,139.648,129.518,145.252,140.465z M155.135,107.242
			c-6.332,2.621-7.001,9.431-1.838,18.659C159.509,118.446,159.791,115.573,155.135,107.242z M173.158,101.594
			c-2.77,5.001-4.707,8.502-6.789,12.263C175.137,115.351,175.968,114.004,173.158,101.594z M168.007,100.598
			c-8.324,1.517-9.01,2.775-5.151,9.346C164.614,106.751,166.161,103.947,168.007,100.598z"/>
		<path fill="#4C5125" d="M106.687,46.502c0,1.23-1.002,2.229-2.229,2.229c-1.231,0-2.229-0.998-2.229-2.229
			s0.998-2.227,2.229-2.227C105.685,44.275,106.687,45.271,106.687,46.502z"/>
	</g>
	<g>
		<path fill="#4C5125" d="M261.697,60.322c1.321,1.437,0.993,4.914-0.993,10.436l-4.142,11.263l13.911-0.994
			c7.396-0.331,11.429,0.331,12.094,1.987l0.162,2.484c-3.421,11.818-6.02,20.266-7.782,25.342
			c-2.761,8.064-5.962,16.179-9.607,24.349c0.665,0.885,3.866,3.479,9.607,7.785c5.302,4.089,8.281,6.737,8.942,7.952
			c0.773,1.879,1.052,3.699,0.832,5.467c-0.89,1.877-2.379,2.1-4.474,0.66l-5.801-4.637l-6.955-5.465
			c-2.762-1.988-4.86-3.754-6.295-5.302c-4.416,5.081-8.669,9.276-12.756,12.589c-5.854,4.418-10.764,6.625-14.737,6.625
			c-2.762,0-5.413-0.662-7.953-1.986c-2.873-1.658-3.976-3.588-3.311-5.799l0.661-0.496c7.949-2.429,13.416-4.309,16.397-5.633
			c5.521-2.428,10.322-5.74,14.41-9.938c-5.409-3.421-8.342-5.245-8.777-5.465c-3.87-2.208-7.019-3.588-9.441-4.141l-3.975-0.663
			c-1.105-0.333-1.768-1.104-1.991-2.32c-0.44-1.212,0.107-3.147,1.658-5.798l3.809-5.795c0.887-1.545,2.652-5.634,5.302-12.259
			c3.313-8.39,4.969-12.641,4.969-12.753c-3.644,0.553-6.956,0.994-9.938,1.324c-3.538,0.333-6.848,0.497-9.939,0.497
			c-1.322-0.441-1.88-1.435-1.655-2.981c0.333-1.657,1.269-3.035,2.814-4.141c1.325-0.994,4.64-1.544,9.939-1.657l10.437,0.333
			l2.814-10.932c1.103-4.085,2.041-7.398,2.814-9.938c0.886-1.435,2.318-2.154,4.308-2.154
			C259.044,58.168,260.591,58.887,261.697,60.322z M253.581,87.818c-1.326,4.638-3.371,10.161-6.132,16.563
			c-2.54,5.962-4.97,11.155-7.288,15.57c0.553,0.443,3.532,2.376,8.945,5.798c4.97,3.204,8.17,5.135,9.608,5.798
			c2.98-4.64,6.07-11.319,9.274-20.043c2.536-7.176,4.637-14.08,6.296-20.705c-0.559-1.214-1.106-2.208-1.659-2.981h-9.608H253.581z
			 M315.196,61.481c5.634-0.11,11.762-0.166,18.385-0.166h18.718c2.761,0,4.693,0.553,5.8,1.657
			c1.103,1.216,0.936,2.873-0.499,4.968c-4.199,3.093-9.001,7.07-14.41,11.926l-13.749,12.59l2.984,7.785l2.813,7.785h19.379
			c5.521-0.22,11.929-1.214,19.216-2.981c0,0.331,0.104,1.546,0.329,3.644c0.107,1.324,0,2.374-0.329,3.147
			c-0.443,1.214-2.045,3.037-4.806,5.465c-2.761,2.43-4.694,3.867-5.796,4.307c-2.212,0.884-4.806,0.719-7.787-0.497l-7.949-3.644
			c-0.772-0.333-2.595-0.884-5.467-1.657c-2.647-0.663-4.308-1.16-4.969-1.491c0,14.466-0.058,22.141-0.166,23.022
			c-0.661,9.275-2.814,16.234-6.461,20.871c-1.768,2.209-3.367,3.811-4.802,4.805c-1.326,0.771-3.538,1.711-6.627,2.814
			c-1.216,0.44-3.917,0.664-8.116,0.664c-4.198,0-6.623-0.332-7.288-0.994c-0.553-0.664-1.435-2.377-2.648-5.135
			c-0.772-1.875-1.491-3.755-2.152-5.632c0.882-0.883,3.255-0.938,7.122-0.166c4.526,0.994,7.453,1.326,8.779,0.994
			c1.764-0.44,3.644-1.323,5.63-2.649c1.764-1.436,3.039-2.815,3.813-4.142c1.987-3.089,3.309-8.887,3.975-17.391
			c0.55-7.839,0.388-13.749-0.499-17.724c-5.854,0-10.821,0.112-14.908,0.331c-5.741,0.333-10.489,0.942-14.244,1.823l-6.623,1.987
			c-2.98,0.885-5.026,0.939-6.128,0.166c-1.767-1.214-2.05-2.871-0.831-4.97c1.102-1.987,2.873-3.422,5.301-4.305
			c5.741-0.44,11.928-0.717,18.551-0.83c3.976-0.108,10.107-0.164,18.39-0.164c-1.884-4.748-3.039-7.564-3.479-8.448
			c-1.435-3.313-2.873-5.908-4.308-7.785c-0.226-0.221-2.101-1.765-5.629-4.638c-1.885-1.544-2.267-2.981-1.16-4.307
			c1.102-1.324,3.146-1.102,6.128,0.663l6.956,4.472c2.096-2.095,4.859-5.301,8.28-9.606c3.75-4.638,6.07-8.005,6.956-10.105
			c-12.147,0-19.873,0.112-23.187,0.333c-5.742,0.22-13.529,0.939-23.356,2.151c-2.213-0.438-3.205-1.598-2.98-3.478
			c0.22-1.875,1.492-3.313,3.808-4.307c2.32-0.331,5.193-0.605,8.614-0.828c4.083-0.22,7.015-0.384,8.781-0.497L315.196,61.481z"/>
		<path fill="#4C5125" d="M468.081,79.37c0.882,1.216,1.598,2.43,2.153,3.644c12.478,6.407,21.752,10.932,27.826,13.583
			c12.478,5.411,22.302,8.504,29.48,9.275c1.436,0.331,3.423,0.609,5.967,0.828c2.536,0.222,4.578,0.497,6.129,0.829
			c1.214,1.216,0.827,3.037-1.16,5.465c-1.551,1.879-3.588,3.59-6.129,5.135c-0.772,0.663-2.818,1.438-6.128,2.32
			c-3.313,0.885-5.413,1.16-6.294,0.827c-1.219-0.551-2.32-0.938-3.314-1.158c-7.399-5.079-15.96-10.876-25.672-17.393
			c-11.596-7.951-20.103-13.637-25.512-17.061c-11.815,9.829-19.818,16.289-24.019,19.38c-11.482,8.725-20.372,13.969-26.667,15.734
			c-2.212,0.775-3.975,1.216-5.301,1.326c-1.767,0.222-3.476,0.056-5.134-0.497c-1.326-0.551-3.256-1.601-5.796-3.147
			c-2.873-1.765-4.475-3.147-4.808-4.141l0.994-2.983l13.088-1.655c5.521-0.773,9.712-1.711,12.59-2.817
			c6.295-2.65,13.138-6.348,20.537-11.098c6.623-4.193,12.859-8.667,18.719-13.417c1.763-1.435,3.255-2.372,4.474-2.815
			C465.762,78.765,467.088,78.707,468.081,79.37z M432.302,53.53c0.333,0.331,0.606,1.933,0.827,4.804c0,1.546,0,3.424,0,5.631
			h8.281h8.281c3.646,0.443,5.688,1.546,6.133,3.312c0.438,1.769-1.104,2.929-4.64,3.48c-1.879,0-4.694-0.054-8.448-0.167
			c-3.754-0.108-6.52-0.167-8.282-0.167l0.167,6.958c-0.225,2.43-1.159,3.92-2.813,4.471c-2.101,0.663-3.705-0.274-4.808-2.814
			l-2.314-7.621l-13.255,1.493c-6.849,0.661-10.822,0.223-11.924-1.326c-1.435-1.657-1.552-3.255-0.332-4.804
			c1.102-1.434,2.923-2.372,5.467-2.814c2.096,0,5.243-0.054,9.44-0.167c4.195-0.108,7.396-0.166,9.608-0.166
			c-0.444-0.994-0.831-2.815-1.16-5.465c-0.332-2.65-0.224-4.361,0.329-5.134c0.885-1.875,2.486-2.759,4.806-2.65
			C429.873,50.605,431.415,51.655,432.302,53.53z M437.769,143.306l0.333,1.491c-0.333,3.313-3.039,7.455-8.12,12.422
			c-5.296,4.859-9.495,6.9-12.584,6.129c-1.884-0.553-3.538-2.43-4.973-5.631c-1.436-3.313-1.713-5.742-0.827-7.288l0.827-0.497
			c0.886-0.664,2.485-0.717,4.806-0.167c2.757,0.663,4.636,0.886,5.63,0.663c0.993-0.331,3.588-1.766,7.787-4.307
			C434.069,143.917,436.442,142.974,437.769,143.306z M470.73,107.032c0.332,0.663,0.387,2.814,0.166,6.459l-0.333,6.46
			c3.313,0,8.34-0.054,15.075-0.166c6.73-0.108,11.866-0.167,15.403-0.167c0.993,2.763,0.937,4.75-0.166,5.964
			c-0.993,1.216-2.872,1.823-5.634,1.823c-5.521,0-9.662-0.054-12.423-0.167c-4.527-0.11-8.609-0.384-12.257-0.829l1.16,19.38
			c0.665,10.269,0.665,16.506,0,18.717c-0.993,3.313-2.212,5.242-3.643,5.797c-1.551,0.664-3.146-0.389-4.807-3.146
			c-1.322-2.1-1.713-8.06-1.159-17.89l1.159-19.047c0-1.102,0-2.372,0-3.811c-4.083,0-7.288,0.058-9.604,0.166
			c-4.088,0.112-7.514,0.389-10.273,0.83l-7.616,0.994c-2.98,0.331-4.915-0.166-5.801-1.493c-0.553-1.987-0.107-3.862,1.327-5.631
			c1.546-1.765,6.515-2.592,14.908-2.484l17.059,0.827l-0.827-7.122c-0.225-3.645,0.054-5.962,0.827-6.956
			c1.326-1.544,2.652-2.153,3.979-1.823C468.575,103.94,469.736,105.044,470.73,107.032z M505.35,52.703
			c0.437,0.661,0.437,2.209,0,4.638c-0.557,2.981-0.827,4.527-0.827,4.638c2.757,0,6.844-0.054,12.257-0.167
			c5.409-0.108,9.441-0.166,12.09-0.166c1.881,1.438,2.153,3.147,0.827,5.134c-1.218,1.99-3.255,3.206-6.128,3.644
			c-2.761-0.33-6.295-0.661-10.602-0.994c-4.415-0.33-8.008-0.661-10.765-0.994l-1.658,7.619c-0.887,3.313-2.097,5.301-3.644,5.964
			c-1.551,0.553-2.76,0.112-3.646-1.324c-0.222-0.663-0.274-2.65-0.162-5.964l0.494-6.295c-5.08,0.775-8.34,1.216-9.771,1.327
			c-3.538,0.442-6.739,0.661-9.607,0.661c-2.32-0.438-3.372-1.708-3.147-3.808c0.333-2.098,1.763-3.644,4.308-4.638
			c0.993-0.333,3.533-0.441,7.616-0.333c3.313,0.222,5.854,0.389,7.621,0.497l2.98-0.497c0.221-0.551,0.661-2.262,1.327-5.135
			c0.436-2.428,1.047-4.029,1.819-4.804c1.436-1.324,2.981-1.929,4.641-1.821C503.251,49.999,504.576,50.936,505.35,52.703z
			 M495.408,139.993c3.205,2.1,6.901,3.977,11.102,5.631c4.194,1.77,8.004,2.983,11.43,3.645c2.207,0,4.028,0.389,5.463,1.16
			c1.546,2.541,0,5.467-4.636,8.779c-4.308,2.98-8.008,4.25-11.097,3.81l-1.825-0.663c-0.108-0.331-2.374-3.479-6.789-9.441
			c-3.646-5.078-5.468-8.336-5.468-9.771C493.48,141.928,494.087,140.877,495.408,139.993z"/>
	</g>
	<g>
		<path fill="#4C5125" d="M312.739,203.159l-1.188-0.279c1.098-2.914,2.083-5.686,2.952-8.318c0.562,0.514,0.977,0.844,1.26,0.998
			c0.277,0.146,0.776,0.271,1.501,0.365c1.492,0.186,4.881,0.279,10.165,0.279h17.687c0.44,0,1.862-0.022,4.263-0.07
			c2.397-0.045,3.771-0.069,4.118-0.069c0.981,0,1.631-0.063,1.959-0.19c0.328-0.129,0.674-0.404,1.053-0.824
			c0.203,0.326,0.507,0.617,0.905,0.875c-0.814,2.215-1.46,4.604-1.921,7.166l-1.505,0.211c0.116-0.768,0.212-1.817,0.282-3.147
			c-0.656-0.557-1.704-1.008-3.151-1.345c-1.441-0.337-3.758-0.508-6.95-0.508c-2.337,0-3.871,0.018-4.619,0.053
			c-0.744,0.036-1.21,0.131-1.396,0.281c-0.188,0.154-0.304,0.484-0.35,0.998l-0.212,4.688c0,0.746-0.066,2.801-0.208,6.157
			c-0.021,0.842-0.046,3.133-0.066,6.876c-0.024,3.742-0.05,6.991-0.071,9.744c0,3.496,0.034,5.951,0.104,7.363
			c0.066,1.412,0.267,2.49,0.595,3.236c0.324,0.748,0.818,1.237,1.484,1.471c0.665,0.231,1.8,0.453,3.404,0.664
			c1.048,0.09,1.575,0.24,1.575,0.441c0,0.455-0.021,0.729-0.069,0.818c-0.351,0.047-0.804,0.068-1.36,0.068
			c-1.422-0.093-2.669-0.164-3.741-0.209c-1.563-0.142-2.822-0.213-3.774-0.213c-2.267,0-4.744,0.213-7.446,0.633
			c-1.492,0.256-2.313,0.383-2.448,0.383c-0.35,0-0.599-0.08-0.753-0.244c-0.148-0.164-0.308-0.467-0.47-0.908
			c0.304-0.094,1.021-0.281,2.166-0.559c1.634-0.375,2.803-0.713,3.518-1.016c0.707-0.303,1.155-0.675,1.343-1.117
			c0.184-0.443,0.278-1.142,0.278-2.099c0-1.144,0.096-2.459,0.283-3.95c0,0.141,0.021-1.246,0.066-4.16
			c0.05-2.914,0.083-4.982,0.106-6.207c0.021-1.222,0.033-2.684,0.033-4.384c0-4.989-0.016-8.554-0.054-10.698
			c-0.033-2.144-0.108-3.803-0.226-4.979c-0.116-1.181-0.308-2.104-0.557-2.782c-2.004-0.186-4.208-0.277-6.61-0.277
			c-2.516,0-4.47,0.08-5.854,0.244c-1.39,0.162-2.461,0.43-3.219,0.803c-0.757,0.375-1.293,0.793-1.607,1.26
			C313.698,201.144,313.275,201.971,312.739,203.159z"/>
		<path fill="#4C5125" d="M374.192,222.562l-17.482,3.772c0.12,2.191,0.332,3.891,0.652,5.09c0.313,1.199,0.937,2.418,1.871,3.652
			c1.787,2.354,3.957,3.529,6.498,3.529c1.048,0,2.166-0.197,3.355-0.594c1.188-0.396,2.507-1.105,3.948-2.131l0.628,0.838
			c-4.054,2.912-7.649,4.369-10.802,4.369c-3.33,0-5.929-1.258-7.791-3.776c-1.862-2.515-2.798-5.405-2.798-8.668
			c0-3.332,0.706-6.099,2.133-8.3c1.422-2.204,3.02-3.807,4.789-4.807c1.769-1.004,3.114-1.504,4.021-1.504
			c1.048,0,2.137,0.17,3.268,0.506c1.131,0.338,2.232,0.985,3.318,1.939c1.085,0.958,1.99,2.262,2.715,3.917
			c0.203,0.349,0.407,0.582,0.59,0.698c0.188,0.117,0.524,0.177,1.015,0.177L374.192,222.562z M356.78,224.973l4.581-0.979
			c0.185-0.095,0.891-0.281,2.116-0.563c1.223-0.278,2.046-0.453,2.466-0.523c1.21-0.279,1.979-0.477,2.304-0.593
			c0.328-0.116,0.49-0.304,0.49-0.56c0-0.375-0.278-1.008-0.84-1.905c-0.558-0.896-1.355-1.718-2.395-2.463
			c-1.035-0.747-2.255-1.119-3.65-1.119c-1.746,0-2.989,0.921-3.727,2.763C357.396,220.872,356.946,222.851,356.78,224.973z"/>
		<path fill="#4C5125" d="M384.224,220.116l-4.299,1.92c-0.188-0.746-0.278-1.293-0.278-1.642c0-1.188,0.724-2.291,2.183-3.304
			c1.455-1.014,3.103-1.834,4.932-2.465c1.83-0.627,3.105-0.941,3.825-0.941c0.632,0,1.408,0.279,2.345,0.838
			c0.932,0.559,1.676,1.118,2.231,1.678c0.491,0.465,0.874,0.928,1.141,1.381c0.266,0.455,0.507,1.172,0.715,2.148
			c0.208,0.98,0.316,2.229,0.316,3.742c0,0.439-0.06,2.004-0.176,4.684l-0.142,2.623c-0.092,1.258-0.137,2.258-0.137,3.004
			c0,0.957,0.124,1.983,0.382,3.077c0.236,1.121,0.757,1.679,1.572,1.679c0.913,0,2.119-0.338,3.634-1.014v1.434l-5.136,2.062
			c-1.026,0.351-1.608,0.526-1.751,0.526c-0.531,0-1.063-0.355-1.584-1.066c-0.526-0.711-0.956-1.557-1.279-2.534
			c-4.313,2.401-7.621,3.601-9.929,3.601c-1.422,0-2.494-0.414-3.214-1.24c-0.724-0.827-1.085-2.068-1.085-3.723
			c0-1.586,0.19-2.762,0.577-3.533c0.383-0.768,1.007-1.373,1.871-1.816c1.746-0.885,3.597-1.544,5.559-1.977
			c1.954-0.428,4.009-0.797,6.153-1.1l0.17-4.3v-1.153c0-1.98-0.563-3.549-1.694-4.701c-1.128-1.154-2.449-1.73-3.968-1.73
			c-0.724,0-1.451,0.204-2.183,0.611c-0.736,0.406-1.103,0.982-1.103,1.729C383.875,218.984,383.99,219.483,384.224,220.116z
			 M392.51,236.649c-0.074-0.77,0-2.96,0.208-6.572c-3.068-0.211-5.525,0.164-7.384,1.117c-1.858,0.956-2.785,2.156-2.785,3.602
			c0,1.049,0.281,2.039,0.852,2.973c0.565,0.932,1.353,1.396,2.351,1.396C386.864,239.165,389.116,238.327,392.51,236.649z"/>
		<path fill="#4C5125" d="M424.455,240.877l-1.43-0.07c0.046-3.239-0.595-7.131-1.925-11.674c0.562-0.166,0.936-0.256,1.118-0.281
			c0.562,1.75,0.998,3.012,1.313,3.794c0.316,0.78,0.721,1.468,1.224,2.062c0.503,0.596,1.196,1.127,2.079,1.59
			c1.518,0.793,3.264,1.504,5.245,2.134c1.979,0.63,4.112,0.946,6.396,0.946c1.982,0,3.971-0.494,5.958-1.471
			c1.995-0.979,2.989-3.135,2.989-6.467c0-1.68-0.287-3.122-0.869-4.334s-1.348-2.191-2.291-2.938s-2.041-1.41-3.284-1.992
			c-1.251-0.584-2.86-1.247-4.844-1.993c-2.748-1.002-5.019-2.026-6.802-3.075c-1.783-1.05-3.197-2.343-4.244-3.881
			c-1.048-1.538-1.572-3.416-1.572-5.629c0-3.518,1.289-6.448,3.879-8.791c2.591-2.342,6.282-3.514,11.08-3.514
			c2.445,0,4.86,0.256,7.238,0.77c0.957,0.186,1.551,0.279,1.783,0.279c0.698,0,1.396-0.233,2.096-0.699l0.278-0.139
			c0.188,0,0.421,0.045,0.698,0.139c-0.065,0.537-0.133,1.066-0.19,1.59c-0.059,0.523-0.116,1.1-0.176,1.73
			c-0.058,0.631-0.1,1.119-0.119,1.469c-0.025,0.35-0.047,0.582-0.071,0.699c0.308,2.82,0.44,4.359,0.42,4.615l-1.047,0.067
			c-0.188-2.376-0.969-4.247-2.346-5.608c-1.371-1.365-2.923-2.289-4.647-2.779c-1.722-0.49-3.376-0.733-4.965-0.733
			c-3.87,0-6.427,1.009-7.675,3.022c-1.247,2.017-1.866,3.923-1.866,5.717c0,1.888,0.466,3.455,1.396,4.699
			c0.933,1.25,2.093,2.225,3.477,2.936c1.389,0.707,3.339,1.549,5.861,2.521c2.841,1.113,5.122,2.144,6.849,3.091
			c1.722,0.944,3.264,2.308,4.615,4.091c1.351,1.786,2.023,3.998,2.023,6.629c0,2.241-0.582,4.26-1.746,6.053
			c-1.164,1.799-2.914,3.221-5.242,4.271c-2.333,1.048-5.188,1.573-8.568,1.573c-3.284,0-6.697-0.479-10.235-1.432
			c-0.633-0.142-1.015-0.213-1.156-0.213C424.552,239.653,424.319,240.063,424.455,240.877z"/>
		<path fill="#4C5125" d="M454.906,198.232v-1.347c0.513-0.258,0.854-0.436,1.016-0.528l6.78-3.297l1.151-0.632l1.155,0.563
			c-0.44,2.096-0.756,4.514-0.943,7.25c-0.188,2.74-0.328,6.217-0.42,10.434l-0.212,7.096c2.752-1.188,4.979-2.063,6.698-2.621
			c1.713-0.557,3.358-0.838,4.942-0.838c2.24,0,3.87,0.682,4.894,2.045c1.026,1.363,1.663,3.027,1.908,4.998
			s0.365,4.563,0.365,7.779c0,0.627-0.004,1.212-0.017,1.748c-0.013,0.537-0.029,1.287-0.054,2.254
			c-0.021,0.966-0.051,1.854-0.089,2.658c-0.027,0.803-0.054,1.264-0.054,1.379c0,1.002,0.245,1.666,0.731,1.992
			s1.83,0.488,4.028,0.488l-0.07,1.083h-2.271c-0.346,0-1.778,0.015-4.303,0.038s-3.817,0.033-3.888,0.033
			c-0.071,0-0.582,0.119-1.534,0.352c-0.232,0-0.351-0.164-0.351-0.49c0-0.233,0.188-0.397,0.563-0.489
			c0.886-0.212,1.542-0.582,1.975-1.118c0.43-0.537,0.725-1.447,0.878-2.729c0.149-1.279,0.226-3.391,0.226-6.326
			c0-4.637-0.375-7.948-1.119-9.928c-0.748-1.98-2.448-2.971-5.105-2.971c-1.376,0-2.89,0.254-4.544,0.768
			c-1.653,0.514-2.877,0.979-3.667,1.398c0,0.65-0.05,1.748-0.146,3.286l-0.313,8.423c0,0.539-0.004,1.025-0.017,1.469
			c-0.013,0.444-0.033,0.932-0.055,1.469c0,2.26,0.153,3.718,0.453,4.371c0.12,0.395,0.398,0.668,0.84,0.82
			c0.444,0.152,1.622,0.309,3.533,0.475v1.22c-0.772-0.091-2.402-0.14-4.896-0.14c-2.582,0-5.372,0.119-8.354,0.35l0.07-1.152
			c1.493-0.303,2.476-0.601,2.956-0.892c0.476-0.291,0.803-0.845,0.979-1.659c0.17-0.813,0.295-2.339,0.364-4.578
			c0.067-3.654,0.162-6.787,0.279-9.396l0.141-9.782c0.046-1,0.071-3.224,0.071-6.673c0-3.143-0.138-5.467-0.398-6.969
			c-0.274-1.5-0.933-2.25-1.979-2.25C456.948,197.667,456.212,197.854,454.906,198.232z"/>
		<path fill="#4C5125" d="M489.934,227.629c0-2.051,0.379-3.91,1.14-5.574c0.752-1.667,1.8-3.105,3.126-4.318
			c1.326-1.212,2.877-2.145,4.648-2.798c1.771-0.651,3.671-0.978,5.7-0.978c1.838,0,3.579,0.34,5.226,1.015
			c1.644,0.674,3.081,1.606,4.315,2.794c1.234,1.189,2.208,2.594,2.919,4.214c0.711,1.619,1.063,3.361,1.063,5.226
			c0,2.424-0.573,4.697-1.729,6.816c-1.152,2.122-2.786,3.827-4.891,5.122c-2.111,1.293-4.54,1.938-7.292,1.938
			c-2.069,0-4.212-0.453-6.415-1.363c-2.203-0.909-4.054-2.372-5.555-4.387C490.687,233.321,489.934,230.752,489.934,227.629z
			 M494.511,225.708c0,2.168,0.433,4.324,1.298,6.467c0.86,2.144,2.066,3.904,3.612,5.277c1.551,1.375,3.26,2.063,5.127,2.063
			c1.63,0,3.108-0.447,4.436-1.346c1.331-0.897,2.392-2.174,3.186-3.826c0.79-1.657,1.188-3.532,1.188-5.629
			c0-2.121-0.462-4.189-1.385-6.203c-0.919-2.02-2.188-3.659-3.809-4.932c-1.621-1.268-3.408-1.904-5.367-1.904
			c-1.584,0-3.007,0.433-4.267,1.291c-1.255,0.865-2.239,2.066-2.951,3.604C494.868,222.106,494.511,223.819,494.511,225.708z"/>
		<path fill="#4C5125" d="M521.885,218.926l-0.278-0.996c1.118-0.68,1.903-1.112,2.345-1.299c0.324,0,1.348-0.491,3.063-1.473
			c1.718-0.98,2.901-1.881,3.56-2.699c0.18,0.559,0.428,2.201,0.748,4.929l3.006-1.188c3.122-1.307,5.488-1.957,7.098-1.957
			c1.751,0,3.491,0.569,5.227,1.711c1.733,1.144,3.143,2.68,4.229,4.614c1.086,1.933,1.626,4.009,1.626,6.224
			c0,2.819-0.642,5.166-1.922,7.043c-1.283,1.875-2.859,3.322-4.738,4.334c-1.871,1.016-3.681,1.72-5.418,2.117
			c-1.737,0.395-3.048,0.592-3.934,0.592c-1.441,0-3.168-0.336-5.172-1.012c0,0.418-0.021,1.731-0.07,3.943
			c-0.046,2.209-0.07,3.499-0.07,3.873v6.35c0,1.489,0.063,2.547,0.179,3.174c0.116,0.629,0.333,1.03,0.646,1.205
			c0.315,0.178,0.855,0.285,1.626,0.334l2.553,0.137c0.582,0,0.873,0.229,0.873,0.684c0,0.285-0.088,0.465-0.263,0.536
			c-0.175,0.073-0.587,0.11-1.238,0.11c-2.895,0-4.694,0.017-5.422,0.049c-0.724,0.039-3.098,0.184-7.131,0.439
			c0-0.421-0.024-0.77-0.069-1.051c1.188-0.091,1.979-0.262,2.378-0.505c0.395-0.246,0.715-0.646,0.942-1.206
			c0.374-1.025,0.62-3.081,0.736-6.168s0.17-6.307,0.17-9.66l0.075-4.369c0-3.354-0.025-6.818-0.075-10.395
			c-0.046-3.576-0.137-5.76-0.277-6.553c-0.116-0.463-0.3-0.914-0.536-1.344c-0.249-0.431-0.54-0.783-0.877-1.051
			c-0.337-0.266-0.684-0.398-1.031-0.398C524.18,218,523.326,218.309,521.885,218.926z M531.252,218.82l-0.071,17.688l3.218,1.082
			c2.445,0.818,4.149,1.225,5.105,1.225c1.14,0,2.412-0.285,3.809-0.854c1.397-0.572,2.628-1.535,3.688-2.887
			c1.061-1.351,1.593-3.111,1.593-5.279c0-2.377-0.549-4.573-1.646-6.588c-1.094-2.017-2.457-3.597-4.087-4.738
			c-1.634-1.141-3.185-1.713-4.647-1.713C537.463,216.758,535.147,217.446,531.252,218.82z"/>
	</g>
</g>
</svg>
