<?xml version="1.0" encoding="utf-8"?>
<!-- Generator: Adobe Illustrator 16.0.0, SVG Export Plug-In . SVG Version: 6.00 Build 0)  -->
<!DOCTYPE svg PUBLIC "-//W3C//DTD SVG 1.1//EN" "http://www.w3.org/Graphics/SVG/1.1/DTD/svg11.dtd">
<svg version="1.1" id="圖層_1" xmlns="http://www.w3.org/2000/svg" xmlns:xlink="http://www.w3.org/1999/xlink" x="0px" y="0px"
	 width="595.28px" height="182.857px" viewBox="0 0 595.28 182.857" enable-background="new 0 0 595.28 182.857"
	 xml:space="preserve">
<g>
	<path fill="#4B5025" d="M21.942-107.202c4.745-6.419,9.023-12.536,12.839-18.352c3.813-5.813,7.861-13.164,12.142-22.049
		c4.278-8.883,7.278-15.701,9.001-20.445c1.721-4.745,3.465-10.14,5.234-16.188l11.304,7.955c1.302,0.931,1.906,1.489,1.814,1.674
		l-1.814,0.559l-4.326,1.395c-3.444,7.815-5.583,12.469-6.419,13.956l-6.56,11.862l7.536,5.582l-3.908,3.07v66.569l0.978,17.863
		c-2.792,1.117-6.28,2.373-10.467,3.768l1.256-19.956v-69.081c-4.375,6.235-8.188,11.422-11.444,15.561
		c-3.258,4.141-8.468,9.978-15.63,17.514L21.942-107.202z M125.912-144.743v-20.096l-0.838-18.561l13.538,5.443
		c1.208,0.558,1.791,1,1.745,1.325c-0.048,0.327-0.489,0.768-1.326,1.326l-3.908,2.512v28.05h8.233l7.676-8.513l10.466,9.77
		c0.464,0.558,0.628,1.07,0.488,1.535c-0.14,0.466-0.628,0.697-1.465,0.697h-25.399v73.546c0,4.836-0.118,8.094-0.349,9.768
		c-0.233,1.677-1.186,3.699-2.861,6.072c-1.674,2.371-5.491,3.884-11.443,4.535c-1.025-2.791-2.582-5.372-4.675-7.746
		c-2.093-2.372-6.862-4.396-14.305-6.069l0.418-1.954c10.233,1.301,16.42,1.976,18.561,2.023c2.139,0.045,3.581-0.303,4.326-1.047
		c0.744-0.746,1.117-3.443,1.117-8.095v-71.034H90.046c-5.676,0-10.142,0.698-13.397,2.093l-6.699-5.862l13.676,0.279H125.912z
		 M79.719-126.879c8.186,5.676,14.235,10.909,18.142,15.7c3.908,4.793,5.792,8.491,5.652,11.095
		c-0.14,2.605-0.977,4.769-2.512,6.489c-1.535,1.723-3,2.491-4.396,2.303c-0.652,0-1.28-0.231-1.885-0.698
		c-0.606-0.464-1.164-2.024-1.674-4.675c-0.513-2.651-1.164-5.512-1.954-8.583c-0.792-3.07-2.281-6.186-4.466-9.35
		c-2.188-3.162-4.908-6.79-8.164-10.885L79.719-126.879z"/>
	<path fill="#4B5025" d="M187.736-83.616c-1.675,2.048-3.886,4.814-6.629,8.303c-2.745,3.489-7.606,9.466-14.584,17.934
		l-1.395-1.396c4.745-8.467,8.165-14.744,10.257-18.839c2.093-4.093,3.978-9.21,5.652-15.351l9.629,5.861
		c1.208,0.931,1.767,1.535,1.675,1.814c-0.094,0.279-0.652,0.558-1.675,0.837L187.736-83.616z M166.244-106.364l13.956,0.419h42.844
		l5.722-6.838l9.35,7.815c1.116,1.025,1.626,1.675,1.535,1.955c-0.094,0.279-0.698,0.418-1.814,0.418h-30.982v38.238
		c0,1.954-0.327,4.442-0.977,7.467c-0.652,3.021-5.351,6.07-14.095,9.142c-0.188-1.304-0.397-2.631-0.628-3.979
		c-0.233-1.35-0.815-2.885-1.745-4.605c-0.931-1.722-4.28-3.373-10.048-4.954l0.837-2.093c8.931,1.675,14.165,2.417,15.701,2.233
		c1.535-0.188,2.302-1.257,2.302-3.211v-38.238h-11.165c-5.397,0-10.142,0.977-14.235,2.931L166.244-106.364z M168.059-163.164
		l13.257,0.418h17.166v-11.165l-0.698-11.583l13.258,4.326c0.837,0.373,1.231,0.768,1.187,1.187
		c-0.049,0.418-0.443,0.861-1.187,1.325l-4.188,2.792v13.118h14.515l6.001-7.536l9.908,8.932c0.837,0.837,1.232,1.374,1.187,1.604
		c-0.048,0.233-0.955,0.349-2.722,0.349h-28.889v17.724h8.653l5.862-7.676l8.373,7.676c1.396,1.396,1.954,2.303,1.675,2.721
		c-0.279,0.419-1.025,0.628-2.233,0.628h-36.145c-5.491,0-10.142,0.746-13.956,2.233l-6.001-6.141l13.119,0.558h12.281v-17.724
		h-11.025c-5.77,0-10.375,0.698-13.816,2.093L168.059-163.164z M175.315-124.506l11.723,0.418h26.236l5.722-6.978l8.932,7.675
		c1.116,0.932,1.627,1.629,1.535,2.093c-0.093,0.467-0.977,0.698-2.651,0.698h-33.215c-4.466,0-8.467,0.838-12.002,2.512
		L175.315-124.506z M262.957-124.088c-1.304,11.443-2.327,19.726-3.07,24.841c-0.746,5.118-2.466,10.91-5.164,17.375
		c-2.7,6.467-8.118,12.979-16.258,19.537c-8.143,6.559-18.261,12.024-30.354,16.398l-1.257-1.813
		c10.419-4.84,19.375-10.795,26.865-17.864c7.488-7.072,12.281-13.652,14.375-19.748c2.093-6.092,3.559-12.001,4.396-17.724
		s1.441-11.001,1.814-15.84l0.559-10.746l0.418-7.815l13.397,5.164c0.744,0.373,1.092,0.698,1.046,0.977
		c-0.048,0.279-0.257,0.558-0.627,0.837l-3.769,3.07c0.279,3.443,0.604,6.559,0.978,9.35c0.37,2.791,1.301,7.002,2.791,12.63
		c1.487,5.63,4.138,13.143,7.955,22.539c3.814,9.398,13.024,17.815,27.631,25.261l-0.837,1.813
		c-1.769-0.467-3.769-0.768-6.001-0.906c-2.233-0.14-5.257,1.187-9.071,3.978c-5.024-5.771-8.561-10.258-10.606-13.468
		c-2.048-3.21-4.095-7.117-6.14-11.723c-2.048-4.605-3.653-9.302-4.815-14.096C266.049-96.85,264.631-107.526,262.957-124.088z
		 M214.251-93.525c7.628,4.839,12.512,8.513,14.653,11.025c2.14,2.512,3.21,4.699,3.21,6.56c-0.094,0.931-0.652,2.466-1.675,4.605
		c-1.025,2.139-2.421,3.116-4.186,2.931c-0.467,0-0.862-0.118-1.187-0.349c-0.327-0.234-0.582-0.628-0.768-1.186
		c-0.187-0.558-0.558-2.164-1.117-4.815c-0.558-2.652-1.559-5.255-3-7.815c-1.443-2.558-3.792-5.698-7.048-9.42L214.251-93.525z
		 M260.166-174.747c-1.21,3.164-2.77,7.257-4.675,12.281c-1.908,5.024-3.653,9.259-5.233,12.7h33.773l5.442-7.676l12.561,9.629
		c0.743,0.652,1.137,1.14,1.186,1.465c0.046,0.327-0.349,0.628-1.186,0.907l-3.769,0.418c-2.699,0.374-5.094,1.676-7.187,3.908
		c-2.093,2.233-5.746,6.699-10.956,13.398l-2.233-1.117c2.883-5.488,5.489-11.349,7.815-17.584h-36.983
		c-4.838,8.374-10.142,16.562-15.909,24.562l-1.814-1.256c3.629-6.699,6.699-13.07,9.211-19.119
		c2.512-6.047,4.906-13.164,7.188-21.353c2.278-8.186,3.559-13.676,3.837-16.468l0.419-4.465l12.42,4.884
		c1.396,0.559,2.116,1.025,2.164,1.396c0.046,0.373-0.676,0.886-2.164,1.535L260.166-174.747z"/>
	<path fill="#4B5025" d="M341.388-151.581h41.028c-0.559-5.953-0.955-11.444-1.184-16.467c-0.234-5.024-0.351-7.955-0.351-8.792
		l-0.698-5.862l11.724,3.768c1.208,0.467,1.835,0.861,1.885,1.187c0.045,0.327-0.49,1-1.606,2.023l-2.512,2.233
		c-0.094,3.164-0.118,6.234-0.069,9.21c0.047,2.979,0.162,5.351,0.349,7.118l0.418,5.443h33.354l8.094-8.792l9.629,9.629
		c0.652,0.746,0.932,1.35,0.838,1.814c-0.093,0.466-0.93,0.698-2.512,0.698h-49.403c0.187,5.676,0.44,10.537,0.77,14.583
		c0.323,4.047,0.882,8.188,1.675,12.421c0.787,4.234,1.882,8.816,3.277,13.746c1.396,4.933,2.559,8.328,3.489,10.188l2.512,5.443
		c4.56-9.023,7.863-17.793,9.909-26.307c2.046-8.513,3.21-14.35,3.489-17.514l0.278-3.21l12.84,5.024
		c0.65,0.373,1.022,0.722,1.116,1.046c0.093,0.328-0.372,0.768-1.396,1.327l-3.349,1.954c-3.071,9.49-6.069,17.887-9,25.19
		c-2.931,7.305-6.259,14.074-9.98,20.306c5.023,7.35,10.188,12.931,15.492,16.747c5.303,3.814,8.372,5.418,9.21,4.814
		c0.838-0.605,2.21-4.165,4.118-10.675c1.904-6.511,3-10.419,3.278-11.723l1.257-5.024l1.953,0.14
		c-0.837,6.049-1.396,10.606-1.675,13.677c-0.278,3.07-0.373,5.674-0.278,7.815c0,2.139,0.139,4.068,0.418,5.791
		c0.279,1.721,0.884,3.327,1.814,4.815l2.513,4.605c0.465,1.301,0.438,2.372-0.069,3.209c-0.514,0.839-1.839,1.117-3.979,0.839
		c-4-0.28-9.419-2.466-16.258-6.56c-6.838-4.096-14.306-11.444-22.4-22.05c-6.884,6.511-13.629,11.745-20.234,15.7
		c-6.605,3.953-14.561,7.837-23.865,11.653l-0.977-1.535c12.002-6.607,20.865-12.375,26.587-17.305
		c5.723-4.93,10.396-9.955,14.024-15.072c-3.907-7.907-6.722-15.048-8.442-21.422c-1.724-6.371-2.93-12.303-3.629-17.794
		c-0.696-5.488-1.187-10.233-1.466-14.235l-0.837-10.606h-43.262c-0.373,9.12-0.652,17.632-0.838,25.539h22.886l4.327-6.28
		l9.629,6.559c0.837,0.652,1.21,1.165,1.116,1.535l-1.396,1.117l-4.186,3.488c-0.187,5.118-0.326,8.98-0.42,11.583l-0.837,15.351
		c-0.372,5.862-0.676,10.257-0.905,13.188c-0.234,2.931-0.887,5.186-1.954,6.769c-1.071,1.581-2.861,3.302-5.375,5.163
		c-2.512,1.86-5.441,3.07-8.791,3.629c-0.559-3.164-1.653-5.7-3.277-7.606c-1.63-1.908-5.608-3.419-11.934-4.536l0.698-2.093
		c10.698,1.396,16.627,2.047,17.793,1.954c1.163-0.092,2.208-0.604,3.139-1.536c0.93-0.929,1.675-3.883,2.233-8.862
		c0.558-4.976,0.93-11.326,1.116-19.049l0.419-17.166h-24.282c-0.279,3.257-0.537,7.466-0.768,12.63
		c-0.233,5.163-0.606,10.675-1.116,16.537c-0.514,5.861-2.746,12.561-6.698,20.096c-3.956,7.536-9.933,14.235-17.934,20.096
		l-1.117-1.115c4.837-5.304,8.514-10.188,11.025-14.654c2.513-4.465,4.467-9.675,5.862-15.63c1.396-5.953,2.185-11.675,2.372-17.166
		c0.185-5.489,0.37-13.907,0.559-25.26c0.185-11.35,0.185-18.282,0-20.793l-0.837-13.538L341.388-151.581z M399.861-175.724
		l0.697-1.116c6.047,1.396,10.817,2.699,14.307,3.907c3.488,1.21,5.65,2.676,6.487,4.396c0.838,1.723,1.21,3.188,1.116,4.396
		c-0.092,1.21-0.536,2.7-1.324,4.466c-0.792,1.769-1.838,2.651-3.141,2.651c-0.559,0.094-1.023,0.024-1.396-0.209
		c-0.373-0.231-0.955-1.347-1.743-3.349c-0.792-1.999-3.002-4.836-6.631-8.513C404.606-172.769,401.814-174.978,399.861-175.724z"/>
	<path fill="#4B5025" d="M509.692-166.234l10.467,9.629c0.559,0.652,0.77,1.14,0.629,1.465c-0.139,0.327-0.489,0.488-1.048,0.488
		h-26.236v56.241c8.28-2.324,17.025-4.836,26.236-7.536l0.419,1.674c-29.587,12.281-45.401,18.91-47.449,19.887
		c-2.047,0.977-4.885,2.676-8.514,5.094l-7.955-9.909c10.142-1.954,19.538-4.139,28.191-6.559l-0.141-58.893h-10.188
		c-5.21,0-9.583,0.652-13.118,1.954l-6-5.861l12.141,0.418h36.006L509.692-166.234z M524.625-140.137
		c-4.466,0.467-8.513,1.583-12.142,3.35l-7.256-5.303l31.399-1.953c0.092-2.233,0.187-4,0.278-5.304l0.42-12.7
		c0.278-6.605,0.418-10,0.418-10.188l-0.279-10.327l14.097,5.443c0.93,0.373,1.416,0.746,1.466,1.117
		c0.047,0.373-0.49,0.931-1.606,1.674l-3.629,2.373l-2.232,27.074l24.981-1.675l5.441-7.536l9.63,7.955
		c0.559,0.558,0.859,0.955,0.908,1.187c0.047,0.234-0.396,0.722-1.327,1.466l-3.907,3.07c-1.21,25.866-2.187,43.193-2.931,51.985
		c-0.745,8.792-1.324,14.422-1.743,16.886c-0.419,2.464-1.234,5.139-2.443,8.024c-1.21,2.883-3.837,5.349-7.885,7.396
		c-4.047,2.044-7.281,3.301-9.699,3.768c-0.28-1.769-0.627-3.42-1.046-4.954c-0.419-1.535-1.281-2.84-2.583-3.907
		c-1.303-1.071-6.792-3.747-16.469-8.024l0.839-1.536c10.326,2.045,17.143,3.21,20.445,3.489c3.301,0.279,5.769-0.188,7.396-1.396
		c1.626-1.21,3.07-8.116,4.327-20.724c1.256-12.606,2.115-27.236,2.58-43.891l0.278-10.327l-27.213,1.675
		c-0.279,4.186-0.838,12.141-1.675,23.864c-0.838,11.723-4.627,23.633-11.372,35.727c-6.748,12.093-24.4,23.257-52.963,33.494
		l-0.698-1.954c6.419-2.978,12.839-6.258,19.259-9.838c6.42-3.583,12.561-8.443,18.422-14.584c5.861-6.14,9.907-11.629,12.14-16.467
		c2.235-4.836,4.026-11.304,5.375-19.398c1.347-8.094,2.209-16.049,2.582-23.864l0.277-6.28L524.625-140.137z"/>
</g>
<rect x="681.429" y="151.429" fill="none" width="595.28" height="115.714"/>
<text transform="matrix(1 0 0 1 681.4287 224.7295)" font-family="'DATS4'" font-size="90">付款成功</text>
<g>
	<path fill="#4B5025" d="M59.077,33.917c0.601-3.008,2.105-4.255,4.514-3.74l19.215,4.385c1.89,0.258,3.438,0.86,4.643,1.805
		c0.858,1.979-0.474,3.482-3.998,4.514c-0.345,0.087-1.247,1.505-2.708,4.256c-4.127,8.253-7.867,14.788-11.22,19.602
		c-1.29,1.892-0.56,3.14,2.192,3.74c2.406,0.947,3.611,1.592,3.611,1.935c-0.086,0.516-0.474,1.118-1.161,1.805
		c-0.947,0.774-1.418,2.15-1.418,4.127v70.155c0,2.578-1.29,4.039-3.869,4.385l-11.606,1.16c-3.011,0.258-4.514-0.902-4.514-3.482
		V89.5c0-2.063-1.205-1.89-3.611,0.516l-6.319,6.319c-2.579,2.321-4.213,3.397-4.9,3.224c-0.86-0.343-0.516-1.89,1.032-4.643
		c7.909-15.56,13.109-29.016,15.604-40.365C56.282,47.674,57.788,40.797,59.077,33.917z M120.333,35.465
		c0-2.664,1.29-3.911,3.869-3.74l19.215,1.548c2.234,0.344,3.611,1.032,4.126,2.063c0.171,1.119-0.689,2.279-2.579,3.482
		c-1.634,1.032-2.45,2.537-2.45,4.514v15.733c0,2.666,0.816,2.924,2.45,0.774c0.687-1.375,1.548-2.793,2.579-4.256
		c1.806-2.837,3.782-3.095,5.933-0.774l4.643,5.159c2.579,2.837,3.524,4.858,2.837,6.061c-0.86,1.29-2.579,1.935-5.158,1.935
		h-10.059c-2.15,0-3.224,1.032-3.224,3.095v68.349c-0.086,3.696-2.021,6.92-5.803,9.672c-4.987,2.322-9.974,3.482-14.959,3.482
		c-2.579,0.084-4.084-1.16-4.514-3.74c-0.344-3.01-1.205-6.018-2.579-9.027c-2.063-3.095-5.332-5.503-9.801-7.222
		c-2.837-1.118-4.214-2.063-4.127-2.837c0.084-0.516,1.418-0.774,3.998-0.774h12.38c2.148,0,3.224-1.032,3.224-3.095v-54.68
		c0-2.148-1.032-3.224-3.095-3.224h-34.69c-2.579,0-4.084-0.472-4.514-1.419c-0.689-1.374,0.129-2.063,2.451-2.063h36.625
		c2.148,0,3.224-1.032,3.224-3.095V35.465z M81.387,76.604c0.516-0.858,2.019-0.816,4.514,0.129
		c8.596,3.353,15.002,7.051,19.215,11.091c3.353,4.558,4.814,9.114,4.385,13.67c-0.689,5.332-3.611,8.985-8.77,10.961
		c-2.924,1.032-5.503,0.516-7.738-1.547c-2.837-2.579-4.3-6.017-4.384-10.317c-0.258-7.222-1.85-13.239-4.772-18.055
		C81.688,79.527,80.872,77.551,81.387,76.604z"/>
	<path fill="#4B5025" d="M219.246,90.273c2.321-2.75,4.728-3.137,7.222-1.161l5.287,4.256c2.837,2.321,3.911,4.042,3.224,5.158
		c-1.032,1.376-2.837,2.063-5.417,2.063h-14.959c-2.15,0-3.224,1.032-3.224,3.095v35.721c0.858,4.729-0.99,8.254-5.545,10.577
		c-3.353,1.031-7.051,1.547-11.091,1.547c-2.579,0-3.998-1.289-4.255-3.869c-0.516-3.182-1.677-6.19-3.482-9.028
		c-2.753-2.579-4.084-4.171-3.998-4.771c0.084-0.432,1.547-0.645,4.385-0.645c2.921,0,4.385-1.032,4.385-3.095v-7.866
		c0-2.75-0.731-3.009-2.192-0.774c-3.698,6.792-8.727,13.238-15.088,19.345c-2.579,2.492-4.084,3.695-4.514,3.61
		c-0.689-0.259-0.645-1.677,0.129-4.256c2.75-10.059,4.514-19.902,5.288-29.532c0.342-2.58,1.805-3.567,4.384-2.966
		c2.837,0.516,5.803,1.161,8.898,1.935c2.063,0.431,3.095-0.387,3.095-2.451v-3.353c0-2.148-1.032-3.224-3.095-3.224h-11.478
		c-2.579,0-4.171-0.601-4.771-1.806c-0.431-1.203,0.645-1.805,3.224-1.805h34.69C212.583,98.011,215.549,95.776,219.246,90.273z
		 M191.262,34.305c0-2.58,1.245-3.782,3.74-3.611c4.728,0.174,9.457,0.474,14.186,0.903c1.719,0,3.266,0.387,4.643,1.161
		c1.116,1.205,0.516,2.45-1.806,3.74c-0.86,0.432-1.29,1.677-1.29,3.74v3.482c0,2.15,0.601,3.224,1.806,3.224
		c1.203,0,2.966-1.29,5.287-3.869c0.601-0.858,1.332-1.719,2.192-2.579c2.321-2.493,4.771-2.664,7.351-0.516l3.611,2.837
		c2.321,1.892,3.611,1.634,3.869-0.774l0.645-6.19c0.429-3.353,1.977-4.771,4.643-4.256l17.023,2.579
		c1.89,0,3.266,0.732,4.127,2.192c0.084,1.032-0.689,1.892-2.321,2.58c-1.548,0.431-2.58,1.892-3.095,4.384
		c-1.118,3.44-2.408,6.879-3.869,10.317c-1.032,2.753-0.516,4.127,1.547,4.127h13.025c2.063,0,4.169-1.074,6.319-3.224
		c2.234-2.234,4.643-2.493,7.222-0.774l11.606,7.996c1.032,0.774,1.719,1.677,2.063,2.708c0.258,2.236-1.032,3.095-3.869,2.579
		c-1.721,0-3.784,1.205-6.19,3.611l-11.993,12.896c-2.408,2.579-3.869,3.74-4.385,3.482c-0.516-0.342-0.603-1.848-0.258-4.514
		l2.45-18.054c0.171-2.063-0.774-3.095-2.837-3.095h-14.572c-2.063,0-3.397,0.474-3.998,1.418c-0.689,1.376-0.086,2.15,1.806,2.321
		c3.869,0.258,7.867,0.645,11.993,1.161c2.75,0.689,4.256,1.205,4.514,1.547c0.258,1.376-0.474,2.408-2.192,3.095
		c-1.29,0.947-1.979,2.708-2.063,5.288c-0.087,4.126-0.345,8.382-0.774,12.767c-0.087,1.29,0.342,3.01,1.29,5.158
		c5.158,12.467,13.97,22.871,26.437,31.208c2.75,1.892,4.126,3.14,4.126,3.74c0,0.774-1.161,2.406-3.482,4.9
		c-2.752,3.695-4.643,8.426-5.674,14.186c-0.344,2.838-1.676,3.396-3.998,1.678c-12.554-10.06-19.731-21.106-21.537-33.144
		c-0.689-2.58-1.592-2.364-2.708,0.645c-2.752,7.222-7.566,14.099-14.443,20.634c-6.535,5.674-13.412,9.801-20.634,12.381
		c-3.182,1.115-4.858,1.332-5.03,0.645c-0.173-0.516,1.032-1.85,3.611-3.998c7.822-6.278,13.412-13.542,16.765-21.795
		c3.695-10.833,5.716-26.824,6.061-47.973c0-2.235-1.032-1.977-3.095,0.773c-2.15,2.58-4.643,5.288-7.48,8.125
		c-2.837,2.063-4.385,2.924-4.643,2.579c-0.431-0.773-0.345-2.276,0.258-4.513l2.966-12.638c0.342-2.063-0.516-3.095-2.579-3.095
		h-47.845c-2.579,0-4.171-0.6-4.771-1.805c-0.431-1.203,0.645-1.806,3.224-1.806h9.801c2.148,0,3.224-1.032,3.224-3.095v-7.996
		c0-2.148-1.032-3.224-3.095-3.224h-11.091c-2.579,0-4.127-0.601-4.643-1.806c-0.431-1.203,0.645-1.806,3.224-1.806h12.38
		c2.148,0,3.224-1.031,3.224-3.095V34.305z M209.703,73.379c2.493-2.837,4.943-3.266,7.351-1.29l6.19,4.9
		c2.234,1.979,2.921,3.569,2.063,4.771c-0.774,1.205-2.45,1.806-5.03,1.806h-36.367c-2.579,0-4.127-0.601-4.643-1.806
		c-0.516-1.203,0.516-1.805,3.095-1.805h18.699C203.211,81.162,206.092,78.969,209.703,73.379z M233.174,53.906
		c0.429-2.234-0.387-3.353-2.45-3.353h-16.765c-2.15,0-3.224,1.031-3.224,3.095v7.996c0,2.063,0.258,3.14,0.774,3.224
		c0.516,0,1.848-1.203,3.998-3.611l2.192-2.579c2.063-2.235,4.514-2.235,7.351,0l2.58,2.063c2.492,2.063,4.04,1.806,4.643-0.773
		L233.174,53.906z M213.056,109.618c0.601-0.601,2.105-0.516,4.514,0.258c3.095,1.032,6.061,2.279,8.898,3.74
		c7.306,4.643,9.327,10.317,6.061,17.023c-2.237,3.868-4.987,6.017-8.253,6.448c-2.495-0.087-4.127-2.537-4.901-7.351
		c-0.516-4.814-2.021-9.972-4.513-15.475C213.228,111.596,212.625,110.049,213.056,109.618z"/>
	<path fill="#4B5025" d="M366.777,34.046c-0.087-2.75,1.074-4.04,3.482-3.869l19.086,1.29c1.461-0.171,2.276,0.516,2.45,2.063
		c0.258,0.86-0.517,1.721-2.321,2.579c-1.119,0.689-1.677,2.021-1.677,3.998c-0.087,3.353-0.044,6.706,0.129,10.059
		c0.258,2.321,1.29,3.482,3.095,3.482h5.417c2.063,0,3.524-0.471,4.385-1.418c1.031-1.203,0.987-2.966-0.129-5.288
		c-0.517-1.203-0.731-2.406-0.646-3.611c-0.258-1.719-0.989-3.438-2.192-5.158c-2.924-3.008-4.213-4.856-3.868-5.545
		c0.516-0.774,2.063-1.116,4.643-1.032c3.61,0,6.919,0.345,9.93,1.032c7.393,1.979,10.488,6.019,9.286,12.123
		c-0.604,2.063,0.258,4.084,2.579,6.061c2.233,1.892,3.008,3.397,2.321,4.514c-0.861,1.205-2.538,1.805-5.029,1.805h-26.051
		c-2.15,0-3.225,1.29-3.225,3.869c0.516,8.511,1.203,17.022,2.063,25.534c0.43,2.237,1.245,1.979,2.45-0.774
		c2.579-5.417,4.985-10.875,7.222-16.378c1.116-2.493,3.051-2.837,5.804-1.032l16.379,10.833c2.146,1.806,2.579,3.14,1.289,3.998
		c-0.69,0.345-1.722,0.645-3.095,0.902c-1.465,0-3.095,1.29-4.9,3.869c-5.075,7.824-10.104,15.004-15.09,21.536
		c-1.721,2.237-1.85,4.558-0.387,6.964c2.321,3.44,5.029,6.75,8.125,9.93c2.147,2.15,3.739,2.15,4.771,0l6.448-13.412
		c1.373-2.75,2.363-4.04,2.967-3.869c0.856,0.258,0.902,1.677,0.129,4.256c-0.69,3.01-1.207,6.019-1.548,9.027
		c-0.861,5.589-0.346,10.704,1.548,15.346c1.976,2.492,2.45,5.372,1.418,8.641c-4.729,6.533-10.49,8.08-17.281,4.643
		c-8.169-3.354-15.304-9.459-21.407-18.313c-1.548-2.321-3.526-2.492-5.933-0.516c-10.146,7.651-20.807,13.626-31.981,17.927
		c-2.58,0.943-4.043,1.203-4.385,0.773c-0.432-0.689,0.558-2.021,2.966-3.998c12.98-10.663,22.395-20.29,28.242-28.888
		c1.374-1.89,1.632-4.211,0.774-6.964c-3.44-12.38-5.804-29.188-7.094-50.424c-0.086-2.321-1.076-3.482-2.966-3.482h-30.692
		c-2.15,0-3.225,1.032-3.225,3.095v13.928c0,2.15,1.032,3.224,3.096,3.224h5.674c2.063,0.947,4.814-0.687,8.254-4.901
		c2.406-2.234,4.984-2.406,7.737-0.516c2.579,1.634,5.159,3.397,7.737,5.288c5.417,2.495,6.018,5.029,1.807,7.608
		c-1.205,0.603-1.807,1.935-1.807,3.998c-0.086,17.367-1.676,30.435-4.771,39.204c-1.205,2.15-2.063,3.482-2.578,3.998
		c-3.27,2.148-7.695,3.309-13.283,3.482c-2.666,0-3.998-1.634-3.998-4.9c0.258-5.759-1.85-9.93-6.319-12.509
		c-2.063-0.687-3.095-1.503-3.095-2.45c0-1.116,1.289-1.677,3.869-1.677h5.287c2.063,0,3.309-1.29,3.74-3.869
		c1.031-7.479,1.547-16.163,1.547-26.05c0-2.147-1.031-3.224-3.096-3.224h-6.576c-2.15,0-3.225,1.032-3.225,3.095v13.928
		c-0.431,14.617-5.332,28.372-14.701,41.267c-1.721,2.493-4.471,5.546-8.254,9.157c-2.924,2.58-4.729,3.611-5.416,3.096
		c-0.516-0.516-0.215-2.15,0.902-4.9c4.47-11.178,6.749-25.922,6.836-44.234V48.361c0-2.579,1.289-3.353,3.868-2.321
		c4.728,1.892,9.456,3.913,14.187,6.061c2.405,1.376,4.684,1.892,6.834,1.547h28.888c2.063,0,3.095-1.032,3.095-3.095
		L366.777,34.046z"/>
	<path fill="#4B5025" d="M474.073,41.139c2.404-3.008,4.9-3.438,7.479-1.29l6.319,5.159c3.095,2.579,4.256,4.471,3.481,5.674
		c-0.859,1.205-2.496,1.805-4.9,1.805h-11.22c-2.148,0-3.224,1.032-3.224,3.095v45.91c0,2.063,1.29,2.966,3.869,2.708
		c3.61-0.601,7.222-1.074,10.832-1.418c2.921-0.429,4.385-0.213,4.385,0.645c0,1.119-1.289,2.537-3.868,4.256l-37.399,22.955
		c-1.722,0.773-2.754,1.934-3.095,3.481c-0.773,1.29-1.723,2.105-2.837,2.451c-0.773,0.084-1.893-1.419-3.354-4.514l-5.416-17.796
		c-0.773-2.58,0.129-4.083,2.708-4.514l10.06-1.548c2.063-0.342,3.095-1.547,3.095-3.611V55.712c0-2.148-1.031-3.224-3.095-3.224
		h-5.675c-2.579,0-4.214-0.6-4.9-1.805c-0.433-1.203,0.645-1.806,3.224-1.806h24.374c2.063,0,4.127-1.29,6.19-3.869
		C471.964,43.719,472.955,42.429,474.073,41.139z M499.35,34.046c0.083-2.75,1.332-4.04,3.74-3.869
		c6.361,0.345,12.721,0.818,19.086,1.418c1.978-0.084,3.138,0.689,3.481,2.321c0.258,0.86-0.645,1.763-2.708,2.708
		c-1.289,0.689-1.935,2.063-1.935,4.126l-0.773,18.958c0,2.063,1.031,3.095,3.095,3.095h2.837c2.235,1.119,5.159-1.032,8.77-6.448
		c2.235-2.493,4.643-2.837,7.222-1.032c4.727,3.182,9.457,6.492,14.186,9.93c2.146,1.806,1.935,3.482-0.645,5.03
		c-1.375,0.947-2.063,2.708-2.063,5.287c-0.344,26.481-1.722,46.986-4.126,61.515c-0.176,3.266-1.852,6.705-5.03,10.317
		c-4.471,3.096-10.491,4.814-18.054,5.158c-3.096,0-4.771-1.289-5.03-3.869c-0.516-3.526-1.547-6.535-3.095-9.028
		c-1.806-2.836-4.771-4.6-8.898-5.287c-2.837-0.431-4.256-1.289-4.256-2.579c0-1.548,1.29-2.321,3.869-2.321h15.476
		c2.063,0,3.267-1.29,3.61-3.869c1.806-16.591,2.752-35.206,2.838-55.84c0-2.148-1.032-3.224-3.096-3.224h-4.9
		c-2.063,0-3.224,1.29-3.481,3.869c-1.118,14.875-4.256,28.2-9.415,39.978c-7.308,17.11-20.59,30.648-39.849,40.624
		c-2.754,1.373-4.431,1.762-5.029,1.16c-0.516-0.773,0.387-2.449,2.708-5.029c12.123-14.186,20.33-27.511,24.632-39.979
		c2.92-8.94,4.854-21.45,5.803-37.527c0-2.063-1.031-3.095-3.095-3.095h-9.801c-2.579,0-4.173-0.6-4.771-1.805
		c-0.433-1.29,0.645-1.935,3.224-1.935h11.606c2.063,0,3.179-1.032,3.354-3.095C499.175,51.198,499.35,42.645,499.35,34.046z"/>
</g>
</svg>
