<?xml version="1.0" encoding="utf-8"?>
<!-- Generator: Adobe Illustrator 16.0.0, SVG Export Plug-In . SVG Version: 6.00 Build 0)  -->
<!DOCTYPE svg PUBLIC "-//W3C//DTD SVG 1.1//EN" "http://www.w3.org/Graphics/SVG/1.1/DTD/svg11.dtd">
<svg version="1.1" id="圖層_1" xmlns="http://www.w3.org/2000/svg" xmlns:xlink="http://www.w3.org/1999/xlink" x="0px" y="0px"
	 width="276px" height="888px" viewBox="0 0 276 888" enable-background="new 0 0 276 888" xml:space="preserve">
<path fill="#4C5125" d="M157.732,38.64c0.822,0,1.834,0.192,3.041,0.575c1.259,0.604,1.891,1.315,1.891,2.137v0.082
	c1.368-0.165,2.63-0.411,3.779-0.74c2.19-0.273,4.219-0.931,6.082-1.973c1.26-0.657,2.138-0.986,2.631-0.986
	c0.602,0,1.834,0.356,3.697,1.068c2.138,1.096,3.205,1.946,3.205,2.548c0,0.603-0.138,1.096-0.41,1.479
	c-2.465,3.124-3.944,5.535-4.438,7.233c-0.656,1.808-1.15,3.507-1.479,5.095c0.271,0.056,0.52,0.138,0.738,0.247
	c1.096,0.658,1.646,1.097,1.646,1.315c0,0.22-0.14,0.329-0.411,0.329c-2.688,0-5.316,0.302-7.891,0.904
	c-2.301,0.549-3.698,0.822-4.191,0.822c-0.385,0-0.739-0.054-1.068-0.164l0.411,3.78c-0.056,1.699-0.385,2.548-0.985,2.548
	c-0.385,0-0.713-0.355-0.986-1.068c-0.221-0.602-0.328-1.095-0.328-1.479c-0.658-2.137-1.207-5.917-1.645-11.342
	c-0.439-3.232-1.016-5.78-1.727-7.643c-0.492-1.644-1.124-2.903-1.891-3.781C157.402,38.968,157.512,38.64,157.732,38.64z
	 M164.391,56.639c0.875-0.054,2.055-0.247,3.533-0.575c1.809-0.273,3.287-0.629,4.438-1.068c0.219-0.165,0.438-0.247,0.658-0.247
	c0.985-5.589,1.479-9.643,1.479-12.164c0-0.438-0.221-0.657-0.658-0.657c-0.713,0-2.109,0.192-4.191,0.575
	c-2.412,0.493-4.521,0.74-6.328,0.74c-0.163,0-0.328,0-0.492,0L164.391,56.639z M183.704,60.995c0.821,0,1.505,0.329,2.055,0.986
	c0.821,0.384,1.232,1.042,1.232,1.972c0,1.097-0.111,2.028-0.329,2.794c-0.713,2.521-1.645,5.809-2.794,9.863
	c4.218-1.151,8.547-2.109,12.985-2.877c1.644-0.273,3.396-0.684,5.26-1.232c0.658-0.219,1.203-0.329,1.644-0.329
	c1.205,0,2.821,0.302,4.851,0.904c1.149,0.493,1.726,1.068,1.726,1.726c0,0.657-0.769,0.986-2.302,0.986l-9.861-0.329
	c-2.084,0-4.027,0.22-5.836,0.658c-3.451,0.329-6.139,0.85-8.055,1.562c-0.274,0.055-0.521,0.138-0.739,0.247
	c-0.056,0.164-0.11,0.329-0.164,0.493l-2.138,0.822l-0.492,0.247c-0.604,0-1.207-0.22-1.809-0.658
	c-0.713-0.329-1.068-0.684-1.068-1.068c2.137-1.862,3.506-3.67,4.109-5.424c0.931-1.644,1.396-4.438,1.396-8.383
	c-0.439-0.766-0.657-1.397-0.657-1.89C182.718,61.352,183.046,60.995,183.704,60.995z M185.676,24.175
	c0.822,0,1.836,0.192,3.041,0.575c0.547,0.275,0.986,0.575,1.315,0.904c8.491-0.986,15.065-2.164,19.725-3.534
	c0.272-0.165,0.575-0.247,0.904-0.247c0.493,0,1.562,0.329,3.205,0.986c2.466,1.15,3.698,2.028,3.698,2.63
	c0,0.329-0.192,0.686-0.576,1.068c-1.205,1.097-2.027,2.466-2.465,4.109c-1.535,4.494-3.369,8.904-5.506,13.232
	c-0.222,0.22-0.551,0.329-0.986,0.329c-0.329,0-0.633-0.273-0.904-0.822c-0.221-0.383-0.329-0.74-0.329-1.069
	c-2.63,0.11-5.206,0.384-7.726,0.822c-2.85,0.493-4.576,0.74-5.178,0.74c-0.221,0-0.439-0.027-0.658-0.083
	c-0.055,0.658-0.163,1.151-0.328,1.479c0.328,0.11,0.822,0.357,1.479,0.74c0.986,0.603,1.479,1.343,1.479,2.219
	c0,0.275-0.11,0.467-0.329,0.576c-0.821,0.548-1.754,1.425-2.794,2.63c-0.222,0.22-0.438,0.439-0.657,0.657
	c0.657,0.056,1.368,0.083,2.137,0.083c0.547,0,1.178-0.083,1.892-0.247c3.725-0.658,8.983-1.342,15.778-2.055
	c1.26-0.109,2.767-0.411,4.521-0.904c0.164-0.109,0.329-0.164,0.493-0.164c0.547,0,1.999,0.657,4.354,1.972
	c2.574,1.535,3.863,2.521,3.863,2.959c0,0.274-0.111,0.604-0.329,0.986c-1.864,3.014-2.958,5.534-3.286,7.561
	c-0.222,11.123-0.604,17.752-1.15,19.889c-0.551,2.246-1.782,4.218-3.698,5.917c-2.248,2.082-3.81,3.123-4.687,3.123
	c-1.041,0-1.726-0.329-2.055-0.986c-1.59-2.686-3.369-5.507-5.342-8.465l-0.822-1.068c0-0.22,0.108-0.329,0.329-0.329
	c4.382,1.534,7.122,2.301,8.22,2.301c0.875,0,1.614-0.548,2.219-1.644c1.26-1.864,2.22-5.753,2.877-11.67
	c0.107-2.903,0.164-6.109,0.164-9.616c0-2.903-0.164-4.821-0.494-5.753c-0.82-1.205-1.973-1.808-3.45-1.808
	c-1.864,0-3.728,0.055-5.589,0.164c-3.288,0.275-6.082,0.521-8.385,0.74c0.055,0,0.108,0,0.166,0c0.271,0,0.875,0.275,1.808,0.822
	c0.985,0.657,1.479,1.37,1.479,2.137c0,0.384-0.11,0.657-0.328,0.822c-0.604,0.439-1.233,1.068-1.892,1.89
	c1.479,0.439,2.931,0.959,4.354,1.562c2.027,0.932,3.343,1.808,3.945,2.63c0.547,0.713,0.822,1.479,0.822,2.301
	c0,0.657-0.111,1.343-0.329,2.055c-0.274,0.603-0.604,0.904-0.985,0.904c-0.33,0-0.549-0.109-0.657-0.329
	c-0.769-0.438-1.919-1.424-3.452-2.959c-2.248-2.52-3.754-4.054-4.521-4.603c-0.109-0.109-0.191-0.191-0.246-0.247
	c-2.082,2.576-4.056,4.631-5.918,6.164c-0.985,0.768-2.246,1.508-3.779,2.219c-0.439,0.329-0.822,0.493-1.15,0.493h-0.328
	c1.86-1.753,3.588-3.643,5.178-5.671c2.08-2.575,3.561-4.931,4.438-7.068c0.438-0.493,0.657-1.424,0.657-2.794
	c0-0.109,0.108-0.191,0.329-0.247c-1.426,0.164-2.659,0.329-3.699,0.493c-0.385,0.055-0.713,0.082-0.984,0.082
	c-1.152,0-2.303-0.219-3.453-0.658c-0.057,0-0.11,0-0.164,0c-1.314,1.261-2.604,2.301-3.862,3.123
	c-0.933,0.658-2.138,1.261-3.616,1.808c-0.385,0.275-0.738,0.411-1.068,0.411h-0.328c1.752-1.424,3.369-3.013,4.85-4.767
	c1.916-2.137,3.313-4.054,4.191-5.753c0.328-0.493,0.492-1.287,0.492-2.383v-0.082c-0.111-0.165-0.221-0.355-0.328-0.576
	c-0.222-0.657-0.328-1.205-0.328-1.644c-0.715-1.698-1.315-4.685-1.81-8.958c-0.438-2.575-1.042-4.603-1.81-6.082
	c-0.491-1.369-1.149-2.384-1.971-3.041C185.348,24.503,185.456,24.175,185.676,24.175z M193.154,42.584
	c1.26-0.109,2.959-0.355,5.097-0.739c2.466-0.329,4.464-0.767,5.999-1.314c0.438-0.164,0.822-0.246,1.15-0.246
	c0.767,0,1.424,0.082,1.974,0.246c0.164-0.329,0.328-0.766,0.492-1.315c0.602-2.026,1.204-4.903,1.809-8.629
	c0.218-1.424,0.329-2.794,0.329-4.109c0-0.876-0.658-1.315-1.973-1.315c-0.77,0-2.055,0.138-3.863,0.411
	c-4.385,0.493-8.876,1.124-13.479,1.891l0.985,6.164c2.574-0.383,4.933-0.849,7.068-1.397c0.493-0.109,0.848-0.164,1.067-0.164
	c3.287,0,4.932,0.439,4.932,1.315c0,0.22-0.164,0.384-0.493,0.493c-2.083,0.384-4.026,0.686-5.835,0.904
	c-1.479,0.165-2.439,0.247-2.877,0.247c-1.37,0-2.576-0.054-3.615-0.165L193.154,42.584z"/>
<path fill="#4C5125" d="M173.348,114.804c1.041,0,2.355,0.575,3.945,1.726c1.752,0.986,2.63,1.946,2.63,2.877
	c0,0.548-0.192,0.986-0.575,1.315c-0.877,1.042-1.479,2.411-1.808,4.109c-1.646,6.028-3.151,11.288-4.521,15.78
	c1.149-0.219,2.326-0.438,3.533-0.658c2.902-0.766,4.686-1.15,5.342-1.15h0.576c0.053-0.493,0.082-1.041,0.082-1.644
	c0-1.205-0.55-2.52-1.645-3.945c0-0.657,0.547-0.986,1.645-0.986c0.985,0,1.891,0.384,2.713,1.151
	c1.696,1.315,2.547,2.356,2.547,3.123c0,0.493-0.11,0.932-0.328,1.315c-0.934,1.096-1.508,2.11-1.727,3.041
	c-1.645,7.343-3.287,12.739-4.932,16.191c-0.385,0.822-0.822,1.644-1.314,2.465c1.809,1.425,3.313,2.794,4.521,4.109
	c2.302,2.63,3.452,4.685,3.452,6.164c0,1.699-0.551,2.548-1.645,2.548c-0.77,0-1.314-0.547-1.645-1.644
	c-2.192-3.232-4.355-6.109-6.492-8.63c-1.262,1.864-2.741,3.589-4.438,5.178c-3.016,2.74-6.111,4.713-9.287,5.917
	c-1.809,0.547-3.287,0.822-4.438,0.822c-0.44,0-0.658-0.083-0.658-0.247c2.41-1.315,4.63-2.656,6.657-4.027
	c4.604-3.452,7.916-6.684,9.945-9.698c0.053-0.054,0.136-0.109,0.246-0.165c-2.248-2.355-4.467-4.41-6.658-6.164
	c-0.656-0.493-0.985-1.041-0.985-1.644c0-0.329,0.108-0.711,0.329-1.15c0.766-2.137,1.45-4.739,2.055-7.808
	c-4.273,1.151-8.027,2.412-11.26,3.781c-0.329,0.11-0.656,0.165-0.986,0.165c-0.769,0-2.109-0.52-4.027-1.562
	c-1.262-0.712-1.889-1.287-1.889-1.726c0-0.658,0.217-0.986,0.656-0.986c0.271,0,0.711,0.11,1.314,0.329
	c0.711,0,2.795-0.191,6.246-0.575c3.451-0.329,6.904-0.822,10.355-1.479c0.547-2.959,1.094-6.273,1.645-9.945
	c0.547-4.054,0.82-7.588,0.82-10.602c0-1.041-0.357-2.164-1.068-3.37c-0.385-0.822-0.574-1.369-0.574-1.644
	C171.704,115.023,172.251,114.804,173.348,114.804z M182.389,139.953c-2.63,0.768-5.535,1.562-8.711,2.383
	c-0.439,0.056-0.852,0.138-1.232,0.247c-0.986,3.069-1.864,5.753-2.631,8.054c-0.274,0.493-0.41,0.822-0.41,0.986
	c0,0.877,0.3,1.453,0.904,1.726c2.519,1.535,4.767,2.987,6.738,4.356c1.314-2.355,2.465-5.067,3.451-8.136
	C181.538,146.445,182.168,143.24,182.389,139.953z M189.128,122.693c0.329,0,0.793,0.11,1.397,0.329
	c0.492,0.22,1.012,0.329,1.562,0.329c1.974,0,4.218-0.273,6.739-0.822c2.848-0.547,5.342-1.233,7.479-2.055
	c1.697-0.767,3.288-1.616,4.769-2.548c0.218-0.273,0.354-0.411,0.409-0.411c0.713,0,2.164,0.604,4.356,1.808
	c2.354,1.479,3.534,2.603,3.534,3.37c0,0.986-0.411,1.672-1.232,2.055c-1.92,0.877-4.002,2.247-6.246,4.109
	c-1.92,1.59-4.191,3.754-6.821,6.493c0.163,0.11,0.3,0.22,0.411,0.329c0.93,0.932,1.752,2.028,2.466,3.288
	c0.601,1.096,1.094,2.192,1.479,3.287c3.506-0.657,6.957-1.342,10.355-2.055c1.423-0.273,2.602-0.411,3.533-0.411
	c1.479,0,3.041,0.247,4.686,0.74c1.479,0.493,2.219,1.124,2.219,1.89c0,1.315-0.438,1.972-1.314,1.972
	c-6.575,0-12.795,0.247-18.656,0.74c0.055,0.275,0.107,0.549,0.164,0.822c0.712,2.85,1.068,5.617,1.068,8.301
	c0,9.534-1.016,16.329-3.041,20.382c-1.645,3.781-3.369,5.671-5.178,5.671c-0.879,0-1.535-0.439-1.973-1.315
	c-1.699-2.794-4.221-5.562-7.563-8.301c0-0.383,0.108-0.576,0.33-0.576c0.164,0,0.82,0.467,1.972,1.397
	c1.698,1.041,3.452,1.562,5.261,1.562c2.409,0,4.027-1.89,4.85-5.671c1.149-5.15,1.726-9.534,1.726-13.15
	c0-3.288-0.302-6.246-0.903-8.876c-0.658,0.056-1.289,0.11-1.891,0.165c-3.344,0.274-7.016,0.74-11.014,1.397
	c-1.262,0.275-2.137,0.411-2.631,0.411c-1.041,0-2.328-0.219-3.861-0.657c-1.371-0.383-2.055-0.685-2.055-0.904
	c0-0.219,0.246-0.329,0.738-0.329c6.904-0.876,12.986-1.698,18.246-2.466c0.602-0.054,1.204-0.136,1.809-0.247
	c-0.55-1.752-1.18-3.013-1.891-3.78c-0.934-1.315-2.63-2.657-5.096-4.027c-0.439-0.493-0.657-0.849-0.657-1.068
	c0-0.438,0.108-0.658,0.328-0.658h2.302c0.93,0.329,1.752,0.713,2.465,1.151c1.809-3.123,3.836-6.958,6.082-11.506
	c0.219-0.438,0.329-0.822,0.329-1.151c0.054-0.383-0.164-0.575-0.657-0.575c-0.878,0-2.029,0.192-3.451,0.575
	c-2.521,0.658-5.398,1.726-8.631,3.206c-1.59,0.713-2.711,1.068-3.369,1.068c-0.877,0-2.11-0.383-3.699-1.151
	c-1.041-0.657-1.562-1.15-1.562-1.479C188.799,122.913,188.907,122.693,189.128,122.693z"/>
<path fill="#4C5125" d="M187.154,227.13c0.986,0,2.191,0.63,3.617,1.89c0.875,0.603,1.314,1.397,1.314,2.383
	c0,0.274-0.139,0.521-0.411,0.74c-0.493,0.438-1.042,1.068-1.644,1.89c-0.057,0.11-0.111,0.219-0.164,0.329
	c0.328,0.055,0.684,0.137,1.068,0.247c1.367,0.493,2.793,1.315,4.272,2.465c4.163,3.178,8.106,5.753,11.835,7.726
	c4.219,2.247,10.957,4.685,20.219,7.315v0.329c0,0.383-0.468,0.63-1.398,0.74c-4.602,0.876-8.739,1.315-12.409,1.315
	c-1.644,0-2.712-0.192-3.205-0.575c-3.728-2.575-8.521-6.904-14.383-12.986c-1.042-1.041-2.438-2.219-4.191-3.534
	c-1.042-0.768-1.973-1.37-2.794-1.809c-2.688,3.507-5.617,6.767-8.795,9.78c-3.891,3.507-7.891,6.438-11.999,8.794
	c-3.563,2.082-6.985,3.588-10.272,4.52c-1.207,0.438-2.056,0.658-2.549,0.658v-0.329c6.026-3.561,11.342-7.068,15.944-10.52
	c3.067-2.52,6.026-5.178,8.876-7.972c2.52-2.575,4.41-5.123,5.672-7.644c0.492-1.041,0.739-1.835,0.739-2.383
	c-0.438-0.932-0.657-1.835-0.657-2.712C185.841,227.349,186.277,227.13,187.154,227.13z M175.32,212.747
	c2.025,0,3.23,0.219,3.615,0.657c1.096,0.384,1.645,0.904,1.645,1.562c0,1.534,0.219,3.863,0.658,6.986
	c0-0.055,0.025-0.083,0.082-0.083c2.63-0.438,4.244-0.657,4.849-0.657h2.302c0,0.329-0.221,0.548-0.656,0.657
	c-1.92,0.548-4.058,1.096-6.412,1.644c0.219,1.534,0.494,3.287,0.822,5.26c0,1.15-0.221,1.726-0.658,1.726
	c-1.149,0-1.808-0.576-1.971-1.726c-0.386-1.644-0.797-3.178-1.234-4.603c-4.766,1.041-8.903,2.192-12.409,3.452
	c-0.274,0.109-0.55,0.164-0.822,0.164c-0.769,0-2.11-0.548-4.026-1.644c-1.262-0.658-1.891-1.206-1.891-1.644
	c0-0.603,0.219-0.904,0.657-0.904c0.272,0,0.711,0.082,1.315,0.247c0.602,0,2.49-0.11,5.67-0.329
	c3.561-0.274,7.232-0.658,11.014-1.151c-1.206-3.726-2.439-6.246-3.698-7.561c-0.329-0.384-0.493-0.658-0.493-0.822
	C173.678,213.158,174.225,212.747,175.32,212.747z M174.334,263.292c0.219,0,0.438,0.247,0.658,0.74
	c0.656,1.206,0.984,2.164,0.984,2.876c0,2.027-0.549,4.136-1.644,6.329c-0.604,1.533-1.453,2.712-2.548,3.534
	c-0.657,0.658-1.344,0.986-2.055,0.986c-0.494,0-0.879-0.303-1.15-0.904c-0.109-0.549-0.164-1.125-0.164-1.726
	c0-0.713,0.164-1.479,0.493-2.301c2.685-4.219,4.163-6.958,4.438-8.219C173.514,263.73,173.841,263.292,174.334,263.292z
	 M200.634,252.772c0.603,0,1.562,0.11,2.878,0.329c1.588,0.493,2.383,0.959,2.383,1.397c0,0.274-0.11,0.521-0.328,0.74
	c-0.33,0.274-0.77,0.438-1.315,0.493c-4.329,0.931-8.794,1.753-13.396,2.465c0,6.191,0.189,12.272,0.574,18.246
	c0,1.808-0.273,3.206-0.82,4.191c-0.986,2.026-2.028,3.041-3.123,3.041c-0.822,0-1.344-0.357-1.563-1.068
	c-1.645-3.015-3.863-5.946-6.656-8.794v-0.329c4.053,1.808,6.684,2.712,7.89,2.712c0.438,0,0.739-1.015,0.903-3.041
	c0.272-2.63,0.412-7.095,0.412-13.396c0-0.438,0-0.849,0-1.232c-2.688,0.329-4.768,0.493-6.246,0.493
	c-3.674,0-6.082-0.329-7.232-0.986c-0.878-0.493-1.314-0.822-1.314-0.986c0-0.219,0.217-0.329,0.656-0.329
	c5.697-0.273,10.383-0.657,14.055-1.15c-0.057-1.315-0.139-2.712-0.246-4.191c-0.11-1.753-0.521-3.644-1.232-5.671
	c-0.275-0.493-0.411-0.959-0.411-1.397c0-0.493,0.437-0.74,1.315-0.74c0.82,0,1.808,0.466,2.957,1.397
	c1.096,0.603,1.645,1.342,1.645,2.219c0,0.712-0.164,1.37-0.492,1.972c-0.714,1.808-1.098,3.835-1.15,6.082
	c3.23-0.658,5.972-1.342,8.219-2.055C199.592,252.909,200.141,252.772,200.634,252.772z M202.277,207.733
	c1.095,0,2.22,0.384,3.369,1.151c1.041,0.603,1.563,1.315,1.563,2.137c0,0.383-0.221,1.096-0.656,2.137
	c-0.986,1.918-1.756,3.397-2.303,4.438c-0.328,0.658-0.631,1.343-0.902,2.055c2.465-0.493,4.627-1.013,6.491-1.562
	c1.04-0.329,2.026-0.493,2.959-0.493c1.259,0,2.656,0.247,4.19,0.74c1.81,0.822,2.713,1.562,2.713,2.219
	c0,0.165-0.164,0.384-0.493,0.658c-0.328,0.219-0.713,0.329-1.149,0.329c-5.261,0-9.646,0.109-13.149,0.329
	c-0.878,0.055-1.837,0.137-2.877,0.247c-1.371,2.63-3.015,5.315-4.931,8.054c-0.604,0.384-1.181,0.576-1.728,0.576V230.5
	c1.315-2.685,2.438-5.342,3.37-7.972c-0.551,0.055-1.151,0.164-1.809,0.329c-0.164,0.055-0.357,0.082-0.576,0.082
	c-0.492,0-1.289-0.219-2.383-0.657c-0.822-0.384-1.232-0.63-1.232-0.74c0-0.219,0.218-0.329,0.656-0.329
	c2.082-0.384,3.752-0.658,5.015-0.822c0.383-0.055,0.767-0.109,1.149-0.164c0.383-1.26,0.74-2.466,1.068-3.616
	c0.658-2.356,0.986-4.219,0.986-5.589c0-0.274-0.328-1.014-0.986-2.219C200.634,208.09,201.182,207.733,202.277,207.733z
	 M199.318,263.95c0.438,0,1.123,0.137,2.056,0.411c1.696,0.822,3.423,1.753,5.178,2.794c2.245,1.534,3.698,2.931,4.354,4.191
	c0.603,1.205,0.904,2.466,0.904,3.781c0,0.657-0.138,1.341-0.41,2.055c-0.221,0.602-0.521,0.904-0.903,0.904
	c-0.329,0-0.55-0.111-0.658-0.329c-0.878-0.657-2.192-2.083-3.944-4.273c-2.521-3.781-4.248-6.055-5.178-6.822
	c-1.15-1.096-1.727-1.89-1.727-2.383C198.99,264.059,199.1,263.95,199.318,263.95z"/>
<g>
	<path fill="#4C5125" d="M192.539,300.663v84.159h-2.548v-84.159H192.539z"/>
	<path fill="#4C5125" d="M192.539,383.392v84.159h-2.548v-84.159H192.539z"/>
</g>
<path fill="#4C5125" d="M97.142,74.722c1.206,0,2.493,0.22,3.863,0.658c1.15,0.329,1.726,0.768,1.726,1.315
	c0,1.15-0.329,1.726-0.986,1.726c-3.396,0-6.657,0.083-9.78,0.247c0.603,0.549,0.904,0.877,0.904,0.986
	c0,0.493-0.164,0.986-0.493,1.479c-0.329,0.713-0.493,1.425-0.493,2.137c0,17.698,0.109,34.93,0.329,51.696
	c0,2.081-0.22,3.37-0.658,3.863c-0.383,0.875-0.821,1.315-1.314,1.315c-0.438,0-0.877-0.632-1.315-1.891
	c-0.438-1.261-0.657-3.041-0.657-5.342c0-0.713,0.082-2.083,0.247-4.109c0.273-3.013,0.41-5.041,0.41-6.082
	c0.055-2.904,0.11-5.89,0.165-8.959c-2.575,1.37-6.164,3.123-10.767,5.26c-2.904,1.48-6.356,3.288-10.355,5.425
	c-0.548,0.384-1.014,0.576-1.397,0.576c-0.768,0-2.027-0.466-3.78-1.397c-1.425-0.876-2.138-1.506-2.138-1.89
	c0-0.384,0.329-0.575,0.986-0.575c1.37-0.11,2.686-0.411,3.945-0.905c2.302-0.658,5.15-1.534,8.548-2.63l0.493-22.273
	c0-3.561-0.302-6.875-0.904-9.944c-0.109-1.424-0.904-2.794-2.384-4.109c-0.273,0.055-0.521,0.11-0.739,0.164
	c-1.206,0.384-2,0.575-2.384,0.575c-0.877,0-1.973-0.218-3.287-0.657c-1.096-0.273-1.644-0.52-1.644-0.74
	c0-0.218,0.109-0.329,0.328-0.329c6.301-0.767,11.808-1.562,16.52-2.384c4.657-0.766,9.287-1.698,13.89-2.794
	C95.225,74.859,96.266,74.722,97.142,74.722z M89.088,112.199c0.109-8.492,0.164-17.697,0.164-27.615
	c0-1.917-0.302-3.287-0.904-4.109c-0.273-0.602-0.466-1.123-0.575-1.562c-2.521,0.22-4.986,0.493-7.396,0.822
	c-1.37,0.164-2.822,0.384-4.356,0.657c0.384,0.11,0.74,0.247,1.068,0.411c1.534,0.932,2.302,1.754,2.302,2.465
	c0,0.275-0.137,0.604-0.411,0.986c-0.603,1.315-1.041,3.727-1.315,7.232l-0.082,1.315c2.63-0.822,4.247-1.342,4.85-1.562
	c0.164-0.054,0.355-0.082,0.575-0.082c2.63,0,3.944,0.329,3.944,0.986c0,0.329,0.11,0.575,0.329,0.74
	c-1.862,0.493-4.273,0.986-7.232,1.479c-0.219,0.056-0.438,0.083-0.657,0.083c-0.438,0-1.041-0.083-1.809-0.247l-0.328,9.205
	c2.849-0.876,4.575-1.424,5.178-1.644c0.164-0.054,0.355-0.082,0.575-0.082c2.63,0,3.944,0.329,3.944,0.986
	c0,0.329,0.11,0.575,0.329,0.74c-1.862,0.493-4.273,0.986-7.232,1.479c-0.219,0.056-0.438,0.083-0.657,0.083
	c-0.493,0-1.205-0.083-2.137-0.247l-0.411,11.917c2.959-0.986,6.246-2.164,9.862-3.534C87.69,112.72,88.485,112.419,89.088,112.199z
	 M117.853,84.255c0.658,0,1.645,0.275,2.959,0.822c1.534,0.932,2.302,1.754,2.302,2.466c0,0.274-0.138,0.657-0.411,1.15
	c-1.589,2.137-2.904,5.206-3.945,9.205c-1.096,3.836-2.164,7.124-3.205,9.862c-0.603,1.206-1.343,2.521-2.219,3.945
	c5.26,4.658,13.561,9.096,24.902,13.315c0,0.712-0.466,1.15-1.397,1.315c-6.136,1.15-9.726,1.726-10.767,1.726
	c-2.246,0-3.753-0.521-4.52-1.562c-3.233-3.506-6.603-7.506-10.109-12c-0.109,0.055-0.164,0.11-0.164,0.164
	c-1.754,2.247-3.616,4.138-5.589,5.671c-2.137,1.645-4.164,2.877-6.082,3.699c-1.808,0.658-3.397,0.986-4.767,0.986
	c-0.438,0-0.657-0.083-0.657-0.247c0-0.11,0.355-0.301,1.068-0.575c0.986-0.658,2.137-1.397,3.451-2.219
	c2.082-1.534,4.082-3.288,6-5.261c1.534-1.752,2.904-3.616,4.109-5.588c-1.809-2.301-3.616-4.712-5.425-7.233
	c-2.027-2.903-4.328-5.178-6.903-6.821c-0.219-0.054-0.329-0.493-0.329-1.315c0-0.219,0.329-0.329,0.986-0.329
	c1.151,0,2.302,0.357,3.452,1.069c1.425,1.206,2.794,2.822,4.109,4.849c1.37,2.411,3.205,4.849,5.507,7.314
	c1.041-1.808,1.862-3.588,2.465-5.342c0.877-2.52,1.809-6.328,2.795-11.424c0.273-1.479,0.411-2.712,0.411-3.699
	c0,0.22-0.11,0.329-0.329,0.329c-3.726,0.822-7.041,1.699-9.944,2.63c-1.589,0.439-2.768,0.657-3.534,0.657
	c-1.096,0-2.219-0.191-3.37-0.575c-1.041-0.329-1.562-0.575-1.562-0.74c0-0.602,0.22-0.904,0.658-0.904
	c3.232,0,6.41-0.465,9.533-1.397c2.959-0.657,5.973-1.834,9.041-3.534C116.922,84.393,117.415,84.255,117.853,84.255z"/>
<path fill="#4C5125" d="M64.103,196.055c0.768,0,1.671,0.138,2.712,0.411c2.466,0.713,4.329,1.59,5.589,2.63
	c1.041,0.878,1.562,2.166,1.562,3.863c0,0.549-0.164,1.068-0.493,1.562c-0.438,0.549-0.821,0.822-1.15,0.822
	c-0.712,0-1.397-0.354-2.055-1.068c-1.534-1.04-3.616-3.396-6.246-7.068c-0.384-0.329-0.575-0.602-0.575-0.822
	C63.555,196.166,63.774,196.055,64.103,196.055z M78.896,206.575c0.219,0.056,0.329,0.165,0.329,0.329
	c0,0.658-0.274,1.673-0.822,3.041c-3.452,8.712-5.589,14.247-6.411,16.603c-0.438,1.37-0.794,2.821-1.068,4.356
	c-0.603,2.41-1.342,3.616-2.219,3.616c-0.767,0-1.698-0.822-2.794-2.465c-1.206-2.137-1.809-3.616-1.809-4.438
	c0-0.438,0.22-0.74,0.657-0.904c1.645-1.15,2.877-2.274,3.699-3.37c1.753-2.356,5.123-7.945,10.108-16.768H78.896L78.896,206.575z
	 M71.335,178.96c0.822,0,1.754,0.138,2.795,0.411c2.52,0.713,4.465,1.59,5.835,2.63c1.041,0.822,1.562,2.11,1.562,3.863
	c0,0.549-0.164,1.068-0.493,1.562c-0.384,0.549-0.739,0.822-1.068,0.822c-0.768,0-1.534-0.355-2.302-1.068
	c-1.533-1.04-3.671-3.396-6.41-7.068c-0.384-0.329-0.575-0.601-0.575-0.822C70.787,179.071,71.007,178.96,71.335,178.96z
	 M112.758,187.589c0.438,0,1.808,0.357,4.109,1.069c2.082,0.986,3.123,1.836,3.123,2.548c0,0.385-0.356,0.85-1.068,1.397
	c-1.534,1.207-2.438,2.465-2.713,3.781c-1.26,5.042-2.273,8.329-3.041,9.862c3.179-0.493,5.891-1.013,8.137-1.562
	c0.493-0.054,0.822-0.082,0.986-0.082c1.534,0,3.37,0.385,5.507,1.15c1.808,0.933,2.712,1.89,2.712,2.876
	c0,0.604-0.548,0.904-1.644,0.904c-1.479,0-4.027-0.083-7.644-0.247c-2.301-0.218-4.246-0.329-5.835-0.329
	c-6.411,0-11.726,0.221-15.944,0.658c0,0.056,0,0.111,0,0.165c0.164,0.056,0.328,0.138,0.493,0.247
	c1.424,0.713,2.821,1.89,4.191,3.534c4.055,4.438,7.944,8.056,11.671,10.85c4.054,3.233,10.602,6.71,19.643,10.438v0.657
	c0,0.273-0.438,0.464-1.315,0.575c-4.328,0.766-8.164,1.151-11.506,1.151c-1.644,0-2.685-0.247-3.123-0.74
	c-3.836-3.563-8.63-9.588-14.383-18.083c-1.15-1.423-2.603-3.067-4.356-4.931c-0.603-0.602-1.178-1.177-1.726-1.726
	c-0.109,0.714-0.246,1.371-0.411,1.973c-0.876,3.123-1.973,6.11-3.287,8.959c-1.206,2.466-2.795,4.74-4.767,6.822
	c-2.411,2.519-5.836,4.685-10.273,6.493c-1.37,0.329-2.384,0.493-3.041,0.493c-0.438,0-0.658-0.111-0.658-0.329
	c4.329-2.794,7.397-5.014,9.205-6.657c2.082-1.753,3.918-3.973,5.507-6.657c2.137-3.288,3.671-6.767,4.603-10.439
	c0.219-0.766,0.438-1.533,0.657-2.301l-0.082-0.082c-2.521,0.329-5.014,0.795-7.479,1.397c-0.712,0.275-1.451,0.411-2.219,0.411
	c-1.314,0-2.739-0.191-4.273-0.576c-1.315-0.382-1.973-0.628-1.973-0.74c0-0.437,0.219-0.657,0.657-0.657
	c2.63,0,7.863-0.464,15.698-1.397c0.438-1.861,0.712-3.834,0.821-5.917c0.274-2.466,0.438-5.425,0.493-8.876
	c-4.164,0.986-6.876,1.479-8.136,1.479c-0.822,0-1.754-0.108-2.795-0.329c-1.205-0.165-1.808-0.411-1.808-0.74
	c0-0.437,0.603-0.74,1.808-0.904c4.219-0.165,7.479-0.493,9.78-0.986c0.384-0.053,0.795-0.136,1.233-0.247c0-1.423,0-2.93,0-4.52
	c0-2.738-0.165-6.053-0.493-9.945c-0.11-2.19-0.521-3.78-1.233-4.767c-0.384-0.766-0.575-1.397-0.575-1.891
	c0-0.711,0.438-1.068,1.315-1.068c1.534,0,2.794,0.329,3.78,0.986c1.425,0.493,2.137,1.261,2.137,2.301
	c0,0.878-0.164,1.535-0.493,1.973c-0.603,1.15-0.877,2.63-0.821,4.438c-0.11,3.727-0.302,7.644-0.576,11.753
	c2.247-0.711,4.959-1.615,8.137-2.712C110.84,187.892,111.936,187.589,112.758,187.589z M101.251,193.014
	c-0.164,2.357-0.355,4.796-0.575,7.315c-0.273,2.741-0.603,5.342-0.986,7.808c0.165-0.053,0.302-0.082,0.411-0.082
	c3.726-0.493,7.096-0.958,10.109-1.397c-0.055-0.931-0.082-1.506-0.082-1.726c0-0.658,0.328-2.712,0.985-6.164
	c0.658-3.56,0.986-5.671,0.986-6.329c0-1.095-0.548-1.644-1.644-1.644C106.949,191.728,103.881,192.467,101.251,193.014z"/>
<path fill="#4C5125" d="M93.69,283.445c3.068,0.055,4.603,0.74,4.603,2.055c0,0.604-1.014,0.959-3.041,1.068
	c-3.671,0.22-7.863,0.877-12.575,1.973c-0.438,0.11-0.877,0.22-1.314,0.329c0.712,0.22,1.507,0.686,2.383,1.397
	c0.932,0.658,1.397,1.479,1.397,2.466c0,0.384-0.137,0.795-0.411,1.233c-1.096,1.754-1.862,3.041-2.301,3.863
	c1.589,0.164,3.917,0.302,6.985,0.411c0.877,0,1.809,0.631,2.795,1.891c0.767,0.822,1.15,1.507,1.15,2.055
	c0,0.493-0.164,0.904-0.493,1.233c-0.768,1.096-1.232,2.055-1.397,2.876c-1.425,6.137-2.63,10.767-3.616,13.89
	c-0.986,2.575-2.137,4.546-3.451,5.917c-1.261,1.204-2.438,1.808-3.534,1.808c-0.932,0-1.479-0.221-1.644-0.658
	c-0.165-1.479-0.411-2.521-0.74-3.123c-0.493-1.315-1.425-2.657-2.794-4.027c-0.274-0.438-0.411-0.822-0.411-1.151
	c0-0.219,0.109-0.329,0.328-0.329c3.068,1.37,5.15,2.055,6.247,2.055c0.548,0,0.958-0.301,1.232-0.904
	c0.603-0.329,1.205-1.205,1.808-2.63c1.151-2.027,2.027-4.301,2.631-6.822c0.603-2.355,0.903-4.604,0.903-6.739
	c0-0.547-0.137-1.095-0.41-1.644c-0.329-0.329-0.74-0.575-1.233-0.74c-2.027-0.547-3.726-1.095-5.096-1.644
	c-2.027,4.822-4.301,8.904-6.821,12.246c-3.178,4.439-6.849,7.726-11.013,9.863c-1.973,1.041-3.315,1.562-4.027,1.562H59.5
	c4.657-3.671,8.521-7.479,11.589-11.425c2.63-3.123,4.931-7.068,6.903-11.835c1.261-3.013,1.891-5.78,1.891-8.301l-0.329-2.219
	c0-0.054,0-0.109,0-0.164c-3.123,0.822-6.794,1.946-11.013,3.37c-0.768,0.274-1.261,0.411-1.479,0.411
	c-0.438,0-1.671-0.329-3.698-0.986c-2.137-0.712-3.206-1.397-3.206-2.055c0-0.383,0.22-0.576,0.658-0.576
	c2.903-0.109,5.835-0.411,8.794-0.904c4.767-0.767,12.054-2.384,21.861-4.849C92.348,283.527,93.087,283.445,93.69,283.445z
	 M80.869,268.405c1.534,0,3.451,0.466,5.753,1.396c2.246,0.877,3.726,1.754,4.438,2.63c0.658,0.877,0.986,1.946,0.986,3.206
	c0,1.479-0.657,2.219-1.972,2.219c-1.425,0-3.343-1.287-5.754-3.863c-2.739-2.849-4.109-4.629-4.109-5.342
	C80.211,268.487,80.431,268.405,80.869,268.405z M110.128,264.789c0.821,0,1.808,0.384,2.958,1.15
	c1.37,0.768,2.055,1.672,2.055,2.712c0,0.493-0.191,0.932-0.575,1.315c-0.438,0.493-0.712,1.042-0.821,1.644
	c-0.548,2.083-1.069,4-1.562,5.753c0.109,0.11,0.219,0.192,0.328,0.247c1.041,0.713,2.109,1.782,3.205,3.206
	c3.068,4.055,5.973,7.37,8.712,9.944c3.068,2.905,8.055,6.055,14.958,9.452v0.329c0,0.329-0.41,0.521-1.233,0.576
	c-4,0.713-7.534,1.068-10.603,1.068c-1.096,0-1.835-0.191-2.219-0.576c-2.575-3.232-5.835-8.684-9.78-16.355
	c-0.767-1.315-1.726-2.794-2.877-4.438c-0.383-0.493-0.739-0.931-1.068-1.315c-1.26,4.219-2.41,7.589-3.451,10.109
	c-1.973,4.494-4.109,8.165-6.411,11.013c-2.082,2.521-4.438,4.356-7.067,5.506V305.8c2.63-3.396,4.246-5.534,4.849-6.411
	c1.918-2.959,3.616-6.191,5.096-9.698c1.753-4.218,3.287-9.259,4.603-15.122c0.383-1.588,0.575-3.232,0.575-4.932
	c0-1.04-0.247-1.917-0.74-2.63c-0.383-0.657-0.575-1.095-0.575-1.315C108.483,265.091,109.031,264.789,110.128,264.789z
	 M104.621,317.061c0.438,0,1.15,0.109,2.137,0.329c1.918,0.712,3.835,1.534,5.753,2.466c2.466,1.424,4.082,2.712,4.85,3.863
	c0.657,1.094,0.986,2.245,0.986,3.452c0,0.766-0.165,1.533-0.494,2.301c-0.273,0.657-0.657,0.986-1.15,0.986
	c-0.438,0-0.767-0.111-0.986-0.329c-0.931-0.657-2.301-2.028-4.109-4.109c-2.794-3.507-4.657-5.671-5.588-6.493
	c-1.206-0.986-1.809-1.698-1.809-2.137C104.21,317.17,104.347,317.061,104.621,317.061z M106.511,302.924
	c0.822,0,1.754,0.137,2.795,0.411c2.521,0.713,4.466,1.535,5.835,2.466c1.041,0.932,1.562,2.247,1.562,3.945
	c0,0.549-0.191,1.097-0.575,1.644c-0.438,0.439-0.904,0.658-1.397,0.658c-0.712,0-1.424-0.301-2.137-0.904
	c-1.479-1.151-3.534-3.506-6.164-7.068c-0.383-0.383-0.575-0.657-0.575-0.822C105.963,303.034,106.183,302.924,106.511,302.924z"/>
<path fill="#4C5125" d="M65.911,376.589c0.821,0,1.835,0.192,3.041,0.575c1.26,0.604,1.89,1.315,1.89,2.137v0.083
	c1.37-0.165,2.63-0.411,3.781-0.74c2.191-0.273,4.219-0.931,6.081-1.973c1.261-0.657,2.137-0.986,2.631-0.986
	c0.603,0,1.835,0.357,3.698,1.068c2.137,1.097,3.205,1.946,3.205,2.548c0,0.604-0.137,1.097-0.411,1.479
	c-2.466,3.123-3.945,5.535-4.438,7.232c-0.658,1.808-1.151,3.507-1.479,5.096c0.273,0.056,0.521,0.138,0.739,0.247
	c1.096,0.658,1.644,1.097,1.644,1.315c0,0.22-0.137,0.329-0.411,0.329c-2.685,0-5.314,0.302-7.89,0.904
	c-2.301,0.548-3.698,0.822-4.191,0.822c-0.384,0-0.739-0.054-1.068-0.164l0.411,3.78c-0.055,1.699-0.384,2.548-0.986,2.548
	c-0.384,0-0.713-0.355-0.986-1.068c-0.22-0.602-0.329-1.095-0.329-1.479c-0.657-2.137-1.205-5.917-1.644-11.342
	c-0.438-3.232-1.014-5.78-1.726-7.644c-0.493-1.644-1.124-2.903-1.891-3.78C65.582,376.917,65.691,376.589,65.911,376.589z
	 M72.568,394.588c0.876-0.054,2.055-0.247,3.533-0.575c1.809-0.273,3.288-0.63,4.438-1.068c0.219-0.165,0.438-0.247,0.657-0.247
	c0.986-5.588,1.479-9.643,1.479-12.164c0-0.438-0.219-0.657-0.657-0.657c-0.712,0-2.109,0.192-4.191,0.575
	c-2.411,0.493-4.521,0.74-6.329,0.74c-0.164,0-0.328,0-0.492,0L72.568,394.588z M91.882,398.944c0.822,0,1.507,0.329,2.055,0.986
	c0.822,0.384,1.232,1.042,1.232,1.972c0,1.097-0.109,2.028-0.328,2.794c-0.713,2.521-1.644,5.809-2.795,9.863
	c4.22-1.151,8.548-2.11,12.986-2.876c1.644-0.274,3.396-0.685,5.26-1.233c0.657-0.219,1.205-0.329,1.644-0.329
	c1.205,0,2.821,0.301,4.849,0.904c1.151,0.493,1.727,1.068,1.727,1.726c0,0.657-0.768,0.986-2.302,0.986l-9.862-0.329
	c-2.082,0-4.027,0.219-5.835,0.658c-3.452,0.329-6.137,0.849-8.055,1.562c-0.273,0.055-0.521,0.137-0.739,0.247
	c-0.055,0.164-0.109,0.329-0.165,0.493l-2.137,0.822l-0.493,0.247c-0.603,0-1.205-0.221-1.808-0.658
	c-0.713-0.329-1.068-0.685-1.068-1.068c2.137-1.863,3.507-3.671,4.109-5.424c0.932-1.644,1.396-4.438,1.396-8.384
	c-0.438-0.767-0.657-1.397-0.657-1.89C90.896,399.3,91.225,398.944,91.882,398.944z M93.854,362.124
	c0.822,0,1.836,0.192,3.041,0.575c0.548,0.274,0.986,0.575,1.314,0.904c8.493-0.986,15.068-2.164,19.726-3.534
	c0.273-0.165,0.575-0.247,0.903-0.247c0.493,0,1.563,0.329,3.206,0.986c2.465,1.15,3.698,2.028,3.698,2.63
	c0,0.329-0.191,0.686-0.575,1.068c-1.206,1.096-2.027,2.466-2.466,4.109c-1.534,4.494-3.37,8.904-5.507,13.232
	c-0.219,0.22-0.548,0.329-0.986,0.329c-0.328,0-0.63-0.273-0.903-0.822c-0.22-0.383-0.329-0.739-0.329-1.068
	c-2.63,0.11-5.205,0.384-7.726,0.822c-2.85,0.493-4.575,0.739-5.178,0.739c-0.22,0-0.438-0.026-0.657-0.082
	c-0.056,0.658-0.165,1.15-0.329,1.479c0.329,0.11,0.822,0.356,1.479,0.74c0.986,0.603,1.479,1.343,1.479,2.219
	c0,0.275-0.109,0.466-0.329,0.576c-0.821,0.548-1.753,1.425-2.794,2.63c-0.22,0.22-0.438,0.439-0.658,0.657
	c0.658,0.056,1.37,0.083,2.137,0.083c0.549,0,1.179-0.083,1.891-0.247c3.726-0.658,8.986-1.342,15.78-2.055
	c1.26-0.109,2.767-0.411,4.521-0.904c0.164-0.109,0.328-0.164,0.493-0.164c0.548,0,1.999,0.657,4.355,1.972
	c2.575,1.535,3.863,2.521,3.863,2.959c0,0.274-0.11,0.603-0.329,0.986c-1.863,3.015-2.959,5.535-3.287,7.562
	c-0.22,11.123-0.604,17.753-1.151,19.89c-0.548,2.246-1.78,4.218-3.698,5.917c-2.246,2.08-3.808,3.124-4.685,3.124
	c-1.041,0-1.726-0.329-2.055-0.986c-1.589-2.687-3.37-5.507-5.342-8.465l-0.822-1.068c0-0.221,0.109-0.329,0.329-0.329
	c4.383,1.533,7.123,2.301,8.219,2.301c0.876,0,1.616-0.549,2.219-1.644c1.26-1.864,2.219-5.753,2.877-11.67
	c0.109-2.904,0.164-6.109,0.164-9.617c0-2.903-0.164-4.821-0.493-5.753c-0.822-1.205-1.973-1.808-3.452-1.808
	c-1.862,0-3.726,0.055-5.589,0.164c-3.287,0.275-6.081,0.521-8.383,0.74c0.055,0,0.109,0,0.164,0c0.274,0,0.877,0.274,1.809,0.822
	c0.986,0.658,1.479,1.371,1.479,2.137c0,0.384-0.109,0.657-0.329,0.822c-0.603,0.439-1.232,1.068-1.891,1.89
	c1.479,0.439,2.932,0.959,4.356,1.562c2.027,0.932,3.342,1.808,3.945,2.63c0.548,0.713,0.821,1.479,0.821,2.301
	c0,0.658-0.109,1.343-0.329,2.055c-0.273,0.604-0.603,0.904-0.985,0.904c-0.329,0-0.548-0.109-0.658-0.329
	c-0.767-0.438-1.917-1.424-3.451-2.959c-2.247-2.52-3.754-4.054-4.521-4.603c-0.109-0.109-0.191-0.191-0.247-0.247
	c-2.082,2.576-4.054,4.63-5.917,6.164c-0.986,0.768-2.246,1.507-3.78,2.219c-0.438,0.329-0.822,0.494-1.151,0.494h-0.328
	c1.862-1.753,3.589-3.644,5.178-5.671c2.082-2.575,3.562-4.932,4.438-7.068c0.438-0.493,0.658-1.424,0.658-2.794
	c0-0.109,0.109-0.191,0.328-0.247c-1.424,0.165-2.657,0.329-3.698,0.493c-0.384,0.056-0.712,0.083-0.986,0.083
	c-1.15,0-2.301-0.219-3.452-0.658c-0.055,0-0.109,0-0.164,0c-1.314,1.261-2.603,2.301-3.862,3.123
	c-0.932,0.658-2.138,1.261-3.616,1.808c-0.384,0.275-0.74,0.411-1.068,0.411h-0.329c1.753-1.424,3.369-3.013,4.849-4.767
	c1.918-2.137,3.315-4.054,4.191-5.753c0.329-0.493,0.493-1.287,0.493-2.383v-0.083c-0.109-0.164-0.219-0.355-0.328-0.575
	c-0.22-0.657-0.329-1.205-0.329-1.644c-0.712-1.698-1.314-4.685-1.808-8.958c-0.438-2.575-1.041-4.603-1.809-6.082
	c-0.493-1.369-1.15-2.383-1.973-3.041C93.525,362.453,93.636,362.124,93.854,362.124z M101.333,380.534
	c1.261-0.109,2.959-0.355,5.096-0.74c2.466-0.329,4.466-0.766,6-1.315c0.438-0.164,0.822-0.247,1.15-0.247
	c0.768,0,1.425,0.083,1.973,0.247c0.164-0.329,0.329-0.766,0.493-1.315c0.603-2.026,1.205-4.903,1.808-8.629
	c0.22-1.424,0.329-2.794,0.329-4.109c0-0.876-0.657-1.315-1.973-1.315c-0.767,0-2.055,0.137-3.862,0.411
	c-4.384,0.493-8.876,1.124-13.479,1.89l0.986,6.164c2.575-0.383,4.931-0.849,7.067-1.397c0.493-0.109,0.85-0.165,1.068-0.165
	c3.288,0,4.932,0.439,4.932,1.315c0,0.22-0.164,0.384-0.493,0.493c-2.082,0.384-4.027,0.686-5.835,0.904
	c-1.479,0.165-2.438,0.247-2.877,0.247c-1.37,0-2.575-0.054-3.616-0.165L101.333,380.534z"/>
<path fill="#4C5125" d="M95.334,474.252c0.986,0,2.191,0.631,3.616,1.891c0.877,0.604,1.314,1.396,1.314,2.384
	c0,0.274-0.137,0.521-0.41,0.739c-0.493,0.439-1.041,1.068-1.645,1.892c-0.055,0.108-0.109,0.219-0.164,0.328
	c0.329,0.057,0.685,0.139,1.068,0.246c1.37,0.493,2.795,1.313,4.273,2.467c4.164,3.178,8.109,5.752,11.835,7.725
	c4.22,2.248,10.959,4.687,20.219,7.314v0.328c0,0.385-0.466,0.633-1.397,0.739c-4.603,0.879-8.739,1.314-12.41,1.314
	c-1.644,0-2.712-0.189-3.205-0.574c-3.727-2.574-8.521-6.904-14.383-12.986c-1.041-1.039-2.438-2.219-4.191-3.532
	c-1.041-0.767-1.973-1.369-2.795-1.81c-2.685,3.508-5.616,6.769-8.794,9.781c-3.89,3.508-7.89,6.438-11.999,8.793
	c-3.562,2.084-6.986,3.59-10.273,4.521c-1.206,0.439-2.055,0.656-2.548,0.656v-0.328c6.027-3.561,11.342-7.067,15.944-10.52
	c3.068-2.521,6.027-5.178,8.876-7.973c2.521-2.574,4.411-5.121,5.671-7.644c0.493-1.041,0.74-1.836,0.74-2.385
	c-0.438-0.93-0.658-1.834-0.658-2.711C94.019,474.473,94.457,474.252,95.334,474.252z M83.499,459.869
	c2.027,0,3.232,0.221,3.616,0.658c1.096,0.385,1.644,0.903,1.644,1.561c0,1.535,0.219,3.863,0.657,6.986
	c0-0.056,0.027-0.082,0.082-0.082c2.631-0.438,4.247-0.658,4.85-0.658h2.301c0,0.33-0.219,0.549-0.657,0.658
	c-1.918,0.549-4.055,1.096-6.41,1.645c0.219,1.533,0.493,3.287,0.821,5.261c0,1.149-0.219,1.725-0.657,1.725
	c-1.15,0-1.809-0.574-1.973-1.725c-0.384-1.646-0.794-3.179-1.232-4.604c-4.768,1.043-8.904,2.193-12.41,3.453
	c-0.274,0.108-0.548,0.164-0.822,0.164c-0.768,0-2.109-0.547-4.027-1.646c-1.26-0.655-1.891-1.205-1.891-1.643
	c0-0.604,0.22-0.904,0.658-0.904c0.273,0,0.712,0.082,1.314,0.246c0.604,0,2.493-0.109,5.671-0.328
	c3.562-0.272,7.232-0.658,11.014-1.149c-1.206-3.728-2.438-6.248-3.698-7.563c-0.329-0.383-0.493-0.656-0.493-0.822
	C81.855,460.281,82.403,459.869,83.499,459.869z M82.513,510.416c0.219,0,0.438,0.246,0.657,0.738
	c0.657,1.207,0.986,2.164,0.986,2.877c0,2.026-0.548,4.137-1.644,6.328c-0.603,1.532-1.452,2.713-2.548,3.534
	c-0.657,0.656-1.343,0.986-2.055,0.986c-0.493,0-0.877-0.303-1.15-0.904c-0.11-0.549-0.165-1.125-0.165-1.727
	c0-0.713,0.165-1.479,0.493-2.301c2.686-4.219,4.164-6.959,4.438-8.219C81.69,510.854,82.02,510.416,82.513,510.416z
	 M108.813,499.895c0.603,0,1.562,0.111,2.877,0.328c1.589,0.494,2.383,0.961,2.383,1.396c0,0.274-0.109,0.522-0.328,0.74
	c-0.329,0.274-0.768,0.438-1.315,0.493c-4.328,0.933-8.794,1.755-13.396,2.466c0,6.192,0.191,12.274,0.575,18.245
	c0,1.81-0.273,3.207-0.821,4.191c-0.986,2.027-2.027,3.041-3.124,3.041c-0.821,0-1.342-0.357-1.562-1.068
	c-1.644-3.014-3.862-5.944-6.657-8.793v-0.328c4.055,1.808,6.685,2.712,7.891,2.712c0.438,0,0.739-1.015,0.904-3.041
	c0.273-2.63,0.41-7.097,0.41-13.396c0-0.438,0-0.85,0-1.234c-2.685,0.33-4.767,0.494-6.246,0.494c-3.671,0-6.082-0.328-7.232-0.985
	c-0.877-0.494-1.314-0.822-1.314-0.986c0-0.219,0.219-0.328,0.657-0.328c5.698-0.272,10.383-0.658,14.054-1.152
	c-0.055-1.313-0.137-2.711-0.246-4.19c-0.11-1.752-0.521-3.642-1.233-5.67c-0.273-0.494-0.41-0.957-0.41-1.396
	c0-0.494,0.438-0.739,1.314-0.739c0.822,0,1.809,0.467,2.959,1.396c1.096,0.604,1.644,1.344,1.644,2.219
	c0,0.715-0.164,1.371-0.493,1.974c-0.712,1.809-1.096,3.838-1.15,6.082c3.232-0.656,5.972-1.343,8.219-2.056
	C107.771,500.033,108.319,499.895,108.813,499.895z M110.456,454.855c1.096,0,2.219,0.385,3.37,1.149
	c1.041,0.604,1.562,1.316,1.562,2.139c0,0.384-0.22,1.097-0.658,2.138c-0.985,1.918-1.753,3.396-2.301,4.438
	c-0.329,0.658-0.63,1.345-0.904,2.056c2.466-0.494,4.63-1.015,6.493-1.563c1.041-0.328,2.027-0.492,2.959-0.492
	c1.26,0,2.657,0.246,4.191,0.74c1.808,0.82,2.712,1.561,2.712,2.219c0,0.164-0.164,0.383-0.493,0.656
	c-0.329,0.221-0.712,0.33-1.15,0.33c-5.26,0-9.644,0.109-13.15,0.328c-0.876,0.055-1.835,0.139-2.876,0.246
	c-1.37,2.631-3.014,5.315-4.932,8.055c-0.603,0.385-1.178,0.576-1.726,0.576v-0.248c1.314-2.685,2.438-5.342,3.369-7.971
	c-0.548,0.055-1.15,0.163-1.808,0.327c-0.165,0.056-0.356,0.082-0.575,0.082c-0.493,0-1.288-0.219-2.384-0.657
	c-0.822-0.384-1.232-0.629-1.232-0.738c0-0.219,0.219-0.33,0.657-0.33c2.082-0.383,3.753-0.656,5.014-0.82
	c0.383-0.055,0.767-0.108,1.15-0.166c0.384-1.258,0.739-2.465,1.068-3.614c0.657-2.355,0.986-4.22,0.986-5.589
	c0-0.272-0.329-1.014-0.986-2.221C108.813,455.213,109.36,454.855,110.456,454.855z M107.497,511.072
	c0.438,0,1.124,0.137,2.055,0.412c1.699,0.819,3.425,1.752,5.178,2.793c2.247,1.534,3.699,2.932,4.356,4.19
	c0.603,1.205,0.904,2.467,0.904,3.781c0,0.658-0.138,1.342-0.411,2.055c-0.22,0.603-0.521,0.904-0.904,0.904
	c-0.328,0-0.548-0.111-0.657-0.328c-0.877-0.658-2.191-2.084-3.945-4.273c-2.521-3.78-4.246-6.055-5.178-6.821
	c-1.15-1.097-1.726-1.892-1.726-2.383C107.169,511.182,107.278,511.072,107.497,511.072z"/>
<path fill="#4C5125" d="M80.047,554.492c1.261,0,2.521,0.412,3.78,1.231c1.206,0.716,1.809,1.511,1.809,2.386
	c0,0.385-0.274,1.067-0.822,2.053c-1.26,1.867-2.219,3.289-2.876,4.274c-1.973,3.563-4.63,7.263-7.973,11.095
	c0.055,0,0.11,0,0.165,0c0.328,0,0.685-0.052,1.068-0.164c2.246-0.601,5.396-1.314,9.451-2.138c0.712-0.053,1.589-0.354,2.63-0.903
	c0.109-0.053,0.22-0.082,0.329-0.082c0.493,0,1.835,0.633,4.027,1.891c2.355,1.373,3.533,2.302,3.533,2.795
	c0,0.275-0.109,0.552-0.328,0.822c-1.699,2.629-2.685,4.848-2.959,6.656c-0.109,9.862-0.329,15.756-0.657,17.672
	c-0.274,1.971-0.959,3.697-2.055,5.176c-1.206,1.863-2.055,2.795-2.548,2.795c-0.438,0-0.74-0.272-0.904-0.821
	c-0.657-2.138-1.37-4.384-2.137-6.736c-1.479,0.055-2.959,0.164-4.438,0.326c-2.739,0.219-4.41,0.328-5.013,0.328
	c-0.22,0-0.438,0-0.658,0v0.985c0,0.986-0.109,1.781-0.328,2.383c-0.165,0.822-0.493,1.234-0.986,1.234
	c-0.274,0-0.713-0.631-1.315-1.891c-0.438-0.933-0.657-1.509-0.657-1.728l0.329-3.613c-0.165-12.877-0.904-20.602-2.22-23.18
	c-0.493-1.258-0.739-2.188-0.739-2.795c0-0.873,0.657-1.313,1.973-1.313c0.438,0,1.041,0.223,1.808,0.657
	c0.438,0.222,0.768,0.47,0.986,0.74c2.575-3.781,4.575-7.479,6-11.096c0.932-2.244,1.396-4.053,1.396-5.424
	c0-0.33-0.438-1.205-1.314-2.631C78.403,554.822,78.951,554.492,80.047,554.492z M73.472,601.506
	c1.151-0.108,2.686-0.246,4.603-0.412c2.411-0.219,4.356-0.465,5.836-0.737c0.438-0.109,0.794-0.164,1.068-0.164
	c0.986,0,1.835,0.164,2.548,0.491c0.273-1.588,0.521-4.985,0.739-10.192c0-2.519,0-5.285,0-8.301c0-2.632-0.164-4.382-0.493-5.261
	c-0.822-1.149-1.973-1.727-3.452-1.727c-0.985,0-1.944,0.082-2.876,0.246c-2.85,0.551-5.014,1.1-6.493,1.645
	c-0.164,0.111-0.328,0.164-0.493,0.164c-0.548,0-1.068-0.053-1.562-0.164l0.247,11.342c1.644-0.493,3.178-1.067,4.603-1.727
	c1.096-0.436,1.862-0.656,2.301-0.656c3.288,0.111,4.932,0.797,4.932,2.056c0,0.604-0.466,0.934-1.397,0.985
	c-1.15,0.111-2.657,0.304-4.521,0.574c-1.15,0.223-2.246,0.328-3.287,0.328c-1.096,0-1.973-0.051-2.63-0.164L73.472,601.506z
	 M110.62,549.891c0.877,0,1.973,0.656,3.288,1.974c1.096,1.149,1.644,2.248,1.644,3.287c0,0.657-0.191,1.262-0.575,1.809
	c-0.603,0.492-0.986,0.986-1.15,1.479c-2.027,4.932-3.891,8.987-5.589,12.163c0.219,0.058,0.466,0.082,0.739,0.082
	c0.384,0,0.768-0.082,1.151-0.248c2.355-0.655,5.643-1.34,9.862-2.055c0.767-0.104,1.698-0.41,2.794-0.901
	c0.109-0.107,0.219-0.166,0.329-0.166c0.548,0,1.973,0.657,4.273,1.973c2.63,1.537,3.945,2.522,3.945,2.959
	c0,0.387-0.11,0.822-0.329,1.313c-1.918,3.564-3.014,6.552-3.287,8.959c-0.22,13.537-0.604,21.589-1.151,24.164
	c-0.493,2.738-1.726,5.097-3.698,7.066c-2.301,2.576-3.862,3.863-4.685,3.863c-1.205,0-2-0.355-2.383-1.068
	c-1.863-2.684-3.918-5.588-6.164-8.711l-0.986-1.068c0-0.221,0.109-0.33,0.328-0.33c5.041,1.81,8.219,2.714,9.534,2.714
	c0.877,0,1.616-0.769,2.219-2.302c1.261-2.354,2.219-7.34,2.877-14.959c0.109-3.723,0.164-7.858,0.164-12.41
	c0-3.34-0.164-5.588-0.493-6.737c-0.822-1.367-1.973-2.056-3.452-2.056c-1.041,0-2.082,0.058-3.123,0.164
	c-3.014,0.441-5.314,0.88-6.903,1.314c-0.164,0.057-0.329,0.082-0.493,0.082c-0.657,0-1.315-0.082-1.973-0.246
	c-0.055,0.057-0.082,0.111-0.082,0.164c-2.739,4.221-5.205,7.289-7.396,9.205c-1.206,1.15-2,1.727-2.384,1.727
	c-0.22,0-0.329-0.217-0.329-0.657c3.343-5.039,6.055-9.832,8.137-14.384c1.534-3.45,2.768-7.01,3.698-10.684
	c0.438-2.189,0.658-3.781,0.658-4.768l-0.329-2.056C109.306,550.111,109.744,549.891,110.62,549.891z M101.744,584.736
	c0.713,0,1.507,0.194,2.384,0.575c2.246,0.822,3.945,1.839,5.096,3.041c0.932,1.044,1.396,2.578,1.396,4.603
	c0,0.551-0.219,1.1-0.657,1.645c-0.438,0.441-0.876,0.658-1.314,0.658c-0.603,0-1.206-0.354-1.809-1.069
	c-1.26-1.257-3.014-3.97-5.26-8.136c-0.329-0.381-0.493-0.711-0.493-0.985C101.196,584.85,101.416,584.736,101.744,584.736z"/>
<path fill="#4C5125" d="M66.732,659.061c0.657,0,1.479,0.357,2.466,1.07c0.603,0.383,0.956,0.711,1.068,0.984
	c1.096-0.164,2.354-0.492,3.78-0.984c1.425-0.33,2.986-0.932,4.686-1.809c0.328-0.164,0.603-0.246,0.821-0.246
	c0.493,0,1.589,0.465,3.287,1.396c1.973,1.097,2.959,1.836,2.959,2.22c0,0.272-0.082,0.549-0.246,0.821
	c-1.37,4.547-2.055,7.779-2.055,9.697c0,4.549,0.246,9.754,0.739,15.615c0.165,5.371,0.247,8.74,0.247,10.108
	c0,2.027-0.384,4.138-1.15,6.328c-0.822,2.082-1.535,3.123-2.138,3.123c-0.111,0-0.301-0.438-0.575-1.313
	c-1.098-2.41-2.109-4.383-3.041-5.918c-1.263,0.055-2.465,0.166-3.616,0.33c-2.301,0.219-3.728,0.327-4.273,0.327
	c-0.112,0-0.194,0-0.247,0c0,0.822,0,1.617,0,2.384c-0.164,0.604-0.44,1.262-0.821,1.973c-0.493,0.658-0.904,0.986-1.233,0.986
	c-0.657,0-1.232-0.959-1.726-2.877c-0.384-1.479-0.575-2.629-0.575-3.451l0.082-0.904c0.768-4,1.233-7.123,1.397-9.369
	c0.329-5.149,0.493-11.588,0.493-19.313c-0.22-4.931-0.713-8.109-1.479-9.533c-0.112-0.492-0.164-0.822-0.164-0.986
	C65.418,659.281,65.856,659.061,66.732,659.061z M69.444,699.168c0.875-0.109,1.918-0.246,3.124-0.41
	c1.972-0.219,3.562-0.465,4.767-0.739c0.381-0.109,0.685-0.164,0.904-0.164c0.767,0,1.479,0.108,2.137,0.327
	c0.052-0.383,0.082-0.875,0.082-1.479c0.052-3.562,0.082-9.752,0.082-18.574c0-5.149-0.082-9.424-0.246-12.819
	c-0.22-1.646-0.658-2.658-1.315-3.041c-0.384-0.386-1.068-0.576-2.055-0.576c-0.112,0-0.276,0.026-0.493,0.082
	c-2.301,0.272-4.109,0.631-5.424,1.067c-0.22,0.109-0.441,0.164-0.658,0.164c-0.164,0-0.328-0.026-0.493-0.082
	c-0.111,1.261-0.164,3.041-0.164,5.342c0,4.33,0,8.33,0,12c0.874-0.383,1.671-0.768,2.384-1.149
	c0.821-0.383,1.342-0.576,1.562-0.576c3.287,0.055,4.931,0.686,4.931,1.891c0,0.494-0.328,0.769-0.986,0.822
	c-0.876,0.164-1.944,0.355-3.205,0.576c-0.822,0.219-1.616,0.328-2.384,0.328c-0.934,0-1.726-0.055-2.383-0.164
	C69.609,688.676,69.555,694.402,69.444,699.168z M116.045,657.5c0.493,0,1.343,0.082,2.548,0.246
	c1.367,0.385,2.055,0.713,2.055,0.986c0,0.219-0.112,0.411-0.329,0.575c-0.219,0.22-0.548,0.355-0.986,0.41
	c-3.013,1.314-6.081,2.383-9.204,3.205c-0.112,2.631-0.22,5.646-0.329,9.041c3.945-0.822,7.424-1.645,10.438-2.465
	c2.189-0.604,4.191-0.904,6-0.904c1.367,0,2.903,0.246,4.603,0.738c1.973,0.768,2.959,1.535,2.959,2.303
	c0,0.164-0.165,0.41-0.493,0.738c-0.329,0.33-0.713,0.494-1.151,0.494c-10.139,0-18.574,0.383-25.313,1.149
	c-4.222,0.494-9.317,1.479-15.287,2.959c-0.328,0.109-0.687,0.164-1.068,0.164c-0.657,0-1.534-0.19-2.63-0.575
	c-0.934-0.328-1.396-0.574-1.396-0.738c0-0.219,0.216-0.33,0.657-0.33c4.161-0.711,7.506-1.26,10.026-1.644
	c2.575-0.327,5.642-0.768,9.205-1.313c0.164,0,0.329-0.027,0.493-0.082c-0.112-3.18-0.219-6.027-0.329-8.549
	c-1.205,0.33-2.191,0.494-2.958,0.494c-3.123,0-5.15-0.33-6.082-0.986c-0.77-0.33-1.15-0.576-1.15-0.74
	c0-0.219,0.217-0.328,0.657-0.328c3.78-0.274,6.931-0.686,9.451-1.233c-0.276-5.861-0.575-9.396-0.903-10.603
	c-0.384-1.096-0.853-1.944-1.397-2.547c-0.548-0.713-0.852-1.262-0.904-1.645c0-0.933,0.657-1.396,1.973-1.396
	c1.314,0,2.6,0.465,3.862,1.396c1.809,0.877,2.713,1.727,2.713,2.549c-0.055,0.328-0.138,0.793-0.247,1.396
	c-0.548,1.261-0.959,4.492-1.232,9.697c1.753-0.656,3.258-1.342,4.521-2.055C115.306,657.637,115.716,657.5,116.045,657.5z
	 M123.277,682.156c1.315,0,2.739,0.246,4.273,0.739c1.315,0.438,1.973,1.041,1.973,1.808c0,0.877-0.44,1.315-1.314,1.315
	c-4.603,0-8.988,0.191-13.15,0.574c0.053,8.328,0.493,16.795,1.315,25.396c0,1.973-0.658,4.082-1.973,6.328
	c-1.15,1.918-2.109,2.877-2.877,2.877c-1.205,0-2.166-0.658-2.876-1.974c-1.099-1.698-3.646-4.328-7.644-7.891
	c0-0.438,0.191-0.656,0.575-0.656c3.89,2.027,6.739,3.041,8.548,3.041c0.821,0,1.342-1.289,1.562-3.863
	c0.273-4.219,0.41-10.657,0.41-19.313c0-1.096,0-2.301,0-3.615c-1.644,0.219-3.26,0.465-4.849,0.738
	c-2.906,0.385-6.111,1.096-9.616,2.137c-1.098,0.33-1.862,0.494-2.301,0.494c-0.877,0-2.027-0.219-3.452-0.658
	c-1.205-0.383-1.808-0.684-1.808-0.904c0-0.219,0.216-0.327,0.657-0.327c6.082-0.933,11.424-1.836,16.026-2.714
	c1.753-0.327,3.504-0.711,5.26-1.149c-0.055-1.205-0.112-2.492-0.164-3.863c-0.112-2.137-0.329-3.725-0.657-4.766
	c-0.055-0.658-0.083-1.097-0.083-1.314c0-0.494,0.217-0.739,0.658-0.739c0.71,0,1.531,0.465,2.466,1.396
	c0.985,0.986,1.479,2.082,1.479,3.287c0,0.274-0.055,0.576-0.164,0.904c-0.219,0.932-0.358,2.385-0.411,4.356
	c1.644-0.385,3.34-0.822,5.096-1.315C121.439,682.266,122.455,682.156,123.277,682.156z M95.662,693.58
	c0.546,0,1.233,0.137,2.055,0.41c1.754,0.713,3.124,1.59,4.109,2.631c0.71,0.877,1.069,2.164,1.069,3.863
	c0,0.547-0.165,1.067-0.494,1.561c-0.383,0.549-0.77,0.822-1.15,0.822c-0.493,0-0.986-0.355-1.479-1.068
	c-1.041-1.041-2.495-3.396-4.355-7.067c-0.276-0.328-0.411-0.603-0.411-0.822C95.114,693.689,95.334,693.58,95.662,693.58z"/>
<path fill="#4C5125" d="M84.238,765.684c0.493,0,1.285,0.082,2.384,0.246c1.425,0.384,2.137,0.713,2.137,0.986
	c0,0.219-0.082,0.41-0.246,0.576c-0.277,0.219-0.631,0.354-1.069,0.41c-1.698,0.657-3.399,1.231-5.095,1.727
	c-0.112,1.752-0.165,3.424-0.165,5.012c0.053,0.058,0.109,0.084,0.165,0.084c0.931,0.438,1.89,0.984,2.876,1.644
	c1.203,0.877,2,1.699,2.384,2.467c0.328,0.711,0.493,1.451,0.493,2.219c0,0.492-0.112,1.015-0.329,1.562
	c-0.276,0.549-0.605,0.821-0.986,0.821c-0.328,0-0.548-0.108-0.657-0.327c-0.44-0.494-1.068-1.398-1.891-2.714
	c-0.934-1.645-1.616-2.795-2.055-3.45v29.094c0,1.039-0.246,2.08-0.739,3.123c-0.276,1.258-0.688,1.891-1.233,1.891
	c-0.657,0-1.205-0.879-1.644-2.631c-0.44-1.098-0.657-2.412-0.657-3.945c0.657-3.778,1.232-7.725,1.726-11.834
	c0.546-3.342,0.85-8.573,0.904-15.696c-2.959,6.52-5.835,11.396-8.63,14.629c-1.973,2.026-4.304,3.944-6.985,5.752
	c-1.099,0.768-2.137,1.151-3.123,1.151h-0.329c3.562-3.233,6.767-7.067,9.616-11.508c2.847-4.164,5.477-9.67,7.89-16.52
	c-0.548,0.166-1.099,0.303-1.644,0.412c-2.578,0.655-4.468,0.985-5.671,0.985c-3.071,0-5.126-0.274-6.164-0.821
	c-0.713-0.384-1.068-0.658-1.068-0.822c0-0.219,0.217-0.328,0.657-0.328c5.096-0.328,9.068-0.904,11.917-1.728
	c1.261-0.327,2.411-0.686,3.452-1.067c-0.055-9.479-0.276-15.039-0.657-16.685c-0.441-1.973-1.181-3.891-2.22-5.754
	c0-0.492,0.329-0.737,0.986-0.737c1.261,0,2.575,0.602,3.945,1.807c1.314,0.877,1.973,1.918,1.973,3.123
	c0,0.549-0.165,1.123-0.493,1.727c-0.713,5.699-1.206,10.933-1.479,15.697c0.164-0.055,0.299-0.108,0.411-0.164
	C83.362,765.82,83.798,765.684,84.238,765.684z M119.332,779.08c1.203,0,2.493,0.219,3.863,0.656c1.15,0.33,1.726,0.768,1.726,1.315
	c0,1.15-0.328,1.726-0.986,1.726c-3.506,0-6.821,0.192-9.944,0.575c1.589,4.933,3.616,9.287,6.082,13.068
	c0.821-0.932,1.589-1.891,2.301-2.877c1.261-1.645,1.891-3.178,1.891-4.604l-0.329-2.22c0-0.492,0.438-0.739,1.315-0.739
	c0.986,0,2.024,0.575,3.123,1.727c0.986,0.713,1.479,1.59,1.479,2.631c0,0.164-0.137,0.383-0.411,0.656
	c-1.15,0.986-1.945,1.699-2.384,2.137c-1.644,2.248-3.451,4.191-5.424,5.836c1.696,2.631,3.586,4.902,5.671,6.822
	c2.518,2.137,4.244,3.205,5.178,3.205c0.109,0,0.273-0.305,0.493-0.904c0.71-3.07,1.425-6.713,2.137-10.932
	c0.109-0.438,0.217-0.656,0.329-0.656c0.438,0,0.657,0.547,0.657,1.643c-0.112,7.177,0.164,11.531,0.822,13.068
	c0.328,0.545,0.492,1.121,0.492,1.728c0,1.366-0.44,2.055-1.314,2.055c-1.479,0-3.481-0.551-6-1.646
	c-2.191-1.262-4.355-3.069-6.492-5.424c-1.863-2.25-3.534-4.496-5.014-6.74c-2.794,1.974-5.947,3.423-9.451,4.355
	c-1.921,0.547-3.206,0.822-3.863,0.822h-0.411c4.384-2.084,8.082-4.191,11.096-6.328c0.438-0.328,0.874-0.687,1.314-1.068
	c0-0.055-0.029-0.108-0.082-0.164c-2.355-4.713-4.246-9.643-5.671-14.793c-0.055-0.111-0.111-0.221-0.164-0.33
	c-2.578,0.385-5.096,0.904-7.562,1.563c-1.534,0.328-3.152,0.821-4.849,1.479c0.381,0.22,0.792,0.494,1.232,0.822
	c1.15,0.822,1.727,1.646,1.727,2.465c0,0.166-0.112,0.357-0.329,0.576c-0.384,0.438-0.63,0.795-0.739,1.068
	c-0.056,0.164-0.083,0.301-0.083,0.409c0.986,0.275,1.943,0.576,2.877,0.904c1.808,0.713,2.959,1.344,3.452,1.891
	c0.493,0.494,0.739,1.041,0.739,1.646c0,0.656-0.112,1.342-0.329,2.055c-0.276,0.603-0.604,0.904-0.986,0.904
	c-0.276,0-0.492-0.111-0.657-0.33c-0.712-0.383-1.698-1.15-2.958-2.301c-1.264-1.26-2.249-2.191-2.959-2.795
	c-1.315,2.959-2.414,5.205-3.288,6.739c-1.479,2.189-3.123,3.945-4.931,5.261c-1.263,0.764-2.384,1.396-3.37,1.891
	c-0.986,0.271-1.509,0.41-1.562,0.41c-0.219,0-0.328-0.082-0.328-0.246c1.972-1.428,3.34-2.578,4.109-3.451
	c1.26-1.373,2.492-3.178,3.698-5.426c1.038-1.861,1.89-3.916,2.548-6.164c0.328-1.15,0.493-2.164,0.493-3.041
	c0-1.096-0.165-1.779-0.493-2.055c-0.055-0.164-0.082-0.302-0.082-0.41c-0.713,0.272-1.428,0.576-2.138,0.904
	c-1.098,0.547-1.838,0.821-2.219,0.821c-0.877,0-1.945-0.192-3.205-0.575c-1.15-0.273-1.727-0.521-1.727-0.74
	c0-0.219,0.11-0.328,0.329-0.328c5.918-1.26,11.096-2.465,15.533-3.615c2.519-0.658,5.041-1.426,7.562-2.303
	c-1.756-7.012-3.425-17.424-5.014-31.23c-0.219-1.862-0.522-3.368-0.904-4.52c-0.44-1.646-1.068-3.014-1.89-4.109
	c-0.329-0.33-0.493-0.713-0.493-1.151c0-0.492,0.438-0.738,1.314-0.738c1.368,0,2.658,0.41,3.863,1.232
	c1.15,0.549,1.726,1.231,1.726,2.055c0,0.492-0.111,0.932-0.328,1.313c-0.441,0.439-0.658,0.986-0.658,1.646
	c0,6.574,0.438,12.465,1.315,17.67c0.603,6.027,1.726,11.697,3.369,17.014c1.097-0.385,2.165-0.795,3.206-1.233
	C117.524,779.271,118.511,779.08,119.332,779.08z M97.635,751.875c0.822,0,1.671,0.385,2.548,1.15
	c0.932,0.713,1.397,1.534,1.397,2.467c0,0.219-0.137,0.465-0.411,0.74c-1.592,1.971-3.698,5.231-6.328,9.778
	c-0.329,0.439-0.605,0.877-0.822,1.314l6.082-0.492c0.217-0.439,0.411-0.85,0.575-1.232c0.329-0.657,0.521-1.426,0.575-2.303
	c0-1.041,0.546-1.561,1.645-1.561c0.328,0,0.903,0.438,1.726,1.313c0.821,0.604,1.232,1.232,1.232,1.892
	c0,0.272-0.164,0.521-0.493,0.739c-1.369,1.205-3.014,2.878-4.931,5.015c-1.921,2.246-3.781,4.766-5.589,7.561
	c2.189-0.494,4.301-0.986,6.328-1.479c-0.328-0.658-0.657-1.453-0.986-2.386c-0.164-0.219-0.246-0.409-0.246-0.573
	c0.052-0.222,0.273-0.33,0.657-0.33c0.329,0,0.739,0.108,1.232,0.33c1.039,0.438,1.836,0.985,2.384,1.643
	c0.438,0.658,0.657,1.535,0.657,2.631c0,0.438-0.137,0.904-0.411,1.396c-0.328,0.385-0.63,0.576-0.903,0.576
	c-0.276,0-0.548-0.22-0.822-0.658c-0.276-0.383-0.605-0.904-0.986-1.562c-2.084,0.547-3.893,1.261-5.424,2.138
	c-1.699,0.877-2.824,1.643-3.37,2.301c-0.44,0.328-0.739,0.492-0.904,0.492c-0.328,0-0.794-0.438-1.396-1.314
	c-0.384-0.547-0.575-1.014-0.575-1.396c0-0.33,0.273-0.74,0.821-1.232c0.493-0.166,0.904-0.385,1.233-0.658
	c0.545-0.494,1.808-2.108,3.78-4.85c1.367-1.974,2.548-3.752,3.534-5.342c-3.288,0.877-5.644,1.944-7.068,3.205
	c-0.657,0-1.232-0.384-1.726-1.15c-0.384-0.492-0.575-1.205-0.575-2.137v-0.986c1.096-0.713,2.301-2.273,3.616-4.686
	c0.709-1.261,1.531-3.343,2.465-6.246c0.329-1.041,0.493-1.67,0.493-1.89c-0.219-0.438-0.328-0.877-0.328-1.315
	C96.32,752.178,96.759,751.875,97.635,751.875z M119.99,746.533c0.767,0,1.613,0.412,2.548,1.231
	c0.931,0.713,1.396,1.509,1.396,2.386c0,0.219-0.137,0.465-0.41,0.737c-1.756,1.81-4.058,4.795-6.904,8.959
	c-0.164,0.273-0.358,0.576-0.575,0.904l6.575-0.576c0.438-0.656,0.792-1.26,1.068-1.807c0.328-0.658,0.521-1.426,0.575-2.303
	c0-1.097,0.546-1.644,1.644-1.644c0.329,0,0.932,0.465,1.809,1.396c0.767,0.604,1.15,1.231,1.15,1.891
	c0,0.219-0.164,0.465-0.493,0.74c-1.479,1.205-3.178,2.877-5.096,5.014c-2.027,2.246-4.027,4.793-6,7.644
	c2.138-0.438,4.192-0.878,6.164-1.314c-0.276-0.549-0.575-1.178-0.903-1.891c-0.165-0.273-0.247-0.494-0.247-0.658
	c0.053-0.219,0.274-0.328,0.657-0.328c0.438,0,0.904,0.109,1.397,0.328c1.15,0.549,2.082,1.205,2.795,1.973
	c0.493,0.658,0.739,1.672,0.739,3.041c0,0.439-0.137,0.877-0.411,1.314c-0.276,0.385-0.575,0.576-0.904,0.576
	c-0.383,0-0.739-0.246-1.068-0.74c-0.383-0.492-0.876-1.314-1.479-2.465c-2.026,0.491-3.835,1.178-5.424,2.055
	c-1.592,0.768-2.712,1.451-3.37,2.055c-0.383,0.273-0.657,0.41-0.821,0.41c-0.384,0-0.822-0.41-1.315-1.232
	c-0.44-0.547-0.657-0.985-0.657-1.313c0-0.385,0.299-0.822,0.904-1.314c0.493-0.166,0.904-0.385,1.232-0.657
	c0.603-0.494,1.918-2.109,3.945-4.851c1.367-1.754,2.493-3.342,3.369-4.766c-3.616,0.875-6.219,1.971-7.808,3.287
	c-0.657,0-1.205-0.412-1.644-1.232c-0.44-0.494-0.657-1.18-0.657-2.055v-0.986c1.202-0.658,2.548-2.082,4.027-4.275
	c0.709-1.096,1.589-2.93,2.63-5.506c0.381-0.932,0.575-1.506,0.575-1.727c-0.22-0.383-0.329-0.82-0.329-1.314
	C118.675,746.861,119.113,746.533,119.99,746.533z M126.894,776.203c0.603,0,1.285,0.108,2.055,0.328
	c1.86,0.604,3.314,1.315,4.356,2.137c0.767,0.822,1.15,1.945,1.15,3.371c0,0.492-0.138,0.959-0.411,1.396
	c-0.276,0.384-0.575,0.576-0.904,0.576c-0.548,0-1.098-0.248-1.644-0.74c-1.205-0.985-2.794-3.014-4.767-6.081
	c-0.276-0.328-0.411-0.55-0.411-0.658C126.37,776.313,126.564,776.203,126.894,776.203z"/>
<path fill="#211512" d="M122.455,837.955c2.466,0,4.574,0.822,6.329,2.467c1.697,1.752,2.548,3.889,2.548,6.41
	c0,2.574-0.851,4.766-2.548,6.574c-1.919,1.754-4.027,2.631-6.329,2.631c-2.52,0-4.713-0.877-6.574-2.631
	c-1.755-1.81-2.63-4-2.63-6.574c0-2.412,0.875-4.467,2.63-6.164C117.634,838.859,119.825,837.955,122.455,837.955z M122.455,853.16
	c1.645,0,3.013-0.631,4.109-1.892c1.261-1.149,1.891-2.629,1.891-4.438c0-1.646-0.604-3.068-1.808-4.273
	c-1.151-1.096-2.548-1.645-4.192-1.645c-1.862,0-3.369,0.549-4.52,1.645c-1.151,1.261-1.727,2.685-1.727,4.273
	c0,1.863,0.575,3.342,1.727,4.438C119.195,852.529,120.701,853.16,122.455,853.16z"/>
</svg>
