<?xml version="1.0" encoding="utf-8"?>
<!-- Generator: Adobe Illustrator 16.0.0, SVG Export Plug-In . SVG Version: 6.00 Build 0)  -->
<!DOCTYPE svg PUBLIC "-//W3C//DTD SVG 1.1//EN" "http://www.w3.org/Graphics/SVG/1.1/DTD/svg11.dtd">
<svg version="1.1" id="圖層_1" xmlns="http://www.w3.org/2000/svg" xmlns:xlink="http://www.w3.org/1999/xlink" x="0px" y="0px"
	 width="224.309px" height="670.072px" viewBox="0 0 224.309 670.072" enable-background="new 0 0 224.309 670.072"
	 xml:space="preserve">
<path fill="#4C5125" d="M182.868,34.558c0.232,0,1.464,0.499,3.69,1.494c2.227,1.055,3.34,1.846,3.34,2.373
	c0,0.294-0.294,0.646-0.879,1.055c-1.642,0.938-2.813,1.964-3.516,3.076c-0.997,1.29-1.993,2.9-2.988,4.834
	c1.288-0.176,2.606-0.556,3.955-1.143c0.352-0.058,0.673-0.088,0.967-0.088c0.292,0,1.67,0.527,4.131,1.582
	c2.401,1.23,3.604,2.081,3.604,2.549c0,0.411-0.323,0.821-0.967,1.23c-1.7,0.938-2.988,1.993-3.867,3.164
	c-1.114,1.349-2.169,3.047-3.164,5.098c0.292-0.058,0.585-0.088,0.879-0.088c2.167-0.117,4.716-0.497,7.646-1.143
	c0.292-0.117,0.585-0.176,0.879-0.176c0.585,0,2.108,0.733,4.569,2.197c2.813,1.582,4.22,2.608,4.22,3.076
	c0,0.235-0.118,0.499-0.353,0.791c-2.052,2.228-3.224,4.131-3.516,5.713c-0.294,8.613-0.764,13.74-1.406,15.381
	c-0.646,1.758-2.14,3.252-4.482,4.482c-2.755,1.64-4.657,2.461-5.713,2.461c-1.055,0-1.758-0.382-2.108-1.143
	c-1.643-2.872-3.458-5.977-5.449-9.316l-0.879-1.143c0-0.235,0.116-0.352,0.352-0.352c4.512,1.934,7.323,2.9,8.438,2.9
	c1.111,0,2.079-0.411,2.899-1.23c1.698-1.173,3.018-3.722,3.955-7.646c0.116-1.815,0.176-3.896,0.176-6.24
	c0-2.402-0.205-4.013-0.614-4.834c-0.821-1.055-2.021-1.582-3.604-1.582c-3.398,0-6.854,0.118-10.371,0.352
	c-10.138,0.646-17.813,1.318-23.026,2.021c-0.646,0.118-1.23,0.176-1.759,0.176c-1.173,0-2.345-0.264-3.516-0.791
	c-2.461,2.755-4.98,5.216-7.559,7.383c-0.177,0.118-0.353,0.235-0.527,0.352c0.585,0.059,1.2,0.264,1.846,0.615
	c2.051,0.938,3.573,2.081,4.57,3.428c0.879,1.114,1.318,2.813,1.318,5.098c0,0.527-0.147,0.996-0.439,1.406
	c-0.352,0.468-0.675,0.703-0.967,0.703c-0.587,0-1.173-0.382-1.758-1.143c-1.29-1.349-3.02-4.248-5.187-8.701
	c-0.176-0.233-0.294-0.439-0.352-0.615c-4.57,3.458-9.756,6.034-15.558,7.734v-0.352c7.266-5.449,11.777-8.906,13.535-10.371
	c5.273-4.628,9.933-9.697,13.976-15.205c3.222-4.511,6.151-9.521,8.789-15.029c-2.988,0.586-6.096,1.318-9.316,2.197
	c-0.352,0.235-0.675,0.352-0.967,0.352c-0.527,0-1.261-0.292-2.197-0.879c-0.646-0.468-0.967-0.761-0.967-0.879
	c0-0.233,0.264-0.352,0.791-0.352c2.401-0.058,4.188-0.233,5.361-0.527c2.929-0.585,5.625-1.112,8.086-1.582
	c1.111-2.343,2.138-4.775,3.075-7.295c1.112-2.519,1.671-5.126,1.671-7.822c0-1.406-0.265-2.578-0.791-3.516
	c-0.411-0.879-0.615-1.464-0.615-1.758c0-0.644,0.585-0.967,1.758-0.967c1.171,0,2.519,0.499,4.043,1.494
	c1.758,0.879,2.637,1.993,2.637,3.34c0,0.762-0.382,1.437-1.143,2.021c-0.997,0.821-1.643,1.7-1.935,2.637
	c-1.642,4.102-3.224,7.853-4.745,11.25c1.581-0.233,3.046-0.409,4.395-0.527c2.109-0.117,4.276-0.615,6.504-1.494
	C182.135,34.588,182.517,34.558,182.868,34.558z M150.876,22.166c0.644,0,1.376,0.176,2.197,0.527
	c1.99,0.938,3.544,2.021,4.657,3.252c0.819,1.173,1.23,2.872,1.23,5.098c0,0.527-0.176,1.055-0.527,1.582
	c-0.411,0.527-0.821,0.791-1.229,0.791c-0.587,0-1.144-0.38-1.67-1.143c-1.174-1.406-2.813-4.276-4.923-8.613
	c-0.294-0.468-0.438-0.849-0.438-1.143C150.289,22.284,150.524,22.166,150.876,22.166z M163.269,51.785
	c-0.411,0.646-0.821,1.318-1.229,2.021c-2.109,3.164-4.308,6.064-6.593,8.701c0.645,0.059,1.348,0.088,2.109,0.088
	c0.995,0,2.05-0.058,3.164-0.176c5.625-0.703,13.124-1.464,22.5-2.285c0.879-1.288,1.582-2.813,2.109-4.57
	c0.468-1.464,0.703-2.988,0.703-4.57c0-1.055-0.703-1.611-2.109-1.67c-1.406,0-3.34,0.176-5.801,0.527
	c-3.575,0.527-7.354,1.406-11.338,2.637c-0.294,0.176-0.559,0.264-0.791,0.264c-0.588,0-1.406-0.292-2.461-0.879
	C163.414,51.815,163.326,51.785,163.269,51.785z M156.853,68.66c1.056,0,2.401,0.558,4.043,1.67c1.522,1.173,2.52,2.256,2.988,3.252
	c0.527,1.055,0.791,2.315,0.791,3.779c0,0.937-0.382,1.406-1.143,1.406c-1.056,0-2.434-1.406-4.132-4.219
	c-1.934-3.164-2.899-5.126-2.899-5.889L156.853,68.66L156.853,68.66z M170.124,38.25c-2.229,4.864-4.308,8.995-6.24,12.393
	c1.698-0.117,2.929-0.292,3.691-0.527c4.511-1.055,8.318-1.787,11.426-2.197c0.761-1.288,1.376-2.813,1.846-4.57
	c0.409-1.523,0.615-3.046,0.615-4.57c0-0.937-0.703-1.435-2.109-1.494c-1.816,0-4.337,0.235-7.559,0.703
	C171.207,38.045,170.651,38.133,170.124,38.25z M168.103,67.166c1.056,0,2.401,0.558,4.043,1.67c1.522,0.997,2.52,1.993,2.988,2.988
	c0.527,0.938,0.791,2.081,0.791,3.428c0,0.938-0.382,1.406-1.143,1.406c-1.056,0-2.434-1.288-4.132-3.867
	c-1.934-2.988-2.899-4.863-2.899-5.625H168.103z M179.704,66.111c0.703,0,1.464,0.176,2.284,0.527
	c2.109,0.762,3.721,1.7,4.834,2.813c0.88,0.997,1.318,2.461,1.318,4.395c0,0.47-0.176,0.938-0.527,1.406
	c-0.47,0.527-0.879,0.791-1.229,0.791c-0.587,0-1.173-0.38-1.758-1.143c-1.29-1.112-3.02-3.632-5.187-7.559
	c-0.294-0.352-0.438-0.644-0.438-0.879C179.059,66.229,179.293,66.111,179.704,66.111z"/>
<path fill="#4C5125" d="M153.996,111.914c0.937,0,2.108,0.762,3.516,2.285c1.171,1.29,1.758,2.549,1.758,3.779
	c0,0.762-0.382,1.437-1.143,2.021c-0.879,0.586-1.466,1.23-1.758,1.934c-2.932,4.922-5.686,9.112-8.263,12.568
	c1.582,2.285,2.373,4.014,2.373,5.186c0,0.47-0.118,1.202-0.352,2.197c-0.235,1.465-0.353,2.285-0.353,2.461l-0.352,30.235
	c0,1.172-0.206,2.402-0.615,3.691c-0.411,1.699-0.791,2.549-1.143,2.549c-1.173,0-2.285-1.876-3.34-5.625
	c-0.353-0.997-0.527-1.816-0.527-2.461c0-1.582,0.849-6.445,2.549-14.59c0.645-2.578,0.967-7.44,0.967-14.59
	c0-2.519-0.294-4.804-0.879-6.855c-0.526,0.646-1.025,1.23-1.494,1.758c-4.688,5.098-8.965,8.79-12.832,11.075
	c-2.108,1.465-3.486,2.197-4.131,2.197c-0.234,0-0.352-0.264-0.352-0.791c6.68-6.035,12.068-11.778,16.172-17.227
	c3.104-4.219,5.625-8.525,7.559-12.92c0.819-2.637,1.23-4.54,1.23-5.713l-0.353-2.461
	C152.238,112.149,152.823,111.914,153.996,111.914z M197.941,136.963c1.759,0,3.691,0.294,5.802,0.879
	c2.519,1.055,3.778,2.052,3.778,2.988c0,0.176-0.264,0.439-0.791,0.791c-0.411,0.352-0.879,0.527-1.405,0.527
	c-8.204,0-15.382,0.206-21.533,0.615c-0.061,11.133-0.177,18.721-0.353,22.764c-0.176,6.563-0.587,11.835-1.229,15.82
	c-0.764,3.867-1.494,5.801-2.197,5.801c-0.411,0-0.646-1.992-0.703-5.977c-0.176-1.173-0.294-13.856-0.352-38.057
	c-0.294,0-0.587,0.03-0.879,0.088c-4.57,0.352-10.079,1.23-16.523,2.637c-0.352,0.118-0.763,0.176-1.229,0.176
	c-0.703,0-1.759-0.264-3.164-0.791c-1.174-0.409-1.759-0.703-1.759-0.879c0-0.233,0.233-0.352,0.703-0.352
	c4.452-0.761,8.057-1.318,10.812-1.67c2.693-0.352,5.945-0.82,9.756-1.406c0.819-0.117,1.582-0.233,2.285-0.352
	c0-5.977,0-12.597,0-19.863c0-3.925-0.821-7.089-2.461-9.492c0-0.409,0.585-0.615,1.758-0.615c1.171,0,2.343,0.264,3.516,0.791
	c1.874,1.173,2.813,2.285,2.813,3.34c0,0.703-0.061,1.437-0.176,2.197c-0.353,1.29-0.527,3.722-0.527,7.295
	c0,5.684,0,10.782,0,15.293c2.753-0.527,5.302-1.083,7.646-1.67C193.811,137.257,195.948,136.963,197.941,136.963z"/>
<path fill="#4C5125" d="M190.075,214.495c1.405,0,2.899,0.264,4.481,0.791c1.464,0.47,2.197,1.114,2.197,1.934
	c0,0.997-0.47,1.494-1.406,1.494c-9.903,0-19.103,0.587-27.598,1.758c-3.811,0.47-7.998,1.29-12.568,2.461
	c-1.523,0.411-2.549,0.615-3.076,0.615c-0.294,0-0.587,0-0.879,0c-0.118,0.411-0.176,0.703-0.176,0.879
	c-0.938,12.013-2.373,22.003-4.307,29.971c-1.817,6.798-4.043,12.716-6.681,17.754c-2.402,4.219-5.654,8.086-9.756,11.602
	c-0.352,0.176-0.821,0.264-1.406,0.264v-0.352c3.104-3.985,5.653-8.086,7.646-12.305c3.749-7.499,6.386-15.233,7.91-23.203
	c1.347-7.851,2.021-15.585,2.021-23.203c0-1.934-0.294-3.31-0.879-4.131c-0.587-0.819-0.879-1.435-0.879-1.846
	c0-0.409,0.353-0.615,1.055-0.615c0.879,0,2.167,0.323,3.867,0.967c1.055,0.294,1.729,0.791,2.021,1.494
	c6.151-0.761,11.688-1.552,16.61-2.373c5.917-0.995,11.835-2.167,17.754-3.516C187.614,214.642,188.961,214.495,190.075,214.495z
	 M155.622,237.61c0.703,0,1.521,0.382,2.461,1.143c0.703,0.47,1.055,1.055,1.055,1.758c0,0.176-0.03,0.353-0.088,0.527
	c-0.411,0.879-0.703,1.524-0.879,1.934c-0.763,2.461-1.582,4.542-2.461,6.24c-1.056,2.109-2.285,3.634-3.691,4.57
	c-0.646,0.47-1.085,0.703-1.317,0.703c0.994-1.698,1.846-3.485,2.549-5.361c0.644-1.464,1.171-3.31,1.582-5.537
	c0.292-1.347,0.438-2.637,0.438-3.867l-0.352-1.758C154.919,237.728,155.152,237.61,155.622,237.61z M169.333,230.579
	c0.409,0,1.111,0.088,2.108,0.264c1.171,0.294,1.759,0.558,1.759,0.791c0,0.235-0.061,0.439-0.177,0.615
	c-0.234,0.235-0.526,0.382-0.879,0.439c-2.637,0.821-5.304,1.494-7.998,2.021c0.059,1.758,0.204,3.546,0.439,5.361
	c0.352,3.81,0.526,7.325,0.526,10.547c0,1.29-0.234,2.345-0.702,3.164c-0.703,0.938-1.29,1.406-1.759,1.406
	c-0.294,0-0.526-0.409-0.703-1.23c-0.234-0.703-0.352-2.167-0.352-4.395v-14.414c-1.349,0.235-2.403,0.352-3.164,0.352
	c-2.696,0-4.513-0.233-5.449-0.703c-0.587-0.292-0.879-0.527-0.879-0.703c0-0.176,0.116-0.264,0.353-0.264
	c3.749-0.233,6.796-0.585,9.141-1.055v-1.758c0-3.046-0.47-5.186-1.406-6.416c0-0.937,0.469-1.406,1.406-1.406
	c0.703,0,1.436,0.352,2.197,1.055c0.879,0.527,1.317,1.23,1.317,2.109c0,0.235-0.146,0.527-0.438,0.879
	c-0.411,0.879-0.615,2.052-0.615,3.516c0,0.47,0,0.967,0,1.494c1.64-0.409,3.046-0.849,4.219-1.318
	C168.688,230.697,169.039,230.579,169.333,230.579z M168.981,251.76c0.819,0,1.729,0.411,2.726,1.23
	c0.995,0.763,1.494,1.642,1.494,2.637c0,0.176-0.206,0.382-0.615,0.615c-2.521,1.7-5.86,4.513-10.021,8.438
	c-0.06,0.061-0.146,0.147-0.264,0.264l12.656-1.406c1.229-1.347,2.255-2.577,3.076-3.691c0.644-0.879,1.023-1.962,1.143-3.252
	c0-1.64,0.703-2.461,2.109-2.461c0.526,0,1.521,0.675,2.987,2.021c1.288,0.938,1.935,1.905,1.935,2.9
	c0,0.352-0.323,0.703-0.967,1.055c-2.756,1.7-6.064,4.073-9.933,7.119c-3.634,2.931-7.237,6.269-10.811,10.02
	c6.562-0.997,12.714-1.934,18.457-2.813c-1.114-1.815-1.935-2.988-2.461-3.516c-1.114-1.288-1.67-2.197-1.67-2.725
	c0-0.233,0.115-0.352,0.352-0.352c0.468,0,1.143,0.147,2.021,0.439c1.698,0.938,3.397,1.993,5.099,3.164
	c2.167,1.758,3.604,3.368,4.307,4.834c0.585,1.347,0.879,2.753,0.879,4.219c0,0.703-0.118,1.464-0.352,2.285
	c-0.294,0.585-0.646,0.879-1.055,0.879c-0.353,0-0.588-0.118-0.703-0.352c-0.821-0.703-2.109-2.315-3.867-4.834
	c-0.47-0.821-0.909-1.554-1.318-2.197h-0.088c-5.567,0.879-10.431,2.05-14.59,3.516c-4.337,1.347-7.267,2.549-8.789,3.604
	c-1.055,0.409-1.817,0.615-2.285,0.615c-0.587,0-1.317-0.587-2.197-1.758c-0.646-0.879-0.967-1.582-0.967-2.109
	c0-0.47,0.615-0.997,1.847-1.582c0.994-0.294,1.846-0.675,2.549-1.143c1.171-0.703,3.837-2.931,7.998-6.68
	c2.4-2.226,4.511-4.276,6.328-6.152c-7.149,1.173-12.218,2.725-15.205,4.658c-0.703,0-1.318-0.409-1.847-1.23
	c-0.411-0.527-0.614-1.288-0.614-2.285v-1.055c1.934-0.585,4.07-1.874,6.416-3.867c1.111-0.995,2.549-2.694,4.307-5.098
	c0.585-0.879,0.879-1.406,0.879-1.582c-0.235-0.468-0.352-0.937-0.352-1.406C167.575,252.083,168.043,251.76,168.981,251.76z
	 M166.169,205.266c1.229,0,2.782,0.439,4.658,1.318c1.874,0.879,3.075,1.7,3.604,2.461c0.585,0.821,0.879,1.788,0.879,2.9
	c0,1.7-0.703,2.549-2.108,2.549c-1.174,0-2.667-1.23-4.482-3.691c-2.169-2.813-3.252-4.54-3.252-5.186
	C165.466,205.442,165.699,205.326,166.169,205.266z M168.981,236.995c0.292,0,0.703,0.088,1.23,0.264
	c0.585,0.235,0.879,0.587,0.879,1.055l-0.353,9.492c0,0.587-0.088,1.055-0.264,1.406c-0.176,0.47-0.438,0.703-0.791,0.703
	c-0.118,0-0.352-0.352-0.703-1.055c-0.234-0.527-0.352-0.879-0.352-1.055v-2.461c0-3.867-0.176-6.152-0.527-6.854
	c-0.118-0.409-0.176-0.703-0.176-0.879C167.927,237.201,168.278,236.995,168.981,236.995z M176.716,235.5
	c0.761,0,1.552,0.352,2.373,1.055c0.761,0.527,1.143,1.114,1.143,1.758c0,0.176-0.029,0.352-0.088,0.527
	c-0.47,0.821-0.763,1.437-0.879,1.846c-0.703,2.285-1.523,4.219-2.461,5.801c-1.055,1.876-2.257,3.252-3.604,4.131
	c-0.703,0.47-1.174,0.703-1.406,0.703c1.055-1.582,1.902-3.252,2.549-5.01c0.585-1.288,1.112-2.988,1.582-5.098
	c0.292-1.288,0.438-2.489,0.438-3.604l-0.264-1.758C176.101,235.619,176.305,235.5,176.716,235.5z M193.591,227.415
	c3.046,0,4.57,0.47,4.57,1.406c0,0.587-0.353,0.938-1.056,1.055c-3.927,0.879-7.677,1.582-11.25,2.109
	c0.059,1.642,0.116,3.34,0.177,5.098c0.115,3.634,0.176,6.974,0.176,10.02c0,1.524-0.206,2.725-0.615,3.604
	c-0.587,1.173-1.085,1.758-1.494,1.758c-0.352,0-0.675-0.497-0.967-1.494c-0.294-0.703-0.439-2.226-0.439-4.57
	c0.353-5.331,0.557-10.02,0.615-14.063c-1.642,0.235-2.784,0.352-3.428,0.352c-1.466,0-2.784-0.116-3.955-0.352
	c-0.879-0.233-1.318-0.468-1.318-0.703c0-0.176,0.233-0.292,0.703-0.352c2.813-0.409,5.507-0.879,8.086-1.406
	c0-0.352,0-0.731,0-1.143c0-2.929-0.587-4.979-1.758-6.152c0-0.995,0.468-1.494,1.406-1.494c0.818,0,1.64,0.352,2.461,1.055
	c0.937,0.587,1.406,1.29,1.406,2.109c0,0.176-0.147,0.439-0.439,0.791c-0.411,0.821-0.615,1.846-0.615,3.076c0,0.352,0,0.763,0,1.23
	c1.935-0.527,3.837-1.024,5.713-1.494C192.448,227.562,193.121,227.415,193.591,227.415z M191.833,234.094
	c0.703,0,1.494,0.411,2.373,1.23c0.995,0.703,1.494,1.466,1.494,2.285c0,0.294-0.118,0.615-0.353,0.967
	c-0.879,1.055-1.406,1.993-1.582,2.813c-0.352,0.997-0.527,2.109-0.527,3.34c0,0.821,0.116,1.554,0.353,2.197
	c0.176,0.703,0.527,1.23,1.055,1.582c0.703,0.47,1.874,0.703,3.517,0.703c1.288,0,2.227-0.585,2.813-1.758
	c0.585-0.937,1.23-3.34,1.935-7.207c0-0.116,0.058-0.176,0.176-0.176c0.117,0,0.205,0.06,0.264,0.176
	c0.761,3.399,1.67,5.655,2.726,6.768c0.116,0.06,0.176,0.206,0.176,0.439c0,0.763-0.146,1.406-0.439,1.934
	c-0.646,1.29-1.611,2.228-2.899,2.813c-1.174,0.587-2.403,0.879-3.691,0.879c-1.934,0-3.663-0.38-5.186-1.143
	c-1.056-0.644-1.817-1.464-2.285-2.461c-0.411-0.761-0.615-2.226-0.615-4.395c0.468-3.222,0.703-5.595,0.703-7.119
	c0-0.819-0.118-1.435-0.353-1.846c-0.234-0.292-0.352-0.731-0.352-1.318C191.13,234.33,191.363,234.094,191.833,234.094z"/>
<g>
	<path fill="#4C5125" d="M168.938,299.938v90h-2.725v-90H168.938z"/>
	<path fill="#4C5125" d="M168.938,389.938v90h-2.725v-90H168.938z"/>
</g>
<path fill="#4C5125" d="M47.064,55.826c1.112,0,2.52,0.615,4.22,1.846c1.874,1.055,2.813,2.08,2.813,3.076
	c0,0.586-0.206,1.055-0.615,1.406c-0.938,1.113-1.582,2.578-1.934,4.395c-1.758,6.445-3.37,12.07-4.834,16.875
	c1.229-0.234,2.489-0.469,3.779-0.703c3.104-0.82,5.01-1.23,5.713-1.23h0.614c0.059-0.527,0.089-1.113,0.089-1.758
	c0-1.289-0.588-2.695-1.759-4.219c0-0.703,0.585-1.055,1.759-1.055c1.055,0,2.021,0.41,2.899,1.23
	c1.815,1.406,2.726,2.52,2.726,3.34c0,0.527-0.118,0.996-0.353,1.406c-0.997,1.172-1.612,2.256-1.846,3.252
	c-1.758,7.852-3.517,13.623-5.273,17.314c-0.411,0.879-0.879,1.758-1.406,2.637c1.935,1.523,3.545,2.988,4.835,4.395
	c2.461,2.813,3.69,5.01,3.69,6.592c0,1.816-0.587,2.725-1.758,2.725c-0.821,0-1.406-0.586-1.758-1.758
	c-2.346-3.457-4.658-6.533-6.943-9.229c-1.349,1.992-2.931,3.838-4.746,5.537c-3.224,2.93-6.534,5.039-9.932,6.328
	c-1.935,0.584-3.517,0.879-4.746,0.879c-0.47,0-0.703-0.088-0.703-0.264c2.577-1.406,4.95-2.842,7.119-4.307
	c4.922-3.691,8.466-7.148,10.635-10.371c0.059-0.059,0.146-0.117,0.264-0.176c-2.402-2.52-4.775-4.717-7.118-6.592
	c-0.703-0.527-1.056-1.113-1.056-1.758c0-0.352,0.116-0.762,0.353-1.23c0.818-2.285,1.552-5.068,2.196-8.35
	c-4.569,1.23-8.585,2.578-12.041,4.043c-0.352,0.117-0.702,0.176-1.055,0.176c-0.821,0-2.257-0.557-4.307-1.67
	c-1.35-0.762-2.021-1.377-2.021-1.846c0-0.703,0.233-1.055,0.703-1.055c0.292,0,0.761,0.117,1.406,0.352
	c0.761,0,2.988-0.205,6.68-0.615c3.691-0.352,7.383-0.879,11.074-1.582c0.585-3.164,1.171-6.709,1.758-10.635
	c0.585-4.336,0.879-8.115,0.879-11.338c0-1.113-0.382-2.314-1.143-3.604c-0.411-0.879-0.615-1.465-0.615-1.758
	C45.307,56.06,45.892,55.826,47.064,55.826z M56.732,82.72c-2.813,0.82-5.919,1.67-9.315,2.549
	c-0.471,0.059-0.909,0.146-1.318,0.264c-1.055,3.281-1.993,6.152-2.813,8.613c-0.294,0.527-0.439,0.879-0.439,1.055
	c0,0.938,0.321,1.553,0.967,1.846c2.694,1.641,5.099,3.193,7.207,4.658c1.406-2.52,2.638-5.42,3.691-8.701
	C55.823,89.664,56.497,86.236,56.732,82.72z M63.939,64.263c0.353,0,0.85,0.117,1.494,0.352c0.527,0.234,1.083,0.352,1.67,0.352
	c2.109,0,4.511-0.293,7.207-0.879c3.046-0.586,5.713-1.318,7.998-2.197c1.815-0.82,3.517-1.729,5.098-2.725
	c0.233-0.293,0.381-0.439,0.439-0.439c0.761,0,2.313,0.645,4.658,1.934c2.519,1.582,3.779,2.783,3.779,3.604
	c0,1.055-0.439,1.787-1.318,2.197c-2.052,0.938-4.278,2.402-6.68,4.395c-2.053,1.699-4.482,4.014-7.296,6.943
	c0.177,0.117,0.321,0.234,0.439,0.352c0.995,0.996,1.874,2.168,2.637,3.516c0.645,1.172,1.171,2.344,1.582,3.516
	c3.749-0.703,7.44-1.436,11.074-2.197c1.522-0.293,2.782-0.439,3.779-0.439c1.582,0,3.252,0.264,5.01,0.791
	c1.582,0.527,2.373,1.201,2.373,2.021c0,1.406-0.47,2.109-1.406,2.109c-7.031,0-13.683,0.264-19.951,0.791
	c0.059,0.293,0.116,0.586,0.177,0.879c0.761,3.047,1.143,6.006,1.143,8.877c0,10.195-1.085,17.461-3.252,21.797
	c-1.758,4.043-3.604,6.064-5.537,6.064c-0.938,0-1.642-0.471-2.109-1.406c-1.816-2.988-4.513-5.948-8.086-8.877
	c0-0.41,0.116-0.615,0.353-0.615c0.176,0,0.879,0.498,2.108,1.494c1.815,1.111,3.691,1.67,5.625,1.67
	c2.577,0,4.308-2.021,5.187-6.064c1.229-5.508,1.846-10.195,1.846-14.063c0-3.516-0.323-6.68-0.967-9.492
	c-0.703,0.059-1.378,0.117-2.021,0.176c-3.575,0.293-7.501,0.791-11.777,1.494c-1.349,0.293-2.285,0.439-2.813,0.439
	c-1.113,0-2.49-0.234-4.131-0.703c-1.466-0.41-2.197-0.732-2.197-0.967c0-0.235,0.265-0.352,0.791-0.352
	c7.384-0.938,13.888-1.816,19.513-2.637c0.644-0.059,1.288-0.146,1.934-0.264c-0.587-1.875-1.261-3.223-2.021-4.043
	c-0.997-1.406-2.813-2.842-5.449-4.307c-0.47-0.527-0.703-0.908-0.703-1.143c0-0.469,0.116-0.703,0.352-0.703h2.462
	c0.994,0.352,1.874,0.762,2.637,1.23c1.934-3.34,4.101-7.441,6.504-12.305c0.233-0.469,0.352-0.879,0.352-1.23
	c0.059-0.41-0.176-0.615-0.703-0.615c-0.938,0-2.169,0.205-3.69,0.615c-2.696,0.703-5.772,1.846-9.229,3.428
	c-1.699,0.762-2.899,1.143-3.604,1.143c-0.938,0-2.257-0.41-3.955-1.23c-1.114-0.703-1.67-1.23-1.67-1.582
	C63.588,64.498,63.704,64.263,63.939,64.263z"/>
<path fill="#4C5125" d="M61.83,159.279c1.055,0,2.343,0.674,3.866,2.021c0.938,0.645,1.406,1.494,1.406,2.549
	c0,0.293-0.146,0.557-0.438,0.791c-0.527,0.469-1.114,1.143-1.759,2.021c-0.06,0.117-0.117,0.234-0.176,0.352
	c0.353,0.059,0.731,0.146,1.144,0.264c1.464,0.527,2.987,1.406,4.569,2.637c4.452,3.398,8.671,6.152,12.656,8.262
	c4.511,2.402,11.718,5.01,21.621,7.822v0.352c0,0.41-0.499,0.674-1.494,0.791c-4.922,0.938-9.347,1.406-13.271,1.406
	c-1.759,0-2.9-0.205-3.429-0.615c-3.984-2.754-9.111-7.383-15.381-13.887c-1.113-1.113-2.607-2.373-4.481-3.779
	c-1.114-0.82-2.109-1.465-2.988-1.934c-2.872,3.75-6.007,7.236-9.404,10.459c-4.161,3.75-8.438,6.885-12.832,9.404
	c-3.81,2.227-7.471,3.838-10.985,4.834c-1.29,0.469-2.197,0.703-2.726,0.703v-0.352c6.444-3.809,12.129-7.559,17.051-11.25
	c3.28-2.695,6.444-5.537,9.492-8.525c2.694-2.754,4.716-5.479,6.064-8.174c0.526-1.113,0.791-1.963,0.791-2.549
	c-0.47-0.996-0.703-1.963-0.703-2.9C60.424,159.513,60.892,159.279,61.83,159.279z M49.174,143.898c2.167,0,3.456,0.234,3.867,0.703
	c1.171,0.41,1.758,0.967,1.758,1.67c0,1.641,0.233,4.131,0.703,7.471c0-0.059,0.027-0.088,0.088-0.088
	c2.813-0.469,4.54-0.703,5.186-0.703h2.461c0,0.352-0.234,0.586-0.702,0.703c-2.053,0.586-4.338,1.172-6.855,1.758
	c0.233,1.641,0.527,3.516,0.879,5.625c0,1.23-0.234,1.846-0.703,1.846c-1.229,0-1.934-0.615-2.108-1.846
	c-0.411-1.758-0.852-3.398-1.318-4.922c-5.098,1.113-9.522,2.344-13.271,3.691c-0.295,0.117-0.588,0.176-0.88,0.176
	c-0.82,0-2.257-0.586-4.307-1.758c-1.349-0.703-2.021-1.289-2.021-1.758c0-0.645,0.232-0.967,0.702-0.967
	c0.292,0,0.762,0.088,1.406,0.264c0.645,0,2.665-0.117,6.064-0.352c3.808-0.293,7.733-0.703,11.776-1.23
	c-1.29-3.984-2.607-6.68-3.955-8.086c-0.352-0.41-0.526-0.703-0.526-0.879C47.416,144.337,48.001,143.898,49.174,143.898z
	 M48.119,197.951c0.232,0,0.468,0.264,0.702,0.791c0.703,1.289,1.056,2.314,1.056,3.076c0,2.168-0.587,4.424-1.758,6.768
	c-0.646,1.639-1.555,2.9-2.726,3.779c-0.703,0.703-1.437,1.055-2.197,1.055c-0.526,0-0.938-0.322-1.229-0.967
	c-0.118-0.586-0.176-1.201-0.176-1.846c0-0.762,0.176-1.582,0.526-2.461c2.87-4.512,4.452-7.441,4.746-8.789
	C47.24,198.419,47.592,197.951,48.119,197.951z M76.244,186.701c0.644,0,1.67,0.117,3.075,0.352c1.698,0.527,2.55,1.025,2.55,1.494
	c0,0.293-0.118,0.557-0.353,0.791c-0.352,0.293-0.821,0.469-1.406,0.527c-4.63,0.996-9.403,1.875-14.325,2.637
	c0,6.621,0.203,13.125,0.614,19.512c0,1.934-0.294,3.428-0.879,4.482c-1.055,2.166-2.169,3.252-3.34,3.252
	c-0.879,0-1.437-0.383-1.67-1.143c-1.758-3.223-4.131-6.359-7.119-9.404v-0.352c4.335,1.934,7.147,2.9,8.438,2.9
	c0.468,0,0.791-1.086,0.967-3.252c0.292-2.813,0.438-7.588,0.438-14.326c0-0.469,0-0.908,0-1.318
	c-2.872,0.352-5.098,0.527-6.68,0.527c-3.927,0-6.504-0.352-7.734-1.055c-0.938-0.527-1.405-0.879-1.405-1.055
	c0-0.234,0.232-0.352,0.703-0.352c6.093-0.293,11.103-0.703,15.028-1.23c-0.06-1.406-0.146-2.9-0.264-4.482
	c-0.118-1.875-0.558-3.896-1.318-6.064c-0.294-0.527-0.438-1.025-0.438-1.494c0-0.527,0.468-0.791,1.406-0.791
	c0.879,0,1.934,0.498,3.163,1.494c1.172,0.645,1.759,1.436,1.759,2.373c0,0.762-0.177,1.465-0.527,2.109
	c-0.763,1.934-1.173,4.102-1.23,6.504c3.456-0.703,6.387-1.436,8.789-2.197C75.13,186.847,75.717,186.701,76.244,186.701z
	 M78.002,138.537c1.171,0,2.373,0.41,3.604,1.23c1.112,0.645,1.67,1.406,1.67,2.285c0,0.41-0.234,1.172-0.703,2.285
	c-1.055,2.051-1.876,3.633-2.461,4.746c-0.352,0.703-0.675,1.436-0.967,2.197c2.638-0.527,4.95-1.084,6.943-1.67
	c1.112-0.352,2.167-0.527,3.164-0.527c1.347,0,2.841,0.264,4.481,0.791c1.935,0.879,2.9,1.67,2.9,2.373
	c0,0.176-0.176,0.41-0.527,0.703c-0.352,0.234-0.763,0.352-1.229,0.352c-5.625,0-10.313,0.117-14.063,0.353
	c-0.938,0.059-1.964,0.146-3.076,0.264c-1.466,2.813-3.224,5.684-5.272,8.613c-0.646,0.41-1.261,0.615-1.846,0.615v-0.264
	c1.405-2.871,2.605-5.713,3.604-8.525c-0.587,0.059-1.229,0.176-1.934,0.352c-0.177,0.059-0.382,0.088-0.615,0.088
	c-0.527,0-1.378-0.234-2.549-0.703c-0.879-0.41-1.318-0.674-1.318-0.791c0-0.234,0.233-0.352,0.703-0.352
	c2.226-0.41,4.013-0.703,5.361-0.879c0.408-0.059,0.818-0.117,1.229-0.176c0.409-1.348,0.791-2.637,1.144-3.867
	c0.702-2.521,1.055-4.512,1.055-5.977c0-0.293-0.353-1.084-1.055-2.373C76.244,138.917,76.829,138.537,78.002,138.537z
	 M74.838,198.654c0.468,0,1.2,0.146,2.197,0.439c1.814,0.879,3.66,1.875,5.536,2.988c2.401,1.641,3.955,3.135,4.658,4.482
	c0.645,1.287,0.967,2.637,0.967,4.043c0,0.703-0.146,1.436-0.438,2.197c-0.235,0.646-0.558,0.967-0.967,0.967
	c-0.353,0-0.587-0.119-0.703-0.352c-0.938-0.703-2.345-2.229-4.219-4.57c-2.696-4.043-4.542-6.475-5.537-7.295
	c-1.23-1.172-1.847-2.021-1.847-2.549C74.486,198.771,74.603,198.654,74.838,198.654z"/>
<path fill="#4C5125" d="M89.252,267.171c-7.207,0-14.27,0.146-21.183,0.439c-5.566,0.352-11.514,1.055-17.842,2.109
	c-2.813,0.646-6.388,1.523-10.723,2.637c-0.821,0.176-1.23,0.293-1.23,0.352c-0.82,0-2.284-0.439-4.395-1.318
	c-1.758-0.996-2.637-1.611-2.637-1.846s0.232-0.352,0.702-0.352c1.874-0.117,4.014-0.293,6.416-0.527
	c23.145-2.52,38.524-4.424,46.144-5.713c3.632-0.527,6.504-0.791,8.613-0.791c0.526,0,2.05,0.439,4.569,1.318
	c2.343,0.996,3.517,1.846,3.517,2.549c0,1.406-0.471,2.109-1.406,2.109c-0.821,0-2.373-0.176-4.658-0.527
	C92.972,267.318,91.01,267.171,89.252,267.171z"/>
<path fill="#4C5125" d="M73.607,344.479c0.585,0,1.464,0.088,2.638,0.264c1.522,0.41,2.284,0.762,2.284,1.055
	c0,0.234-0.088,0.439-0.264,0.615c-0.294,0.234-0.674,0.381-1.143,0.439c-3.811,1.055-7.734,1.903-11.777,2.549
	c0.058,0,0.117,0.029,0.176,0.088c1.641,0.762,2.461,1.553,2.461,2.373c-0.118,0.352-0.233,0.82-0.352,1.406
	c-0.527,1.405-0.997,4.717-1.406,9.932c3.222-0.879,6.094-1.758,8.613-2.637c1.991-0.646,3.34-0.967,4.043-0.967
	c3.749,0.059,5.625,0.85,5.625,2.372c0,0.938-0.762,1.466-2.285,1.582c-1.876,0.177-4.307,0.439-7.295,0.791
	c-1.992,0.293-3.838,0.438-5.537,0.438c-1.349,0-2.432-0.059-3.252-0.176c-0.234,3.398-0.41,7.5-0.527,12.306
	c3.926,2.168,7.588,3.866,10.986,5.098c4.101,1.522,13.535,3.279,28.301,5.272v0.703c0,0.584-0.703,1.023-2.108,1.318
	c-9.786,2.461-15.293,3.691-16.523,3.691c-1.406,0-2.637-0.324-3.69-0.967c-7.91-3.867-13.712-7.119-17.402-9.756
	c-7.441-5.332-13.711-9.609-18.81-12.832c-1.29,2.285-2.695,4.307-4.219,6.063c-2.988,3.574-6.476,6.271-10.459,8.086
	c-1.876,0.817-3.136,1.229-3.779,1.229h-0.352c4.159-3.104,7.646-6.299,10.459-9.58c2.285-2.577,4.307-5.858,6.064-9.844
	c1.171-2.52,1.758-4.834,1.758-6.942l-0.353-2.373c0-0.47,0.47-0.703,1.406-0.703c1.055,0,2.167,0.586,3.34,1.758
	c1.056,0.703,1.582,1.611,1.582,2.726c0,0.352-0.146,0.703-0.438,1.055c-1.056,1.582-1.816,2.725-2.285,3.428
	c-0.47,1.055-0.997,2.08-1.582,3.076c5.449,2.754,10.399,5.332,14.854,7.734c0.177,0.117,0.321,0.205,0.439,0.264
	c0.293-12.188,0.176-19.277-0.353-21.27c-0.294-1.172-0.702-2.168-1.229-2.988c-0.294-0.352-0.527-0.703-0.703-1.055
	c-1.289,0.176-2.315,0.264-3.076,0.264c-3.282,0-5.479-0.293-6.592-0.879c-0.762-0.41-1.143-0.703-1.143-0.879
	s0.232-0.264,0.702-0.264c6.21-0.353,11.045-0.88,14.502-1.582c2.813-0.587,5.243-1.23,7.296-1.935
	C72.729,344.597,73.197,344.479,73.607,344.479z M42.318,331.031c0.819,0,1.67,0.732,2.55,2.197c0.352,0.645,0.585,1.26,0.702,1.846
	c9.901-0.645,22.997-2.402,39.287-5.273c0.82-0.059,1.406-0.088,1.759-0.088c0.937,0,2.637,1.025,5.098,3.076
	c2.694,2.987,4.043,4.862,4.043,5.625c0,1.289-1.025,1.935-3.076,1.935c-3.164,0-7.295,0.879-12.393,2.637
	c-0.234,0-0.353-0.117-0.353-0.353s0.791-1.729,2.373-4.481c1.23-2.402,1.846-3.926,1.846-4.57c0-0.117-0.146-0.264-0.438-0.439
	c-0.646-0.176-1.289-0.264-1.935-0.264c-5.098,0-10.459,0.41-16.084,1.23c-4.569,0.527-10.459,1.583-17.666,3.165
	c-1.112,0.233-1.876,0.381-2.284,0.438c-0.177,1.349-0.733,3.019-1.67,5.011c-1.23,2.754-2.373,4.657-3.429,5.713
	c-0.82,0.586-1.554,0.879-2.196,0.879c-0.471,0-0.909-0.353-1.318-1.056c-0.235-0.646-0.353-1.348-0.353-2.108
	c0-0.996,0.177-1.875,0.527-2.637c1.171-1.699,2.549-5.421,4.131-11.163C41.615,331.471,41.907,331.031,42.318,331.031z
	 M58.139,318.463c1.348,0,3.046,0.498,5.098,1.494c1.935,0.938,3.223,1.875,3.867,2.813c0.585,0.938,0.879,2.051,0.879,3.34
	c0,1.934-0.703,2.9-2.108,2.9c-1.289,0-3.02-1.436-5.187-4.307c-2.402-3.164-3.604-5.156-3.604-5.977
	C57.084,318.551,57.436,318.463,58.139,318.463z"/>
<path fill="#4C5125" d="M79.892,407.679c0.586,0,1.553,0.088,2.9,0.264c1.582,0.41,2.373,0.762,2.373,1.055
	s-0.117,0.557-0.353,0.791c-0.352,0.352-0.819,0.557-1.405,0.615c-3.398,0.762-6.798,1.406-10.195,1.934
	c0.059,0.059,0.146,0.117,0.264,0.176c1.465,0.996,2.197,1.934,2.197,2.813c0,0.116-0.176,0.352-0.527,0.702
	c-0.41,0.703-0.674,1.582-0.791,2.638c-0.352,1.405-0.703,2.93-1.055,4.57c3.867-0.586,7.412-1.261,10.635-2.021
	c0.646-0.176,1.289-0.264,1.935-0.264c0.702,0,1.963,0.438,3.778,1.317c2.402,1.173,3.604,2.021,3.604,2.55
	c-0.06,1.112-0.558,2.021-1.494,2.725c-1.816,1.465-4.717,5.479-8.701,12.041c-0.234,0.469-0.469,0.703-0.703,0.703
	c-1.406,0-2.108-0.353-2.108-1.055c0.293-0.41,0.586-0.908,0.879-1.494c-6.855,0-13.595,0.438-20.215,1.317
	c-0.177,0.06-0.382,0.088-0.615,0.088c0.526,0.234,1.084,0.558,1.67,0.968c0.938,0.762,1.406,1.522,1.406,2.285
	c0,0.409-0.089,0.79-0.265,1.143c-0.996,2.051-2.08,4.072-3.252,6.063c5.156-0.409,9.933-0.819,14.326-1.229
	c0.059-0.762,0.088-1.465,0.088-2.109c0-0.703-0.233-1.522-0.703-2.461c0-0.469,0.47-0.703,1.406-0.703
	c0.762,0,1.582,0.41,2.461,1.23c1.523,1.348,2.314,2.49,2.373,3.428c6.328-0.586,11.66-1.143,15.996-1.67
	c0.703-0.117,1.26-0.176,1.67-0.176c1.699,0,3.662,0.381,5.889,1.143c1.992,1.056,2.988,2.08,2.988,3.076
	c0,0.703-0.615,1.055-1.846,1.055c-1.582,0-4.308-0.116-8.174-0.352c-2.461-0.234-4.541-0.352-6.24-0.352
	c-4.103,0-8.027,0.028-11.777,0.088c-0.469,0.586-0.731,1.024-0.791,1.317c-1.875,4.396-3.926,8.058-6.151,10.986
	c3.223,0.996,5.684,1.904,7.383,2.725c3.983,1.935,7.412,4.396,10.283,7.384c1.172,1.934,1.758,3.836,1.758,5.713
	c0,1.11-0.47,1.67-1.406,1.67c-1.289,0-4.395-2.168-9.316-6.504c-2.987-2.756-6.797-5.332-11.426-7.734
	c-4.57,4.627-9.434,7.91-14.59,9.844c-3.867,1.287-8.027,1.935-12.48,1.935c-2.108,0-3.163-0.353-3.163-1.056
	c3.75-0.702,7.061-1.582,9.932-2.637c5.039-1.815,9.99-4.602,14.854-8.35c0.646-0.527,1.23-1.025,1.759-1.494
	c-3.75-1.992-7.324-3.312-10.724-3.955c-1.172-0.234-1.758-0.967-1.758-2.197c0-0.586,0.381-1.112,1.144-1.582
	c0.938-0.703,1.934-2.461,2.987-5.272c-6.444,0.41-12.891,1.024-19.336,1.846c-1.465,0.293-2.959,0.439-4.481,0.439
	c-1.406,0-2.931-0.205-4.57-0.615c-1.406-0.353-2.109-0.586-2.109-0.703c0-0.527,0.234-0.791,0.703-0.791
	c4.922,0,15.029-0.586,30.322-1.758c0.176-0.41,0.352-0.851,0.527-1.318c1.229-2.637,1.846-4.893,1.846-6.768
	c0-0.586-0.234-1.289-0.703-2.109c0-0.059,0-0.117,0-0.176c-4.512,0.586-7.324,0.879-8.438,0.879c-0.293,0-0.557-0.029-0.791-0.088
	c-0.059,1.465-0.264,2.197-0.614,2.197c-0.47,0-0.879-0.41-1.23-1.23c-0.351-0.82-0.526-1.465-0.526-1.934
	c-0.82-1.23-1.466-3.457-1.935-6.681c-0.527-1.875-1.143-3.34-1.846-4.395c-0.527-0.996-1.26-1.729-2.197-2.197
	c0-0.762,0.234-1.143,0.703-1.143c0.938,0,2.051,0.176,3.34,0.526c0.762,0.41,1.318,0.763,1.67,1.056
	c3.164-0.293,6.738-0.703,10.724-1.23c-0.47-3.75-0.851-6.094-1.144-7.03c-0.41-1.056-0.85-1.847-1.318-2.373
	c-0.409-0.41-0.674-0.763-0.79-1.056c-3.574-0.059-5.89-0.409-6.943-1.055c-0.879-0.353-1.318-0.615-1.318-0.791
	c0-0.234,0.234-0.353,0.703-0.353c8.848-0.41,15.732-1.024,20.654-1.846c4.043-0.762,7.5-1.611,10.371-2.549
	C78.573,407.824,79.247,407.679,79.892,407.679z M49.569,438.879c2.345-0.059,5.42-0.293,9.229-0.703
	c-0.353-4.629-0.674-8.438-0.967-11.426c-3.164,0.469-6.533,0.996-10.107,1.582L49.569,438.879z M73.739,450.656
	c-5.508,0.117-10.459,0.293-14.854,0.526c-1.348,2.228-2.783,4.453-4.307,6.681c0,0.645,0.586,1.024,1.758,1.143
	c4.276,0.996,7.998,1.935,11.162,2.813c1.875-2.168,3.428-4.57,4.657-7.207C72.86,453.322,73.388,452.004,73.739,450.656z
	 M70.048,423.674c0.234-2.521,0.352-4.336,0.352-5.448c0-1.406-0.321-3.047-0.967-4.922c-0.117-0.117-0.176-0.234-0.176-0.353
	c-1.523,0.233-3.019,0.438-4.482,0.614c-2.168,0.353-4.102,0.646-5.801,0.879c1.055,0.527,1.582,1.056,1.582,1.582
	c-0.059,0.293-0.117,0.703-0.176,1.23c-0.234,1.172-0.264,3.721-0.088,7.646c2.813-0.353,5.83-0.732,9.053-1.144
	C69.579,423.762,69.813,423.732,70.048,423.674z M61.171,437.824c0.352,0,0.645-0.029,0.879-0.088
	c2.344-0.234,4.424-0.47,6.24-0.703c0.762-4.806,1.289-8.789,1.582-11.953c-2.754,0.352-5.947,0.791-9.58,1.318
	C60.468,429.504,60.761,433.313,61.171,437.824z M70.575,436.594c1.758-0.293,3.311-0.586,4.657-0.879
	c1.056-0.233,1.904-0.352,2.55-0.352c1.112,0,2.051,0.176,2.813,0.526c0.469,0.293,0.82,0.527,1.055,0.703
	c0.763-1.815,1.554-4.276,2.373-7.383c0.527-1.582,0.791-3.047,0.791-4.395c0-0.47-0.469-0.703-1.405-0.703
	c-1.642,0-5.099,0.233-10.371,0.703c-0.177,0.938-0.382,1.846-0.615,2.725C71.894,430.588,71.278,433.605,70.575,436.594z"/>
<path fill="#4C5125" d="M30.365,513.152c0.879,0,1.963,0.205,3.252,0.614c1.348,0.646,2.021,1.406,2.021,2.285v0.088
	c1.463-0.176,2.813-0.438,4.043-0.791c2.342-0.293,4.512-0.996,6.504-2.108c1.349-0.703,2.285-1.056,2.813-1.056
	c0.645,0,1.963,0.381,3.955,1.144c2.284,1.172,3.428,2.08,3.428,2.725c0,0.646-0.146,1.172-0.439,1.582
	c-2.637,3.34-4.219,5.918-4.746,7.734c-0.702,1.934-1.229,3.75-1.582,5.448c0.294,0.06,0.558,0.146,0.791,0.265
	c1.173,0.703,1.759,1.172,1.759,1.406c0,0.233-0.146,0.352-0.439,0.352c-2.871,0-5.684,0.322-8.438,0.967
	c-2.461,0.586-3.955,0.879-4.482,0.879c-0.41,0-0.791-0.059-1.143-0.176l0.438,4.043c-0.059,1.816-0.41,2.726-1.055,2.726
	c-0.41,0-0.762-0.382-1.055-1.144c-0.234-0.645-0.353-1.172-0.353-1.582c-0.703-2.285-1.289-6.328-1.758-12.129
	c-0.471-3.457-1.086-6.182-1.846-8.174c-0.527-1.758-1.201-3.105-2.021-4.043C30.014,513.504,30.131,513.152,30.365,513.152z
	 M37.484,532.4c0.937-0.06,2.197-0.265,3.779-0.615c1.934-0.293,3.516-0.674,4.746-1.144c0.232-0.176,0.469-0.264,0.703-0.264
	c1.055-5.977,1.582-10.313,1.582-13.008c0-0.469-0.234-0.703-0.703-0.703c-0.762,0-2.256,0.205-4.482,0.615
	c-2.58,0.526-4.834,0.791-6.768,0.791c-0.176,0-0.353,0-0.527,0L37.484,532.4z M58.139,537.059c0.879,0,1.611,0.353,2.197,1.056
	c0.879,0.41,1.317,1.112,1.317,2.108c0,1.173-0.118,2.168-0.352,2.988c-0.762,2.695-1.758,6.211-2.988,10.547
	c4.513-1.229,9.142-2.256,13.888-3.076c1.758-0.293,3.633-0.731,5.625-1.317c0.702-0.234,1.286-0.353,1.758-0.353
	c1.287,0,3.018,0.322,5.186,0.968c1.23,0.526,1.847,1.143,1.847,1.846s-0.822,1.055-2.462,1.055l-10.547-0.352
	c-2.229,0-4.307,0.233-6.239,0.703c-3.691,0.352-6.563,0.907-8.613,1.67c-0.295,0.059-0.56,0.146-0.791,0.264
	c-0.06,0.176-0.119,0.352-0.176,0.527l-2.285,0.879l-0.527,0.264c-0.646,0-1.289-0.234-1.934-0.703
	c-0.763-0.352-1.144-0.731-1.144-1.143c2.285-1.992,3.748-3.927,4.396-5.802c0.996-1.758,1.494-4.745,1.494-8.965
	c-0.472-0.819-0.703-1.494-0.703-2.021C57.084,537.439,57.436,537.059,58.139,537.059z M60.248,497.684
	c0.879,0,1.963,0.205,3.252,0.615c0.584,0.293,1.055,0.615,1.405,0.967c9.082-1.055,16.113-2.313,21.095-3.778
	c0.293-0.177,0.615-0.265,0.967-0.265c0.527,0,1.67,0.353,3.428,1.056c2.638,1.229,3.955,2.168,3.955,2.813
	c0,0.353-0.207,0.732-0.615,1.144c-1.289,1.172-2.168,2.637-2.637,4.395c-1.641,4.805-3.604,9.521-5.889,14.15
	c-0.234,0.233-0.586,0.352-1.056,0.352c-0.352,0-0.674-0.293-0.967-0.879c-0.233-0.41-0.352-0.791-0.352-1.143
	c-2.813,0.116-5.568,0.409-8.262,0.879c-3.048,0.526-4.894,0.791-5.537,0.791c-0.234,0-0.472-0.029-0.703-0.088
	c-0.06,0.702-0.176,1.229-0.353,1.581c0.353,0.117,0.879,0.382,1.582,0.791c1.056,0.646,1.582,1.437,1.582,2.373
	c0,0.293-0.119,0.498-0.352,0.615c-0.879,0.586-1.877,1.523-2.988,2.813c-0.234,0.233-0.471,0.469-0.703,0.703
	c0.703,0.059,1.463,0.088,2.285,0.088c0.584,0,1.26-0.088,2.021-0.265c3.983-0.703,9.608-1.436,16.875-2.196
	c1.348-0.117,2.957-0.439,4.834-0.968c0.176-0.116,0.352-0.176,0.526-0.176c0.584,0,2.14,0.703,4.658,2.109
	c2.754,1.641,4.131,2.695,4.131,3.164c0,0.293-0.119,0.645-0.352,1.055c-1.992,3.223-3.164,5.918-3.517,8.086
	c-0.233,11.896-0.646,18.984-1.229,21.271c-0.586,2.401-1.904,4.512-3.955,6.327c-2.404,2.228-4.074,3.341-5.01,3.341
	c-1.113,0-1.847-0.353-2.197-1.056c-1.701-2.871-3.604-5.889-5.713-9.053l-0.879-1.143c0-0.234,0.116-0.353,0.352-0.353
	c4.688,1.64,7.615,2.461,8.789,2.461c0.937,0,1.728-0.586,2.373-1.758c1.348-1.992,2.373-6.151,3.076-12.479
	c0.117-3.105,0.176-6.533,0.176-10.283c0-3.105-0.176-5.156-0.527-6.152c-0.879-1.289-2.108-1.934-3.69-1.934
	c-1.992,0-3.986,0.059-5.978,0.176c-3.516,0.293-6.504,0.557-8.965,0.791c0.058,0,0.117,0,0.176,0c0.293,0,0.937,0.293,1.935,0.879
	c1.055,0.703,1.582,1.465,1.582,2.285c0,0.41-0.119,0.703-0.353,0.879c-0.646,0.469-1.317,1.143-2.021,2.021
	c1.582,0.469,3.133,1.024,4.658,1.67c2.166,0.996,3.571,1.934,4.219,2.813c0.584,0.762,0.879,1.582,0.879,2.461
	c0,0.703-0.119,1.437-0.352,2.197c-0.295,0.645-0.646,0.967-1.056,0.967c-0.352,0-0.586-0.117-0.703-0.352
	c-0.821-0.47-2.053-1.523-3.69-3.164c-2.404-2.695-4.015-4.336-4.834-4.922c-0.119-0.117-0.207-0.205-0.265-0.265
	c-2.229,2.754-4.338,4.951-6.327,6.593c-1.056,0.819-2.404,1.61-4.043,2.372c-0.472,0.353-0.88,0.527-1.23,0.527H63.41
	c1.989-1.875,3.836-3.896,5.536-6.063c2.228-2.755,3.81-5.273,4.746-7.56c0.47-0.527,0.703-1.522,0.703-2.988
	c0-0.116,0.117-0.205,0.353-0.264c-1.525,0.176-2.845,0.353-3.955,0.527c-0.41,0.059-0.763,0.088-1.056,0.088
	c-1.229,0-2.461-0.234-3.69-0.703c-0.06,0-0.119,0-0.176,0c-1.406,1.348-2.783,2.461-4.132,3.34
	c-0.997,0.703-2.284,1.349-3.866,1.935c-0.41,0.293-0.791,0.438-1.144,0.438h-0.352c1.875-1.522,3.604-3.223,5.186-5.098
	c2.051-2.285,3.545-4.336,4.482-6.152c0.352-0.526,0.526-1.377,0.526-2.549v-0.088c-0.118-0.176-0.233-0.381-0.352-0.615
	c-0.234-0.703-0.352-1.289-0.352-1.758c-0.763-1.816-1.406-5.01-1.935-9.58c-0.471-2.754-1.113-4.922-1.934-6.504
	c-0.527-1.465-1.23-2.549-2.109-3.252C59.896,498.035,60.014,497.684,60.248,497.684z M68.246,517.371
	c1.348-0.117,3.164-0.381,5.448-0.791c2.638-0.353,4.775-0.82,6.416-1.406c0.47-0.176,0.88-0.264,1.23-0.264
	c0.82,0,1.522,0.088,2.109,0.264c0.176-0.352,0.352-0.82,0.526-1.406c0.646-2.168,1.287-5.243,1.935-9.229
	c0.231-1.523,0.352-2.988,0.352-4.396c0-0.938-0.703-1.405-2.109-1.405c-0.821,0-2.196,0.146-4.131,0.438
	c-4.688,0.527-9.492,1.201-14.414,2.021l1.056,6.592c2.754-0.41,5.272-0.908,7.559-1.494c0.527-0.117,0.908-0.176,1.144-0.176
	c3.516,0,5.272,0.469,5.272,1.406c0,0.233-0.176,0.409-0.527,0.526c-2.229,0.41-4.307,0.732-6.239,0.967
	c-1.582,0.177-2.607,0.265-3.076,0.265c-1.465,0-2.756-0.06-3.867-0.176L68.246,517.371z"/>
<path fill="#4C5125" d="M79.496,606.982c0,9.491-5.685,14.385-17.052,14.678v11.426h-3.34v-17.051c4.22,0,7.383-0.586,9.492-1.758
	c3.748-2.052,5.625-5.479,5.625-10.283c0-2.871-0.791-5.127-2.373-6.769c-1.35-1.465-3.02-2.196-5.01-2.196
	c-1.525,0-3.223,0.762-5.098,2.284c-1.816,1.466-3.312,2.197-4.482,2.197c-1.289,0-2.344-0.352-3.164-1.055
	c-0.762-0.703-1.143-1.641-1.143-2.813c0-3.516,3.104-5.272,9.315-5.272c4.512,0,8.438,1.522,11.777,4.57
	C77.68,598.164,79.496,602.178,79.496,606.982z M65.697,646.357c0,1.229-0.497,2.313-1.493,3.252
	c-0.998,0.819-2.197,1.229-3.604,1.229s-2.58-0.438-3.516-1.318c-0.938-0.879-1.406-1.934-1.406-3.163
	c0-1.289,0.469-2.373,1.406-3.253c0.936-0.819,2.108-1.229,3.516-1.229s2.637,0.439,3.691,1.318
	C65.227,644.072,65.697,645.127,65.697,646.357z"/>
</svg>
