<?xml version="1.0" encoding="utf-8"?>
<!-- Generator: Adobe Illustrator 16.0.0, SVG Export Plug-In . SVG Version: 6.00 Build 0)  -->
<!DOCTYPE svg PUBLIC "-//W3C//DTD SVG 1.1//EN" "http://www.w3.org/Graphics/SVG/1.1/DTD/svg11.dtd">
<svg version="1.1" id="圖層_1" xmlns="http://www.w3.org/2000/svg" xmlns:xlink="http://www.w3.org/1999/xlink" x="0px" y="0px"
	 width="256.203px" height="689.024px" viewBox="0 0 256.203 689.024" enable-background="new 0 0 256.203 689.024"
	 xml:space="preserve">
<path fill="#4C5125" d="M206.318,37.579c0.234,0,1.465,0.499,3.691,1.494c2.227,1.055,3.34,1.846,3.34,2.373
	c0,0.294-0.293,0.646-0.879,1.055c-1.641,0.938-2.813,1.964-3.516,3.076c-0.997,1.29-1.992,2.9-2.988,4.834
	c1.288-0.176,2.605-0.556,3.955-1.143c0.352-0.058,0.674-0.088,0.967-0.088s1.67,0.527,4.131,1.582
	c2.402,1.23,3.604,2.081,3.604,2.549c0,0.411-0.322,0.821-0.968,1.23c-1.699,0.938-2.987,1.993-3.866,3.164
	c-1.113,1.349-2.168,3.047-3.164,5.098c0.293-0.058,0.585-0.088,0.879-0.088c2.167-0.117,4.716-0.497,7.646-1.143
	c0.293-0.117,0.586-0.176,0.879-0.176c0.586,0,2.109,0.733,4.57,2.197c2.813,1.582,4.219,2.608,4.219,3.076
	c0,0.235-0.117,0.499-0.352,0.791c-2.052,2.228-3.223,4.131-3.516,5.713c-0.295,8.613-0.762,13.74-1.406,15.381
	c-0.646,1.758-2.141,3.252-4.482,4.482c-2.754,1.64-4.658,2.461-5.713,2.461s-1.758-0.382-2.109-1.143
	c-1.641-2.872-3.457-5.977-5.448-9.316l-0.879-1.143c0-0.235,0.116-0.352,0.353-0.352c4.512,1.934,7.323,2.9,8.438,2.9
	c1.111,0,2.078-0.411,2.9-1.23c1.698-1.173,3.018-3.722,3.955-7.646c0.116-1.815,0.176-3.896,0.176-6.24
	c0-2.402-0.207-4.013-0.615-4.834c-0.821-1.055-2.021-1.582-3.604-1.582c-3.398,0-6.855,0.118-10.371,0.352
	c-10.139,0.646-17.813,1.318-23.027,2.021c-0.646,0.118-1.23,0.176-1.758,0.176c-1.174,0-2.344-0.264-3.517-0.791
	c-2.461,2.755-4.979,5.216-7.56,7.383c-0.176,0.118-0.352,0.235-0.526,0.352c0.585,0.059,1.2,0.264,1.847,0.615
	c2.051,0.938,3.572,2.081,4.569,3.428c0.879,1.114,1.317,2.813,1.317,5.098c0,0.527-0.146,0.996-0.438,1.406
	c-0.353,0.468-0.674,0.703-0.967,0.703c-0.586,0-1.173-0.382-1.758-1.143c-1.289-1.349-3.019-4.248-5.187-8.701
	c-0.176-0.233-0.293-0.439-0.352-0.615c-4.57,3.458-9.756,6.034-15.557,7.734v-0.352c7.265-5.449,11.776-8.906,13.535-10.371
	c5.272-4.628,9.932-9.697,13.975-15.205c3.222-4.511,6.152-9.521,8.789-15.029c-2.988,0.586-6.096,1.318-9.316,2.197
	c-0.352,0.235-0.674,0.352-0.967,0.352c-0.527,0-1.262-0.292-2.197-0.879c-0.646-0.468-0.967-0.761-0.967-0.879
	c0-0.233,0.264-0.352,0.791-0.352c2.402-0.058,4.188-0.233,5.361-0.527c2.93-0.585,5.625-1.112,8.086-1.582
	c1.111-2.343,2.139-4.775,3.076-7.295c1.111-2.519,1.67-5.126,1.67-7.822c0-1.406-0.264-2.578-0.791-3.516
	c-0.41-0.879-0.615-1.464-0.615-1.758c0-0.644,0.585-0.967,1.758-0.967c1.172,0,2.52,0.499,4.043,1.494
	c1.758,0.879,2.637,1.993,2.637,3.34c0,0.762-0.382,1.437-1.143,2.021c-0.997,0.821-1.641,1.7-1.934,2.637
	c-1.642,4.102-3.224,7.853-4.746,11.25c1.582-0.233,3.045-0.409,4.395-0.527c2.109-0.117,4.275-0.615,6.504-1.494
	C205.586,37.609,205.968,37.579,206.318,37.579z M174.327,25.186c0.646,0,1.376,0.176,2.196,0.527
	c1.992,0.938,3.545,2.021,4.658,3.252c0.82,1.173,1.23,2.872,1.23,5.098c0,0.527-0.176,1.055-0.527,1.582
	c-0.41,0.527-0.82,0.791-1.23,0.791c-0.586,0-1.143-0.38-1.67-1.143c-1.172-1.406-2.813-4.276-4.922-8.613
	c-0.293-0.468-0.438-0.849-0.438-1.143C173.741,25.304,173.977,25.186,174.327,25.186z M186.721,54.805
	c-0.41,0.646-0.822,1.318-1.23,2.021c-2.109,3.164-4.307,6.064-6.592,8.701c0.645,0.059,1.348,0.088,2.108,0.088
	c0.996,0,2.052-0.058,3.164-0.176c5.625-0.703,13.125-1.464,22.5-2.285c0.879-1.288,1.582-2.813,2.108-4.57
	c0.47-1.464,0.703-2.988,0.703-4.57c0-1.055-0.703-1.611-2.108-1.67c-1.406,0-3.34,0.176-5.801,0.527
	c-3.574,0.527-7.354,1.406-11.339,2.637c-0.293,0.176-0.557,0.264-0.791,0.264c-0.586,0-1.405-0.292-2.461-0.879
	C186.865,54.835,186.777,54.805,186.721,54.805z M180.305,71.68c1.055,0,2.401,0.558,4.043,1.67
	c1.522,1.173,2.519,2.256,2.987,3.252c0.526,1.055,0.791,2.315,0.791,3.779c0,0.937-0.382,1.406-1.144,1.406
	c-1.055,0-2.432-1.406-4.131-4.219c-1.934-3.164-2.899-5.126-2.899-5.889L180.305,71.68L180.305,71.68z M193.575,41.27
	c-2.228,4.864-4.308,8.995-6.24,12.393c1.699-0.117,2.931-0.292,3.69-0.527c4.513-1.055,8.32-1.787,11.427-2.197
	c0.761-1.288,1.376-2.813,1.846-4.57c0.409-1.523,0.615-3.046,0.615-4.57c0-0.937-0.703-1.435-2.108-1.494
	c-1.816,0-4.338,0.235-7.56,0.703C194.659,41.065,194.104,41.153,193.575,41.27z M191.555,70.186c1.055,0,2.401,0.558,4.043,1.67
	c1.522,0.997,2.519,1.993,2.987,2.988c0.526,0.938,0.791,2.081,0.791,3.428c0,0.938-0.382,1.406-1.144,1.406
	c-1.055,0-2.432-1.288-4.131-3.867c-1.934-2.988-2.899-4.863-2.899-5.625H191.555z M203.154,69.131c0.703,0,1.465,0.176,2.285,0.527
	c2.109,0.762,3.722,1.7,4.834,2.813c0.879,0.997,1.318,2.461,1.318,4.395c0,0.47-0.176,0.938-0.527,1.406
	c-0.469,0.527-0.879,0.791-1.229,0.791c-0.586,0-1.173-0.38-1.758-1.143c-1.289-1.112-3.019-3.632-5.187-7.559
	c-0.293-0.352-0.438-0.644-0.438-0.879C202.51,69.25,202.745,69.131,203.154,69.131z"/>
<path fill="#4C5125" d="M177.447,113.464c0.937,0,2.109,0.763,3.516,2.285c1.171,1.29,1.758,2.549,1.758,3.779
	c0,0.763-0.382,1.437-1.143,2.021c-0.879,0.587-1.467,1.23-1.758,1.934c-2.932,4.922-5.686,9.112-8.262,12.568
	c1.582,2.285,2.373,4.015,2.373,5.186c0,0.47-0.119,1.202-0.353,2.197c-0.235,1.466-0.353,2.285-0.353,2.461l-0.352,30.234
	c0,1.172-0.206,2.402-0.615,3.691c-0.41,1.699-0.791,2.549-1.143,2.549c-1.174,0-2.285-1.876-3.34-5.625
	c-0.353-0.997-0.527-1.816-0.527-2.461c0-1.582,0.85-6.444,2.549-14.59c0.645-2.577,0.967-7.44,0.967-14.59
	c0-2.519-0.293-4.804-0.879-6.855c-0.527,0.646-1.025,1.23-1.494,1.758c-4.688,5.098-8.965,8.789-12.832,11.074
	c-2.108,1.466-3.486,2.197-4.131,2.197c-0.234,0-0.352-0.264-0.352-0.791c6.68-6.034,12.068-11.777,16.172-17.227
	c3.104-4.219,5.625-8.525,7.559-12.92c0.819-2.637,1.23-4.54,1.23-5.713l-0.352-2.461
	C175.689,113.699,176.273,113.464,177.447,113.464z M221.393,138.513c1.758,0,3.691,0.294,5.801,0.879
	c2.52,1.055,3.779,2.052,3.779,2.988c0,0.176-0.264,0.439-0.791,0.791c-0.41,0.352-0.879,0.527-1.406,0.527
	c-8.203,0-15.381,0.206-21.532,0.615c-0.06,11.134-0.177,18.721-0.353,22.764c-0.176,6.563-0.586,11.835-1.229,15.82
	c-0.763,3.867-1.494,5.801-2.197,5.801c-0.411,0-0.646-1.992-0.702-5.977c-0.177-1.173-0.295-13.856-0.353-38.057
	c-0.294,0-0.587,0.03-0.88,0.088c-4.569,0.352-10.078,1.23-16.522,2.637c-0.353,0.118-0.763,0.176-1.229,0.176
	c-0.703,0-1.758-0.264-3.164-0.791c-1.174-0.409-1.758-0.703-1.758-0.879c0-0.233,0.232-0.352,0.703-0.352
	c4.451-0.761,8.055-1.318,10.811-1.67c2.693-0.352,5.945-0.819,9.756-1.406c0.818-0.116,1.582-0.233,2.285-0.352
	c0-5.978,0-12.597,0-19.863c0-3.925-0.821-7.089-2.461-9.492c0-0.409,0.585-0.615,1.758-0.615c1.171,0,2.343,0.264,3.516,0.791
	c1.875,1.173,2.813,2.285,2.813,3.34c0,0.703-0.06,1.437-0.177,2.197c-0.352,1.29-0.526,3.722-0.526,7.295
	c0,5.685,0,10.782,0,15.293c2.753-0.527,5.302-1.083,7.646-1.67C217.262,138.807,219.398,138.513,221.393,138.513z"/>
<path fill="#4C5125" d="M213.525,214.574c1.406,0,2.9,0.264,4.482,0.791c1.465,0.469,2.197,1.113,2.197,1.934
	c0,0.996-0.471,1.494-1.406,1.494c-9.902,0-19.104,0.586-27.598,1.758c-3.811,0.469-7.998,1.289-12.568,2.461
	c-1.523,0.41-2.549,0.615-3.076,0.615c-0.293,0-0.586,0-0.879,0c-0.117,0.41-0.176,0.703-0.176,0.879
	c-0.938,12.012-2.373,22.002-4.307,29.971c-1.816,6.797-4.043,12.714-6.68,17.753c-2.404,4.219-5.656,8.086-9.757,11.602
	c-0.352,0.176-0.821,0.264-1.405,0.264v-0.352c3.104-3.986,5.653-8.086,7.646-12.305c3.749-7.5,6.386-15.234,7.91-23.203
	c1.348-7.852,2.021-15.586,2.021-23.203c0-1.934-0.293-3.311-0.879-4.131c-0.586-0.82-0.879-1.436-0.879-1.846
	c0-0.41,0.352-0.615,1.055-0.615c0.879,0,2.168,0.322,3.867,0.967c1.055,0.293,1.729,0.791,2.021,1.494
	c6.152-0.762,11.689-1.553,16.611-2.373c5.918-0.996,11.834-2.168,17.754-3.516C211.064,214.72,212.413,214.574,213.525,214.574z
	 M179.072,237.689c0.703,0,1.523,0.381,2.462,1.143c0.702,0.469,1.055,1.055,1.055,1.758c0,0.176-0.03,0.352-0.088,0.527
	c-0.41,0.879-0.703,1.523-0.879,1.934c-0.763,2.461-1.582,4.541-2.461,6.24c-1.056,2.109-2.285,3.633-3.69,4.57
	c-0.646,0.469-1.086,0.703-1.318,0.703c0.996-1.699,1.846-3.486,2.549-5.361c0.645-1.465,1.172-3.311,1.582-5.537
	c0.293-1.348,0.439-2.637,0.439-3.867l-0.353-1.758C178.37,237.806,178.604,237.689,179.072,237.689z M192.784,230.658
	c0.409,0,1.112,0.088,2.108,0.264c1.172,0.293,1.758,0.557,1.758,0.791c0,0.234-0.059,0.439-0.176,0.615
	c-0.233,0.234-0.527,0.381-0.879,0.439c-2.637,0.82-5.304,1.494-7.998,2.021c0.059,1.758,0.205,3.545,0.439,5.361
	c0.352,3.809,0.527,7.324,0.527,10.547c0,1.289-0.234,2.344-0.703,3.164c-0.703,0.938-1.289,1.406-1.758,1.406
	c-0.295,0-0.527-0.41-0.703-1.23c-0.234-0.703-0.353-2.168-0.353-4.395v-14.414c-1.349,0.234-2.403,0.352-3.164,0.352
	c-2.694,0-4.513-0.234-5.448-0.703c-0.586-0.293-0.879-0.527-0.879-0.703c0-0.176,0.116-0.264,0.352-0.264
	c3.748-0.234,6.797-0.586,9.141-1.055v-1.758c0-3.047-0.47-5.186-1.406-6.416c0-0.938,0.469-1.406,1.406-1.406
	c0.703,0,1.436,0.352,2.197,1.055c0.879,0.527,1.318,1.23,1.318,2.109c0,0.234-0.146,0.527-0.439,0.879
	c-0.41,0.879-0.615,2.051-0.615,3.516c0,0.469,0,0.967,0,1.494c1.641-0.41,3.047-0.85,4.219-1.318
	C192.139,230.775,192.49,230.658,192.784,230.658z M192.434,251.839c0.819,0,1.728,0.41,2.725,1.23
	c0.996,0.762,1.494,1.641,1.494,2.637c0,0.176-0.207,0.381-0.615,0.615c-2.52,1.699-5.859,4.512-10.02,8.437
	c-0.06,0.059-0.146,0.146-0.265,0.264l12.656-1.406c1.229-1.347,2.255-2.578,3.075-3.691c0.646-0.879,1.024-1.963,1.144-3.252
	c0-1.641,0.703-2.461,2.108-2.461c0.527,0,1.523,0.674,2.988,2.021c1.289,0.938,1.935,1.904,1.935,2.9
	c0,0.352-0.322,0.703-0.968,1.055c-2.754,1.699-6.063,4.072-9.932,7.119c-3.634,2.93-7.236,6.268-10.811,10.02
	c6.563-0.998,12.714-1.934,18.457-2.813c-1.113-1.816-1.934-2.988-2.461-3.516c-1.113-1.289-1.67-2.197-1.67-2.725
	c0-0.234,0.117-0.352,0.352-0.352c0.469,0,1.143,0.146,2.021,0.439c1.699,0.938,3.396,1.992,5.098,3.164
	c2.167,1.758,3.604,3.367,4.307,4.834c0.586,1.346,0.879,2.752,0.879,4.219c0,0.703-0.117,1.463-0.352,2.285
	c-0.294,0.584-0.646,0.879-1.055,0.879c-0.353,0-0.586-0.119-0.703-0.352c-0.821-0.703-2.109-2.316-3.867-4.834
	c-0.471-0.822-0.909-1.555-1.318-2.197h-0.088c-5.566,0.879-10.43,2.049-14.59,3.516c-4.337,1.346-7.266,2.549-8.789,3.604
	c-1.055,0.408-1.816,0.615-2.285,0.615c-0.586,0-1.318-0.588-2.197-1.758c-0.646-0.879-0.967-1.582-0.967-2.109
	c0-0.471,0.615-0.998,1.846-1.582c0.996-0.295,1.847-0.676,2.55-1.143c1.172-0.703,3.837-2.932,7.997-6.68
	c2.402-2.227,4.513-4.277,6.328-6.152c-7.148,1.172-12.217,2.725-15.205,4.658c-0.702,0-1.317-0.41-1.846-1.23
	c-0.41-0.527-0.615-1.289-0.615-2.285v-1.055c1.935-0.586,4.072-1.875,6.416-3.867c1.113-0.996,2.55-2.695,4.308-5.098
	c0.585-0.879,0.879-1.406,0.879-1.582c-0.233-0.469-0.353-0.938-0.353-1.406C191.025,252.162,191.495,251.839,192.434,251.839z
	 M189.62,205.345c1.229,0,2.782,0.439,4.657,1.318s3.076,1.699,3.604,2.461c0.585,0.82,0.88,1.787,0.88,2.9
	c0,1.699-0.703,2.549-2.109,2.549c-1.174,0-2.668-1.23-4.482-3.691c-2.168-2.813-3.252-4.541-3.252-5.186
	C188.917,205.521,189.15,205.404,189.62,205.345z M192.434,237.074c0.293,0,0.703,0.088,1.229,0.264
	c0.585,0.234,0.879,0.586,0.879,1.055l-0.353,9.492c0,0.586-0.088,1.055-0.264,1.406c-0.176,0.469-0.439,0.703-0.791,0.703
	c-0.117,0-0.352-0.352-0.703-1.055c-0.234-0.527-0.352-0.879-0.352-1.055v-2.461c0-3.867-0.176-6.152-0.527-6.855
	c-0.117-0.41-0.176-0.703-0.176-0.879C191.378,237.279,191.729,237.074,192.434,237.074z M200.167,235.58
	c0.761,0,1.552,0.352,2.373,1.055c0.761,0.527,1.144,1.113,1.144,1.758c0,0.176-0.031,0.352-0.088,0.527
	c-0.471,0.82-0.763,1.436-0.88,1.846c-0.702,2.285-1.524,4.219-2.461,5.801c-1.055,1.875-2.256,3.252-3.604,4.131
	c-0.702,0.469-1.172,0.703-1.405,0.703c1.055-1.582,1.903-3.252,2.549-5.01c0.585-1.289,1.112-2.988,1.582-5.098
	c0.293-1.289,0.438-2.49,0.438-3.604l-0.264-1.758C199.553,235.697,199.757,235.58,200.167,235.58z M217.042,227.494
	c3.046,0,4.569,0.469,4.569,1.406c0,0.586-0.352,0.938-1.055,1.055c-3.926,0.879-7.677,1.582-11.25,2.109
	c0.059,1.641,0.117,3.34,0.176,5.098c0.117,3.633,0.177,6.973,0.177,10.02c0,1.523-0.206,2.725-0.615,3.604
	c-0.586,1.172-1.085,1.758-1.494,1.758c-0.353,0-0.674-0.498-0.967-1.494c-0.294-0.703-0.438-2.227-0.438-4.57
	c0.352-5.332,0.557-10.02,0.614-14.063c-1.641,0.234-2.782,0.352-3.428,0.352c-1.465,0-2.783-0.117-3.955-0.352
	c-0.879-0.234-1.317-0.469-1.317-0.703c0-0.176,0.232-0.293,0.703-0.352c2.813-0.41,5.506-0.879,8.086-1.406
	c0-0.352,0-0.732,0-1.143c0-2.93-0.586-4.98-1.759-6.152c0-0.996,0.47-1.494,1.406-1.494c0.819,0,1.64,0.352,2.461,1.055
	c0.937,0.586,1.405,1.289,1.405,2.109c0,0.176-0.146,0.439-0.438,0.791c-0.409,0.82-0.614,1.846-0.614,3.076
	c0,0.352,0,0.762,0,1.229c1.934-0.527,3.836-1.025,5.713-1.494C215.898,227.64,216.572,227.494,217.042,227.494z M215.284,234.173
	c0.702,0,1.493,0.41,2.373,1.23c0.995,0.703,1.493,1.465,1.493,2.285c0,0.293-0.117,0.615-0.352,0.967
	c-0.879,1.055-1.406,1.992-1.582,2.813c-0.352,0.996-0.527,2.109-0.527,3.34c0,0.82,0.117,1.553,0.353,2.197
	c0.176,0.703,0.526,1.23,1.056,1.582c0.702,0.469,1.875,0.703,3.516,0.703c1.287,0,2.227-0.586,2.813-1.758
	c0.586-0.938,1.23-3.34,1.934-7.207c0-0.117,0.059-0.176,0.177-0.176c0.116,0,0.205,0.059,0.264,0.176
	c0.761,3.398,1.671,5.654,2.726,6.768c0.117,0.059,0.176,0.205,0.176,0.439c0,0.762-0.146,1.406-0.439,1.934
	c-0.646,1.289-1.611,2.227-2.9,2.813c-1.172,0.586-2.402,0.879-3.69,0.879c-1.935,0-3.661-0.381-5.187-1.143
	c-1.055-0.645-1.815-1.465-2.284-2.461c-0.41-0.762-0.615-2.227-0.615-4.395c0.47-3.223,0.703-5.596,0.703-7.119
	c0-0.82-0.118-1.436-0.353-1.846c-0.233-0.293-0.352-0.732-0.352-1.318C214.581,234.408,214.814,234.173,215.284,234.173z"/>
<g>
	<path fill="#4C5125" d="M192.389,298.545v90h-2.725v-90H192.389z"/>
	<path fill="#4C5125" d="M192.389,388.545v90h-2.725v-90H192.389z"/>
</g>
<path fill="#4C5125" d="M80.293,95.879c0.292,0,0.967,0.295,2.021,0.879c1.055,0.646,1.582,1.438,1.582,2.373
	c0,0.176-0.176,0.323-0.527,0.439c-0.821,0.471-1.788,1.143-2.9,2.021c-2.109,1.642-4.131,2.9-6.064,3.779
	c-0.997,0.587-2.257,1.114-3.779,1.582c1.055,0.352,2.197,0.703,3.428,1.055c4.628,1.641,9.932,2.9,15.908,3.779
	c3.046,0.527,12.714,0.967,29.004,1.318c0.233,0,0.352,0.264,0.352,0.791c0,0.117-0.206,0.264-0.615,0.439
	c-2.872,2.051-6.064,3.604-9.58,4.658c-2.813,0.996-4.922,1.494-6.328,1.494c-0.938,0-1.7-0.117-2.285-0.352
	c-4.454-1.289-8.35-2.578-11.689-3.867c-13.243-5.508-23.614-9.197-31.113-11.074c-1.466-0.352-2.96-0.527-4.482-0.527
	c-1.934,0-4.894,0.499-8.877,1.494c-0.763,0.235-1.318,0.352-1.67,0.352c-0.763,0-1.612-0.32-2.549-0.967
	c-1.349-0.644-2.021-1.287-2.021-1.934c0-0.408,0.116-0.615,0.352-0.615c7.323-0.232,12.245-0.352,14.766-0.352
	c0-0.232,0-0.496,0-0.791c0-1.639-0.352-3.428-1.055-5.361c-0.527-2.166-1.318-3.955-2.373-5.361
	c-0.294-0.879-0.439-1.758-0.439-2.637c0-1.406,1.055-4.395,3.164-8.965v-0.176c0-0.232-0.235-0.352-0.703-0.352
	c-2.461,1.174-4.454,1.758-5.977,1.758c-1.876,0-3.399-0.204-4.57-0.615c-0.938-0.292-1.406-0.672-1.406-1.143
	c0-0.232,0.352-0.352,1.055-0.352c1.874,0,3.779-0.408,5.713-1.23c1.758-0.584,3.397-1.758,4.922-3.516
	c0.468-0.584,0.907-0.879,1.318-0.879c0.879,0,2.138,0.383,3.779,1.143c1.934,0.938,2.9,2.081,2.9,3.428
	c0,0.587-0.352,1.174-1.055,1.758c-1.876,1.055-3.019,2.053-3.428,2.988c-1.23,3.048-1.846,5.098-1.846,6.152
	c0,0.295,0.058,0.734,0.176,1.318c1.522,3.459,2.285,6.447,2.285,8.965c0,1.114-0.235,2.433-0.703,3.955
	c2.988,0.411,7.938,1.729,14.854,3.955c1.522-1.111,2.988-2.285,4.395-3.516c2.05-1.814,3.544-3.484,4.482-5.01
	c0.352-0.352,0.527-0.995,0.527-1.934C79.238,95.998,79.59,95.879,80.293,95.879z M46.543,53.428c0.761,0,1.61,0.147,2.549,0.439
	c2.226,0.703,3.955,1.525,5.186,2.461c0.937,0.998,1.406,2.345,1.406,4.043c0,0.587-0.176,1.174-0.527,1.758
	c-0.411,0.471-0.821,0.703-1.23,0.703c-0.646,0-1.29-0.32-1.934-0.967c-1.406-1.171-3.282-3.604-5.625-7.295
	c-0.352-0.352-0.527-0.615-0.527-0.791C45.897,53.547,46.132,53.428,46.543,53.428z M100.332,77.246
	c0.468,0,1.318,0.088,2.549,0.264c1.347,0.295,2.021,0.559,2.021,0.791c0,0.295-0.118,0.559-0.352,0.791
	c-0.235,0.295-0.587,0.527-1.055,0.703c-2.931,0.587-5.919,1.143-8.965,1.67c-0.527,2.285-1.085,5.129-1.67,8.525
	c3.104-0.468,6.21-0.967,9.316-1.494c1.582-0.232,2.988-0.352,4.219-0.352s2.577,0.207,4.043,0.615
	c1.23,0.352,1.846,0.851,1.846,1.494c0,1.174-0.352,1.758-1.055,1.758c-9.962,0-19.22,0.411-27.773,1.23
	c-3.867,0.295-8.116,0.822-12.744,1.582c-1.524,0.295-2.549,0.439-3.076,0.439c-0.938,0-2.109-0.204-3.516-0.615
	c-1.173-0.352-1.758-0.644-1.758-0.879c0-0.232,0.116-0.352,0.352-0.352c5.741-0.527,10.986-1.055,15.732-1.582
	c-0.352-3.34-0.675-6.064-0.967-8.174c-0.235,0-0.47,0-0.703,0c-3.048,0-5.04-0.292-5.977-0.879
	c-0.703-0.292-1.055-0.496-1.055-0.615c0-0.232,0.116-0.352,0.352-0.352c2.519-0.116,4.862-0.232,7.031-0.352
	c-0.294-1.934-0.527-3.164-0.703-3.691c-0.352-0.644-0.703-1.171-1.055-1.582c-0.411-0.468-0.646-0.819-0.703-1.055
	c0-0.468,0.468-0.703,1.406-0.703c0.879,0,1.698,0.264,2.461,0.791c1.171,0.646,1.758,1.202,1.758,1.67
	c0,0.235-0.03,0.527-0.088,0.879c-0.176,0.587-0.264,1.729-0.264,3.428c3.573-0.292,6.592-0.672,9.053-1.143
	c0.879-0.176,1.698-0.352,2.461-0.527c0.233-2.166,0.292-3.604,0.176-4.307c-0.118-0.819-0.352-1.463-0.703-1.934
	c-0.294-0.527-0.439-0.967-0.439-1.318c0-0.703,0.585-1.055,1.758-1.055c0.937,0,1.815,0.323,2.637,0.967
	c1.288,0.703,1.934,1.318,1.934,1.846c-0.118,0.235-0.235,0.559-0.352,0.967c-0.352,0.646-0.763,1.965-1.23,3.955
	c1.112-0.292,2.167-0.615,3.164-0.967C99.159,77.394,99.805,77.246,100.332,77.246z M79.941,47.715c0.409,0,1.23,0.295,2.461,0.879
	c1.406,0.938,2.109,1.582,2.109,1.934s-0.088,0.646-0.264,0.879c-1.7,1.817-2.725,3.195-3.076,4.131
	c-0.411,0.879-0.733,1.729-0.967,2.549c0.468,0.119,0.849,0.264,1.143,0.439c0.937,0.527,1.406,0.91,1.406,1.143
	c-0.06,0.235-0.176,0.352-0.352,0.352c-2.755,0-5.449,0.323-8.086,0.967c-2.285,0.527-3.691,0.791-4.219,0.791
	c-0.587,0-1.173-0.116-1.758-0.352c0,1.055,0,2.141,0,3.252c0,1.817,0.352,3.136,1.055,3.955c0.879,1.055,2.753,1.582,5.625,1.582
	c1.112,0,2.109-0.116,2.988-0.352c0.761-0.176,1.464-0.468,2.109-0.879c0.644-0.527,1.112-1.199,1.406-2.021
	c0.292-0.703,0.556-1.874,0.791-3.516c0.116-0.644,0.264-0.967,0.439-0.967c0.233,0,0.409,0.264,0.527,0.791
	c0.292,1.35,0.937,2.637,1.934,3.867c0.468,0.646,0.703,1.114,0.703,1.406c0,0.411-0.235,0.879-0.703,1.406
	c-0.997,0.998-2.197,1.729-3.604,2.197c-1.7,0.587-3.663,0.879-5.889,0.879c-3.399,0-5.597-0.38-6.592-1.143
	c-0.997-0.703-1.67-1.551-2.021-2.549c-0.352-1.111-0.527-2.665-0.527-4.658V52.988c0-1.23-0.352-2.518-1.055-3.867
	c0-0.232,0.233-0.352,0.703-0.352c0.468,0,1.112,0.411,1.934,1.23c0.527,0.352,0.879,0.734,1.055,1.143
	c1.288-0.176,2.519-0.38,3.691-0.615c1.698-0.292,3.34-0.936,4.922-1.934C78.769,48.01,79.472,47.715,79.941,47.715z M69.395,52.197
	c-0.47,1.934-0.763,3.635-0.879,5.098c-0.06,0.998-0.118,2.021-0.176,3.076c1.112,0,2.694-0.264,4.746-0.791
	c1.874-0.408,3.397-0.879,4.57-1.406c0.292-0.116,0.527-0.176,0.703-0.176c0.585-3.164,0.879-5.418,0.879-6.768
	c0-0.232-0.235-0.352-0.703-0.352c-0.527,0-1.642,0.207-3.34,0.615c-1.993,0.527-3.691,0.791-5.098,0.791
	C69.862,52.285,69.628,52.257,69.395,52.197z M80.645,91.66c1.171-0.176,2.343-0.32,3.516-0.439
	c1.991-0.292,4.013-0.584,6.064-0.879c0.409-3.34,0.731-6.152,0.967-8.438c-1.582,0.295-3.224,0.527-4.922,0.703
	c-2.461,0.352-4.513,0.646-6.152,0.879C80.175,85.596,80.351,88.32,80.645,91.66z M102.793,45.254c0.409,0,1.23,0.323,2.461,0.967
	c1.406,0.822,2.109,1.438,2.109,1.846c0,0.352-0.088,0.615-0.264,0.791c-1.876,1.701-2.988,2.96-3.34,3.779
	c-0.411,0.879-0.763,1.642-1.055,2.285c0.468,0.119,0.849,0.264,1.143,0.439c0.937,0.527,1.406,0.91,1.406,1.143
	c-0.06,0.235-0.176,0.352-0.352,0.352c-2.872,0-5.713,0.323-8.525,0.967c-2.403,0.527-3.897,0.791-4.482,0.791
	c-0.527,0-0.997-0.057-1.406-0.176c0,0.646,0,1.29,0,1.934c0,2.229,0.439,3.839,1.318,4.834c1.055,1.23,3.368,1.846,6.943,1.846
	c1.347,0,2.577-0.145,3.691-0.439c1.055-0.232,1.934-0.615,2.637-1.143c0.761-0.527,1.347-1.318,1.758-2.373
	c0.409-0.879,0.761-2.313,1.055-4.307c0.116-0.76,0.292-1.143,0.527-1.143c0.233,0,0.409,0.323,0.527,0.967
	c0.292,1.701,0.937,3.371,1.934,5.01c0.468,0.822,0.703,1.406,0.703,1.758c0,0.471-0.264,0.967-0.791,1.494
	c-1.173,1.114-2.637,1.934-4.395,2.461c-1.934,0.587-4.249,0.879-6.943,0.879c-4.103,0-6.768-0.408-7.998-1.23
	c-1.23-0.936-2.052-1.99-2.461-3.164c-0.411-1.23-0.615-3.045-0.615-5.449V50.264c0-1.522-0.352-3.076-1.055-4.658
	c0-0.232,0.233-0.352,0.703-0.352c0.585,0,1.376,0.471,2.373,1.406c0.819,0.527,1.288,1.055,1.406,1.582
	c1.23-0.116,2.401-0.292,3.516-0.527c1.815-0.232,3.573-0.76,5.273-1.582C101.591,45.549,102.323,45.254,102.793,45.254z
	 M91.719,49.385c-0.47,1.642-0.791,3.076-0.967,4.307c-0.118,1.055-0.206,2.229-0.264,3.516c1.171-0.116,2.725-0.38,4.658-0.791
	c2.05-0.408,3.691-0.879,4.922-1.406c0.352-0.116,0.644-0.204,0.879-0.264c0.761-2.693,1.143-4.687,1.143-5.977
	c0-0.232-0.235-0.352-0.703-0.352c-0.587,0-1.788,0.147-3.604,0.439c-2.169,0.411-4.015,0.615-5.537,0.615
	C92.128,49.473,91.952,49.444,91.719,49.385z M91.543,95.879c0.468,0,1.143,0.119,2.021,0.352c1.698,0.646,3.368,1.406,5.01,2.285
	c2.226,1.23,3.691,2.373,4.395,3.428c0.585,0.998,0.879,2.021,0.879,3.076c0,0.646-0.118,1.318-0.352,2.021
	c-0.235,0.527-0.587,0.791-1.055,0.791c-0.352,0-0.587-0.116-0.703-0.352c-0.879-0.527-2.169-1.727-3.867-3.604
	c-2.461-3.045-4.131-4.95-5.01-5.713c-1.114-0.879-1.67-1.522-1.67-1.934C91.191,95.998,91.308,95.879,91.543,95.879z"/>
<path fill="#4C5125" d="M64.956,157.508c0.527,0,1.436,0.088,2.725,0.264c1.464,0.411,2.197,0.763,2.197,1.055
	c0,0.235-0.118,0.439-0.352,0.615c-0.234,0.235-0.586,0.383-1.055,0.439c-2.637,0.938-5.304,1.758-7.998,2.461
	c-0.059,1.174-0.088,2.345-0.088,3.516c0,2.345,0,4.63,0,6.855c1.406-1.287,2.9-2.577,4.482-3.867
	c2.167-1.99,3.485-2.988,3.955-2.988c0.233,0,0.352,0.119,0.352,0.352c0,0.471-0.294,0.998-0.879,1.582
	c-1.934,2.109-4.57,4.834-7.91,8.174c-0.118,9.787-0.352,18.4-0.703,25.84c0,2.402-0.47,4.805-1.406,7.207
	c-0.703,1.699-1.289,2.549-1.758,2.549c-1.349,0-2.228-0.645-2.637-1.934c-0.703-1.699-3.34-4.922-7.91-9.668
	c0-0.468,0.233-0.703,0.703-0.703c4.101,2.813,6.797,4.219,8.086,4.219c0.761,0,1.26-0.557,1.494-1.67
	c0.527-1.874,0.937-5.801,1.23-11.777c0.233-3.867,0.409-7.822,0.527-11.865c-0.586,0.527-1.201,1.143-1.846,1.846
	c-2.931,2.756-6.416,6.328-10.459,10.723c-0.586,0.763-1.085,1.143-1.494,1.143c-0.762,0-2.021-0.408-3.779-1.23
	c-1.465-0.936-2.197-1.582-2.197-1.934c0-0.468,0.233-0.703,0.703-0.703c1.406-0.232,2.754-0.879,4.043-1.934
	c3.809-2.401,8.847-6.27,15.117-11.603c0.117-3.808,0.176-7.675,0.176-11.602c-1.113,0.235-2.256,0.471-3.428,0.703
	c-3.34,0.879-5.831,1.318-7.471,1.318c-3.34,0-5.508-0.352-6.504-1.055c-0.821-0.352-1.23-0.615-1.23-0.791
	c0-0.232,0.264-0.352,0.791-0.352c6.504-0.408,11.602-1.083,15.293-2.021c0.879-0.292,1.699-0.556,2.461-0.791
	c0-3.924-0.146-7.499-0.439-10.723c-0.234-3.516-0.997-6.532-2.285-9.053c-0.234-0.408-0.352-0.731-0.352-0.967
	c0-0.936,0.703-1.406,2.109-1.406c1.288,0,2.782,0.646,4.482,1.934c1.464,0.703,2.197,1.701,2.197,2.988
	c0,0.235-0.118,0.587-0.352,1.055c-1.524,3.399-2.373,6.623-2.549,9.668c-0.176,1.934-0.322,3.839-0.439,5.713
	c0.996-0.352,1.963-0.731,2.9-1.143C63.989,157.656,64.486,157.508,64.956,157.508z M99.058,160.233c0.409,0,1.112,0.06,2.109,0.176
	c1.172,0.411,1.758,0.734,1.758,0.967c0,0.176-0.088,0.352-0.264,0.527c-0.176,0.235-0.439,0.383-0.791,0.439
	c-3.34,0.879-6.798,1.67-10.371,2.373c-0.234,1.642-0.498,3.635-0.791,5.977c5.039-0.76,9.521-1.61,13.447-2.549
	c2.402-0.584,4.688-0.879,6.855-0.879c1.523,0,3.164,0.264,4.922,0.791c2.167,0.879,3.252,1.67,3.252,2.373
	c0,0.235-0.234,0.527-0.703,0.879c-0.294,0.411-0.674,0.615-1.143,0.615c-7.853,0-14.796,0.147-20.83,0.439
	c0.703,0.176,1.406,0.499,2.109,0.967c0.996,0.587,1.494,1.262,1.494,2.021c0,0.176-0.176,0.471-0.527,0.879
	c-0.762,0.763-1.349,1.378-1.758,1.846c-1.055,1.35-2.432,2.696-4.131,4.043c0.879-0.176,1.728-0.32,2.549-0.439
	c1.288-0.232,2.227-0.352,2.813-0.352c3.516,0,5.273,0.471,5.273,1.406c0,0.471-0.47,0.763-1.406,0.879
	c-4.102,0.587-8.057,1.055-11.865,1.406c1.112,0.763,1.67,1.554,1.67,2.373c0,0.587-0.059,1.202-0.176,1.846
	c-0.176,0.587-0.322,1.494-0.439,2.725c4.804-0.527,8.438-0.995,10.898-1.406c2.519-0.292,4.482-0.439,5.889-0.439
	c0.409,0,1.552,0.323,3.428,0.967c1.699,0.763,2.549,1.378,2.549,1.846c0,0.998-0.352,1.494-1.055,1.494
	c-0.586,0-1.729-0.145-3.428-0.439c-1.582-0.232-3.019-0.352-4.307-0.352c-4.805,0-9.492,0.088-14.063,0.264
	c0,0.646,0,1.262,0,1.846c0,7.09-0.118,11.631-0.352,13.623c-0.118,2.168-0.47,3.896-1.055,5.186
	c-0.586,1.289-1.173,1.934-1.758,1.934c-0.41,0-0.674-0.703-0.791-2.109c-0.176-0.527-0.264-7.266-0.264-20.215
	c-2.52,0.295-5.128,0.646-7.822,1.055c-1.876,0.295-4.277,0.763-7.207,1.406c-0.527,0.06-0.791,0.119-0.791,0.176
	c-0.586,0-1.7-0.292-3.34-0.879c-1.289-0.644-1.934-1.023-1.934-1.143c0-0.232,0.233-0.352,0.703-0.352
	c1.288-0.057,2.754-0.204,4.395-0.439c6.094-0.584,11.426-1.111,15.996-1.582c0-2.813-0.382-5.154-1.143-7.031
	c-3.574,0.352-5.889,0.527-6.943,0.527c-1.582,0-2.959-0.088-4.131-0.264c-0.938-0.116-1.406-0.264-1.406-0.439
	c0-0.352,0.205-0.584,0.615-0.703c5.918-0.527,11.483-1.199,16.699-2.021c1.348-1.639,2.373-3.28,3.076-4.922
	c0.409-0.879,0.615-1.61,0.615-2.197c0-0.352-0.352-1.171-1.055-2.461c0-0.176,0.088-0.32,0.264-0.439
	c-2.228,0.119-4.307,0.264-6.24,0.439c-4.922,0.411-10.811,1.318-17.666,2.725c-0.41,0.119-0.85,0.176-1.318,0.176
	c-0.586,0-1.494-0.232-2.725-0.703c-0.997-0.408-1.494-0.672-1.494-0.791c0-0.232,0.233-0.352,0.703-0.352
	c4.804-0.703,8.701-1.199,11.689-1.494c2.988-0.292,6.533-0.76,10.635-1.406c0.058,0,0.117,0,0.176,0
	c-0.059-2.226-0.118-4.131-0.176-5.713c-2.403,0.352-4.219,0.527-5.449,0.527c-2.695,0-4.513-0.232-5.449-0.703
	c-0.586-0.292-0.879-0.496-0.879-0.615c0-0.292,0.117-0.439,0.352-0.439c4.512-0.232,8.262-0.584,11.25-1.055
	c-0.118-2.577-0.264-4.188-0.439-4.834c-0.176-0.644-0.41-1.171-0.703-1.582c-0.352-0.408-0.558-0.731-0.615-0.967
	c0-0.703,0.469-1.055,1.406-1.055c1.172,0,2.285,0.383,3.34,1.143c1.523,0.703,2.285,1.378,2.285,2.021
	c-0.059,0.176-0.118,0.439-0.176,0.791c-0.352,0.527-0.703,1.789-1.055,3.779c2.227-0.527,4.16-1.083,5.801-1.67
	C98.179,160.38,98.647,160.233,99.058,160.233z M70.933,140.897c0.761,0,1.67,0.176,2.725,0.527
	c0.352,0.119,0.645,0.295,0.879,0.527c4.628-0.468,10.576-1.111,17.842-1.934c4.219-0.468,7.939-1.023,11.162-1.67
	c0.527-0.116,1.024-0.176,1.494-0.176c0.645,0,1.846,0.352,3.604,1.055c2.285,1.055,3.428,1.846,3.428,2.373
	c-0.059,0.938-0.498,1.701-1.318,2.285c-1.524,1.29-4.014,4.746-7.471,10.371c-0.352,0.471-0.703,0.703-1.055,0.703
	c-1.173,0-1.758-0.352-1.758-1.055c0.176-0.232,0.352-0.496,0.527-0.791c-4.688,0.06-9.259,0.439-13.711,1.143
	c-4.337,0.703-6.974,1.055-7.91,1.055c-0.352,0-0.703-0.057-1.055-0.176c-0.118,1.114-0.352,1.67-0.703,1.67
	c-0.41,0-0.733-0.352-0.967-1.055c-0.294-0.584-0.439-1.083-0.439-1.494c-0.762-1.171-1.406-3.252-1.934-6.24
	c-0.527-1.874-1.173-3.309-1.934-4.307c-0.527-0.936-1.23-1.639-2.109-2.109C70.229,141.132,70.463,140.897,70.933,140.897z
	 M78.228,153.905c1.699,0,3.955-0.204,6.768-0.615c-0.938-1.874-1.406-3.34-1.406-4.395c-0.059-0.584-0.118-1.347-0.176-2.285
	c-0.176-1.287-0.352-2.373-0.527-3.252c0-0.352-0.059-0.615-0.176-0.791c-1.992,0.235-4.161,0.499-6.504,0.791
	c-0.234,0-0.47,0-0.703,0L78.228,153.905z M78.315,174.999c0.409,0,0.879,0.088,1.406,0.264c1.348,0.587,2.373,1.23,3.076,1.934
	c0.527,0.587,0.791,1.525,0.791,2.813c0,0.471-0.146,0.938-0.439,1.406c-0.294,0.411-0.615,0.615-0.967,0.615
	s-0.733-0.232-1.143-0.703c-0.762-0.819-1.788-2.577-3.076-5.273c-0.234-0.292-0.352-0.527-0.352-0.703
	C77.67,175.118,77.905,174.999,78.315,174.999z M85.786,153.114c0.469-0.057,0.967-0.146,1.494-0.264
	c1.699-0.232,3.222-0.468,4.57-0.703c0.527-2.226,0.967-4.395,1.318-6.504c0.176-1.287,0.264-2.285,0.264-2.988
	c0-0.116-0.118-0.527-0.352-1.23c-2.461,0.295-5.361,0.615-8.701,0.967c0.527,0.646,1.084,1.993,1.67,4.043
	c0.233,0.938,0.352,1.846,0.352,2.725C86.401,150.333,86.195,151.651,85.786,153.114z M92.905,151.971
	c1.464-0.292,2.813-0.584,4.043-0.879c0.703-0.232,1.288-0.352,1.758-0.352c1.172,0,2.109,0.207,2.813,0.615
	c0.058,0,0.117,0,0.176,0c0.527-1.522,1.055-3.428,1.582-5.713c0.469-1.347,0.703-2.549,0.703-3.604c0-0.76-0.352-1.143-1.055-1.143
	c-1.173,0-3.604,0.119-7.295,0.352c0.703,0.471,1.055,0.938,1.055,1.406c0,0.235-0.146,0.615-0.439,1.143
	c-0.41,0.998-0.703,1.789-0.879,2.373C94.721,148.047,93.901,149.981,92.905,151.971z"/>
<path fill="#4C5125" d="M53.75,236.452c0.468,0,1.055,0.119,1.758,0.352c0.644,0.295,1.347,0.439,2.109,0.439
	c3.632,0,7.792-0.352,12.48-1.055c5.273-0.703,9.901-1.522,13.887-2.461c3.046-0.936,5.917-1.962,8.613-3.076
	c0.468-0.292,0.761-0.439,0.879-0.439c0.995,0,2.988,0.791,5.977,2.373c3.28,1.993,4.922,3.547,4.922,4.658
	c0,1.055-0.675,1.817-2.021,2.285c-3.164,1.055-6.622,2.608-10.371,4.658c-3.106,1.817-6.827,4.278-11.162,7.382
	c0.468,0.527,0.703,1.23,0.703,2.109c0,2.813,0.615,7.91,1.846,15.293c0.409,3.164,0.615,5.92,0.615,8.262
	c0,5.334-0.176,9.053-0.527,11.162c-0.587,2.93-1.318,5.186-2.197,6.768c-0.646,1.289-1.437,2.285-2.373,2.988
	c-1.055,0.82-1.934,1.23-2.637,1.23c-0.587,0-1.026-0.439-1.318-1.318c-2.228-2.813-5.069-6.006-8.525-9.58
	c0-0.232,0.116-0.352,0.352-0.352c2.637,1.875,4.862,2.813,6.68,2.813c2.226,0,3.691-0.381,4.395-1.143
	c0.761-0.938,1.406-3.133,1.934-6.592c0.233-2.049,0.352-4.158,0.352-6.328c0-6.68-0.264-11.746-0.791-15.206
	c-0.352-2.928-0.791-4.979-1.318-6.152c-0.646-1.406-1.964-2.693-3.955-3.867c-0.411-0.115-0.615-0.264-0.615-0.439
	c0-0.703,0.703-1.054,2.109-1.054c0.995,0,1.991,0.119,2.988,0.351c3.749-3.515,7.968-7.85,12.656-13.007
	c0.352-0.584,0.527-1.055,0.527-1.406c0.058-0.703-0.176-1.055-0.703-1.055c-1.758,0-4.015,0.264-6.768,0.791
	c-4.981,0.763-10.723,2.053-17.227,3.867c-3.106,0.938-5.304,1.406-6.592,1.406c-1.173,0-2.931-0.615-5.273-1.846
	c-1.406-0.819-2.109-1.494-2.109-2.021C53.05,236.715,53.28,236.452,53.75,236.452z"/>
<path fill="#4C5125" d="M58.672,322.69c0.937,0,2.139,0.703,3.604,2.109c1.112,1.23,1.67,2.404,1.67,3.516
	c0,0.763-0.322,1.406-0.967,1.934c-0.703,0.646-1.173,1.23-1.406,1.758c-3.106,5.86-6.007,10.666-8.701,14.414
	c1.758,2.229,2.637,3.928,2.637,5.099c0,0.411-0.118,1.114-0.352,2.108c-0.234,1.291-0.352,1.994-0.352,2.109l-0.352,28.477
	c0,1.113-0.176,2.314-0.527,3.604c-0.527,1.582-0.938,2.373-1.23,2.373c-1.055,0-2.081-1.787-3.076-5.36
	c-0.294-0.879-0.439-1.67-0.439-2.373c0-1.463,0.791-6.006,2.373-13.623c0.527-2.461,0.791-7.061,0.791-13.799
	c0-2.461-0.264-4.716-0.791-6.769c-3.751,4.454-7.149,7.706-10.195,9.756c-1.7,1.29-2.843,1.935-3.428,1.935
	c-0.235,0-0.352-0.232-0.352-0.703c5.331-5.683,9.668-11.074,13.008-16.172c2.519-3.983,4.512-8.026,5.977-12.129
	c0.703-2.461,1.055-4.275,1.055-5.449l-0.352-2.021C57.266,322.954,57.734,322.69,58.672,322.69z M77.656,343.081
	c3.516,0,5.273,0.471,5.273,1.406c0,0.527-0.322,0.879-0.967,1.055c-2.813,0.703-5.508,1.263-8.086,1.67c0,0.177,0,0.353,0,0.527
	c-0.47,4.57-1.055,9.141-1.758,13.711c0.117,0,0.233-0.027,0.352-0.088c0.996-0.057,2.051-0.38,3.164-0.967
	c0.233-0.057,0.439-0.088,0.615-0.088c0.233,0,1.318,0.439,3.252,1.318c2.051,0.879,3.076,1.494,3.076,1.846
	c0,0.41-0.234,0.879-0.703,1.406c-1.289,1.055-2.256,2.256-2.9,3.604c-0.762,1.406-1.524,3.225-2.285,5.449
	c0.409,0.061,0.82,0.207,1.23,0.439c0.996,0.646,1.494,1.143,1.494,1.493c-0.059,0.119-0.176,0.177-0.352,0.177
	c-2.755,0-5.449,0.207-8.086,0.614c-2.285,0.353-3.691,0.527-4.219,0.527c-0.47,0-0.879-0.058-1.23-0.177l0.176,1.582
	c0,1.643-0.234,2.461-0.703,2.461c-0.41,0-0.762-0.319-1.055-0.967c-0.234-0.584-0.352-1.082-0.352-1.494
	c-0.646-1.463-1.173-4.131-1.582-7.998c-0.41-2.342-0.938-4.158-1.582-5.448c-0.47-1.229-1.055-2.138-1.758-2.726
	c0-0.468,0.233-0.703,0.703-0.703c0.761,0,1.67,0.177,2.725,0.527c0.703,0.352,1.172,0.703,1.406,1.055
	c0.293-0.057,0.497-0.115,0.615-0.176c2.109-0.527,3.955-0.936,5.537-1.229c0.293-5.39,0.557-10.107,0.791-14.15
	c-2.637,0.411-4.337,0.615-5.098,0.615c-1.524,0-2.9-0.088-4.131-0.265c-0.997-0.115-1.494-0.264-1.494-0.438
	c0-0.353,0.233-0.584,0.703-0.703c3.573-0.526,6.943-1.198,10.107-2.021c0.293-5.857,0.439-9.988,0.439-12.393
	c0-1.463-0.41-3.133-1.23-5.01c-0.352-0.584-0.527-1.023-0.527-1.318c0-0.468,0.585-0.703,1.758-0.703
	c1.23,0,2.314,0.383,3.252,1.143c1.582,1.114,2.373,2.141,2.373,3.076c0,0.176-0.176,0.527-0.527,1.055
	c-0.294,1.114-0.498,2.404-0.615,3.867c-0.41,2.872-0.821,5.977-1.23,9.316c0.469-0.116,0.937-0.264,1.406-0.439
	C76.571,343.229,77.246,343.081,77.656,343.081z M65.352,375.424c0.996-0.057,2.343-0.264,4.043-0.614
	c1.875-0.231,3.397-0.556,4.57-0.968c0.058,0,0.117,0,0.176,0c0.352-1.346,0.673-2.84,0.967-4.481
	c0.293-1.813,0.439-3.659,0.439-5.536c0-0.645-0.586-0.996-1.758-1.056c-0.762,0-1.846,0.119-3.252,0.353
	c-2.109,0.41-4.277,1.055-6.504,1.934L65.352,375.424z M92.773,322.69c0.703,0,1.787,0.471,3.252,1.406
	c1.172,1.055,1.728,1.877,1.67,2.461c0,0.587-0.118,1.174-0.352,1.758c-1.934,3.927-3.486,7.442-4.658,10.547
	c-0.997,2.813-2.14,5.421-3.428,7.822c4.628-1.055,8.701-2.254,12.217-3.604c2.813-0.936,4.716-1.406,5.713-1.406
	c3.516,0.06,5.273,0.763,5.273,2.109c0,1.465-1.055,2.285-3.164,2.461c-2.52,0.295-5.771,0.762-9.756,1.405
	c-0.118,0-0.234,0.031-0.352,0.088c0.527,0.411,1.084,0.91,1.67,1.494c1.172,0.703,1.758,1.701,1.758,2.988
	c0,0.352-0.146,0.938-0.439,1.758c-0.646,1.174-1.113,2.58-1.406,4.219c-0.879,6.328-2.109,11.222-3.691,14.679
	c4.512,4.865,12.099,9.463,22.764,13.799c0,0.703-0.439,1.113-1.318,1.229c-5.859,1.056-9.287,1.582-10.283,1.582
	c-1.934,0-3.223-0.469-3.867-1.405c-2.813-3.633-5.801-7.703-8.965-12.218c-2.403,3.575-5.771,6.416-10.107,8.525
	c-3.34,1.522-6.71,2.284-10.107,2.284c-0.703,0-1.055-0.116-1.055-0.352c6.094-2.285,11.22-5.361,15.381-9.229
	c1.582-1.348,2.87-2.754,3.867-4.219c-1.349-2.166-2.755-4.396-4.219-6.681c-1.758-2.813-3.722-5.01-5.889-6.592
	c-0.234-0.058-0.352-0.408-0.352-1.056c0-0.231,0.352-0.352,1.055-0.352c0.996,0,2.021,0.323,3.076,0.967
	c1.23,1.23,2.373,2.784,3.428,4.658c1.172,2.17,2.666,4.338,4.482,6.504c0.585-1.287,1.024-2.664,1.318-4.131
	c1.172-3.924,1.758-8.466,1.758-13.623c0-1.814-0.234-3.017-0.703-3.604c-0.234-0.352-0.41-0.645-0.527-0.879
	c-1.7,0.176-3.282,0.264-4.746,0.264c-1.582,0-2.755-0.088-3.516-0.264c-0.527,1.174-1.143,2.256-1.846,3.252
	c-1.173,2.168-2.695,4.162-4.57,5.977c-0.47,0.352-0.909,0.527-1.318,0.527h-0.703c5.625-10.487,8.994-17.782,10.107-21.885
	c1.055-3.34,1.67-7.499,1.846-12.48C92.128,322.954,92.363,322.69,92.773,322.69z"/>
<path fill="#4C5125" d="M74.316,435.911c1.055,0,2.344,0.676,3.867,2.021c0.938,0.646,1.406,1.494,1.406,2.549
	c0,0.295-0.146,0.559-0.439,0.791c-0.527,0.471-1.113,1.143-1.758,2.021c-0.059,0.119-0.117,0.234-0.176,0.352
	c0.352,0.061,0.732,0.146,1.143,0.264c1.465,0.527,2.988,1.406,4.57,2.637c4.453,3.4,8.672,6.152,12.656,8.262
	c4.512,2.404,11.719,5.012,21.621,7.822v0.354c0,0.41-0.498,0.674-1.494,0.789c-4.922,0.939-9.346,1.406-13.271,1.406
	c-1.758,0-2.9-0.203-3.428-0.615c-3.984-2.752-9.111-7.383-15.381-13.887c-1.113-1.109-2.607-2.373-4.482-3.777
	c-1.113-0.82-2.109-1.465-2.988-1.936c-2.871,3.752-6.006,7.238-9.404,10.459c-4.16,3.752-8.438,6.887-12.832,9.404
	c-3.809,2.229-7.471,3.84-10.986,4.834c-1.289,0.471-2.197,0.703-2.725,0.703v-0.352c6.445-3.809,12.129-7.559,17.051-11.25
	c3.281-2.693,6.445-5.537,9.492-8.525c2.695-2.752,4.717-5.479,6.064-8.174c0.527-1.111,0.791-1.963,0.791-2.549
	c-0.469-0.996-0.703-1.963-0.703-2.9C72.91,436.145,73.379,435.911,74.316,435.911z M61.66,420.53c2.168,0,3.457,0.235,3.867,0.703
	c1.172,0.411,1.758,0.967,1.758,1.67c0,1.643,0.234,4.131,0.703,7.471c0-0.057,0.029-0.088,0.088-0.088
	c2.813-0.467,4.541-0.703,5.186-0.703h2.461c0,0.352-0.234,0.588-0.703,0.703c-2.051,0.588-4.336,1.174-6.855,1.758
	c0.234,1.643,0.527,3.516,0.879,5.625c0,1.23-0.234,1.846-0.703,1.846c-1.23,0-1.934-0.613-2.109-1.846
	c-0.41-1.758-0.85-3.395-1.318-4.922c-5.098,1.115-9.521,2.346-13.271,3.691c-0.293,0.119-0.586,0.176-0.879,0.176
	c-0.82,0-2.256-0.584-4.307-1.758c-1.348-0.703-2.021-1.287-2.021-1.758c0-0.645,0.234-0.967,0.703-0.967
	c0.293,0,0.762,0.088,1.406,0.264c0.645,0,2.666-0.115,6.064-0.352c3.809-0.293,7.734-0.703,11.777-1.23
	c-1.289-3.982-2.607-6.68-3.955-8.086c-0.352-0.408-0.527-0.703-0.527-0.879C59.902,420.97,60.488,420.53,61.66,420.53z
	 M60.605,474.583c0.234,0,0.469,0.264,0.703,0.791c0.703,1.291,1.055,2.316,1.055,3.076c0,2.17-0.586,4.424-1.758,6.768
	c-0.645,1.643-1.553,2.9-2.725,3.779c-0.703,0.703-1.436,1.055-2.197,1.055c-0.527,0-0.938-0.322-1.23-0.967
	c-0.117-0.586-0.176-1.201-0.176-1.846c0-0.762,0.176-1.582,0.527-2.461c2.871-4.512,4.453-7.439,4.746-8.789
	C59.727,475.053,60.078,474.583,60.605,474.583z M88.73,463.333c0.645,0,1.67,0.119,3.076,0.352
	c1.699,0.527,2.549,1.027,2.549,1.494c0,0.295-0.117,0.561-0.352,0.791c-0.352,0.295-0.82,0.473-1.406,0.527
	c-4.629,0.998-9.404,1.877-14.326,2.637c0,6.623,0.205,13.127,0.615,19.512c0,1.936-0.293,3.43-0.879,4.482
	c-1.055,2.168-2.168,3.252-3.34,3.252c-0.879,0-1.436-0.381-1.67-1.143c-1.758-3.223-4.131-6.357-7.119-9.404v-0.352
	c4.336,1.934,7.148,2.9,8.438,2.9c0.469,0,0.791-1.084,0.967-3.252c0.293-2.813,0.439-7.588,0.439-14.326c0-0.469,0-0.908,0-1.318
	c-2.871,0.352-5.098,0.527-6.68,0.527c-3.926,0-6.504-0.352-7.734-1.055c-0.938-0.527-1.406-0.879-1.406-1.055
	c0-0.232,0.234-0.354,0.703-0.354c6.094-0.291,11.104-0.703,15.029-1.229c-0.059-1.406-0.146-2.9-0.264-4.482
	c-0.117-1.875-0.557-3.896-1.318-6.064c-0.293-0.527-0.439-1.023-0.439-1.494c0-0.527,0.469-0.791,1.406-0.791
	c0.879,0,1.934,0.5,3.164,1.494c1.172,0.646,1.758,1.438,1.758,2.373c0,0.764-0.176,1.467-0.527,2.109
	c-0.762,1.934-1.172,4.104-1.23,6.504c3.457-0.703,6.387-1.436,8.789-2.197C87.617,463.481,88.203,463.333,88.73,463.333z
	 M90.488,415.168c1.172,0,2.373,0.412,3.604,1.23c1.113,0.646,1.67,1.406,1.67,2.285c0,0.411-0.234,1.174-0.703,2.285
	c-1.055,2.053-1.875,3.635-2.461,4.746c-0.352,0.703-0.674,1.438-0.967,2.197c2.637-0.527,4.951-1.084,6.943-1.67
	c1.113-0.354,2.168-0.527,3.164-0.527c1.348,0,2.842,0.264,4.482,0.791c1.934,0.879,2.9,1.67,2.9,2.373
	c0,0.176-0.176,0.41-0.527,0.703c-0.352,0.234-0.762,0.352-1.23,0.352c-5.625,0-10.313,0.119-14.063,0.352
	c-0.938,0.061-1.963,0.146-3.076,0.264c-1.465,2.814-3.223,5.686-5.273,8.613c-0.645,0.412-1.26,0.615-1.846,0.615v-0.264
	c1.406-2.869,2.607-5.713,3.604-8.525c-0.586,0.061-1.23,0.176-1.934,0.352c-0.176,0.061-0.381,0.088-0.615,0.088
	c-0.527,0-1.377-0.23-2.549-0.703c-0.879-0.406-1.318-0.672-1.318-0.791c0-0.23,0.234-0.352,0.703-0.352
	c2.227-0.408,4.014-0.703,5.361-0.879c0.41-0.057,0.82-0.115,1.23-0.176c0.41-1.348,0.791-2.637,1.143-3.867
	c0.703-2.518,1.055-4.511,1.055-5.977c0-0.292-0.352-1.083-1.055-2.373C88.73,415.551,89.316,415.168,90.488,415.168z
	 M87.324,475.286c0.469,0,1.201,0.146,2.197,0.439c1.816,0.879,3.662,1.877,5.537,2.988c2.402,1.643,3.955,3.135,4.658,4.482
	c0.645,1.289,0.967,2.637,0.967,4.043c0,0.703-0.146,1.436-0.439,2.195c-0.234,0.646-0.557,0.969-0.967,0.969
	c-0.352,0-0.586-0.117-0.703-0.354c-0.938-0.703-2.344-2.227-4.219-4.568c-2.695-4.045-4.541-6.475-5.537-7.297
	c-1.23-1.17-1.846-2.02-1.846-2.549C86.973,475.405,87.09,475.286,87.324,475.286z"/>
<path fill="#4C5125" d="M62.1,507.649c0.936,0,2.078,0.645,3.428,1.934c0.936,0.527,1.406,1.289,1.406,2.285
	c0,0.41-0.119,0.762-0.352,1.055c-0.41,0.586-0.85,1.438-1.318,2.549c3.105,0.703,5.682,1.438,7.734,2.197
	c1.172,0.41,2.078,1.055,2.725,1.934c0.82,1.113,1.287,2.17,1.406,3.164c0,0.703-0.586,1.055-1.758,1.055h-0.703
	c-1.582-0.936-3.047-1.99-4.395-3.164c-1.877-1.582-3.723-2.93-5.537-4.043c-1.23,2.756-2.549,5.422-3.955,7.998
	c1.111,0.119,2.43,0.5,3.955,1.143c1.814,0.703,2.988,1.439,3.516,2.197c0.527,0.703,0.791,1.555,0.791,2.549
	c0,1.23-0.471,1.846-1.406,1.846c-1.174,0-2.756-1.055-4.746-3.164c-1.406-1.463-2.373-2.549-2.9-3.252
	c-0.998,1.76-2.021,3.459-3.076,5.1c-1.641,2.344-3.252,4.514-4.834,6.504c1.582,0,2.754,0.498,3.516,1.494
	c3.867-0.527,8.115-1.494,12.744-2.9c0.645,0,1.934,0.439,3.867,1.318c2.342,1.229,3.516,2.08,3.516,2.549
	c0,0.352-0.176,0.703-0.527,1.055c-1.113,1.582-2.053,3.428-2.813,5.537c-0.527,2.58-1.406,5.537-2.637,8.877
	c-0.119,0.703-0.439,1.289-0.967,1.758c-0.295,0.234-0.559,0.352-0.791,0.352c-0.41,0-0.762-0.264-1.055-0.791
	c-0.295-0.584-0.734-1.055-1.318-1.406c-1.701,0.176-3.398,0.471-5.098,0.879c-2.229,0.646-3.604,0.967-4.131,0.967
	c-0.234,0-0.471-0.027-0.703-0.088l-0.527,13.711c3.924-2.225,7.791-4.273,11.602-6.15c-0.703-1.111-1.438-2.49-2.197-4.131
	c-0.295-0.354-0.439-0.645-0.439-0.881c0.057-0.23,0.176-0.352,0.352-0.352c0.584,0,1.287,0.176,2.109,0.527
	c1.758,0.879,3.133,1.934,4.131,3.164c0.76,1.055,1.143,2.637,1.143,4.746c0,0.295-0.119,0.615-0.352,0.967
	c-0.234,0.352-0.471,0.527-0.703,0.527c-0.527,0-1.086-0.381-1.67-1.143c-0.471-0.527-1.055-1.318-1.758-2.373
	c-7.559,5.744-11.721,9.053-12.48,9.932c-1.992,2.227-3.34,3.34-4.043,3.34s-1.262-0.527-1.67-1.582
	c-0.586-0.82-0.879-1.465-0.879-1.934c0-1.055,0.117-1.846,0.352-2.373c0.645-0.469,1.406-1.172,2.285-2.109
	c0.82-0.76,1.287-2.021,1.406-3.779c0.82-5.037,1.23-10.225,1.23-15.557c0-5.506-0.264-8.965-0.791-10.371
	c-0.352-0.936-0.822-1.697-1.406-2.285c-0.119-0.115-0.207-0.203-0.264-0.264c-1.406,1.582-2.813,3.049-4.219,4.395
	c-2.932,2.813-5.744,4.865-8.438,6.152c-0.998,0.646-1.701,0.967-2.109,0.967v-0.439c4.922-4.861,9.229-9.637,12.92-14.326
	c2.518-3.455,4.891-7.088,7.119-10.896c2.051-3.518,3.604-7,4.658-10.459c0.408-1.406,0.615-2.52,0.615-3.34
	c-0.703-0.762-1.055-1.582-1.055-2.461C60.605,507.883,61.102,507.649,62.1,507.649z M56.387,540.344c0,0.119,0,0.234,0,0.352
	l-0.264,6.504c1.523-0.408,2.9-0.879,4.131-1.406c0.293-0.115,0.527-0.176,0.703-0.176c3.045,0,4.57,0.5,4.57,1.494
	c0,0.176-0.119,0.322-0.352,0.439c-1.35,0.41-2.607,0.703-3.779,0.879c-0.938,0.234-1.553,0.352-1.846,0.352
	c-1.289,0-2.461-0.088-3.516-0.264l-0.264,7.207c0.879-0.115,2.021-0.381,3.428-0.791c1.814-0.469,3.281-1.023,4.395-1.67
	c0.352-0.176,0.645-0.264,0.879-0.264c1.172,0,2.109,0.176,2.813,0.527c0.057,0.059,0.117,0.088,0.176,0.088
	c0.408-2.52,0.732-5.1,0.967-7.734c0.176-1.814,0.264-3.545,0.264-5.186s-0.352-2.461-1.055-2.461
	C62.596,539.465,58.848,540.168,56.387,540.344z M88.73,542.454c0.996,0,1.934,0.438,2.813,1.316
	c1.875,1.291,2.813,2.404,2.813,3.342c0,0.352-0.119,0.703-0.352,1.055c-0.762,0.822-1.262,1.67-1.494,2.549
	c-0.471,1.643-0.91,3.164-1.318,4.57c0.117,0.059,0.264,0.119,0.439,0.176c1.172,0.586,2.314,1.582,3.428,2.988
	c3.457,3.811,6.68,6.887,9.668,9.229c3.396,2.756,8.846,5.742,16.348,8.965v0.703c0,0.293-0.471,0.469-1.406,0.527
	c-4.629,0.762-8.732,1.143-12.305,1.143c-1.174,0-1.934-0.176-2.285-0.527c-2.695-3.105-6.152-8.289-10.371-15.557
	c-0.762-1.287-1.789-2.725-3.076-4.307c-0.352-0.469-0.703-0.908-1.055-1.318c-0.879,2.813-1.758,5.041-2.637,6.68
	c-1.641,3.049-3.955,5.859-6.943,8.438c-2.871,2.229-5.744,3.838-8.613,4.834c-1.582,0.469-2.932,0.703-4.043,0.703
	c-0.471,0-0.703-0.117-0.703-0.352c2.166-1.055,4.16-2.139,5.977-3.252c4.043-2.813,7-5.449,8.877-7.91
	c1.814-2.285,3.281-5.125,4.395-8.525c1.23-3.279,1.846-6.68,1.846-10.195c0-1.346-0.586-2.725-1.758-4.131
	C86.973,542.836,87.557,542.454,88.73,542.454z M92.598,509.846c0.879,0,1.99,0.586,3.34,1.758c1.055,1.113,1.582,2.141,1.582,3.076
	c0,0.646-0.234,1.262-0.703,1.846c-0.586,0.527-0.998,1.055-1.23,1.582c-2.58,5.977-4.98,10.781-7.207,14.414
	c-0.703,0.938-1.35,1.846-1.934,2.725c6.033-0.879,11.602-2.254,16.699-4.131c0.645-0.176,1.23-0.264,1.758-0.264
	c0.584,0,1.846,0.527,3.779,1.582c2.402,1.467,3.604,2.607,3.604,3.428c0,0.822-0.559,1.379-1.67,1.67
	c-2.053,0.703-5.129,2.492-9.229,5.361v-0.439c0.936-2.869,1.406-4.979,1.406-6.328c0-0.936-0.586-1.406-1.758-1.406
	c-4.453,0.588-8.557,1.379-12.305,2.373c-0.471,0.061-0.822,0.088-1.055,0.088c-0.822,0-1.582-0.115-2.285-0.352
	c-0.059,0-0.119,0-0.176,0c-1.816,2.229-3.516,3.955-5.098,5.186c-1.35,1.23-2.229,1.848-2.637,1.848
	c-0.234,0-0.352-0.205-0.352-0.615c3.867-5.215,6.973-10.137,9.316-14.768c1.814-3.631,3.252-7.295,4.307-10.984
	c0.527-2.227,0.791-3.867,0.791-4.922l-0.352-2.109C91.191,510.053,91.66,509.846,92.598,509.846z"/>
<path fill="#4C5125" d="M91.982,616.739c0,9.49-5.684,14.385-17.051,14.678v11.426h-3.34v-17.051c4.219,0,7.383-0.584,9.492-1.758
	c3.748-2.053,5.625-5.48,5.625-10.283c0-2.869-0.791-5.127-2.373-6.77c-1.35-1.463-3.02-2.195-5.01-2.195
	c-1.525,0-3.223,0.762-5.098,2.285c-1.816,1.465-3.311,2.195-4.482,2.195c-1.289,0-2.344-0.352-3.164-1.055
	c-0.762-0.703-1.143-1.639-1.143-2.813c0-3.516,3.105-5.273,9.316-5.273c4.512,0,8.438,1.525,11.777,4.57
	C90.166,607.92,91.982,611.936,91.982,616.739z M78.184,656.114c0,1.229-0.498,2.313-1.494,3.252
	c-0.998,0.818-2.197,1.229-3.604,1.229c-1.407,0-2.58-0.438-3.516-1.316c-0.938-0.881-1.406-1.936-1.406-3.164
	c0-1.289,0.469-2.373,1.406-3.252c0.936-0.82,2.109-1.23,3.516-1.23c1.407,0,2.637,0.439,3.691,1.318
	C77.713,653.829,78.184,654.883,78.184,656.114z"/>
</svg>
