<?xml version="1.0" encoding="utf-8"?>
<!-- Generator: Adobe Illustrator 16.0.0, SVG Export Plug-In . SVG Version: 6.00 Build 0)  -->
<!DOCTYPE svg PUBLIC "-//W3C//DTD SVG 1.1//EN" "http://www.w3.org/Graphics/SVG/1.1/DTD/svg11.dtd">
<svg version="1.1" id="圖層_1" xmlns="http://www.w3.org/2000/svg" xmlns:xlink="http://www.w3.org/1999/xlink" x="0px" y="0px"
	 width="595.279px" height="278.84px" viewBox="0 0 595.279 278.84" enable-background="new 0 0 595.279 278.84"
	 xml:space="preserve">
<g>
	<path fill="#FFFFFF" d="M182.163,99.698c52.324-4.207,88.313,16.941,111.957,63.434c14.243-26.393,35.113-43.078,62.278-52.375
		c-6.039-19.989-16.642-36.161-33.061-46.332c-15.516-9.616-33.265-15.637-51.222-23.777c2.883-0.509,5.644-1.676,8.215-1.345
		c54.985,7.103,94.197,58.419,86.32,112.763c-7.712,53.146-51.202,89.553-104.449,87.445c-41.78-1.652-80.358-31.486-91.516-70.779
		c-12.331-43.439,3.232-88.555,39.49-112.484c8.334-5.506,17.852-9.287,27.049-13.369c1.813-0.81,4.641,0.646,6.996,1.058
		c-1.604,1.665-2.914,4.174-4.866,4.872c-22.35,7.988-40.471,21.199-52.674,41.877C185.248,93.122,184.132,95.745,182.163,99.698z
		 M270.679,204.659c3.735-11.529,7.147-21.855,10.428-32.223c4.295-13.639-2.684-29.689-16.899-37.346
		c-2.369,13.086-3.463,26.232-7.303,38.518C252.418,187.969,259.457,195.895,270.679,204.659z M263.465,210.518
		c-8.763-15.969-18.856-24.027-35.471-16.277c-1.021,0.475-2.366,0.191-3.521,0.463c-8.675,1.984-17.336,4.029-26,6.059
		c-0.271,1.168-0.548,2.342-0.813,3.512c7.514,4.852,14.973,13.584,22.564,13.703C234.329,218.198,248.509,213.383,263.465,210.518z
		 M248.894,181.018c2.723-15.232,5.32-28.539,7.439-41.916c2.205-13.859-2.972-20.215-18.751-22.797
		c-1.476,9.588-1.548,19.688-4.75,28.666C226.885,161.645,237.218,170.042,248.894,181.018z M181.594,176.317
		c3.5,7.844,4.475,17.951,13.086,17.188c15.076-1.338,29.875-5.783,46.862-9.365c-5.196-5.854-8.661-10.189-12.618-14.006
		c-1.952-1.885-5.173-4.371-7.235-3.92C208.514,169.096,195.497,172.721,181.594,176.317z M217.601,159.504
		c-9.187-15.432-12.235-16.887-27.79-14.123c-2.639,0.467-5.287,1.033-7.946,1.168c-6.334,0.324-9.456,2.707-7.124,9.545
		c1.045,3.088,1.075,6.578,2.465,9.455c0.79,1.629,3.702,3.668,5.133,3.326C194.058,166.075,205.659,162.752,217.601,159.504z
		 M224.833,153.499c1.771-11.998,2.354-22.373,5.036-32.176c2.529-9.246-1.616-11.307-9.082-12.777
		c-8.89-1.752-7.817,4.412-8.43,9.541c-0.242,2.047-0.328,4.201-1.063,6.086C206.116,137.485,214.107,144.917,224.833,153.499z
		 M281.379,230.327c-6.079-12.371-10.025-14.502-22.291-11.982c-8.882,1.822-17.776,3.66-28.969,5.961
		C247.132,233.063,271.169,235.338,281.379,230.327z M289.009,224.356c5.633-13.789,4.999-41.029-1.688-49.021
		c-2.799,9.029-5.467,17.375-7.963,25.773C275.561,213.887,276.421,215.917,289.009,224.356z M322.39,190.78
		c21.654,2.275,27.284,0.961,29.622-16.672C328.907,171.932,327.398,175.081,322.39,190.78z M338.416,201.989
		c-20.166-7.311-29.678-0.193-32.565,23.918C316.71,217.932,327.557,209.958,338.416,201.989z M303.077,162.04
		c-10.983,16.264,0.287,31.791-2.7,46.818C312.533,196.706,313.286,182.436,303.077,162.04z M199.676,137.625
		c-8.229-9.039-14.686-16.127-21.134-23.211c-0.949,0.354-1.897,0.719-2.849,1.074c-0.96,7.852-1.923,15.703-3.059,25.002
		C181.993,139.5,189.229,138.729,199.676,137.625z M335.925,165.895c19.074,3.67,25.801-1.17,22.679-15.814
		C342.442,149.43,341.573,150.012,335.925,165.895z M201.188,128.87c1.252-0.328,2.513-0.658,3.756-0.988
		c0-7.063,2.457-15.834-0.853-20.588c-2.21-3.166-12.641-0.604-19.39-0.604c-0.275,0.932-0.549,1.865-0.824,2.799
		C189.644,115.952,195.421,122.411,201.188,128.87z M317.362,180.831c5.991-7.689,5.463-22.248-0.782-35.219
		C308.918,150.512,309.113,164.717,317.362,180.831z M331.907,131.93c-9.316,3.857-10.304,13.883-2.705,27.467
		C338.349,148.42,338.76,144.192,331.907,131.93z M358.438,123.616c-4.079,7.361-6.93,12.516-9.993,18.053
		C361.349,143.866,362.577,141.881,358.438,123.616z M350.856,122.149c-12.255,2.234-13.261,4.086-7.584,13.76
		C345.862,131.208,348.137,127.081,350.856,122.149z"/>
	<path fill="#FFFFFF" d="M260.595,42.523c0,1.81-1.475,3.276-3.281,3.276c-1.813,0-3.279-1.467-3.279-3.276
		c0-1.815,1.468-3.278,3.279-3.278C259.122,39.245,260.595,40.708,260.595,42.523z"/>
</g>
</svg>
