<?xml version="1.0" encoding="utf-8"?>
<!-- Generator: Adobe Illustrator 16.0.0, SVG Export Plug-In . SVG Version: 6.00 Build 0)  -->
<!DOCTYPE svg PUBLIC "-//W3C//DTD SVG 1.1//EN" "http://www.w3.org/Graphics/SVG/1.1/DTD/svg11.dtd">
<svg version="1.1" id="圖層_1" xmlns="http://www.w3.org/2000/svg" xmlns:xlink="http://www.w3.org/1999/xlink" x="0px" y="0px"
	 width="595.28px" height="278.841px" viewBox="0 0 595.28 278.841" enable-background="new 0 0 595.28 278.841"
	 xml:space="preserve">
<g>
	<path fill-rule="evenodd" clip-rule="evenodd" fill="#697D31" d="M201.708,99.698c52.325-4.207,88.315,16.943,111.958,63.434
		c14.243-26.393,35.113-43.078,62.278-52.375c-6.039-19.99-16.641-36.162-33.06-46.331c-15.515-9.618-33.264-15.638-51.222-23.779
		c2.883-0.509,5.644-1.676,8.215-1.344c54.986,7.102,94.198,58.418,86.321,112.762c-7.712,53.146-51.202,89.552-104.45,87.446
		c-41.78-1.653-80.358-31.488-91.514-70.78c-12.331-43.441,3.232-88.554,39.49-112.486c8.334-5.505,17.851-9.286,27.049-13.368
		c1.812-0.809,4.639,0.646,6.996,1.057c-1.604,1.665-2.914,4.174-4.866,4.872c-22.35,7.988-40.471,21.2-52.674,41.877
		C204.793,93.122,203.677,95.746,201.708,99.698z M290.226,204.659c3.735-11.53,7.147-21.854,10.428-32.222
		c4.295-13.638-2.684-29.69-16.901-37.346c-2.369,13.087-3.463,26.233-7.303,38.517
		C271.963,187.971,279.002,195.896,290.226,204.659z M283.01,210.52c-8.763-15.968-18.856-24.029-35.471-16.28
		c-1.02,0.475-2.366,0.193-3.52,0.463c-8.675,1.986-17.336,4.031-26,6.06c-0.272,1.167-0.548,2.341-0.813,3.511
		c7.514,4.852,14.973,13.584,22.566,13.703C253.874,218.197,268.055,213.386,283.01,210.52z M268.441,181.02
		c2.721-15.234,5.32-28.54,7.439-41.917c2.205-13.859-2.971-20.214-18.751-22.796c-1.474,9.587-1.548,19.686-4.75,28.665
		C246.432,161.646,256.763,170.043,268.441,181.02z M201.141,176.318c3.5,7.843,4.474,17.952,13.086,17.186
		c15.076-1.338,29.875-5.783,46.862-9.365c-5.196-5.854-8.661-10.189-12.618-14.005c-1.952-1.886-5.173-4.371-7.235-3.92
		C228.061,169.097,215.042,172.722,201.141,176.318z M237.148,159.507c-9.187-15.433-12.237-16.887-27.79-14.123
		c-2.639,0.466-5.287,1.033-7.948,1.167c-6.334,0.324-9.456,2.708-7.124,9.545c1.045,3.088,1.077,6.579,2.465,9.456
		c0.79,1.628,3.702,3.668,5.133,3.326C213.605,166.075,225.204,162.754,237.148,159.507z M244.378,153.499
		c1.772-11.998,2.354-22.373,5.036-32.176c2.531-9.246-1.616-11.306-9.082-12.777c-8.888-1.752-7.817,4.412-8.428,9.542
		c-0.244,2.046-0.329,4.201-1.065,6.085C225.661,137.486,233.654,144.918,244.378,153.499z M300.924,230.327
		c-6.079-12.371-10.025-14.502-22.291-11.982c-8.882,1.821-17.776,3.659-28.969,5.96
		C266.677,233.063,290.714,235.341,300.924,230.327z M308.554,224.356c5.633-13.789,4.999-41.03-1.688-49.019
		c-2.798,9.028-5.466,17.374-7.962,25.773C295.108,213.889,295.966,215.919,308.554,224.356z M341.937,190.78
		c21.654,2.277,27.284,0.96,29.622-16.672C348.453,171.933,346.944,175.083,341.937,190.78z M357.961,201.989
		c-20.166-7.31-29.677-0.193-32.565,23.918C336.255,217.934,347.104,209.96,357.961,201.989z M322.623,162.041
		c-10.984,16.263,0.287,31.792-2.701,46.819C332.079,196.705,332.832,182.437,322.623,162.041z M219.221,137.626
		c-8.229-9.039-14.686-16.127-21.134-23.211c-0.949,0.355-1.897,0.719-2.847,1.074c-0.96,7.852-1.923,15.705-3.059,25.003
		C201.538,139.501,208.776,138.73,219.221,137.626z M355.47,165.896c19.074,3.67,25.801-1.17,22.679-15.816
		C361.988,149.432,361.119,150.014,355.47,165.896z M220.735,128.871c1.252-0.329,2.511-0.659,3.755-0.989
		c0-7.062,2.458-15.833-0.852-20.588c-2.21-3.165-12.641-0.603-19.39-0.603c-0.275,0.932-0.548,1.866-0.824,2.798
		C209.191,115.952,214.966,122.411,220.735,128.871z M336.908,180.832c5.991-7.689,5.463-22.248-0.783-35.218
		C328.463,150.514,328.659,164.72,336.908,180.832z M351.453,131.931c-9.317,3.857-10.304,13.882-2.705,27.466
		C357.896,148.423,358.307,144.193,351.453,131.931z M377.984,123.616c-4.079,7.362-6.929,12.516-9.993,18.052
		C380.896,143.866,382.123,141.884,377.984,123.616z M370.402,122.15c-12.254,2.235-13.26,4.085-7.584,13.76
		C365.408,131.209,367.684,127.081,370.402,122.15z"/>
	<path fill-rule="evenodd" clip-rule="evenodd" fill="#697D31" d="M280.142,42.524c0,1.81-1.475,3.277-3.281,3.277
		c-1.813,0-3.281-1.468-3.281-3.277c0-1.815,1.468-3.278,3.281-3.278C278.667,39.246,280.142,40.709,280.142,42.524z"/>
</g>
</svg>
