<?xml version="1.0" encoding="utf-8"?>
<!-- Generator: Adobe Illustrator 16.0.0, SVG Export Plug-In . SVG Version: 6.00 Build 0)  -->
<!DOCTYPE svg PUBLIC "-//W3C//DTD SVG 1.1//EN" "http://www.w3.org/Graphics/SVG/1.1/DTD/svg11.dtd">
<svg version="1.1" id="圖層_1" xmlns="http://www.w3.org/2000/svg" xmlns:xlink="http://www.w3.org/1999/xlink" x="0px" y="0px"
	 width="595.279px" height="278.84px" viewBox="0 0 595.279 278.84" enable-background="new 0 0 595.279 278.84"
	 xml:space="preserve">
<g>
	<path fill="#697D31" d="M201.708,99.698c52.325-4.207,88.314,16.943,111.957,63.433c14.243-26.392,35.113-43.079,62.278-52.375
		c-6.039-19.99-16.641-36.162-33.06-46.331c-15.517-9.618-33.266-15.638-51.223-23.779c2.883-0.509,5.645-1.676,8.216-1.344
		c54.984,7.102,94.196,58.418,86.319,112.762c-7.712,53.146-51.202,89.554-104.449,87.444c-41.78-1.651-80.357-31.486-91.515-70.778
		c-12.331-43.441,3.231-88.554,39.49-112.486c8.334-5.505,17.852-9.286,27.049-13.368c1.813-0.809,4.64,0.646,6.996,1.057
		c-1.604,1.665-2.914,4.174-4.866,4.872c-22.35,7.988-40.471,21.2-52.674,41.877C204.793,93.122,203.677,95.746,201.708,99.698z
		 M290.226,204.659c3.734-11.529,7.146-21.854,10.428-32.222c4.295-13.638-2.684-29.69-16.9-37.346
		c-2.368,13.087-3.463,26.234-7.303,38.517C271.963,187.971,279.002,195.896,290.226,204.659z M283.01,210.52
		c-8.764-15.969-18.856-24.029-35.472-16.279c-1.021,0.475-2.366,0.192-3.521,0.463c-8.676,1.985-17.336,4.03-26,6.061
		c-0.271,1.167-0.548,2.341-0.813,3.511c7.515,4.853,14.974,13.584,22.565,13.703C253.874,218.198,268.055,213.385,283.01,210.52z
		 M268.441,181.02c2.722-15.234,5.32-28.54,7.438-41.917c2.205-13.859-2.971-20.214-18.751-22.796
		c-1.475,9.587-1.548,19.686-4.75,28.665C246.432,161.646,256.763,170.043,268.441,181.02z M201.141,176.318
		c3.5,7.843,4.475,17.952,13.086,17.187c15.076-1.338,29.875-5.782,46.861-9.364c-5.195-5.854-8.66-10.188-12.617-14.007
		c-1.952-1.885-5.174-4.369-7.235-3.92C228.061,169.097,215.042,172.722,201.141,176.318z M237.148,159.506
		c-9.188-15.432-12.236-16.887-27.79-14.123c-2.639,0.467-5.287,1.033-7.947,1.168c-6.334,0.324-9.456,2.707-7.124,9.545
		c1.045,3.088,1.076,6.578,2.465,9.455c0.79,1.629,3.702,3.668,5.133,3.326C213.605,166.075,225.204,162.754,237.148,159.506z
		 M244.378,153.499c1.771-11.998,2.354-22.373,5.036-32.174c2.53-9.246-1.616-11.306-9.082-12.777
		c-8.889-1.752-7.816,4.412-8.429,9.542c-0.243,2.046-0.328,4.201-1.064,6.085C225.661,137.486,233.654,144.918,244.378,153.499z
		 M300.925,230.327c-6.079-12.371-10.025-14.502-22.292-11.982c-8.882,1.822-17.775,3.66-28.969,5.962
		C266.677,233.063,290.714,235.34,300.925,230.327z M308.554,224.356c5.633-13.789,4.999-41.029-1.688-49.02
		c-2.798,9.029-5.466,17.375-7.962,25.772C295.108,213.889,295.966,215.918,308.554,224.356z M341.937,190.78
		c21.654,2.277,27.284,0.961,29.622-16.672C348.452,171.933,346.944,175.083,341.937,190.78z M357.962,201.989
		c-20.166-7.31-29.679-0.193-32.565,23.918C336.256,217.934,347.104,209.959,357.962,201.989z M322.622,162.042
		c-10.982,16.264,0.287,31.791-2.699,46.818C332.078,196.706,332.831,182.437,322.622,162.042z M219.221,137.626
		c-8.229-9.039-14.687-16.127-21.135-23.211c-0.948,0.355-1.896,0.719-2.848,1.074c-0.96,7.852-1.923,15.705-3.059,25.003
		C201.538,139.501,208.776,138.73,219.221,137.626z M355.47,165.896c19.074,3.67,25.801-1.17,22.679-15.815
		C361.988,149.432,361.118,150.014,355.47,165.896z M220.735,128.871c1.252-0.329,2.512-0.659,3.756-0.989
		c0-7.062,2.457-15.833-0.853-20.588c-2.21-3.165-12.642-0.603-19.391-0.603c-0.274,0.932-0.548,1.866-0.824,2.798
		C209.191,115.952,214.966,122.411,220.735,128.871z M336.907,180.833c5.991-7.688,5.463-22.248-0.781-35.219
		C328.464,150.514,328.658,164.719,336.907,180.833z M351.452,131.931c-9.315,3.857-10.304,13.882-2.705,27.466
		C357.896,148.422,358.307,144.193,351.452,131.931z M377.984,123.616c-4.079,7.362-6.929,12.516-9.993,18.052
		C380.896,143.866,382.122,141.883,377.984,123.616z M370.402,122.15c-12.254,2.235-13.26,4.085-7.584,13.76
		C365.407,131.209,367.684,127.081,370.402,122.15z"/>
	<path fill="#697D31" d="M280.142,42.524c0,1.81-1.476,3.277-3.281,3.277c-1.813,0-3.28-1.468-3.28-3.277
		c0-1.815,1.468-3.278,3.28-3.278C278.667,39.246,280.142,40.709,280.142,42.524z"/>
</g>
<g>
	<path fill="#FFFFFF" d="M191.935,430.7c52.324-4.207,88.313,16.941,111.957,63.434c14.243-26.393,35.113-43.078,62.278-52.375
		c-6.039-19.989-16.642-36.161-33.061-46.332c-15.516-9.616-33.265-15.637-51.222-23.777c2.883-0.509,5.644-1.676,8.215-1.345
		c54.985,7.103,94.197,58.419,86.32,112.763c-7.712,53.146-51.202,89.553-104.449,87.445c-41.78-1.652-80.358-31.486-91.516-70.779
		c-12.331-43.439,3.232-88.555,39.49-112.484c8.334-5.506,17.852-9.287,27.049-13.369c1.813-0.81,4.641,0.646,6.996,1.058
		c-1.604,1.665-2.914,4.174-4.866,4.872c-22.35,7.988-40.471,21.199-52.674,41.877C195.02,424.124,193.904,426.747,191.935,430.7z
		 M280.452,535.661c3.735-11.529,7.147-21.855,10.428-32.223c4.295-13.639-2.684-29.689-16.899-37.346
		c-2.369,13.086-3.463,26.232-7.303,38.518C262.19,518.971,269.229,526.897,280.452,535.661z M273.237,541.52
		c-8.763-15.969-18.856-24.027-35.471-16.277c-1.021,0.475-2.366,0.191-3.521,0.463c-8.675,1.984-17.336,4.029-26,6.059
		c-0.271,1.168-0.548,2.342-0.813,3.512c7.514,4.852,14.973,13.584,22.564,13.703C244.101,549.2,258.281,544.385,273.237,541.52z
		 M258.667,512.02c2.723-15.232,5.32-28.539,7.439-41.916c2.205-13.859-2.972-20.215-18.751-22.797
		c-1.476,9.588-1.548,19.688-4.75,28.666C236.658,492.647,246.99,501.043,258.667,512.02z M191.367,507.319
		c3.5,7.844,4.475,17.951,13.086,17.188c15.076-1.338,29.875-5.783,46.862-9.365c-5.196-5.854-8.661-10.189-12.618-14.006
		c-1.952-1.885-5.173-4.371-7.235-3.92C218.287,500.098,205.269,503.723,191.367,507.319z M227.374,490.506
		c-9.187-15.432-12.235-16.887-27.79-14.123c-2.639,0.467-5.287,1.033-7.946,1.168c-6.334,0.324-9.456,2.707-7.124,9.545
		c1.045,3.088,1.075,6.578,2.465,9.455c0.79,1.629,3.702,3.668,5.133,3.326C203.831,497.077,215.431,493.754,227.374,490.506z
		 M234.605,484.5c1.771-11.998,2.354-22.373,5.036-32.176c2.529-9.246-1.616-11.307-9.082-12.777
		c-8.89-1.752-7.817,4.412-8.43,9.541c-0.242,2.047-0.328,4.201-1.063,6.086C215.888,468.487,223.88,475.918,234.605,484.5z
		 M291.151,561.329c-6.079-12.371-10.025-14.502-22.291-11.982c-8.882,1.822-17.776,3.66-28.969,5.961
		C256.904,564.065,280.941,566.34,291.151,561.329z M298.781,555.358c5.633-13.789,4.999-41.029-1.688-49.021
		c-2.799,9.029-5.467,17.375-7.963,25.773C285.334,544.889,286.193,546.918,298.781,555.358z M332.163,521.782
		c21.654,2.275,27.284,0.961,29.622-16.672C338.679,502.934,337.171,506.083,332.163,521.782z M348.188,532.991
		c-20.166-7.311-29.678-0.193-32.565,23.918C326.482,548.934,337.33,540.959,348.188,532.991z M312.849,493.042
		c-10.983,16.264,0.287,31.791-2.7,46.818C322.305,527.708,323.058,513.438,312.849,493.042z M209.448,468.627
		c-8.229-9.039-14.686-16.127-21.134-23.211c-0.949,0.354-1.897,0.719-2.849,1.074c-0.96,7.852-1.923,15.703-3.059,25.002
		C191.765,470.502,199.002,469.731,209.448,468.627z M345.697,496.897c19.074,3.67,25.801-1.17,22.679-15.814
		C352.215,480.432,351.345,481.014,345.697,496.897z M210.961,459.872c1.252-0.328,2.513-0.658,3.756-0.988
		c0-7.063,2.457-15.834-0.853-20.588c-2.21-3.166-12.641-0.604-19.39-0.604c-0.275,0.932-0.549,1.865-0.824,2.799
		C199.417,446.954,205.193,453.413,210.961,459.872z M327.135,511.833c5.991-7.689,5.463-22.248-0.782-35.219
		C318.69,481.514,318.885,495.719,327.135,511.833z M341.679,462.932c-9.316,3.857-10.304,13.883-2.705,27.467
		C348.122,479.422,348.533,475.194,341.679,462.932z M368.211,454.618c-4.079,7.361-6.93,12.516-9.993,18.053
		C371.122,474.868,372.349,472.883,368.211,454.618z M360.629,453.151c-12.255,2.234-13.261,4.086-7.584,13.76
		C355.635,462.209,357.91,458.083,360.629,453.151z"/>
	<path fill="#FFFFFF" d="M270.368,373.525c0,1.81-1.475,3.276-3.281,3.276c-1.813,0-3.279-1.467-3.279-3.276
		c0-1.815,1.468-3.278,3.279-3.278C268.894,370.247,270.368,371.709,270.368,373.525z"/>
</g>
</svg>
