<?xml version="1.0" encoding="utf-8"?>
<!-- Generator: Adobe Illustrator 16.0.0, SVG Export Plug-In . SVG Version: 6.00 Build 0)  -->
<!DOCTYPE svg PUBLIC "-//W3C//DTD SVG 1.1//EN" "http://www.w3.org/Graphics/SVG/1.1/DTD/svg11.dtd">
<svg version="1.1" id="圖層_1" xmlns="http://www.w3.org/2000/svg" xmlns:xlink="http://www.w3.org/1999/xlink" x="0px" y="0px"
	 width="595.28px" height="278.841px" viewBox="0 0 595.28 278.841" enable-background="new 0 0 595.28 278.841"
	 xml:space="preserve">
<g>
	<g>
		<path fill-rule="evenodd" clip-rule="evenodd" fill="#697D31" d="M439.492,72.633c17.988-1.446,30.361,5.825,38.489,21.808
			c4.896-9.073,12.071-14.81,21.41-18.006c-2.076-6.872-5.721-12.432-11.365-15.928c-5.334-3.307-11.436-5.376-17.609-8.175
			c0.991-0.175,1.94-0.576,2.824-0.462c18.903,2.441,32.384,20.083,29.676,38.766c-2.651,18.271-17.603,30.786-35.908,30.063
			c-14.363-0.568-27.626-10.825-31.461-24.333c-4.239-14.935,1.111-30.443,13.576-38.671c2.865-1.893,6.137-3.192,9.299-4.596
			c0.623-0.278,1.595,0.222,2.405,0.363c-0.552,0.572-1.002,1.435-1.673,1.675c-7.684,2.746-13.913,7.288-18.108,14.396
			C440.553,70.372,440.169,71.274,439.492,72.633z M469.923,108.717c1.284-3.964,2.457-7.513,3.585-11.077
			c1.477-4.688-0.923-10.207-5.811-12.839c-0.814,4.499-1.19,9.019-2.511,13.241C463.645,102.979,466.064,105.704,469.923,108.717z
			 M467.442,110.731c-3.013-5.489-6.482-8.261-12.194-5.597c-0.351,0.163-0.813,0.066-1.21,0.159
			c-2.982,0.683-5.96,1.386-8.938,2.083c-0.094,0.401-0.188,0.805-0.279,1.207c2.583,1.668,5.147,4.67,7.758,4.711
			C457.426,113.371,462.301,111.717,467.442,110.731z M462.434,100.59c0.936-5.237,1.829-9.812,2.558-14.41
			c0.758-4.765-1.021-6.949-6.446-7.837c-0.507,3.296-0.532,6.768-1.633,9.854C454.867,93.93,458.419,96.816,462.434,100.59z
			 M439.297,98.974c1.203,2.696,1.538,6.172,4.499,5.908c5.183-0.46,10.271-1.988,16.11-3.22c-1.786-2.013-2.978-3.503-4.338-4.814
			c-0.671-0.648-1.778-1.503-2.487-1.348C448.552,96.491,444.076,97.737,439.297,98.974z M451.676,93.194
			c-3.158-5.306-4.207-5.806-9.554-4.855c-0.907,0.16-1.817,0.355-2.732,0.401c-2.178,0.111-3.251,0.931-2.449,3.281
			c0.359,1.062,0.37,2.262,0.848,3.251c0.271,0.56,1.272,1.261,1.765,1.144C443.582,95.452,447.569,94.311,451.676,93.194z
			 M454.161,91.129c0.609-4.125,0.81-7.691,1.731-11.062c0.87-3.179-0.556-3.887-3.122-4.393c-3.056-0.603-2.688,1.517-2.897,3.28
			c-0.084,0.703-0.113,1.444-0.366,2.092C447.727,85.624,450.475,88.179,454.161,91.129z M473.601,117.541
			c-2.09-4.253-3.446-4.985-7.663-4.119c-3.054,0.626-6.111,1.258-9.959,2.049C461.827,118.481,470.091,119.265,473.601,117.541z
			 M476.224,115.488c1.937-4.74,1.719-14.105-0.58-16.852c-0.962,3.104-1.879,5.973-2.737,8.86
			C471.602,111.89,471.896,112.588,476.224,115.488z M487.7,103.945c7.444,0.783,9.38,0.33,10.184-5.731
			C489.94,97.466,489.422,98.549,487.7,103.945z M493.209,107.799c-6.933-2.513-10.202-0.066-11.195,8.223
			C485.747,113.28,489.477,110.539,493.209,107.799z M481.061,94.065c-3.776,5.591,0.099,10.93-0.929,16.096
			C484.312,105.982,484.57,101.077,481.061,94.065z M445.513,85.672c-2.829-3.107-5.049-5.544-7.266-7.979
			c-0.326,0.122-0.652,0.247-0.979,0.369c-0.33,2.699-0.661,5.399-1.052,8.596C439.434,86.316,441.922,86.052,445.513,85.672z
			 M492.353,95.391c6.558,1.262,8.87-0.402,7.797-5.438C494.594,89.73,494.295,89.931,492.353,95.391z M446.033,82.662
			c0.431-0.113,0.863-0.227,1.291-0.34c0-2.428,0.845-5.443-0.293-7.078c-0.76-1.088-4.346-0.207-6.666-0.207
			c-0.095,0.32-0.188,0.642-0.283,0.962C442.064,78.221,444.05,80.441,446.033,82.662z M485.972,100.525
			c2.06-2.644,1.878-7.648-0.27-12.107C483.068,90.103,483.136,94.986,485.972,100.525z M490.972,83.714
			c-3.203,1.326-3.542,4.772-0.93,9.442C493.187,89.384,493.328,87.93,490.972,83.714z M500.093,80.855
			c-1.402,2.531-2.382,4.303-3.436,6.206C501.094,87.817,501.516,87.136,500.093,80.855z M497.486,80.352
			c-4.213,0.769-4.559,1.404-2.607,4.73C495.77,83.466,496.552,82.047,497.486,80.352z"/>
		<circle fill-rule="evenodd" clip-rule="evenodd" fill="#697D31" cx="465.328" cy="52.978" r="1.128"/>
	</g>
	<g>
		<path fill="#697D31" d="M131.46,96.737c1.321,1.437,0.993,4.914-0.994,10.436l-4.141,11.263l13.911-0.993
			c7.396-0.331,11.429,0.33,12.094,1.986l0.162,2.484c-3.421,11.818-6.02,20.266-7.782,25.342c-2.761,8.064-5.962,16.18-9.608,24.35
			c0.665,0.885,3.866,3.479,9.608,7.785c5.301,4.088,8.281,6.736,8.942,7.951c0.773,1.879,1.052,3.7,0.832,5.467
			c-0.89,1.877-2.379,2.1-4.474,0.661l-5.8-4.638l-6.956-5.465c-2.761-1.988-4.86-3.754-6.294-5.301
			c-4.416,5.08-8.669,9.275-12.756,12.589c-5.854,4.417-10.764,6.625-14.738,6.625c-2.761,0-5.413-0.663-7.953-1.987
			c-2.873-1.656-3.975-3.588-3.31-5.798l0.661-0.497c7.949-2.428,13.416-4.307,16.397-5.631c5.521-2.428,10.323-5.742,14.41-9.939
			c-5.409-3.421-8.341-5.244-8.777-5.465c-3.87-2.207-7.018-3.588-9.441-4.141l-3.975-0.663c-1.105-0.333-1.767-1.104-1.991-2.319
			c-0.441-1.213,0.107-3.148,1.658-5.799l3.809-5.795c0.886-1.545,2.652-5.634,5.301-12.259c3.313-8.39,4.969-12.642,4.969-12.753
			c-3.643,0.553-6.956,0.994-9.937,1.324c-3.538,0.332-6.848,0.496-9.94,0.496c-1.322-0.44-1.88-1.434-1.655-2.98
			c0.333-1.656,1.269-3.035,2.814-4.141c1.326-0.994,4.64-1.545,9.94-1.657l10.436,0.333l2.815-10.933
			c1.102-4.085,2.041-7.398,2.814-9.938c0.886-1.435,2.319-2.154,4.308-2.154C128.807,94.583,130.354,95.303,131.46,96.737z
			 M123.344,124.233c-1.326,4.638-3.371,10.16-6.132,16.563c-2.54,5.962-4.969,11.155-7.288,15.569
			c0.553,0.443,3.533,2.377,8.946,5.799c4.969,3.203,8.17,5.135,9.608,5.797c2.981-4.64,6.07-11.318,9.275-20.043
			c2.536-7.176,4.636-14.08,6.295-20.705c-0.558-1.214-1.106-2.207-1.659-2.98h-9.608H123.344z M184.959,97.897
			c5.634-0.11,11.762-0.166,18.385-0.166h18.717c2.761,0,4.694,0.553,5.8,1.656c1.103,1.216,0.936,2.873-0.499,4.969
			c-4.199,3.093-9.001,7.069-14.41,11.926l-13.748,12.589l2.984,7.784l2.814,7.785h19.379c5.521-0.22,11.928-1.213,19.216-2.98
			c0,0.33,0.104,1.547,0.329,3.645c0.107,1.324,0,2.373-0.329,3.146c-0.444,1.215-2.045,3.037-4.806,5.465
			c-2.761,2.431-4.694,3.867-5.796,4.308c-2.212,0.884-4.806,0.72-7.787-0.497l-7.949-3.644c-0.773-0.333-2.595-0.884-5.467-1.657
			c-2.648-0.662-4.308-1.16-4.969-1.49c0,14.467-0.058,22.141-0.166,23.022c-0.661,9.275-2.814,16.233-6.461,20.871
			c-1.767,2.21-3.367,3.81-4.802,4.804c-1.326,0.771-3.538,1.711-6.627,2.814c-1.215,0.441-3.917,0.664-8.116,0.664
			c-4.198,0-6.623-0.331-7.288-0.994c-0.553-0.663-1.434-2.376-2.648-5.135c-0.773-1.875-1.492-3.754-2.153-5.631
			c0.882-0.884,3.255-0.938,7.122-0.166c4.527,0.993,7.454,1.326,8.78,0.993c1.763-0.44,3.643-1.324,5.63-2.65
			c1.763-1.435,3.039-2.815,3.813-4.142c1.987-3.088,3.309-8.887,3.975-17.391c0.549-7.839,0.387-13.749-0.499-17.724
			c-5.854,0-10.822,0.112-14.909,0.331c-5.741,0.332-10.489,0.941-14.244,1.822l-6.623,1.988c-2.98,0.885-5.026,0.939-6.128,0.166
			c-1.767-1.215-2.05-2.871-0.831-4.971c1.102-1.987,2.873-3.422,5.301-4.305c5.741-0.441,11.928-0.718,18.551-0.83
			c3.975-0.107,10.107-0.164,18.389-0.164c-1.883-4.748-3.039-7.564-3.479-8.448c-1.435-3.313-2.873-5.907-4.308-7.784
			c-0.225-0.221-2.1-1.766-5.629-4.639c-1.884-1.545-2.266-2.98-1.16-4.307c1.102-1.324,3.147-1.102,6.128,0.662l6.956,4.473
			c2.096-2.096,4.86-5.301,8.281-9.606c3.75-4.638,6.07-8.005,6.956-10.104c-12.148,0-19.873,0.111-23.187,0.332
			c-5.742,0.221-13.529,0.939-23.357,2.151c-2.212-0.438-3.205-1.599-2.98-3.478c0.22-1.875,1.492-3.313,3.808-4.307
			c2.32-0.331,5.193-0.605,8.614-0.828c4.083-0.221,7.015-0.385,8.781-0.496L184.959,97.897z"/>
		<path fill="#697D31" d="M337.845,115.785c0.881,1.216,1.597,2.431,2.153,3.644c12.477,6.407,21.752,10.933,27.826,13.583
			c12.478,5.411,22.302,8.505,29.481,9.275c1.435,0.331,3.422,0.609,5.966,0.827c2.536,0.223,4.578,0.497,6.129,0.83
			c1.214,1.216,0.827,3.037-1.16,5.465c-1.551,1.879-3.588,3.59-6.129,5.135c-0.772,0.663-2.818,1.438-6.128,2.32
			c-3.313,0.885-5.413,1.159-6.294,0.826c-1.219-0.551-2.32-0.938-3.314-1.157c-7.4-5.079-15.96-10.876-25.672-17.394
			c-11.596-7.951-20.103-13.637-25.512-17.061c-11.815,9.829-19.818,16.289-24.018,19.381
			c-11.483,8.725-20.372,13.969-26.667,15.734c-2.212,0.775-3.975,1.216-5.301,1.326c-1.767,0.223-3.476,0.057-5.134-0.497
			c-1.326-0.551-3.256-1.601-5.796-3.147c-2.873-1.765-4.474-3.146-4.807-4.141l0.994-2.982l13.088-1.655
			c5.521-0.773,9.712-1.711,12.589-2.817c6.295-2.65,13.137-6.348,20.538-11.098c6.623-4.193,12.859-8.666,18.718-13.416
			c1.763-1.436,3.255-2.373,4.474-2.815C335.524,115.181,336.851,115.122,337.845,115.785z M302.064,89.946
			c0.333,0.33,0.607,1.933,0.827,4.804c0,1.546,0,3.424,0,5.632h8.282h8.281c3.646,0.442,5.688,1.546,6.133,3.311
			c0.437,1.77-1.105,2.93-4.64,3.48c-1.879,0-4.694-0.055-8.448-0.166c-3.754-0.108-6.52-0.167-8.282-0.167l0.167,6.958
			c-0.225,2.43-1.16,3.92-2.814,4.471c-2.1,0.664-3.705-0.273-4.806-2.814l-2.315-7.621l-13.255,1.493
			c-6.848,0.661-10.822,0.223-11.924-1.326c-1.434-1.657-1.551-3.255-0.332-4.804c1.102-1.435,2.923-2.372,5.467-2.814
			c2.096,0,5.243-0.055,9.441-0.167c4.195-0.108,7.396-0.166,9.608-0.166c-0.444-0.993-0.831-2.815-1.16-5.466
			c-0.332-2.65-0.224-4.361,0.329-5.134c0.885-1.876,2.486-2.759,4.806-2.65C299.637,87.021,301.179,88.071,302.064,89.946z
			 M307.531,179.722l0.333,1.49c-0.333,3.314-3.039,7.455-8.12,12.424c-5.295,4.857-9.495,6.898-12.583,6.127
			c-1.884-0.553-3.538-2.43-4.973-5.631c-1.435-3.313-1.713-5.742-0.827-7.288l0.827-0.497c0.886-0.663,2.486-0.717,4.806-0.166
			c2.757,0.663,4.636,0.886,5.63,0.663c0.993-0.331,3.588-1.765,7.787-4.308C303.832,180.331,306.205,179.39,307.531,179.722z
			 M340.493,143.447c0.332,0.663,0.387,2.814,0.166,6.459l-0.333,6.46c3.313,0,8.34-0.053,15.075-0.166
			c6.731-0.107,11.866-0.166,15.404-0.166c0.993,2.763,0.936,4.75-0.167,5.964c-0.993,1.216-2.872,1.823-5.633,1.823
			c-5.521,0-9.662-0.055-12.423-0.166c-4.527-0.11-8.61-0.385-12.257-0.83l1.16,19.381c0.665,10.27,0.665,16.508,0,18.717
			c-0.993,3.314-2.212,5.243-3.642,5.799c-1.551,0.662-3.147-0.39-4.807-3.148c-1.322-2.1-1.713-8.059-1.159-17.89l1.159-19.048
			c0-1.102,0-2.371,0-3.811c-4.083,0-7.288,0.059-9.604,0.166c-4.087,0.113-7.513,0.39-10.273,0.83l-7.616,0.994
			c-2.981,0.33-4.915-0.166-5.801-1.493c-0.553-1.987-0.107-3.862,1.327-5.632c1.546-1.764,6.515-2.592,14.908-2.483l17.059,0.827
			l-0.827-7.121c-0.225-3.645,0.054-5.963,0.827-6.957c1.326-1.544,2.652-2.152,3.979-1.822
			C338.339,140.356,339.499,141.46,340.493,143.447z M375.112,89.118c0.437,0.662,0.437,2.21,0,4.639
			c-0.557,2.98-0.827,4.527-0.827,4.637c2.757,0,6.844-0.054,12.257-0.166c5.409-0.107,9.441-0.166,12.09-0.166
			c1.88,1.438,2.153,3.146,0.827,5.135c-1.218,1.989-3.255,3.205-6.128,3.644c-2.761-0.33-6.295-0.661-10.602-0.993
			c-4.415-0.33-8.008-0.661-10.764-0.994l-1.659,7.619c-0.886,3.313-2.096,5.301-3.643,5.964c-1.551,0.553-2.76,0.112-3.646-1.324
			c-0.221-0.663-0.274-2.65-0.162-5.964l0.494-6.295c-5.08,0.775-8.34,1.217-9.77,1.326c-3.538,0.443-6.739,0.661-9.608,0.661
			c-2.32-0.438-3.372-1.708-3.147-3.808c0.333-2.098,1.763-3.645,4.308-4.639c0.993-0.332,3.533-0.44,7.616-0.332
			c3.313,0.223,5.854,0.389,7.621,0.496l2.98-0.496c0.221-0.551,0.661-2.262,1.327-5.135c0.436-2.428,1.047-4.029,1.82-4.805
			c1.435-1.323,2.981-1.928,4.64-1.82C373.014,86.414,374.34,87.352,375.112,89.118z M365.172,176.408
			c3.205,2.1,6.901,3.977,11.101,5.632c4.195,1.769,8.004,2.982,11.43,3.644c2.207,0,4.028,0.39,5.463,1.16
			c1.546,2.542,0,5.468-4.636,8.778c-4.308,2.981-8.008,4.252-11.097,3.811l-1.825-0.663c-0.108-0.331-2.374-3.478-6.789-9.441
			c-3.646-5.079-5.468-8.336-5.468-9.772C363.243,178.344,363.85,177.294,365.172,176.408z"/>
	</g>
</g>
</svg>
