<?xml version="1.0" encoding="utf-8"?>
<!-- Generator: Adobe Illustrator 16.0.0, SVG Export Plug-In . SVG Version: 6.00 Build 0)  -->
<!DOCTYPE svg PUBLIC "-//W3C//DTD SVG 1.1//EN" "http://www.w3.org/Graphics/SVG/1.1/DTD/svg11.dtd">
<svg version="1.1" id="圖層_1" xmlns="http://www.w3.org/2000/svg" xmlns:xlink="http://www.w3.org/1999/xlink" x="0px" y="0px"
	 width="595.279px" height="278.84px" viewBox="0 0 595.279 278.84" enable-background="new 0 0 595.279 278.84"
	 xml:space="preserve">
<g>
	<g>
		<path fill="#4C5125" d="M439.491,72.633c17.988-1.446,30.361,5.825,38.489,21.808c4.896-9.073,12.071-14.81,21.41-18.006
			c-2.076-6.872-5.721-12.432-11.365-15.928c-5.334-3.307-11.436-5.376-17.608-8.175c0.99-0.175,1.939-0.576,2.823-0.462
			c18.903,2.441,32.385,20.083,29.677,38.766c-2.651,18.271-17.604,30.786-35.908,30.063c-14.363-0.568-27.626-10.825-31.461-24.333
			c-4.239-14.935,1.11-30.443,13.575-38.671c2.865-1.893,6.138-3.192,9.3-4.596c0.623-0.278,1.595,0.222,2.404,0.363
			c-0.552,0.572-1.002,1.435-1.673,1.675c-7.684,2.746-13.913,7.288-18.107,14.396C440.553,70.372,440.169,71.274,439.491,72.633z
			 M469.923,108.717c1.283-3.964,2.457-7.513,3.585-11.077c1.477-4.688-0.923-10.207-5.812-12.839
			c-0.813,4.499-1.189,9.019-2.511,13.241C463.645,102.979,466.064,105.704,469.923,108.717z M467.442,110.731
			c-3.013-5.489-6.481-8.261-12.194-5.597c-0.351,0.163-0.813,0.066-1.21,0.159c-2.981,0.683-5.96,1.386-8.938,2.083
			c-0.094,0.401-0.188,0.805-0.279,1.207c2.583,1.668,5.147,4.67,7.758,4.711C457.426,113.371,462.301,111.717,467.442,110.731z
			 M462.434,100.59c0.936-5.237,1.829-9.812,2.558-14.41c0.759-4.765-1.021-6.949-6.445-7.837c-0.508,3.296-0.532,6.768-1.634,9.854
			C454.866,93.93,458.419,96.816,462.434,100.59z M439.297,98.974c1.203,2.696,1.538,6.172,4.499,5.908
			c5.183-0.46,10.271-1.988,16.109-3.22c-1.786-2.013-2.978-3.503-4.338-4.814c-0.671-0.648-1.778-1.503-2.487-1.348
			C448.552,96.491,444.075,97.737,439.297,98.974z M451.676,93.194c-3.158-5.306-4.207-5.806-9.555-4.855
			c-0.906,0.16-1.816,0.355-2.731,0.401c-2.178,0.111-3.251,0.931-2.449,3.281c0.359,1.062,0.37,2.262,0.848,3.251
			c0.271,0.56,1.272,1.261,1.766,1.144C443.581,95.452,447.569,94.311,451.676,93.194z M454.16,91.129
			c0.609-4.125,0.811-7.691,1.731-11.062c0.87-3.179-0.556-3.887-3.122-4.393c-3.056-0.603-2.688,1.517-2.897,3.28
			c-0.084,0.703-0.112,1.444-0.365,2.092C447.727,85.624,450.475,88.179,454.16,91.129z M473.601,117.541
			c-2.09-4.253-3.446-4.985-7.663-4.119c-3.054,0.626-6.111,1.258-9.959,2.049C461.826,118.481,470.091,119.265,473.601,117.541z
			 M476.224,115.488c1.937-4.74,1.719-14.105-0.58-16.852c-0.962,3.104-1.879,5.973-2.737,8.86
			C471.602,111.89,471.896,112.588,476.224,115.488z M487.699,103.945c7.444,0.783,9.38,0.33,10.185-5.731
			C489.94,97.466,489.422,98.549,487.699,103.945z M493.209,107.799c-6.934-2.513-10.202-0.066-11.195,8.223
			C485.746,113.28,489.477,110.539,493.209,107.799z M481.061,94.065c-3.776,5.591,0.099,10.93-0.929,16.096
			C484.312,105.982,484.57,101.077,481.061,94.065z M445.513,85.672c-2.829-3.107-5.049-5.544-7.267-7.979
			c-0.325,0.122-0.651,0.247-0.979,0.369c-0.33,2.699-0.661,5.399-1.052,8.596C439.434,86.316,441.922,86.052,445.513,85.672z
			 M492.353,95.391c6.558,1.262,8.87-0.402,7.797-5.438C494.594,89.73,494.295,89.931,492.353,95.391z M446.032,82.662
			c0.432-0.113,0.863-0.227,1.291-0.34c0-2.428,0.846-5.443-0.293-7.078c-0.76-1.088-4.346-0.207-6.666-0.207
			c-0.095,0.32-0.188,0.642-0.283,0.962C442.064,78.221,444.05,80.441,446.032,82.662z M485.972,100.525
			c2.06-2.644,1.878-7.648-0.271-12.107C483.068,90.103,483.136,94.986,485.972,100.525z M490.972,83.714
			c-3.203,1.326-3.542,4.772-0.931,9.442C493.187,89.384,493.327,87.93,490.972,83.714z M500.093,80.855
			c-1.402,2.531-2.382,4.303-3.437,6.206C501.094,87.817,501.516,87.136,500.093,80.855z M497.486,80.352
			c-4.213,0.769-4.559,1.404-2.606,4.73C495.77,83.466,496.552,82.047,497.486,80.352z"/>
		<circle fill="#4C5125" cx="465.327" cy="52.978" r="1.128"/>
	</g>
	<g>
		<path fill="#4C5125" d="M131.46,96.737c1.32,1.437,0.993,4.914-0.994,10.436l-4.141,11.263l13.91-0.993
			c7.396-0.331,11.43,0.33,12.095,1.986l0.162,2.484c-3.422,11.818-6.021,20.266-7.782,25.341
			c-2.761,8.064-5.962,16.181-9.608,24.351c0.665,0.886,3.866,3.479,9.608,7.785c5.301,4.088,8.281,6.735,8.941,7.95
			c0.773,1.88,1.053,3.701,0.832,5.468c-0.89,1.877-2.379,2.101-4.474,0.661l-5.8-4.639l-6.956-5.465
			c-2.761-1.988-4.86-3.754-6.294-5.301c-4.416,5.08-8.669,9.275-12.756,12.59c-5.854,4.416-10.765,6.625-14.738,6.625
			c-2.761,0-5.413-0.664-7.953-1.988c-2.873-1.656-3.975-3.588-3.31-5.797l0.66-0.498c7.949-2.428,13.416-4.307,16.397-5.631
			c5.521-2.428,10.323-5.742,14.41-9.939c-5.409-3.42-8.341-5.243-8.777-5.465c-3.87-2.207-7.018-3.588-9.44-4.141l-3.976-0.662
			c-1.104-0.334-1.767-1.104-1.991-2.32c-0.44-1.213,0.107-3.147,1.658-5.799l3.81-5.795c0.886-1.545,2.651-5.634,5.301-12.259
			c3.313-8.39,4.969-12.642,4.969-12.753c-3.643,0.553-6.956,0.994-9.937,1.324c-3.538,0.332-6.849,0.496-9.94,0.496
			c-1.322-0.44-1.88-1.434-1.655-2.98c0.333-1.656,1.27-3.035,2.814-4.141c1.326-0.994,4.64-1.545,9.939-1.657l10.437,0.333
			l2.814-10.933c1.103-4.085,2.041-7.398,2.814-9.938c0.886-1.435,2.319-2.154,4.308-2.154S130.354,95.303,131.46,96.737z
			 M123.344,124.233c-1.326,4.638-3.371,10.16-6.132,16.563c-2.54,5.963-4.969,11.156-7.288,15.57
			c0.553,0.442,3.533,2.377,8.946,5.799c4.969,3.203,8.17,5.135,9.607,5.797c2.981-4.641,6.07-11.318,9.275-20.043
			c2.536-7.176,4.636-14.081,6.295-20.706c-0.559-1.214-1.106-2.207-1.659-2.98h-9.608H123.344L123.344,124.233z M184.959,97.897
			c5.634-0.11,11.762-0.166,18.385-0.166h18.717c2.761,0,4.694,0.553,5.8,1.656c1.104,1.216,0.937,2.873-0.499,4.969
			c-4.198,3.093-9.001,7.069-14.409,11.926l-13.748,12.589l2.983,7.784l2.814,7.785h19.379c5.521-0.221,11.928-1.213,19.216-2.98
			c0,0.33,0.104,1.547,0.329,3.646c0.107,1.324,0,2.373-0.329,3.146c-0.444,1.215-2.045,3.037-4.806,5.465
			c-2.762,2.432-4.694,3.867-5.796,4.309c-2.212,0.885-4.807,0.721-7.787-0.497l-7.949-3.644c-0.773-0.334-2.595-0.885-5.467-1.657
			c-2.648-0.662-4.309-1.16-4.97-1.49c0,14.468-0.058,22.142-0.166,23.022c-0.66,9.275-2.813,16.232-6.461,20.871
			c-1.767,2.209-3.366,3.81-4.802,4.804c-1.326,0.771-3.538,1.711-6.627,2.813c-1.215,0.441-3.917,0.664-8.116,0.664
			c-4.197,0-6.623-0.33-7.288-0.994c-0.553-0.662-1.434-2.375-2.647-5.135c-0.773-1.875-1.492-3.754-2.153-5.631
			c0.882-0.884,3.255-0.938,7.122-0.166c4.527,0.993,7.454,1.326,8.78,0.993c1.763-0.44,3.643-1.324,5.63-2.649
			c1.763-1.436,3.039-2.815,3.813-4.143c1.986-3.088,3.309-8.887,3.975-17.391c0.549-7.84,0.387-13.75-0.499-17.725
			c-5.854,0-10.822,0.112-14.909,0.331c-5.741,0.332-10.489,0.94-14.244,1.822l-6.623,1.987c-2.979,0.886-5.025,0.939-6.128,0.166
			c-1.767-1.215-2.05-2.871-0.831-4.971c1.103-1.986,2.873-3.422,5.302-4.305c5.74-0.441,11.928-0.719,18.551-0.83
			c3.975-0.107,10.106-0.164,18.389-0.164c-1.883-4.748-3.039-7.564-3.479-8.448c-1.436-3.313-2.873-5.907-4.309-7.784
			c-0.225-0.221-2.1-1.766-5.629-4.639c-1.884-1.545-2.266-2.98-1.16-4.307c1.103-1.324,3.147-1.102,6.128,0.662l6.956,4.473
			c2.097-2.096,4.86-5.301,8.281-9.606c3.75-4.638,6.07-8.005,6.956-10.104c-12.148,0-19.873,0.111-23.188,0.332
			c-5.741,0.221-13.528,0.939-23.356,2.151c-2.212-0.438-3.205-1.599-2.98-3.478c0.221-1.875,1.492-3.313,3.809-4.307
			c2.319-0.331,5.192-0.605,8.614-0.828c4.083-0.221,7.015-0.385,8.78-0.496L184.959,97.897z"/>
		<path fill="#4C5125" d="M337.845,115.785c0.881,1.216,1.597,2.431,2.152,3.644c12.478,6.407,21.753,10.933,27.826,13.583
			c12.479,5.411,22.303,8.505,29.481,9.276c1.435,0.33,3.422,0.608,5.966,0.826c2.536,0.223,4.578,0.497,6.129,0.83
			c1.214,1.217,0.827,3.037-1.16,5.465c-1.551,1.879-3.588,3.59-6.129,5.135c-0.771,0.664-2.817,1.438-6.128,2.32
			c-3.313,0.885-5.413,1.159-6.294,0.826c-1.219-0.551-2.32-0.938-3.313-1.156c-7.4-5.08-15.961-10.877-25.673-17.395
			c-11.596-7.951-20.103-13.637-25.512-17.061c-11.814,9.829-19.818,16.289-24.018,19.381
			c-11.483,8.725-20.372,13.969-26.667,15.733c-2.212,0.774-3.976,1.216-5.301,1.326c-1.768,0.224-3.477,0.058-5.135-0.497
			c-1.325-0.551-3.256-1.602-5.796-3.146c-2.873-1.766-4.474-3.146-4.807-4.142l0.994-2.981l13.088-1.655
			c5.521-0.772,9.712-1.712,12.589-2.817c6.295-2.65,13.137-6.348,20.538-11.098c6.623-4.193,12.858-8.666,18.718-13.416
			c1.763-1.436,3.255-2.373,4.474-2.815C335.524,115.181,336.851,115.122,337.845,115.785z M302.064,89.946
			c0.333,0.33,0.607,1.933,0.827,4.804c0,1.546,0,3.424,0,5.632h8.282h8.28c3.646,0.442,5.688,1.546,6.134,3.311
			c0.437,1.77-1.105,2.93-4.641,3.48c-1.879,0-4.693-0.055-8.448-0.166c-3.754-0.108-6.52-0.167-8.281-0.167l0.167,6.958
			c-0.226,2.43-1.16,3.92-2.814,4.471c-2.1,0.664-3.705-0.273-4.806-2.814l-2.315-7.621l-13.255,1.493
			c-6.848,0.661-10.821,0.223-11.924-1.326c-1.434-1.657-1.551-3.255-0.332-4.804c1.103-1.435,2.923-2.372,5.467-2.814
			c2.097,0,5.243-0.055,9.441-0.167c4.195-0.108,7.396-0.166,9.608-0.166c-0.444-0.993-0.831-2.815-1.16-5.466
			c-0.332-2.65-0.225-4.361,0.329-5.134c0.885-1.876,2.485-2.759,4.806-2.65C299.637,87.021,301.179,88.071,302.064,89.946z
			 M307.531,179.722l0.333,1.489c-0.333,3.314-3.039,7.455-8.12,12.424c-5.294,4.857-9.494,6.898-12.582,6.128
			c-1.885-0.554-3.538-2.431-4.974-5.632c-1.435-3.313-1.713-5.741-0.827-7.287l0.827-0.497c0.887-0.663,2.486-0.718,4.807-0.166
			c2.757,0.663,4.636,0.886,5.63,0.663c0.993-0.331,3.588-1.766,7.786-4.309C303.831,180.331,306.204,179.39,307.531,179.722z
			 M340.492,143.448c0.332,0.662,0.388,2.813,0.166,6.459l-0.333,6.459c3.313,0,8.34-0.053,15.075-0.166
			c6.731-0.107,11.866-0.166,15.404-0.166c0.993,2.764,0.936,4.75-0.167,5.965c-0.993,1.215-2.872,1.822-5.633,1.822
			c-5.521,0-9.662-0.055-12.424-0.166c-4.526-0.109-8.609-0.385-12.257-0.83l1.16,19.381c0.665,10.271,0.665,16.508,0,18.717
			c-0.993,3.314-2.212,5.244-3.642,5.8c-1.551,0.661-3.147-0.39-4.808-3.147c-1.321-2.101-1.713-8.06-1.158-17.891l1.158-19.049
			c0-1.102,0-2.37,0-3.811c-4.083,0-7.288,0.059-9.604,0.166c-4.087,0.113-7.513,0.391-10.273,0.83l-7.615,0.994
			c-2.981,0.33-4.915-0.166-5.802-1.492c-0.553-1.988-0.106-3.863,1.327-5.633c1.546-1.764,6.516-2.592,14.908-2.482l17.059,0.826
			l-0.826-7.121c-0.226-3.645,0.054-5.963,0.826-6.957c1.326-1.543,2.652-2.151,3.979-1.822
			C338.339,140.356,339.498,141.459,340.492,143.448z M375.112,89.118c0.438,0.662,0.438,2.21,0,4.639
			c-0.557,2.98-0.827,4.527-0.827,4.637c2.757,0,6.845-0.054,12.257-0.166c5.409-0.107,9.441-0.166,12.091-0.166
			c1.88,1.438,2.152,3.146,0.827,5.135c-1.219,1.989-3.256,3.205-6.129,3.644c-2.761-0.33-6.295-0.661-10.602-0.993
			c-4.415-0.33-8.008-0.661-10.764-0.994l-1.659,7.619c-0.886,3.313-2.096,5.301-3.644,5.964c-1.551,0.553-2.76,0.112-3.646-1.324
			c-0.221-0.663-0.274-2.65-0.162-5.964l0.494-6.295c-5.08,0.775-8.34,1.217-9.771,1.326c-3.537,0.443-6.738,0.661-9.607,0.661
			c-2.32-0.438-3.372-1.708-3.147-3.808c0.333-2.098,1.764-3.645,4.309-4.639c0.993-0.332,3.532-0.44,7.615-0.332
			c3.313,0.223,5.854,0.389,7.621,0.496l2.98-0.496c0.221-0.551,0.661-2.262,1.327-5.135c0.436-2.428,1.047-4.029,1.819-4.805
			c1.436-1.323,2.981-1.928,4.641-1.82C373.014,86.414,374.34,87.352,375.112,89.118z M365.172,176.409
			c3.205,2.1,6.9,3.977,11.101,5.631c4.195,1.77,8.004,2.982,11.43,3.645c2.207,0,4.028,0.391,5.464,1.16
			c1.546,2.541,0,5.468-4.637,8.777c-4.308,2.981-8.008,4.252-11.097,3.812l-1.825-0.663c-0.107-0.331-2.374-3.479-6.789-9.441
			c-3.646-5.078-5.468-8.336-5.468-9.771C363.242,178.344,363.85,177.293,365.172,176.409z"/>
	</g>
</g>
</svg>
