<?xml version="1.0" encoding="utf-8"?>
<!-- Generator: Adobe Illustrator 16.0.0, SVG Export Plug-In . SVG Version: 6.00 Build 0)  -->
<!DOCTYPE svg PUBLIC "-//W3C//DTD SVG 1.1//EN" "http://www.w3.org/Graphics/SVG/1.1/DTD/svg11.dtd">
<svg version="1.1" id="圖層_1" xmlns="http://www.w3.org/2000/svg" xmlns:xlink="http://www.w3.org/1999/xlink" x="0px" y="0px"
	 width="595.279px" height="242.855px" viewBox="0 0 595.279 242.855" enable-background="new 0 0 595.279 242.855"
	 xml:space="preserve">
<g>
	<path fill="#4C5125" d="M101.965,46.993c0.232,0,1.464,0.499,3.69,1.493c2.227,1.056,3.341,1.847,3.341,2.373
		c0,0.294-0.294,0.646-0.879,1.056c-1.642,0.938-2.813,1.964-3.517,3.076c-0.997,1.29-1.993,2.899-2.988,4.834
		c1.288-0.177,2.606-0.557,3.955-1.144c0.353-0.058,0.674-0.088,0.968-0.088c0.292,0,1.67,0.527,4.131,1.582
		c2.401,1.23,3.604,2.081,3.604,2.549c0,0.411-0.323,0.821-0.967,1.23c-1.7,0.938-2.988,1.993-3.867,3.164
		c-1.114,1.349-2.168,3.047-3.164,5.098c0.292-0.058,0.585-0.088,0.879-0.088c2.167-0.117,4.717-0.497,7.646-1.144
		c0.292-0.116,0.585-0.176,0.879-0.176c0.585,0,2.109,0.733,4.57,2.197c2.813,1.582,4.219,2.608,4.219,3.076
		c0,0.234-0.118,0.499-0.353,0.791c-2.052,2.228-3.223,4.131-3.516,5.713c-0.294,8.613-0.762,13.74-1.406,15.381
		c-0.646,1.758-2.14,3.252-4.481,4.482c-2.755,1.64-4.658,2.461-5.713,2.461c-1.056,0-1.759-0.383-2.109-1.144
		c-1.641-2.872-3.458-5.977-5.449-9.315l-0.879-1.144c0-0.234,0.117-0.352,0.353-0.352c4.511,1.934,7.323,2.899,8.438,2.899
		c1.112,0,2.079-0.411,2.9-1.229c1.698-1.173,3.017-3.723,3.955-7.646c0.116-1.814,0.176-3.896,0.176-6.239
		c0-2.402-0.206-4.014-0.615-4.834c-0.821-1.056-2.021-1.582-3.604-1.582c-3.399,0-6.855,0.117-10.371,0.352
		c-10.139,0.646-17.813,1.318-23.027,2.021c-0.646,0.117-1.229,0.176-1.758,0.176c-1.173,0-2.344-0.265-3.517-0.791
		c-2.461,2.755-4.98,5.216-7.559,7.383c-0.176,0.118-0.352,0.235-0.527,0.352c0.585,0.06,1.2,0.265,1.847,0.615
		c2.05,0.938,3.572,2.081,4.569,3.428c0.88,1.114,1.318,2.813,1.318,5.099c0,0.526-0.146,0.996-0.438,1.406
		c-0.353,0.468-0.675,0.702-0.968,0.702c-0.586,0-1.173-0.382-1.758-1.143c-1.29-1.349-3.019-4.248-5.186-8.701
		c-0.177-0.232-0.294-0.438-0.353-0.615c-4.569,3.458-9.756,6.034-15.557,7.734v-0.352c7.265-5.449,11.776-8.906,13.535-10.371
		c5.272-4.628,9.932-9.697,13.975-15.205c3.222-4.512,6.152-9.521,8.789-15.029c-2.988,0.586-6.095,1.318-9.316,2.197
		c-0.352,0.234-0.674,0.352-0.967,0.352c-0.526,0-1.261-0.292-2.197-0.879c-0.646-0.468-0.967-0.761-0.967-0.879
		c0-0.233,0.265-0.352,0.791-0.352c2.402-0.059,4.188-0.233,5.361-0.527c2.929-0.585,5.625-1.112,8.086-1.582
		c1.112-2.343,2.138-4.775,3.076-7.295c1.111-2.52,1.67-5.126,1.67-7.822c0-1.406-0.264-2.578-0.791-3.516
		c-0.411-0.879-0.615-1.464-0.615-1.758c0-0.645,0.585-0.968,1.758-0.968c1.171,0,2.52,0.499,4.043,1.494
		c1.759,0.879,2.638,1.993,2.638,3.34c0,0.763-0.383,1.438-1.144,2.021c-0.997,0.821-1.641,1.7-1.934,2.637
		c-1.642,4.103-3.224,7.854-4.746,11.25c1.582-0.232,3.046-0.409,4.395-0.526c2.109-0.117,4.276-0.615,6.504-1.494
		C101.231,47.023,101.613,46.993,101.965,46.993z M69.973,34.6c0.645,0,1.376,0.176,2.197,0.527
		c1.991,0.938,3.544,2.021,4.658,3.252c0.819,1.173,1.229,2.872,1.229,5.098c0,0.527-0.176,1.056-0.527,1.582
		c-0.41,0.527-0.82,0.791-1.229,0.791c-0.586,0-1.143-0.38-1.67-1.143c-1.173-1.406-2.813-4.276-4.922-8.613
		c-0.294-0.468-0.439-0.849-0.439-1.143C69.386,34.718,69.621,34.6,69.973,34.6z M82.365,64.219
		c-0.411,0.646-0.821,1.318-1.23,2.021c-2.109,3.163-4.307,6.063-6.592,8.7c0.644,0.06,1.347,0.088,2.108,0.088
		c0.996,0,2.051-0.058,3.164-0.176c5.625-0.703,13.125-1.464,22.5-2.285c0.879-1.287,1.582-2.813,2.109-4.569
		c0.468-1.464,0.703-2.988,0.703-4.57c0-1.055-0.703-1.611-2.109-1.67c-1.406,0-3.34,0.176-5.801,0.527
		c-3.575,0.526-7.354,1.405-11.338,2.637c-0.294,0.176-0.559,0.264-0.791,0.264c-0.586,0-1.406-0.292-2.461-0.879
		C82.511,64.25,82.423,64.219,82.365,64.219z M75.949,81.094c1.055,0,2.401,0.558,4.043,1.67c1.522,1.173,2.519,2.256,2.987,3.252
		c0.527,1.055,0.791,2.315,0.791,3.779c0,0.937-0.382,1.406-1.143,1.406c-1.056,0-2.433-1.406-4.131-4.22
		c-1.935-3.164-2.9-5.126-2.9-5.889L75.949,81.094L75.949,81.094z M89.221,50.684c-2.228,4.864-4.307,8.995-6.24,12.394
		c1.699-0.117,2.93-0.292,3.691-0.527c4.511-1.055,8.319-1.787,11.426-2.197c0.761-1.288,1.376-2.813,1.846-4.569
		c0.409-1.523,0.615-3.047,0.615-4.57c0-0.938-0.703-1.436-2.108-1.494c-1.817,0-4.338,0.235-7.56,0.703
		C90.304,50.479,89.748,50.567,89.221,50.684z M87.199,79.6c1.055,0,2.401,0.559,4.043,1.67c1.522,0.997,2.519,1.993,2.987,2.988
		c0.527,0.938,0.791,2.081,0.791,3.428c0,0.938-0.382,1.406-1.143,1.406c-1.056,0-2.433-1.288-4.131-3.867
		c-1.935-2.988-2.9-4.863-2.9-5.625H87.199z M98.801,78.545c0.703,0,1.464,0.176,2.285,0.527c2.108,0.762,3.72,1.699,4.834,2.813
		c0.879,0.997,1.317,2.461,1.317,4.396c0,0.47-0.176,0.938-0.526,1.405c-0.47,0.527-0.879,0.791-1.23,0.791
		c-0.586,0-1.173-0.38-1.758-1.143c-1.29-1.112-3.019-3.632-5.186-7.56c-0.294-0.352-0.439-0.644-0.439-0.879
		C98.155,78.664,98.39,78.545,98.801,78.545z"/>
	<path fill="#4C5125" d="M165.246,29.678c0.937,0,2.108,0.762,3.516,2.285c1.171,1.29,1.758,2.549,1.758,3.779
		c0,0.762-0.382,1.437-1.143,2.021c-0.879,0.586-1.465,1.23-1.758,1.935c-2.932,4.922-5.685,9.111-8.263,12.567
		c1.582,2.285,2.373,4.014,2.373,5.187c0,0.47-0.118,1.201-0.352,2.196c-0.235,1.465-0.353,2.285-0.353,2.461l-0.352,30.234
		c0,1.171-0.206,2.402-0.615,3.691c-0.411,1.698-0.791,2.549-1.143,2.549c-1.173,0-2.285-1.876-3.34-5.625
		c-0.353-0.997-0.527-1.817-0.527-2.461c0-1.582,0.849-6.445,2.549-14.59c0.645-2.578,0.967-7.44,0.967-14.591
		c0-2.519-0.294-4.804-0.879-6.854c-0.526,0.646-1.025,1.229-1.494,1.758c-4.688,5.098-8.965,8.789-12.832,11.074
		c-2.108,1.465-3.486,2.197-4.131,2.197c-0.234,0-0.352-0.265-0.352-0.791c6.68-6.034,12.069-11.777,16.172-17.228
		c3.104-4.219,5.625-8.524,7.559-12.92c0.82-2.637,1.23-4.54,1.23-5.713l-0.353-2.461C163.488,29.913,164.073,29.678,165.246,29.678
		z M209.191,54.727c1.759,0,3.691,0.294,5.802,0.879c2.519,1.056,3.778,2.053,3.778,2.988c0,0.176-0.264,0.439-0.791,0.791
		c-0.411,0.352-0.879,0.527-1.405,0.527c-8.204,0-15.382,0.206-21.533,0.614c-0.06,11.134-0.177,18.722-0.353,22.765
		c-0.176,6.563-0.586,11.835-1.229,15.819c-0.763,3.867-1.494,5.802-2.197,5.802c-0.411,0-0.646-1.993-0.703-5.978
		c-0.176-1.173-0.294-13.855-0.352-38.057c-0.294,0-0.586,0.03-0.879,0.088c-4.57,0.352-10.079,1.229-16.523,2.637
		c-0.352,0.118-0.762,0.176-1.229,0.176c-0.703,0-1.759-0.264-3.164-0.79c-1.174-0.409-1.759-0.703-1.759-0.88
		c0-0.232,0.233-0.352,0.703-0.352c4.452-0.761,8.057-1.318,10.812-1.67c2.693-0.353,5.945-0.82,9.756-1.406
		c0.82-0.117,1.582-0.232,2.285-0.352c0-5.978,0-12.598,0-19.863c0-3.925-0.821-7.089-2.461-9.492c0-0.409,0.585-0.615,1.758-0.615
		c1.171,0,2.343,0.265,3.516,0.791c1.875,1.174,2.813,2.285,2.813,3.341c0,0.702-0.06,1.437-0.176,2.196
		c-0.353,1.29-0.527,3.723-0.527,7.295c0,5.685,0,10.782,0,15.293c2.753-0.526,5.302-1.083,7.646-1.67
		C205.061,55.021,207.199,54.727,209.191,54.727z"/>
	<path fill="#4C5125" d="M288.996,31.875c1.405,0,2.899,0.264,4.481,0.791c1.464,0.47,2.197,1.114,2.197,1.934
		c0,0.997-0.47,1.494-1.406,1.494c-9.903,0-19.103,0.586-27.598,1.758c-3.811,0.471-7.998,1.29-12.568,2.461
		c-1.523,0.411-2.549,0.615-3.076,0.615c-0.294,0-0.586,0-0.879,0c-0.118,0.411-0.176,0.703-0.176,0.879
		c-0.938,12.012-2.373,22.003-4.307,29.971c-1.817,6.799-4.043,12.716-6.681,17.755c-2.402,4.219-5.654,8.086-9.756,11.602
		c-0.352,0.176-0.82,0.264-1.406,0.264v-0.352c3.105-3.985,5.654-8.086,7.646-12.305c3.749-7.5,6.386-15.234,7.91-23.203
		c1.347-7.852,2.021-15.585,2.021-23.203c0-1.935-0.294-3.311-0.879-4.131c-0.586-0.82-0.879-1.436-0.879-1.847
		c0-0.408,0.353-0.614,1.055-0.614c0.88,0,2.167,0.322,3.867,0.967c1.056,0.294,1.729,0.791,2.021,1.494
		c6.151-0.762,11.688-1.553,16.61-2.373c5.917-0.996,11.835-2.167,17.755-3.517C286.535,32.022,287.882,31.875,288.996,31.875z
		 M254.543,54.991c0.703,0,1.522,0.382,2.461,1.143c0.703,0.47,1.055,1.055,1.055,1.758c0,0.176-0.03,0.353-0.088,0.527
		c-0.411,0.879-0.703,1.523-0.879,1.934c-0.762,2.461-1.582,4.542-2.461,6.24c-1.055,2.109-2.285,3.634-3.691,4.57
		c-0.646,0.47-1.085,0.703-1.317,0.703c0.996-1.699,1.846-3.485,2.549-5.361c0.644-1.464,1.171-3.311,1.582-5.537
		c0.292-1.347,0.438-2.637,0.438-3.867l-0.352-1.758C253.84,55.109,254.073,54.991,254.543,54.991z M268.254,47.959
		c0.409,0,1.112,0.088,2.108,0.264c1.172,0.294,1.759,0.559,1.759,0.791c0,0.235-0.06,0.439-0.177,0.615
		c-0.234,0.235-0.526,0.382-0.879,0.438c-2.637,0.821-5.304,1.494-7.998,2.021c0.059,1.758,0.205,3.546,0.439,5.361
		c0.352,3.81,0.527,7.324,0.527,10.547c0,1.29-0.235,2.344-0.703,3.164c-0.703,0.938-1.29,1.405-1.758,1.405
		c-0.295,0-0.527-0.408-0.703-1.229c-0.235-0.703-0.353-2.167-0.353-4.396V52.531c-1.349,0.234-2.402,0.352-3.164,0.352
		c-2.695,0-4.513-0.233-5.449-0.703c-0.586-0.292-0.879-0.527-0.879-0.703s0.117-0.264,0.353-0.264
		c3.749-0.233,6.796-0.585,9.141-1.055v-1.759c0-3.046-0.47-5.186-1.406-6.416c0-0.937,0.469-1.405,1.406-1.405
		c0.703,0,1.436,0.352,2.197,1.055c0.879,0.527,1.318,1.229,1.318,2.109c0,0.234-0.147,0.526-0.439,0.879
		c-0.411,0.879-0.615,2.052-0.615,3.516c0,0.47,0,0.967,0,1.494c1.641-0.409,3.046-0.849,4.22-1.318
		C267.608,48.078,267.96,47.959,268.254,47.959z M267.902,69.141c0.82,0,1.729,0.411,2.726,1.23
		c0.996,0.762,1.494,1.641,1.494,2.637c0,0.176-0.206,0.382-0.615,0.615c-2.521,1.7-5.86,4.513-10.021,8.438
		c-0.059,0.06-0.146,0.147-0.264,0.265l12.656-1.406c1.229-1.347,2.255-2.578,3.076-3.691c0.644-0.879,1.023-1.962,1.143-3.252
		c0-1.64,0.703-2.461,2.109-2.461c0.526,0,1.522,0.674,2.987,2.021c1.288,0.938,1.935,1.904,1.935,2.899
		c0,0.353-0.323,0.703-0.967,1.056c-2.756,1.699-6.064,4.072-9.933,7.118c-3.634,2.932-7.236,6.27-10.811,10.021
		c6.562-0.997,12.714-1.934,18.457-2.813c-1.114-1.814-1.935-2.987-2.461-3.516c-1.114-1.288-1.67-2.197-1.67-2.725
		c0-0.233,0.116-0.353,0.352-0.353c0.468,0,1.143,0.147,2.021,0.439c1.698,0.938,3.396,1.993,5.098,3.164
		c2.167,1.758,3.604,3.369,4.307,4.834c0.585,1.347,0.879,2.753,0.879,4.219c0,0.703-0.118,1.464-0.352,2.285
		c-0.294,0.585-0.646,0.879-1.055,0.879c-0.353,0-0.586-0.118-0.703-0.353c-0.821-0.702-2.109-2.314-3.867-4.834
		c-0.47-0.82-0.909-1.553-1.318-2.196h-0.088c-5.566,0.879-10.43,2.05-14.59,3.516c-4.337,1.347-7.266,2.549-8.789,3.604
		c-1.055,0.408-1.817,0.614-2.285,0.614c-0.586,0-1.317-0.586-2.197-1.758c-0.646-0.879-0.967-1.582-0.967-2.108
		c0-0.471,0.615-0.997,1.847-1.582c0.995-0.295,1.846-0.675,2.549-1.144c1.171-0.703,3.837-2.931,7.998-6.68
		c2.401-2.227,4.511-4.276,6.328-6.152c-7.149,1.173-12.218,2.726-15.205,4.658c-0.703,0-1.318-0.409-1.847-1.23
		c-0.41-0.526-0.614-1.288-0.614-2.284V82.06c1.934-0.585,4.071-1.875,6.416-3.867c1.111-0.995,2.549-2.693,4.307-5.098
		c0.585-0.879,0.879-1.406,0.879-1.582c-0.235-0.468-0.352-0.937-0.352-1.406C266.496,69.464,266.964,69.141,267.902,69.141z
		 M265.09,22.647c1.229,0,2.782,0.439,4.658,1.318c1.875,0.879,3.075,1.7,3.604,2.461c0.585,0.821,0.879,1.788,0.879,2.9
		c0,1.699-0.703,2.549-2.108,2.549c-1.174,0-2.667-1.23-4.482-3.691c-2.168-2.813-3.252-4.54-3.252-5.186
		C264.387,22.823,264.62,22.706,265.09,22.647z M267.902,54.375c0.292,0,0.703,0.088,1.23,0.264
		c0.585,0.235,0.879,0.586,0.879,1.055l-0.352,9.492c0,0.586-0.089,1.056-0.265,1.406c-0.176,0.47-0.438,0.703-0.791,0.703
		c-0.118,0-0.352-0.353-0.703-1.055c-0.234-0.527-0.352-0.88-0.352-1.056v-2.461c0-3.867-0.176-6.151-0.527-6.854
		c-0.118-0.409-0.176-0.703-0.176-0.879C266.848,54.582,267.199,54.375,267.902,54.375z M275.637,52.881
		c0.761,0,1.552,0.352,2.373,1.055c0.761,0.527,1.143,1.114,1.143,1.758c0,0.177-0.029,0.353-0.088,0.527
		c-0.47,0.821-0.762,1.438-0.879,1.846c-0.703,2.285-1.523,4.22-2.461,5.802c-1.055,1.876-2.256,3.252-3.604,4.131
		c-0.703,0.47-1.174,0.703-1.406,0.703c1.055-1.582,1.903-3.252,2.549-5.011c0.585-1.288,1.112-2.987,1.582-5.098
		c0.292-1.288,0.439-2.49,0.439-3.604l-0.265-1.759C275.021,53,275.226,52.881,275.637,52.881z M292.512,44.795
		c3.046,0,4.57,0.47,4.57,1.406c0,0.586-0.353,0.938-1.056,1.055c-3.926,0.879-7.677,1.582-11.25,2.109
		c0.059,1.641,0.117,3.34,0.177,5.098c0.116,3.634,0.176,6.974,0.176,10.02c0,1.524-0.206,2.726-0.615,3.604
		c-0.586,1.173-1.085,1.758-1.494,1.758c-0.352,0-0.674-0.497-0.967-1.494c-0.294-0.703-0.439-2.226-0.439-4.569
		c0.353-5.331,0.557-10.021,0.615-14.063c-1.641,0.235-2.784,0.352-3.428,0.352c-1.465,0-2.784-0.116-3.955-0.352
		c-0.879-0.233-1.318-0.468-1.318-0.703c0-0.176,0.233-0.292,0.703-0.352c2.813-0.409,5.507-0.879,8.086-1.406
		c0-0.352,0-0.732,0-1.143c0-2.93-0.586-4.979-1.758-6.152c0-0.996,0.468-1.494,1.406-1.494c0.82,0,1.64,0.352,2.461,1.055
		c0.937,0.586,1.406,1.29,1.406,2.109c0,0.176-0.147,0.438-0.439,0.791c-0.411,0.821-0.615,1.846-0.615,3.076
		c0,0.352,0,0.762,0,1.229c1.935-0.526,3.838-1.023,5.714-1.494C291.369,44.942,292.042,44.795,292.512,44.795z M290.754,51.475
		c0.703,0,1.494,0.411,2.373,1.23c0.996,0.703,1.494,1.465,1.494,2.285c0,0.294-0.118,0.614-0.353,0.967
		c-0.879,1.055-1.406,1.993-1.582,2.813c-0.352,0.997-0.526,2.109-0.526,3.34c0,0.821,0.116,1.554,0.352,2.197
		c0.176,0.703,0.527,1.23,1.055,1.582c0.703,0.47,1.875,0.703,3.517,0.703c1.287,0,2.227-0.585,2.813-1.758
		c0.585-0.938,1.229-3.34,1.934-7.207c0-0.117,0.059-0.176,0.177-0.176c0.116,0,0.204,0.059,0.264,0.176
		c0.761,3.398,1.67,5.655,2.725,6.768c0.117,0.06,0.177,0.206,0.177,0.439c0,0.762-0.146,1.406-0.439,1.934
		c-0.646,1.29-1.612,2.229-2.9,2.813c-1.173,0.586-2.402,0.879-3.69,0.879c-1.934,0-3.663-0.38-5.186-1.144
		c-1.056-0.644-1.817-1.464-2.285-2.461c-0.411-0.761-0.615-2.226-0.615-4.395c0.468-3.222,0.703-5.595,0.703-7.119
		c0-0.82-0.118-1.435-0.353-1.846c-0.234-0.292-0.352-0.732-0.352-1.318C290.051,51.71,290.284,51.475,290.754,51.475z"/>
	<path fill="#4C5125" d="M334.963,62.11h90v2.726h-90V62.11z"/>
	<path fill="#4C5125" d="M424.963,62.11h90v2.726h-90V62.11z"/>
	<path fill="#4C5125" d="M28.664,137.327c1.111,0,2.519,0.614,4.219,1.846c1.875,1.055,2.813,2.081,2.813,3.076
		c0,0.586-0.205,1.055-0.614,1.406c-0.938,1.113-1.582,2.578-1.935,4.395c-1.758,6.446-3.37,12.071-4.834,16.875
		c1.23-0.233,2.49-0.468,3.779-0.703c3.104-0.82,5.01-1.229,5.713-1.229h0.615c0.058-0.527,0.088-1.112,0.088-1.759
		c0-1.287-0.586-2.693-1.758-4.219c0-0.703,0.585-1.055,1.758-1.055c1.055,0,2.021,0.411,2.9,1.229
		c1.814,1.406,2.725,2.521,2.725,3.341c0,0.526-0.118,0.996-0.353,1.405c-0.996,1.173-1.611,2.256-1.846,3.252
		c-1.758,7.854-3.516,13.624-5.272,17.315c-0.411,0.879-0.879,1.758-1.406,2.637c1.934,1.523,3.544,2.988,4.834,4.396
		c2.461,2.813,3.69,5.01,3.69,6.592c0,1.815-0.586,2.725-1.758,2.725c-0.82,0-1.405-0.586-1.758-1.758
		c-2.344-3.457-4.658-6.533-6.943-9.229c-1.349,1.991-2.931,3.838-4.745,5.536c-3.224,2.931-6.534,5.039-9.933,6.328
		c-1.934,0.584-3.516,0.879-4.746,0.879c-0.47,0-0.703-0.088-0.703-0.264c2.578-1.406,4.951-2.842,7.119-4.307
		c4.922-3.691,8.466-7.148,10.636-10.371c0.058-0.06,0.146-0.117,0.264-0.176c-2.403-2.521-4.776-4.718-7.119-6.593
		c-0.703-0.526-1.055-1.112-1.055-1.758c0-0.352,0.116-0.762,0.352-1.229c0.82-2.286,1.552-5.068,2.197-8.351
		c-4.57,1.23-8.584,2.579-12.041,4.043c-0.353,0.118-0.703,0.177-1.055,0.177c-0.821,0-2.257-0.557-4.308-1.671
		c-1.349-0.761-2.021-1.376-2.021-1.846c0-0.703,0.232-1.055,0.703-1.055c0.292,0,0.761,0.118,1.405,0.352
		c0.762,0,2.988-0.205,6.681-0.614c3.69-0.353,7.383-0.88,11.073-1.582c0.585-3.164,1.171-6.708,1.759-10.636
		c0.585-4.335,0.879-8.114,0.879-11.338c0-1.111-0.382-2.313-1.144-3.604c-0.411-0.879-0.615-1.464-0.615-1.758
		C26.906,137.562,27.491,137.327,28.664,137.327z M38.332,164.221c-2.813,0.821-5.919,1.67-9.316,2.549
		c-0.47,0.06-0.909,0.147-1.317,0.265c-1.056,3.281-1.993,6.151-2.813,8.613c-0.294,0.527-0.439,0.879-0.439,1.056
		c0,0.938,0.321,1.553,0.968,1.846c2.693,1.641,5.098,3.193,7.207,4.658c1.405-2.521,2.637-5.42,3.69-8.702
		C37.423,171.165,38.097,167.737,38.332,164.221z M45.539,145.764c0.352,0,0.849,0.118,1.494,0.353
		c0.526,0.234,1.083,0.352,1.67,0.352c2.108,0,4.511-0.292,7.207-0.879c3.046-0.585,5.713-1.318,7.998-2.197
		c1.814-0.819,3.516-1.728,5.098-2.725c0.232-0.292,0.38-0.439,0.438-0.439c0.762,0,2.314,0.646,4.658,1.935
		c2.52,1.582,3.779,2.784,3.779,3.604c0,1.056-0.439,1.788-1.318,2.197c-2.052,0.938-4.277,2.403-6.68,4.395
		c-2.052,1.7-4.482,4.015-7.295,6.943c0.176,0.118,0.321,0.235,0.438,0.352c0.996,0.997,1.875,2.169,2.638,3.517
		c0.644,1.173,1.171,2.344,1.582,3.516c3.749-0.703,7.439-1.435,11.073-2.196c1.523-0.292,2.782-0.439,3.779-0.439
		c1.582,0,3.252,0.264,5.01,0.791c1.582,0.527,2.373,1.202,2.373,2.021c0,1.406-0.47,2.109-1.405,2.109
		c-7.031,0-13.683,0.264-19.951,0.791c0.058,0.294,0.117,0.586,0.176,0.879c0.761,3.047,1.143,6.006,1.143,8.877
		c0,10.195-1.085,17.461-3.252,21.797c-1.758,4.043-3.604,6.064-5.536,6.064c-0.938,0-1.642-0.471-2.109-1.406
		c-1.817-2.988-4.513-5.948-8.086-8.877c0-0.41,0.117-0.615,0.352-0.615c0.176,0,0.879,0.498,2.109,1.494
		c1.814,1.111,3.69,1.67,5.625,1.67c2.578,0,4.307-2.021,5.186-6.063c1.23-5.508,1.847-10.195,1.847-14.063
		c0-3.516-0.323-6.68-0.968-9.493c-0.702,0.06-1.377,0.118-2.021,0.177c-3.575,0.294-7.501,0.791-11.777,1.493
		c-1.349,0.295-2.285,0.439-2.813,0.439c-1.114,0-2.491-0.233-4.131-0.703c-1.466-0.409-2.197-0.731-2.197-0.967
		c0-0.233,0.264-0.353,0.791-0.353c7.383-0.937,13.887-1.814,19.512-2.637c0.645-0.058,1.288-0.146,1.935-0.264
		c-0.586-1.875-1.262-3.222-2.021-4.043c-0.997-1.406-2.813-2.841-5.449-4.308c-0.47-0.526-0.703-0.907-0.703-1.143
		c0-0.468,0.117-0.703,0.353-0.703h2.461c0.996,0.353,1.875,0.762,2.637,1.23c1.935-3.341,4.102-7.44,6.504-12.306
		c0.233-0.468,0.353-0.879,0.353-1.229c0.058-0.409-0.176-0.615-0.703-0.615c-0.938,0-2.168,0.206-3.691,0.615
		c-2.695,0.703-5.771,1.846-9.229,3.428c-1.7,0.762-2.9,1.144-3.604,1.144c-0.938,0-2.256-0.409-3.955-1.23
		c-1.113-0.703-1.67-1.23-1.67-1.582C45.188,145.999,45.304,145.764,45.539,145.764z"/>
	<path fill="#4C5125" d="M136.242,151.741c1.055,0,2.343,0.674,3.866,2.021c0.938,0.646,1.406,1.494,1.406,2.549
		c0,0.294-0.146,0.559-0.438,0.791c-0.527,0.471-1.114,1.144-1.759,2.021c-0.059,0.118-0.117,0.234-0.176,0.352
		c0.353,0.06,0.732,0.147,1.144,0.265c1.464,0.526,2.987,1.405,4.569,2.637c4.452,3.398,8.671,6.151,12.656,8.262
		c4.511,2.403,11.718,5.01,21.621,7.823v0.352c0,0.41-0.499,0.674-1.494,0.791c-4.922,0.938-9.347,1.406-13.271,1.406
		c-1.759,0-2.9-0.205-3.429-0.615c-3.984-2.754-9.111-7.383-15.381-13.887c-1.114-1.112-2.607-2.373-4.481-3.779
		c-1.114-0.819-2.109-1.464-2.988-1.934c-2.872,3.75-6.007,7.237-9.404,10.459c-4.161,3.75-8.438,6.885-12.832,9.405
		c-3.81,2.227-7.471,3.838-10.985,4.834c-1.29,0.469-2.197,0.702-2.726,0.702v-0.352c6.445-3.809,12.129-7.559,17.051-11.25
		c3.281-2.694,6.445-5.537,9.492-8.525c2.694-2.753,4.716-5.478,6.064-8.174c0.526-1.111,0.791-1.962,0.791-2.549
		c-0.471-0.996-0.703-1.962-0.703-2.9C134.836,151.976,135.304,151.741,136.242,151.741z M123.586,136.36
		c2.167,0,3.457,0.235,3.867,0.703c1.171,0.411,1.758,0.968,1.758,1.67c0,1.642,0.232,4.132,0.703,7.472
		c0-0.059,0.028-0.088,0.088-0.088c2.813-0.469,4.54-0.703,5.186-0.703h2.461c0,0.352-0.234,0.586-0.703,0.703
		c-2.052,0.586-4.337,1.173-6.854,1.758c0.233,1.641,0.527,3.516,0.879,5.625c0,1.229-0.235,1.846-0.703,1.846
		c-1.229,0-1.934-0.615-2.108-1.846c-0.411-1.758-0.851-3.397-1.318-4.922c-5.098,1.113-9.522,2.344-13.271,3.69
		c-0.294,0.118-0.586,0.176-0.879,0.176c-0.82,0-2.256-0.585-4.307-1.758c-1.349-0.703-2.021-1.288-2.021-1.758
		c0-0.644,0.233-0.967,0.703-0.967c0.292,0,0.762,0.088,1.406,0.264c0.645,0,2.666-0.117,6.064-0.352
		c3.808-0.292,7.733-0.703,11.776-1.23c-1.29-3.983-2.607-6.68-3.955-8.086c-0.352-0.409-0.526-0.703-0.526-0.879
		C121.828,136.799,122.413,136.36,123.586,136.36z M122.531,190.413c0.233,0,0.469,0.264,0.703,0.791
		c0.703,1.289,1.056,2.313,1.056,3.076c0,2.168-0.586,4.423-1.759,6.768c-0.646,1.639-1.553,2.9-2.725,3.779
		c-0.703,0.703-1.437,1.055-2.197,1.055c-0.526,0-0.938-0.323-1.229-0.967c-0.118-0.587-0.176-1.202-0.176-1.847
		c0-0.763,0.176-1.582,0.526-2.461c2.87-4.512,4.452-7.44,4.746-8.789C121.652,190.882,122.004,190.413,122.531,190.413z
		 M150.656,179.163c0.645,0,1.671,0.117,3.076,0.352c1.699,0.527,2.549,1.025,2.549,1.494c0,0.293-0.117,0.557-0.352,0.791
		c-0.352,0.293-0.821,0.469-1.406,0.527c-4.629,0.996-9.403,1.875-14.326,2.637c0,6.621,0.205,13.125,0.615,19.512
		c0,1.935-0.294,3.428-0.879,4.482c-1.055,2.166-2.168,3.252-3.34,3.252c-0.879,0-1.438-0.383-1.67-1.144
		c-1.758-3.224-4.131-6.358-7.119-9.403v-0.353c4.335,1.935,7.148,2.9,8.438,2.9c0.468,0,0.791-1.086,0.967-3.252
		c0.292-2.813,0.438-7.588,0.438-14.326c0-0.469,0-0.908,0-1.318c-2.872,0.353-5.098,0.527-6.68,0.527
		c-3.926,0-6.504-0.353-7.734-1.055c-0.938-0.527-1.405-0.879-1.405-1.056c0-0.233,0.232-0.352,0.702-0.352
		c6.094-0.293,11.104-0.703,15.029-1.23c-0.059-1.405-0.146-2.899-0.264-4.481c-0.118-1.875-0.559-3.896-1.318-6.065
		c-0.294-0.526-0.438-1.023-0.438-1.494c0-0.526,0.468-0.791,1.405-0.791c0.88,0,1.935,0.499,3.164,1.494
		c1.171,0.646,1.759,1.438,1.759,2.373c0,0.762-0.177,1.465-0.527,2.109c-0.762,1.934-1.173,4.102-1.23,6.504
		c3.457-0.703,6.387-1.437,8.789-2.197C149.542,179.31,150.129,179.163,150.656,179.163z M152.414,130.999
		c1.171,0,2.373,0.411,3.604,1.229c1.112,0.646,1.67,1.406,1.67,2.285c0,0.411-0.234,1.173-0.703,2.285
		c-1.055,2.052-1.876,3.634-2.461,4.746c-0.352,0.703-0.674,1.437-0.967,2.197c2.637-0.527,4.951-1.083,6.943-1.67
		c1.111-0.353,2.167-0.527,3.164-0.527c1.347,0,2.841,0.264,4.481,0.791c1.935,0.879,2.9,1.67,2.9,2.373
		c0,0.176-0.176,0.411-0.527,0.703c-0.352,0.234-0.762,0.352-1.229,0.352c-5.625,0-10.313,0.118-14.063,0.353
		c-0.938,0.059-1.964,0.146-3.076,0.264c-1.465,2.813-3.223,5.684-5.272,8.613c-0.646,0.411-1.261,0.614-1.847,0.614v-0.264
		c1.406-2.87,2.606-5.713,3.604-8.525c-0.586,0.06-1.23,0.177-1.934,0.353c-0.177,0.059-0.383,0.088-0.615,0.088
		c-0.527,0-1.377-0.233-2.549-0.703c-0.879-0.409-1.318-0.673-1.318-0.791c0-0.232,0.233-0.352,0.703-0.352
		c2.226-0.409,4.013-0.703,5.361-0.879c0.408-0.059,0.819-0.117,1.229-0.177c0.409-1.347,0.791-2.637,1.144-3.866
		c0.702-2.52,1.055-4.512,1.055-5.978c0-0.292-0.353-1.083-1.055-2.373C150.656,131.38,151.241,130.999,152.414,130.999z
		 M149.25,191.116c0.468,0,1.2,0.146,2.196,0.438c1.815,0.879,3.661,1.875,5.537,2.988c2.402,1.641,3.955,3.135,4.658,4.481
		c0.645,1.287,0.967,2.638,0.967,4.043c0,0.703-0.146,1.436-0.438,2.197c-0.235,0.645-0.559,0.967-0.967,0.967
		c-0.353,0-0.586-0.119-0.703-0.352c-0.938-0.703-2.344-2.229-4.219-4.57c-2.696-4.043-4.543-6.475-5.537-7.295
		c-1.23-1.172-1.847-2.021-1.847-2.549C148.898,191.233,149.015,191.116,149.25,191.116z"/>
	<path fill="#4C5125" d="M250.5,170.11c-7.207,0-14.27,0.147-21.183,0.439c-5.566,0.352-11.514,1.055-17.842,2.109
		c-2.813,0.646-6.387,1.523-10.723,2.637c-0.821,0.176-1.23,0.293-1.23,0.352c-0.82,0-2.285-0.439-4.395-1.318
		c-1.758-0.996-2.637-1.611-2.637-1.847c0-0.232,0.232-0.352,0.702-0.352c1.875-0.117,4.014-0.292,6.416-0.527
		c23.145-2.519,38.525-4.423,46.144-5.713c3.632-0.526,6.504-0.791,8.613-0.791c0.526,0,2.05,0.439,4.569,1.318
		c2.343,0.997,3.517,1.846,3.517,2.549c0,1.406-0.471,2.109-1.406,2.109c-0.821,0-2.373-0.177-4.658-0.527
		C254.22,170.257,252.258,170.11,250.5,170.11z"/>
	<path fill="#4C5125" d="M326.788,158.86c0.585,0,1.465,0.089,2.638,0.265c1.522,0.411,2.285,0.762,2.285,1.055
		c0,0.235-0.089,0.439-0.265,0.615c-0.294,0.234-0.674,0.382-1.143,0.438c-3.811,1.056-7.734,1.905-11.777,2.55
		c0.059,0,0.117,0.029,0.176,0.088c1.641,0.762,2.461,1.553,2.461,2.373c-0.117,0.352-0.233,0.82-0.352,1.405
		c-0.527,1.406-0.997,4.718-1.406,9.933c3.223-0.879,6.094-1.758,8.613-2.638c1.991-0.644,3.34-0.967,4.043-0.967
		c3.749,0.06,5.625,0.851,5.625,2.374c0,0.938-0.762,1.465-2.285,1.582c-1.876,0.176-4.307,0.439-7.295,0.791
		c-1.992,0.293-3.838,0.439-5.537,0.439c-1.349,0-2.432-0.06-3.252-0.177c-0.234,3.398-0.41,7.5-0.527,12.306
		c3.926,2.168,7.589,3.867,10.986,5.098c4.102,1.523,13.535,3.28,28.301,5.273v0.703c0,0.584-0.703,1.022-2.108,1.317
		c-9.786,2.461-15.293,3.691-16.523,3.691c-1.406,0-2.637-0.323-3.69-0.967c-7.91-3.867-13.712-7.119-17.402-9.757
		c-7.441-5.332-13.711-9.608-18.81-12.832c-1.289,2.285-2.695,4.308-4.219,6.064c-2.987,3.574-6.475,6.271-10.459,8.086
		c-1.876,0.819-3.135,1.23-3.778,1.23h-0.353c4.16-3.105,7.646-6.3,10.459-9.58c2.285-2.578,4.308-5.859,6.064-9.845
		c1.171-2.52,1.758-4.834,1.758-6.943l-0.353-2.373c0-0.468,0.47-0.703,1.406-0.703c1.055,0,2.167,0.586,3.34,1.758
		c1.056,0.703,1.582,1.612,1.582,2.726c0,0.352-0.146,0.702-0.438,1.055c-1.056,1.583-1.816,2.725-2.285,3.428
		c-0.47,1.055-0.997,2.08-1.582,3.076c5.449,2.754,10.399,5.332,14.854,7.734c0.177,0.116,0.321,0.204,0.439,0.264
		c0.293-12.188,0.176-19.277-0.353-21.271c-0.294-1.171-0.702-2.167-1.229-2.987c-0.294-0.353-0.527-0.703-0.703-1.056
		c-1.289,0.177-2.314,0.265-3.076,0.265c-3.282,0-5.479-0.292-6.592-0.879c-0.762-0.409-1.143-0.703-1.143-0.879
		c0-0.177,0.232-0.265,0.702-0.265c6.21-0.352,11.045-0.879,14.503-1.582c2.813-0.585,5.242-1.229,7.295-1.934
		C325.909,158.978,326.379,158.86,326.788,158.86z M295.5,145.413c0.819,0,1.67,0.732,2.549,2.196
		c0.352,0.646,0.585,1.262,0.703,1.847c9.9-0.645,22.996-2.402,39.286-5.273c0.82-0.058,1.406-0.088,1.759-0.088
		c0.937,0,2.637,1.026,5.098,3.076c2.694,2.988,4.043,4.864,4.043,5.625c0,1.29-1.025,1.934-3.076,1.934
		c-3.164,0-7.295,0.879-12.393,2.638c-0.234,0-0.353-0.117-0.353-0.353c0-0.232,0.791-1.728,2.373-4.481
		c1.23-2.402,1.847-3.926,1.847-4.57c0-0.117-0.146-0.264-0.439-0.439c-0.646-0.176-1.289-0.264-1.934-0.264
		c-5.099,0-10.459,0.411-16.084,1.23c-4.57,0.526-10.459,1.582-17.666,3.163c-1.113,0.235-1.876,0.383-2.285,0.439
		c-0.176,1.349-0.733,3.019-1.67,5.01c-1.23,2.755-2.373,4.658-3.428,5.713c-0.821,0.586-1.554,0.879-2.197,0.879
		c-0.47,0-0.909-0.352-1.318-1.055c-0.234-0.644-0.352-1.347-0.352-2.108c0-0.996,0.176-1.875,0.527-2.638
		c1.171-1.699,2.549-5.419,4.131-11.162C294.797,145.852,295.089,145.413,295.5,145.413z M311.32,132.844
		c1.349,0,3.046,0.499,5.099,1.494c1.934,0.938,3.222,1.876,3.866,2.813c0.585,0.938,0.879,2.053,0.879,3.341
		c0,1.934-0.702,2.899-2.108,2.899c-1.289,0-3.02-1.435-5.187-4.307c-2.402-3.164-3.604-5.155-3.604-5.978
		C310.266,132.932,310.616,132.844,311.32,132.844z"/>
	<path fill="#4C5125" d="M421.008,136.711c0.586,0,1.553,0.088,2.899,0.264c1.582,0.411,2.373,0.762,2.373,1.056
		s-0.117,0.558-0.352,0.79c-0.353,0.353-0.82,0.559-1.406,0.615c-3.398,0.763-6.797,1.406-10.195,1.935
		c0.06,0.059,0.146,0.118,0.265,0.176c1.465,0.997,2.196,1.934,2.196,2.813c0,0.118-0.176,0.353-0.526,0.703
		c-0.41,0.703-0.674,1.582-0.791,2.638c-0.353,1.405-0.703,2.931-1.056,4.569c3.867-0.585,7.412-1.259,10.636-2.021
		c0.645-0.176,1.289-0.265,1.934-0.265c0.703,0,1.963,0.439,3.779,1.318c2.401,1.173,3.604,2.021,3.604,2.549
		c-0.059,1.114-0.557,2.021-1.494,2.726c-1.815,1.465-4.717,5.479-8.7,12.041c-0.234,0.47-0.47,0.702-0.703,0.702
		c-1.406,0-2.109-0.352-2.109-1.055c0.293-0.409,0.586-0.908,0.879-1.494c-6.854,0-13.594,0.439-20.215,1.318
		c-0.176,0.059-0.381,0.088-0.615,0.088c0.527,0.235,1.084,0.558,1.67,0.967c0.938,0.763,1.406,1.524,1.406,2.285
		c0,0.411-0.088,0.791-0.264,1.144c-0.996,2.052-2.08,4.072-3.252,6.064c5.156-0.41,9.932-0.82,14.326-1.229
		c0.059-0.763,0.088-1.466,0.088-2.11c0-0.703-0.234-1.523-0.703-2.461c0-0.468,0.469-0.703,1.406-0.703
		c0.762,0,1.582,0.411,2.461,1.23c1.522,1.349,2.313,2.49,2.373,3.428c6.327-0.586,11.659-1.144,15.995-1.67
		c0.703-0.117,1.261-0.177,1.671-0.177c1.698,0,3.661,0.383,5.889,1.144c1.992,1.055,2.988,2.08,2.988,3.076
		c0,0.703-0.615,1.055-1.847,1.055c-1.582,0-4.307-0.117-8.174-0.352c-2.461-0.234-4.541-0.353-6.24-0.353
		c-4.102,0-8.026,0.029-11.776,0.088c-0.47,0.586-0.732,1.025-0.791,1.318c-1.875,4.395-3.926,8.057-6.152,10.986
		c3.223,0.995,5.685,1.903,7.383,2.725c3.984,1.934,7.412,4.395,10.283,7.383c1.172,1.935,1.758,3.836,1.758,5.713
		c0,1.111-0.469,1.67-1.405,1.67c-1.289,0-4.396-2.169-9.316-6.504c-2.988-2.756-6.797-5.332-11.426-7.733
		c-4.57,4.627-9.435,7.909-14.59,9.844c-3.867,1.287-8.027,1.934-12.48,1.934c-2.109,0-3.164-0.352-3.164-1.055
		c3.75-0.703,7.062-1.582,9.932-2.637c5.039-1.817,9.99-4.603,14.854-8.351c0.645-0.526,1.229-1.024,1.758-1.494
		c-3.75-1.991-7.324-3.311-10.723-3.954c-1.172-0.234-1.758-0.968-1.758-2.197c0-0.586,0.381-1.113,1.143-1.582
		c0.938-0.703,1.934-2.461,2.988-5.273c-6.445,0.41-12.892,1.025-19.336,1.847c-1.465,0.293-2.959,0.438-4.482,0.438
		c-1.406,0-2.93-0.205-4.57-0.615c-1.405-0.352-2.108-0.586-2.108-0.703c0-0.526,0.233-0.791,0.703-0.791
		c4.922,0,15.028-0.586,30.321-1.758c0.177-0.41,0.353-0.85,0.527-1.317c1.23-2.638,1.846-4.893,1.846-6.769
		c0-0.585-0.233-1.288-0.702-2.108c0-0.059,0-0.117,0-0.177c-4.513,0.586-7.324,0.879-8.438,0.879c-0.293,0-0.557-0.028-0.791-0.088
		c-0.059,1.466-0.264,2.197-0.615,2.197c-0.469,0-0.879-0.409-1.229-1.229c-0.353-0.82-0.527-1.465-0.527-1.935
		c-0.82-1.229-1.465-3.457-1.934-6.68c-0.527-1.875-1.144-3.34-1.847-4.396c-0.526-0.996-1.26-1.728-2.196-2.196
		c0-0.762,0.233-1.144,0.703-1.144c0.938,0,2.051,0.176,3.34,0.527c0.762,0.411,1.317,0.762,1.67,1.055
		c3.164-0.292,6.738-0.703,10.723-1.229c-0.469-3.749-0.85-6.094-1.143-7.031c-0.41-1.055-0.851-1.846-1.318-2.373
		c-0.41-0.409-0.674-0.761-0.791-1.055c-3.574-0.059-5.889-0.409-6.943-1.056c-0.879-0.352-1.317-0.614-1.317-0.791
		c0-0.232,0.233-0.352,0.703-0.352c8.848-0.409,15.731-1.024,20.653-1.846c4.043-0.762,7.5-1.611,10.371-2.55
		C419.689,136.858,420.363,136.711,421.008,136.711z M390.686,167.913c2.344-0.059,5.42-0.292,9.229-0.703
		c-0.352-4.628-0.674-8.438-0.967-11.426c-3.164,0.47-6.533,0.997-10.106,1.582L390.686,167.913z M414.855,179.69
		c-5.508,0.117-10.459,0.293-14.854,0.527c-1.349,2.227-2.783,4.453-4.308,6.68c0,0.646,0.586,1.025,1.758,1.144
		c4.277,0.996,7.998,1.934,11.162,2.813c1.875-2.168,3.428-4.569,4.658-7.207C413.977,182.356,414.504,181.038,414.855,179.69z
		 M411.163,152.708c0.234-2.52,0.353-4.335,0.353-5.449c0-1.406-0.322-3.046-0.967-4.922c-0.117-0.117-0.177-0.233-0.177-0.353
		c-1.522,0.235-3.018,0.439-4.481,0.615c-2.168,0.353-4.103,0.646-5.801,0.879c1.055,0.527,1.582,1.056,1.582,1.582
		c-0.06,0.294-0.117,0.703-0.177,1.23c-0.233,1.173-0.264,3.722-0.088,7.646c2.813-0.352,5.83-0.731,9.054-1.143
		C410.695,152.795,410.93,152.767,411.163,152.708z M402.286,166.858c0.353,0,0.646-0.028,0.879-0.088
		c2.345-0.232,4.425-0.468,6.24-0.703c0.763-4.804,1.289-8.789,1.582-11.952c-2.754,0.352-5.947,0.791-9.58,1.317
		C401.584,158.539,401.877,162.347,402.286,166.858z M411.691,165.627c1.758-0.292,3.312-0.585,4.658-0.879
		c1.055-0.233,1.904-0.353,2.549-0.353c1.113,0,2.051,0.177,2.813,0.527c0.469,0.294,0.819,0.527,1.055,0.703
		c0.762-1.815,1.553-4.276,2.373-7.383c0.526-1.582,0.791-3.046,0.791-4.396c0-0.468-0.469-0.703-1.406-0.703
		c-1.641,0-5.098,0.235-10.371,0.703c-0.176,0.938-0.381,1.846-0.615,2.726C413.01,159.622,412.395,162.639,411.691,165.627z"/>
	<path fill="#4C5125" d="M459.68,155.959c0.879,0,1.963,0.206,3.252,0.615c1.348,0.646,2.021,1.405,2.021,2.284v0.089
		c1.464-0.177,2.813-0.439,4.043-0.791c2.343-0.292,4.513-0.996,6.505-2.109c1.348-0.703,2.284-1.055,2.813-1.055
		c0.645,0,1.963,0.382,3.955,1.143c2.285,1.173,3.428,2.081,3.428,2.725c0,0.646-0.146,1.174-0.438,1.582
		c-2.638,3.341-4.22,5.919-4.746,7.734c-0.703,1.934-1.23,3.75-1.582,5.449c0.293,0.059,0.557,0.146,0.791,0.264
		c1.172,0.703,1.758,1.173,1.758,1.406c0,0.235-0.146,0.352-0.439,0.352c-2.87,0-5.684,0.322-8.438,0.968
		c-2.461,0.586-3.955,0.879-4.482,0.879c-0.409,0-0.791-0.06-1.143-0.177l0.438,4.043c-0.059,1.816-0.409,2.726-1.055,2.726
		c-0.41,0-0.762-0.381-1.055-1.144c-0.234-0.645-0.353-1.172-0.353-1.582c-0.702-2.284-1.289-6.328-1.758-12.129
		c-0.471-3.457-1.086-6.181-1.846-8.174c-0.527-1.758-1.201-3.104-2.021-4.043C459.327,156.311,459.445,155.959,459.68,155.959z
		 M466.799,175.208c0.936-0.059,2.196-0.265,3.778-0.615c1.935-0.292,3.517-0.673,4.746-1.143c0.232-0.177,0.47-0.265,0.703-0.265
		c1.055-5.977,1.582-10.312,1.582-13.008c0-0.468-0.233-0.703-0.703-0.703c-0.762,0-2.256,0.206-4.481,0.615
		c-2.58,0.527-4.834,0.791-6.769,0.791c-0.176,0-0.352,0-0.526,0L466.799,175.208z M487.452,179.866
		c0.879,0,1.611,0.352,2.197,1.055c0.879,0.41,1.318,1.113,1.318,2.108c0,1.173-0.119,2.169-0.353,2.988
		c-0.762,2.695-1.758,6.211-2.987,10.547c4.512-1.229,9.141-2.256,13.887-3.075c1.758-0.294,3.633-0.732,5.625-1.318
		c0.703-0.234,1.287-0.353,1.758-0.353c1.287,0,3.018,0.322,5.187,0.968c1.229,0.526,1.846,1.143,1.846,1.846
		s-0.822,1.055-2.461,1.055l-10.547-0.352c-2.229,0-4.308,0.233-6.24,0.703c-3.691,0.352-6.563,0.907-8.613,1.67
		c-0.295,0.059-0.559,0.146-0.791,0.264c-0.059,0.176-0.119,0.353-0.176,0.527l-2.285,0.879l-0.527,0.264
		c-0.646,0-1.288-0.234-1.934-0.703c-0.762-0.352-1.143-0.731-1.143-1.143c2.284-1.992,3.748-3.926,4.395-5.801
		c0.996-1.759,1.494-4.746,1.494-8.966c-0.471-0.819-0.703-1.493-0.703-2.021C486.398,180.247,486.75,179.866,487.452,179.866z
		 M489.563,140.491c0.879,0,1.963,0.206,3.252,0.614c0.584,0.294,1.055,0.615,1.406,0.968c9.082-1.056,16.113-2.314,21.094-3.779
		c0.293-0.176,0.615-0.265,0.967-0.265c0.527,0,1.67,0.353,3.428,1.056c2.638,1.229,3.955,2.168,3.955,2.813
		c0,0.353-0.207,0.733-0.614,1.144c-1.289,1.173-2.168,2.637-2.638,4.395c-1.641,4.806-3.604,9.522-5.889,14.15
		c-0.234,0.234-0.586,0.352-1.055,0.352c-0.353,0-0.674-0.292-0.967-0.879c-0.234-0.409-0.353-0.791-0.353-1.143
		c-2.813,0.118-5.567,0.411-8.262,0.879c-3.047,0.526-4.894,0.791-5.537,0.791c-0.234,0-0.471-0.029-0.703-0.088
		c-0.059,0.703-0.176,1.229-0.352,1.582c0.352,0.118,0.879,0.382,1.582,0.791c1.055,0.646,1.582,1.437,1.582,2.373
		c0,0.294-0.119,0.499-0.353,0.614c-0.879,0.586-1.877,1.524-2.988,2.813c-0.233,0.235-0.471,0.47-0.702,0.703
		c0.702,0.059,1.463,0.088,2.284,0.088c0.584,0,1.261-0.088,2.021-0.264c3.984-0.703,9.609-1.436,16.875-2.197
		c1.348-0.117,2.957-0.439,4.834-0.967c0.176-0.117,0.352-0.177,0.527-0.177c0.584,0,2.139,0.703,4.657,2.109
		c2.754,1.641,4.131,2.696,4.131,3.164c0,0.294-0.118,0.646-0.352,1.055c-1.992,3.224-3.164,5.918-3.516,8.086
		c-0.234,11.896-0.646,18.984-1.23,21.271c-0.586,2.4-1.904,4.511-3.955,6.328c-2.403,2.226-4.074,3.34-5.01,3.34
		c-1.113,0-1.846-0.353-2.197-1.055c-1.701-2.872-3.604-5.89-5.713-9.054l-0.879-1.143c0-0.235,0.117-0.353,0.352-0.353
		c4.688,1.64,7.615,2.461,8.789,2.461c0.937,0,1.728-0.587,2.373-1.758c1.349-1.993,2.373-6.151,3.076-12.479
		c0.117-3.105,0.176-6.533,0.176-10.283c0-3.105-0.176-5.156-0.526-6.153c-0.879-1.288-2.109-1.934-3.691-1.934
		c-1.992,0-3.986,0.059-5.977,0.176c-3.517,0.294-6.504,0.558-8.965,0.791c0.057,0,0.116,0,0.176,0c0.293,0,0.936,0.294,1.934,0.879
		c1.055,0.703,1.582,1.465,1.582,2.285c0,0.411-0.119,0.703-0.352,0.879c-0.646,0.469-1.318,1.144-2.021,2.022
		c1.582,0.469,3.133,1.024,4.658,1.67c2.166,0.996,3.572,1.934,4.219,2.813c0.584,0.762,0.879,1.582,0.879,2.461
		c0,0.703-0.119,1.437-0.352,2.197c-0.295,0.645-0.646,0.967-1.055,0.967c-0.353,0-0.586-0.117-0.703-0.352
		c-0.822-0.47-2.054-1.523-3.691-3.164c-2.404-2.695-4.014-4.336-4.834-4.922c-0.119-0.117-0.207-0.205-0.264-0.265
		c-2.229,2.754-4.338,4.951-6.328,6.593c-1.055,0.819-2.404,1.61-4.043,2.372c-0.471,0.353-0.879,0.527-1.23,0.527h-0.352
		c1.99-1.875,3.836-3.896,5.537-6.063c2.227-2.754,3.809-5.273,4.746-7.56c0.469-0.526,0.703-1.522,0.703-2.988
		c0-0.116,0.116-0.204,0.352-0.264c-1.525,0.176-2.844,0.353-3.955,0.527c-0.41,0.059-0.762,0.088-1.055,0.088
		c-1.23,0-2.461-0.233-3.691-0.703c-0.059,0-0.119,0-0.176,0c-1.406,1.349-2.783,2.461-4.131,3.34
		c-0.998,0.703-2.285,1.349-3.867,1.935c-0.41,0.293-0.791,0.438-1.143,0.438h-0.353c1.875-1.522,3.604-3.222,5.187-5.098
		c2.051-2.285,3.545-4.335,4.481-6.152c0.353-0.527,0.527-1.376,0.527-2.549v-0.088c-0.119-0.176-0.234-0.38-0.353-0.615
		c-0.233-0.703-0.352-1.288-0.352-1.758c-0.762-1.815-1.406-5.01-1.934-9.58c-0.472-2.753-1.113-4.922-1.935-6.504
		c-0.527-1.464-1.229-2.549-2.108-3.252C489.211,140.842,489.327,140.491,489.563,140.491z M497.561,160.178
		c1.348-0.117,3.164-0.38,5.449-0.791c2.637-0.352,4.774-0.82,6.416-1.406c0.469-0.176,0.879-0.264,1.229-0.264
		c0.82,0,1.523,0.088,2.109,0.264c0.176-0.352,0.352-0.819,0.526-1.405c0.646-2.167,1.287-5.243,1.935-9.229
		c0.231-1.522,0.352-2.988,0.352-4.395c0-0.938-0.702-1.406-2.108-1.406c-0.822,0-2.197,0.146-4.131,0.438
		c-4.689,0.527-9.492,1.202-14.414,2.021l1.055,6.592c2.754-0.409,5.273-0.908,7.559-1.494c0.527-0.117,0.908-0.176,1.144-0.176
		c3.516,0,5.272,0.47,5.272,1.406c0,0.234-0.176,0.411-0.526,0.526c-2.229,0.411-4.308,0.733-6.24,0.968
		c-1.582,0.176-2.607,0.264-3.076,0.264c-1.465,0-2.756-0.058-3.867-0.176L497.561,160.178z"/>
	<path fill="#4C5125" d="M572.706,161.233c0,9.492-5.684,14.386-17.051,14.679v11.426h-3.34v-17.051
		c4.219,0,7.383-0.585,9.492-1.759c3.748-2.05,5.625-5.478,5.625-10.282c0-2.87-0.791-5.126-2.373-6.769
		c-1.351-1.464-3.021-2.197-5.01-2.197c-1.525,0-3.224,0.763-5.099,2.285c-1.815,1.465-3.311,2.197-4.481,2.197
		c-1.289,0-2.345-0.352-3.164-1.055c-0.763-0.703-1.144-1.641-1.144-2.813c0-3.516,3.105-5.272,9.316-5.272
		c4.512,0,8.438,1.523,11.777,4.569C570.891,152.415,572.706,156.429,572.706,161.233z M558.907,200.608
		c0,1.23-0.498,2.313-1.494,3.252c-0.997,0.819-2.196,1.23-3.604,1.23s-2.58-0.439-3.516-1.318
		c-0.938-0.879-1.406-1.934-1.406-3.164c0-1.29,0.469-2.373,1.406-3.252c0.936-0.819,2.108-1.229,3.516-1.229
		s2.637,0.438,3.69,1.317C558.438,198.323,558.907,199.378,558.907,200.608z"/>
</g>
</svg>
