<?xml version="1.0" encoding="utf-8"?>
<!-- Generator: Adobe Illustrator 16.0.0, SVG Export Plug-In . SVG Version: 6.00 Build 0)  -->
<!DOCTYPE svg PUBLIC "-//W3C//DTD SVG 1.1//EN" "http://www.w3.org/Graphics/SVG/1.1/DTD/svg11.dtd">
<svg version="1.1" id="圖層_1" xmlns="http://www.w3.org/2000/svg" xmlns:xlink="http://www.w3.org/1999/xlink" x="0px" y="0px"
	 width="595.279px" height="248.986px" viewBox="0 0 595.279 248.986" enable-background="new 0 0 595.279 248.986"
	 xml:space="preserve">
<path fill="#4C5125" d="M102.965,46.963c0.232,0,1.464,0.499,3.69,1.494c2.227,1.055,3.341,1.846,3.341,2.373
	c0,0.294-0.294,0.646-0.879,1.055c-1.642,0.938-2.813,1.964-3.517,3.076c-0.997,1.29-1.993,2.899-2.988,4.834
	c1.288-0.176,2.606-0.556,3.955-1.144c0.353-0.058,0.674-0.088,0.968-0.088c0.292,0,1.67,0.527,4.131,1.582
	c2.401,1.23,3.604,2.081,3.604,2.549c0,0.411-0.323,0.821-0.967,1.23c-1.7,0.938-2.988,1.993-3.867,3.164
	c-1.114,1.349-2.168,3.047-3.164,5.098c0.292-0.058,0.585-0.088,0.879-0.088c2.167-0.117,4.717-0.497,7.646-1.143
	c0.292-0.117,0.585-0.176,0.879-0.176c0.585,0,2.109,0.732,4.57,2.196c2.813,1.582,4.219,2.608,4.219,3.076
	c0,0.235-0.118,0.499-0.353,0.791c-2.052,2.229-3.223,4.131-3.516,5.713c-0.294,8.613-0.762,13.74-1.406,15.381
	c-0.646,1.758-2.14,3.252-4.481,4.482c-2.755,1.64-4.658,2.461-5.713,2.461c-1.056,0-1.759-0.382-2.109-1.144
	c-1.641-2.871-3.458-5.977-5.449-9.315l-0.879-1.144c0-0.234,0.117-0.352,0.353-0.352c4.511,1.934,7.323,2.9,8.438,2.9
	c1.112,0,2.079-0.411,2.9-1.23c1.698-1.173,3.017-3.722,3.955-7.646c0.116-1.815,0.176-3.896,0.176-6.24
	c0-2.402-0.206-4.013-0.615-4.834c-0.821-1.055-2.021-1.582-3.604-1.582c-3.399,0-6.855,0.118-10.371,0.352
	c-10.139,0.646-17.813,1.318-23.027,2.021c-0.646,0.118-1.229,0.176-1.758,0.176c-1.173,0-2.344-0.264-3.517-0.791
	c-2.461,2.755-4.98,5.216-7.559,7.383c-0.176,0.118-0.352,0.235-0.527,0.353c0.585,0.059,1.2,0.264,1.847,0.614
	c2.05,0.938,3.572,2.081,4.569,3.429c0.88,1.113,1.318,2.813,1.318,5.098c0,0.527-0.146,0.996-0.438,1.406
	c-0.353,0.468-0.675,0.703-0.968,0.703c-0.586,0-1.173-0.382-1.758-1.144c-1.29-1.349-3.019-4.248-5.186-8.701
	c-0.177-0.232-0.294-0.438-0.353-0.614c-4.569,3.458-9.756,6.033-15.557,7.733v-0.352c7.265-5.449,11.776-8.906,13.535-10.371
	c5.272-4.628,9.932-9.697,13.975-15.205c3.222-4.511,6.152-9.521,8.789-15.029c-2.988,0.586-6.095,1.318-9.316,2.197
	c-0.352,0.235-0.674,0.352-0.967,0.352c-0.526,0-1.261-0.292-2.197-0.879c-0.646-0.468-0.967-0.761-0.967-0.879
	c0-0.232,0.265-0.352,0.791-0.352c2.402-0.059,4.188-0.233,5.361-0.527c2.929-0.585,5.625-1.111,8.086-1.582
	c1.112-2.343,2.138-4.774,3.076-7.295c1.111-2.519,1.67-5.126,1.67-7.822c0-1.405-0.264-2.577-0.791-3.516
	c-0.411-0.879-0.615-1.464-0.615-1.758c0-0.645,0.585-0.967,1.758-0.967c1.171,0,2.52,0.499,4.043,1.493
	c1.759,0.88,2.638,1.993,2.638,3.341c0,0.762-0.383,1.437-1.144,2.021c-0.997,0.821-1.641,1.7-1.934,2.637
	c-1.642,4.103-3.224,7.854-4.746,11.25c1.582-0.232,3.046-0.408,4.395-0.526c2.109-0.117,4.276-0.615,6.504-1.494
	C102.231,46.994,102.613,46.963,102.965,46.963z M70.973,34.571c0.645,0,1.376,0.177,2.197,0.527
	c1.991,0.938,3.544,2.021,4.658,3.252c0.819,1.173,1.229,2.872,1.229,5.099c0,0.526-0.176,1.055-0.527,1.582
	c-0.41,0.526-0.82,0.79-1.229,0.79c-0.586,0-1.143-0.38-1.67-1.143c-1.173-1.406-2.813-4.276-4.922-8.613
	c-0.294-0.468-0.439-0.849-0.439-1.143C70.386,34.689,70.621,34.571,70.973,34.571z M83.365,64.19
	c-0.411,0.646-0.821,1.318-1.23,2.021c-2.109,3.164-4.307,6.063-6.592,8.701C76.187,74.972,76.89,75,77.652,75
	c0.996,0,2.051-0.059,3.164-0.176c5.625-0.703,13.125-1.465,22.5-2.285c0.879-1.288,1.582-2.813,2.109-4.57
	c0.468-1.464,0.703-2.988,0.703-4.57c0-1.055-0.703-1.61-2.109-1.67c-1.406,0-3.34,0.176-5.801,0.527
	c-3.575,0.527-7.354,1.406-11.338,2.637c-0.294,0.176-0.559,0.265-0.791,0.265c-0.586,0-1.406-0.292-2.461-0.88
	C83.511,64.22,83.423,64.19,83.365,64.19z M76.949,81.065c1.055,0,2.401,0.559,4.043,1.67c1.522,1.174,2.519,2.257,2.987,3.252
	c0.527,1.056,0.791,2.315,0.791,3.779c0,0.938-0.382,1.406-1.143,1.406c-1.056,0-2.433-1.406-4.131-4.219
	c-1.935-3.164-2.9-5.126-2.9-5.89L76.949,81.065L76.949,81.065z M90.221,50.656c-2.228,4.863-4.307,8.994-6.24,12.393
	c1.699-0.117,2.93-0.292,3.691-0.527c4.511-1.055,8.319-1.787,11.426-2.196c0.761-1.288,1.376-2.813,1.846-4.57
	c0.409-1.523,0.615-3.046,0.615-4.57c0-0.937-0.703-1.435-2.108-1.494c-1.817,0-4.338,0.235-7.56,0.703
	C91.304,50.45,90.748,50.538,90.221,50.656z M88.199,79.571c1.055,0,2.401,0.559,4.043,1.671c1.522,0.996,2.519,1.992,2.987,2.987
	c0.527,0.938,0.791,2.081,0.791,3.429c0,0.938-0.382,1.405-1.143,1.405c-1.056,0-2.433-1.288-4.131-3.867
	c-1.935-2.987-2.9-4.862-2.9-5.625H88.199z M99.801,78.516c0.703,0,1.464,0.176,2.285,0.527c2.108,0.762,3.72,1.7,4.834,2.813
	c0.879,0.997,1.317,2.461,1.317,4.396c0,0.47-0.176,0.938-0.526,1.406c-0.47,0.526-0.879,0.791-1.23,0.791
	c-0.586,0-1.173-0.381-1.758-1.144c-1.29-1.112-3.019-3.632-5.186-7.559c-0.294-0.353-0.439-0.645-0.439-0.879
	C99.155,78.634,99.39,78.516,99.801,78.516z"/>
<path fill="#4C5125" d="M166.246,29.649c0.937,0,2.108,0.763,3.516,2.285c1.171,1.29,1.758,2.549,1.758,3.779
	c0,0.762-0.382,1.437-1.143,2.021c-0.879,0.586-1.465,1.23-1.758,1.935c-2.932,4.922-5.685,9.112-8.263,12.567
	c1.582,2.285,2.373,4.015,2.373,5.187c0,0.47-0.118,1.202-0.352,2.197c-0.235,1.465-0.353,2.284-0.353,2.461l-0.352,30.233
	c0,1.171-0.206,2.402-0.615,3.691c-0.411,1.699-0.791,2.549-1.143,2.549c-1.173,0-2.285-1.876-3.34-5.625
	c-0.353-0.997-0.527-1.817-0.527-2.461c0-1.582,0.849-6.445,2.549-14.59c0.645-2.578,0.967-7.44,0.967-14.59
	c0-2.52-0.294-4.805-0.879-6.855c-0.526,0.646-1.025,1.23-1.494,1.758c-4.688,5.099-8.965,8.789-12.832,11.074
	c-2.108,1.465-3.486,2.197-4.131,2.197c-0.234,0-0.352-0.264-0.352-0.791c6.68-6.034,12.069-11.777,16.172-17.228
	c3.104-4.219,5.625-8.524,7.559-12.92c0.82-2.637,1.23-4.54,1.23-5.713l-0.353-2.461C164.488,29.884,165.073,29.649,166.246,29.649z
	 M210.191,54.698c1.759,0,3.691,0.294,5.802,0.879c2.519,1.055,3.778,2.052,3.778,2.987c0,0.177-0.264,0.439-0.791,0.791
	c-0.411,0.353-0.879,0.527-1.405,0.527c-8.204,0-15.382,0.206-21.533,0.615c-0.06,11.133-0.177,18.721-0.353,22.764
	c-0.176,6.563-0.586,11.835-1.229,15.82c-0.763,3.867-1.494,5.801-2.197,5.801c-0.411,0-0.646-1.993-0.703-5.977
	c-0.176-1.174-0.294-13.856-0.352-38.058c-0.294,0-0.586,0.03-0.879,0.088c-4.57,0.353-10.079,1.23-16.523,2.638
	c-0.352,0.117-0.762,0.176-1.229,0.176c-0.703,0-1.759-0.265-3.164-0.791c-1.174-0.409-1.759-0.703-1.759-0.879
	c0-0.233,0.233-0.353,0.703-0.353c4.452-0.761,8.057-1.317,10.812-1.67c2.693-0.352,5.945-0.819,9.756-1.406
	c0.82-0.116,1.582-0.232,2.285-0.352c0-5.977,0-12.597,0-19.863c0-3.925-0.821-7.089-2.461-9.492c0-0.408,0.585-0.614,1.758-0.614
	c1.171,0,2.343,0.264,3.516,0.791c1.875,1.173,2.813,2.285,2.813,3.34c0,0.703-0.06,1.437-0.176,2.197
	c-0.353,1.29-0.527,3.722-0.527,7.295c0,5.684,0,10.781,0,15.293c2.753-0.527,5.302-1.083,7.646-1.67
	C206.061,54.992,208.199,54.698,210.191,54.698z"/>
<path fill="#4C5125" d="M289.996,31.846c1.405,0,2.899,0.264,4.481,0.791c1.464,0.47,2.197,1.114,2.197,1.934
	c0,0.997-0.47,1.494-1.406,1.494c-9.903,0-19.103,0.586-27.598,1.759c-3.811,0.47-7.998,1.289-12.568,2.461
	c-1.523,0.41-2.549,0.614-3.076,0.614c-0.294,0-0.586,0-0.879,0c-0.118,0.411-0.176,0.703-0.176,0.879
	c-0.938,12.013-2.373,22.004-4.307,29.972c-1.817,6.798-4.043,12.715-6.681,17.754c-2.402,4.219-5.654,8.086-9.756,11.602
	c-0.352,0.177-0.82,0.265-1.406,0.265v-0.353c3.105-3.984,5.654-8.086,7.646-12.305c3.749-7.5,6.386-15.234,7.91-23.203
	c1.347-7.851,2.021-15.585,2.021-23.203c0-1.934-0.294-3.31-0.879-4.131c-0.586-0.82-0.879-1.435-0.879-1.846
	c0-0.409,0.353-0.615,1.055-0.615c0.88,0,2.167,0.323,3.867,0.967c1.056,0.294,1.729,0.791,2.021,1.494
	c6.151-0.761,11.688-1.552,16.61-2.373c5.917-0.996,11.835-2.167,17.755-3.516C287.535,31.993,288.882,31.846,289.996,31.846z
	 M255.543,54.961c0.703,0,1.522,0.382,2.461,1.143c0.703,0.471,1.055,1.056,1.055,1.758c0,0.177-0.03,0.353-0.088,0.527
	c-0.411,0.879-0.703,1.524-0.879,1.935c-0.762,2.461-1.582,4.542-2.461,6.239c-1.055,2.109-2.285,3.635-3.691,4.57
	c-0.646,0.47-1.085,0.703-1.317,0.703c0.996-1.699,1.846-3.485,2.549-5.361c0.644-1.464,1.171-3.31,1.582-5.537
	c0.292-1.347,0.438-2.637,0.438-3.867l-0.352-1.758C254.84,55.08,255.073,54.961,255.543,54.961z M269.254,47.93
	c0.409,0,1.112,0.088,2.108,0.264c1.172,0.294,1.759,0.559,1.759,0.791c0,0.235-0.06,0.439-0.177,0.615
	c-0.234,0.235-0.526,0.382-0.879,0.439c-2.637,0.82-5.304,1.494-7.998,2.021c0.059,1.758,0.205,3.546,0.439,5.361
	c0.352,3.81,0.527,7.325,0.527,10.547c0,1.29-0.235,2.344-0.703,3.164c-0.703,0.938-1.29,1.406-1.758,1.406
	c-0.295,0-0.527-0.409-0.703-1.23c-0.235-0.703-0.353-2.167-0.353-4.395V52.5c-1.349,0.234-2.402,0.352-3.164,0.352
	c-2.695,0-4.513-0.232-5.449-0.703c-0.586-0.292-0.879-0.526-0.879-0.703c0-0.176,0.117-0.264,0.353-0.264
	c3.749-0.232,6.796-0.585,9.141-1.055V48.37c0-3.046-0.47-5.187-1.406-6.416c0-0.938,0.469-1.406,1.406-1.406
	c0.703,0,1.436,0.352,2.197,1.055c0.879,0.527,1.318,1.23,1.318,2.109c0,0.235-0.147,0.527-0.439,0.879
	c-0.411,0.879-0.615,2.052-0.615,3.516c0,0.471,0,0.968,0,1.494c1.641-0.409,3.046-0.849,4.22-1.317
	C268.608,48.048,268.96,47.93,269.254,47.93z M268.902,69.112c0.82,0,1.729,0.411,2.726,1.23c0.996,0.762,1.494,1.641,1.494,2.637
	c0,0.177-0.206,0.382-0.615,0.615c-2.521,1.7-5.86,4.513-10.021,8.438c-0.059,0.059-0.146,0.146-0.264,0.264l12.656-1.406
	c1.229-1.347,2.255-2.578,3.076-3.69c0.644-0.88,1.023-1.963,1.143-3.252c0-1.641,0.703-2.462,2.109-2.462
	c0.526,0,1.522,0.675,2.987,2.021c1.288,0.938,1.935,1.905,1.935,2.9c0,0.352-0.323,0.702-0.967,1.055
	c-2.756,1.7-6.064,4.073-9.933,7.119c-3.634,2.931-7.236,6.269-10.811,10.02c6.562-0.997,12.714-1.934,18.457-2.813
	c-1.114-1.815-1.935-2.988-2.461-3.517c-1.114-1.288-1.67-2.196-1.67-2.725c0-0.233,0.116-0.353,0.352-0.353
	c0.468,0,1.143,0.147,2.021,0.439c1.698,0.938,3.396,1.993,5.098,3.164c2.167,1.758,3.604,3.369,4.307,4.834
	c0.585,1.347,0.879,2.753,0.879,4.219c0,0.703-0.118,1.464-0.352,2.285c-0.294,0.585-0.646,0.879-1.055,0.879
	c-0.353,0-0.586-0.118-0.703-0.352c-0.821-0.703-2.109-2.315-3.867-4.834c-0.47-0.821-0.909-1.554-1.318-2.197h-0.088
	c-5.566,0.879-10.43,2.05-14.59,3.516c-4.337,1.348-7.266,2.55-8.789,3.604c-1.055,0.409-1.817,0.615-2.285,0.615
	c-0.586,0-1.317-0.586-2.197-1.759c-0.646-0.879-0.967-1.582-0.967-2.108c0-0.47,0.615-0.997,1.847-1.582
	c0.995-0.294,1.846-0.674,2.549-1.144c1.171-0.702,3.837-2.931,7.998-6.68c2.401-2.226,4.511-4.276,6.328-6.152
	c-7.149,1.174-12.218,2.726-15.205,4.658c-0.703,0-1.318-0.409-1.847-1.229c-0.411-0.527-0.614-1.288-0.614-2.285v-1.055
	c1.934-0.585,4.071-1.875,6.416-3.867c1.111-0.996,2.549-2.694,4.307-5.099c0.585-0.879,0.879-1.405,0.879-1.582
	c-0.235-0.468-0.352-0.937-0.352-1.405C267.496,69.435,267.964,69.112,268.902,69.112z M266.09,22.618
	c1.229,0,2.782,0.438,4.658,1.317c1.875,0.879,3.075,1.7,3.604,2.461c0.585,0.821,0.879,1.788,0.879,2.9
	c0,1.7-0.703,2.549-2.108,2.549c-1.174,0-2.667-1.229-4.482-3.69c-2.168-2.813-3.252-4.54-3.252-5.187
	C265.387,22.793,265.62,22.677,266.09,22.618z M268.902,54.346c0.292,0,0.703,0.088,1.23,0.264c0.585,0.235,0.879,0.586,0.879,1.056
	l-0.352,9.492c0,0.586-0.089,1.055-0.265,1.405c-0.176,0.471-0.438,0.703-0.791,0.703c-0.118,0-0.352-0.352-0.703-1.055
	c-0.234-0.527-0.352-0.879-0.352-1.055v-2.462c0-3.866-0.176-6.151-0.527-6.854c-0.118-0.409-0.176-0.703-0.176-0.879
	C267.848,54.552,268.199,54.346,268.902,54.346z M276.637,52.852c0.761,0,1.552,0.353,2.373,1.056
	c0.761,0.526,1.143,1.113,1.143,1.758c0,0.176-0.029,0.352-0.088,0.526c-0.47,0.821-0.762,1.438-0.879,1.847
	c-0.703,2.285-1.523,4.219-2.461,5.801c-1.055,1.876-2.256,3.252-3.604,4.131c-0.703,0.47-1.174,0.703-1.406,0.703
	c1.055-1.582,1.903-3.252,2.549-5.01c0.585-1.288,1.112-2.988,1.582-5.099c0.292-1.288,0.439-2.489,0.439-3.604l-0.265-1.758
	C276.021,52.97,276.226,52.852,276.637,52.852z M293.512,44.766c3.046,0,4.569,0.47,4.569,1.406c0,0.586-0.352,0.938-1.055,1.055
	c-3.926,0.879-7.677,1.582-11.25,2.109c0.059,1.641,0.117,3.34,0.177,5.098c0.116,3.634,0.176,6.975,0.176,10.021
	c0,1.523-0.206,2.725-0.615,3.604c-0.586,1.173-1.085,1.758-1.494,1.758c-0.352,0-0.674-0.497-0.967-1.493
	c-0.294-0.703-0.439-2.227-0.439-4.57c0.353-5.331,0.557-10.021,0.615-14.063c-1.641,0.235-2.784,0.353-3.428,0.353
	c-1.465,0-2.784-0.117-3.955-0.353c-0.879-0.232-1.318-0.468-1.318-0.703c0-0.176,0.233-0.292,0.703-0.352
	c2.813-0.409,5.507-0.879,8.086-1.406c0-0.352,0-0.731,0-1.143c0-2.929-0.586-4.979-1.758-6.152c0-0.996,0.468-1.494,1.406-1.494
	c0.82,0,1.64,0.353,2.461,1.056c0.937,0.586,1.406,1.29,1.406,2.108c0,0.176-0.147,0.439-0.439,0.791
	c-0.411,0.821-0.615,1.847-0.615,3.076c0,0.353,0,0.762,0,1.23c1.935-0.527,3.838-1.024,5.714-1.494
	C292.369,44.913,293.042,44.766,293.512,44.766z M291.754,51.446c0.703,0,1.494,0.411,2.373,1.23
	c0.996,0.703,1.494,1.465,1.494,2.285c0,0.294-0.118,0.615-0.353,0.967c-0.879,1.055-1.406,1.993-1.582,2.813
	c-0.352,0.996-0.526,2.108-0.526,3.34c0,0.82,0.116,1.553,0.352,2.196c0.176,0.703,0.527,1.23,1.055,1.582
	c0.703,0.471,1.875,0.703,3.516,0.703c1.288,0,2.228-0.585,2.813-1.758c0.585-0.937,1.229-3.34,1.934-7.207
	c0-0.117,0.059-0.176,0.177-0.176c0.116,0,0.204,0.059,0.264,0.176c0.761,3.399,1.67,5.655,2.725,6.769
	c0.117,0.059,0.177,0.206,0.177,0.438c0,0.762-0.146,1.406-0.439,1.935c-0.646,1.289-1.612,2.228-2.9,2.813
	c-1.173,0.586-2.402,0.879-3.69,0.879c-1.934,0-3.663-0.38-5.186-1.143c-1.056-0.645-1.817-1.464-2.285-2.461
	c-0.411-0.762-0.615-2.227-0.615-4.396c0.468-3.222,0.703-5.595,0.703-7.119c0-0.819-0.118-1.435-0.353-1.846
	c-0.234-0.292-0.352-0.732-0.352-1.318C291.051,51.681,291.284,51.446,291.754,51.446z"/>
<path fill="#4C5125" d="M323.309,62.081h90v2.725h-90V62.081z"/>
<path fill="#4C5125" d="M413.309,62.081h90v2.725h-90V62.081z"/>
<path fill="#4C5125" d="M51.109,185.813c0.292,0,0.968,0.294,2.021,0.879c1.055,0.646,1.582,1.438,1.582,2.373
	c0,0.177-0.176,0.323-0.527,0.439c-0.821,0.47-1.788,1.143-2.899,2.021c-2.109,1.642-4.132,2.9-6.064,3.779
	c-0.997,0.586-2.256,1.114-3.779,1.582c1.056,0.353,2.197,0.703,3.429,1.055c4.628,1.641,9.932,2.9,15.907,3.779
	c3.047,0.527,12.715,0.967,29.005,1.318c0.232,0,0.352,0.264,0.352,0.791c0,0.116-0.206,0.264-0.615,0.438
	c-2.872,2.051-6.063,3.604-9.58,4.658c-2.813,0.996-4.922,1.494-6.328,1.494c-0.938,0-1.699-0.118-2.284-0.353
	c-4.454-1.289-8.351-2.578-11.689-3.866c-13.243-5.509-23.614-9.198-31.113-11.074c-1.465-0.353-2.959-0.527-4.481-0.527
	c-1.935,0-4.894,0.499-8.877,1.494c-0.763,0.235-1.318,0.352-1.67,0.352c-0.763,0-1.612-0.32-2.55-0.967
	c-1.349-0.644-2.021-1.288-2.021-1.934c0-0.409,0.117-0.615,0.352-0.615c7.324-0.232,12.246-0.352,14.767-0.352
	c0-0.233,0-0.497,0-0.791c0-1.641-0.353-3.429-1.056-5.361c-0.526-2.167-1.317-3.955-2.372-5.361
	c-0.295-0.879-0.439-1.758-0.439-2.637c0-1.406,1.055-4.395,3.164-8.965v-0.176c0-0.233-0.235-0.353-0.703-0.353
	c-2.461,1.173-4.454,1.758-5.977,1.758c-1.876,0-3.399-0.204-4.57-0.614c-0.938-0.292-1.406-0.673-1.406-1.144
	c0-0.232,0.353-0.352,1.055-0.352c1.875,0,3.779-0.409,5.714-1.23c1.758-0.585,3.396-1.758,4.922-3.516
	c0.468-0.585,0.908-0.879,1.317-0.879c0.879,0,2.139,0.382,3.779,1.143c1.934,0.938,2.9,2.081,2.9,3.428
	c0,0.587-0.353,1.174-1.056,1.759c-1.876,1.055-3.019,2.052-3.428,2.987c-1.229,3.048-1.846,5.099-1.846,6.152
	c0,0.294,0.058,0.733,0.176,1.318c1.523,3.458,2.285,6.445,2.285,8.965c0,1.114-0.235,2.432-0.703,3.955
	c2.988,0.411,7.938,1.729,14.854,3.955c1.523-1.112,2.988-2.285,4.396-3.517c2.05-1.814,3.544-3.484,4.481-5.01
	c0.353-0.352,0.527-0.996,0.527-1.934C50.055,185.931,50.406,185.813,51.109,185.813z M17.359,143.362
	c0.762,0,1.611,0.147,2.55,0.439c2.226,0.703,3.954,1.524,5.186,2.461c0.937,0.997,1.406,2.344,1.406,4.043
	c0,0.586-0.176,1.173-0.527,1.758c-0.411,0.471-0.821,0.703-1.229,0.703c-0.646,0-1.29-0.321-1.935-0.967
	c-1.406-1.171-3.282-3.604-5.625-7.295c-0.352-0.353-0.526-0.615-0.526-0.791C16.714,143.48,16.949,143.362,17.359,143.362z
	 M71.148,167.18c0.469,0,1.318,0.088,2.549,0.264c1.348,0.295,2.021,0.559,2.021,0.791c0,0.294-0.118,0.559-0.352,0.791
	c-0.235,0.294-0.587,0.527-1.056,0.703c-2.931,0.586-5.919,1.144-8.965,1.67c-0.527,2.285-1.085,5.128-1.67,8.525
	c3.105-0.468,6.21-0.967,9.316-1.494c1.582-0.232,2.987-0.352,4.219-0.352c1.23,0,2.578,0.206,4.043,0.614
	c1.229,0.353,1.846,0.851,1.846,1.494c0,1.173-0.352,1.758-1.055,1.758c-9.962,0-19.219,0.411-27.773,1.23
	c-3.867,0.294-8.115,0.821-12.744,1.582c-1.523,0.294-2.549,0.438-3.075,0.438c-0.938,0-2.109-0.204-3.517-0.614
	c-1.173-0.353-1.758-0.645-1.758-0.879c0-0.233,0.117-0.353,0.352-0.353c5.742-0.526,10.986-1.055,15.732-1.582
	c-0.352-3.34-0.674-6.063-0.967-8.174c-0.235,0-0.47,0-0.703,0c-3.047,0-5.04-0.292-5.977-0.879
	c-0.703-0.292-1.056-0.497-1.056-0.615c0-0.232,0.117-0.352,0.353-0.352c2.519-0.117,4.862-0.233,7.03-0.353
	c-0.294-1.934-0.526-3.164-0.702-3.69c-0.353-0.645-0.703-1.171-1.056-1.582c-0.411-0.469-0.646-0.82-0.703-1.056
	c0-0.468,0.469-0.702,1.406-0.702c0.879,0,1.699,0.264,2.461,0.791c1.171,0.646,1.758,1.201,1.758,1.67
	c0,0.234-0.029,0.526-0.088,0.879c-0.176,0.586-0.264,1.729-0.264,3.428c3.573-0.292,6.592-0.673,9.053-1.143
	c0.879-0.177,1.699-0.353,2.461-0.527c0.233-2.167,0.292-3.604,0.176-4.308c-0.117-0.819-0.352-1.464-0.702-1.934
	c-0.294-0.527-0.439-0.967-0.439-1.318c0-0.702,0.585-1.055,1.758-1.055c0.938,0,1.815,0.323,2.638,0.967
	c1.287,0.703,1.934,1.318,1.934,1.847c-0.118,0.234-0.235,0.558-0.353,0.967c-0.352,0.646-0.762,1.964-1.229,3.955
	c1.112-0.292,2.167-0.615,3.164-0.967C69.976,167.327,70.621,167.18,71.148,167.18z M50.758,137.649
	c0.409,0,1.229,0.294,2.461,0.879c1.406,0.938,2.109,1.582,2.109,1.935c0,0.352-0.088,0.646-0.265,0.879
	c-1.7,1.817-2.725,3.194-3.076,4.131c-0.41,0.879-0.732,1.729-0.967,2.549c0.468,0.118,0.85,0.265,1.144,0.439
	c0.937,0.526,1.405,0.909,1.405,1.143c-0.059,0.235-0.176,0.353-0.352,0.353c-2.755,0-5.449,0.322-8.086,0.967
	c-2.285,0.527-3.691,0.791-4.219,0.791c-0.586,0-1.173-0.117-1.759-0.353c0,1.056,0,2.141,0,3.252c0,1.817,0.353,3.136,1.056,3.955
	c0.879,1.056,2.753,1.582,5.625,1.582c1.111,0,2.108-0.116,2.987-0.352c0.762-0.176,1.465-0.468,2.109-0.879
	c0.645-0.527,1.112-1.2,1.406-2.021c0.292-0.703,0.556-1.875,0.791-3.516c0.117-0.645,0.264-0.967,0.438-0.967
	c0.233,0,0.409,0.264,0.527,0.791c0.292,1.349,0.938,2.637,1.934,3.867c0.469,0.646,0.703,1.113,0.703,1.405
	c0,0.411-0.234,0.879-0.703,1.406c-0.996,0.997-2.196,1.729-3.604,2.197c-1.7,0.586-3.663,0.879-5.889,0.879
	c-3.399,0-5.597-0.38-6.593-1.144c-0.997-0.702-1.67-1.552-2.021-2.549c-0.353-1.111-0.527-2.666-0.527-4.658v-11.688
	c0-1.23-0.352-2.52-1.055-3.867c0-0.232,0.233-0.352,0.703-0.352c0.468,0,1.111,0.411,1.934,1.229
	c0.527,0.353,0.879,0.733,1.056,1.144c1.287-0.177,2.519-0.381,3.69-0.615c1.699-0.292,3.34-0.938,4.922-1.935
	C49.585,137.943,50.288,137.649,50.758,137.649z M40.211,142.131c-0.47,1.934-0.762,3.634-0.879,5.098
	c-0.06,0.997-0.118,2.021-0.177,3.076c1.112,0,2.694-0.264,4.746-0.791c1.875-0.409,3.397-0.879,4.57-1.406
	c0.292-0.116,0.527-0.176,0.703-0.176c0.585-3.164,0.879-5.419,0.879-6.768c0-0.233-0.235-0.353-0.703-0.353
	c-0.526,0-1.641,0.206-3.34,0.615c-1.993,0.527-3.691,0.791-5.098,0.791C40.679,142.219,40.444,142.19,40.211,142.131z
	 M51.461,181.594c1.171-0.176,2.343-0.321,3.516-0.438c1.991-0.293,4.014-0.586,6.064-0.88c0.409-3.34,0.731-6.151,0.967-8.438
	c-1.582,0.294-3.223,0.527-4.922,0.703c-2.461,0.352-4.514,0.646-6.152,0.879C50.991,175.531,51.167,178.254,51.461,181.594z
	 M73.609,135.188c0.409,0,1.23,0.323,2.461,0.968c1.406,0.82,2.109,1.437,2.109,1.846c0,0.352-0.088,0.615-0.264,0.791
	c-1.876,1.7-2.988,2.959-3.34,3.778c-0.411,0.88-0.763,1.642-1.056,2.285c0.468,0.118,0.85,0.265,1.144,0.439
	c0.937,0.527,1.405,0.909,1.405,1.143c-0.059,0.235-0.176,0.353-0.352,0.353c-2.872,0-5.713,0.323-8.525,0.967
	c-2.402,0.527-3.896,0.791-4.481,0.791c-0.527,0-0.997-0.058-1.406-0.176c0,0.646,0,1.29,0,1.934c0,2.229,0.439,3.838,1.318,4.834
	c1.055,1.23,3.369,1.846,6.942,1.846c1.348,0,2.578-0.146,3.691-0.438c1.055-0.233,1.934-0.615,2.637-1.144
	c0.761-0.526,1.348-1.317,1.758-2.372c0.409-0.88,0.762-2.314,1.056-4.308c0.117-0.761,0.292-1.143,0.526-1.143
	c0.233,0,0.409,0.322,0.527,0.967c0.292,1.7,0.937,3.37,1.934,5.01c0.469,0.821,0.703,1.406,0.703,1.758
	c0,0.471-0.264,0.968-0.791,1.494c-1.173,1.114-2.637,1.935-4.395,2.461c-1.935,0.586-4.249,0.879-6.943,0.879
	c-4.102,0-6.768-0.408-7.998-1.229c-1.229-0.938-2.052-1.991-2.461-3.164c-0.411-1.23-0.615-3.046-0.615-5.449V140.2
	c0-1.523-0.352-3.076-1.055-4.658c0-0.233,0.233-0.353,0.703-0.353c0.585,0,1.376,0.471,2.373,1.406
	c0.82,0.527,1.288,1.055,1.406,1.582c1.229-0.117,2.401-0.292,3.516-0.527c1.815-0.232,3.573-0.761,5.273-1.582
	C72.408,135.482,73.14,135.188,73.609,135.188z M62.535,139.319c-0.471,1.642-0.791,3.076-0.968,4.308
	c-0.117,1.055-0.206,2.228-0.264,3.516c1.171-0.117,2.725-0.38,4.658-0.791c2.05-0.409,3.69-0.879,4.922-1.406
	c0.352-0.116,0.644-0.204,0.879-0.264c0.761-2.694,1.143-4.687,1.143-5.977c0-0.233-0.234-0.353-0.702-0.353
	c-0.586,0-1.788,0.147-3.604,0.439c-2.168,0.411-4.014,0.615-5.537,0.615C62.944,139.407,62.769,139.378,62.535,139.319z
	 M62.359,185.813c0.469,0,1.144,0.118,2.021,0.353c1.699,0.646,3.369,1.406,5.01,2.285c2.227,1.229,3.691,2.373,4.396,3.428
	c0.585,0.997,0.879,2.021,0.879,3.076c0,0.646-0.118,1.317-0.353,2.021c-0.234,0.527-0.586,0.791-1.055,0.791
	c-0.353,0-0.586-0.117-0.703-0.352c-0.879-0.527-2.168-1.729-3.867-3.604c-2.461-3.046-4.131-4.951-5.01-5.713
	c-1.114-0.879-1.67-1.522-1.67-1.934C62.008,185.931,62.125,185.813,62.359,185.813z"/>
<path fill="#4C5125" d="M124.234,155.315c0.527,0,1.436,0.088,2.726,0.265c1.464,0.411,2.196,0.762,2.196,1.055
	c0,0.235-0.117,0.439-0.352,0.615c-0.235,0.234-0.586,0.382-1.055,0.438c-2.638,0.938-5.305,1.758-7.998,2.461
	c-0.06,1.174-0.088,2.345-0.088,3.517c0,2.344,0,4.629,0,6.854c1.405-1.288,2.899-2.578,4.481-3.867
	c2.167-1.99,3.485-2.987,3.955-2.987c0.233,0,0.353,0.118,0.353,0.352c0,0.47-0.294,0.997-0.879,1.582
	c-1.935,2.109-4.57,4.834-7.91,8.174c-0.118,9.786-0.353,18.399-0.703,25.84c0,2.402-0.47,4.805-1.406,7.207
	c-0.703,1.699-1.29,2.55-1.758,2.55c-1.35,0-2.229-0.646-2.637-1.935c-0.703-1.7-3.341-4.922-7.91-9.668
	c0-0.468,0.232-0.703,0.703-0.703c4.101,2.813,6.796,4.22,8.086,4.22c0.761,0,1.259-0.559,1.494-1.671
	c0.526-1.875,0.937-5.801,1.229-11.776c0.233-3.867,0.409-7.822,0.527-11.865c-0.586,0.527-1.202,1.143-1.847,1.846
	c-2.931,2.755-6.416,6.328-10.459,10.724c-0.586,0.762-1.085,1.143-1.493,1.143c-0.763,0-2.021-0.409-3.779-1.229
	c-1.465-0.938-2.197-1.582-2.197-1.935c0-0.468,0.233-0.703,0.703-0.703c1.406-0.232,2.753-0.879,4.043-1.934
	c3.808-2.402,8.847-6.27,15.117-11.603c0.117-3.808,0.176-7.675,0.176-11.602c-1.114,0.235-2.256,0.47-3.428,0.703
	c-3.34,0.879-5.831,1.317-7.472,1.317c-3.34,0-5.508-0.352-6.504-1.055c-0.82-0.352-1.229-0.615-1.229-0.791
	c0-0.232,0.264-0.352,0.791-0.352c6.504-0.409,11.602-1.083,15.293-2.021c0.879-0.292,1.699-0.556,2.461-0.791
	c0-3.925-0.147-7.5-0.439-10.723c-0.234-3.516-0.997-6.533-2.284-9.053c-0.235-0.409-0.353-0.732-0.353-0.968
	c0-0.937,0.703-1.405,2.109-1.405c1.288,0,2.781,0.646,4.481,1.934c1.464,0.703,2.197,1.7,2.197,2.988
	c0,0.234-0.118,0.586-0.352,1.055c-1.524,3.399-2.373,6.622-2.55,9.668c-0.176,1.935-0.322,3.838-0.438,5.713
	c0.996-0.352,1.962-0.731,2.899-1.143C123.268,155.462,123.765,155.315,124.234,155.315z M158.336,158.04
	c0.409,0,1.111,0.059,2.108,0.176c1.172,0.411,1.759,0.733,1.759,0.967c0,0.176-0.089,0.353-0.265,0.527
	c-0.176,0.234-0.438,0.382-0.791,0.438c-3.34,0.879-6.798,1.67-10.371,2.373c-0.234,1.642-0.499,3.635-0.791,5.978
	c5.039-0.762,9.521-1.611,13.447-2.549c2.402-0.585,4.688-0.88,6.855-0.88c1.522,0,3.164,0.265,4.922,0.791
	c2.167,0.88,3.252,1.671,3.252,2.373c0,0.235-0.235,0.527-0.703,0.88c-0.294,0.41-0.674,0.614-1.144,0.614
	c-7.853,0-14.796,0.147-20.829,0.439c0.702,0.176,1.405,0.499,2.108,0.967c0.996,0.586,1.494,1.261,1.494,2.021
	c0,0.176-0.176,0.47-0.527,0.879c-0.762,0.762-1.349,1.377-1.758,1.846c-1.055,1.349-2.432,2.696-4.131,4.043
	c0.879-0.176,1.729-0.321,2.549-0.439c1.288-0.232,2.227-0.352,2.813-0.352c3.516,0,5.272,0.47,5.272,1.406
	c0,0.47-0.47,0.762-1.405,0.879c-4.103,0.586-8.058,1.055-11.865,1.406c1.111,0.762,1.67,1.553,1.67,2.372
	c0,0.587-0.06,1.202-0.176,1.847c-0.177,0.586-0.323,1.494-0.439,2.725c4.804-0.526,8.438-0.996,10.898-1.406
	c2.519-0.292,4.481-0.438,5.889-0.438c0.409,0,1.552,0.323,3.428,0.967c1.699,0.762,2.549,1.377,2.549,1.846
	c0,0.997-0.352,1.494-1.055,1.494c-0.586,0-1.729-0.146-3.428-0.438c-1.582-0.233-3.02-0.353-4.308-0.353
	c-4.805,0-9.491,0.088-14.063,0.265c0,0.646,0,1.261,0,1.846c0,7.089-0.118,11.631-0.352,13.623
	c-0.118,2.167-0.471,3.896-1.056,5.186c-0.586,1.288-1.173,1.935-1.758,1.935c-0.411,0-0.674-0.703-0.791-2.109
	c-0.176-0.526-0.264-7.266-0.264-20.215c-2.521,0.294-5.128,0.646-7.822,1.055c-1.876,0.294-4.278,0.763-7.207,1.406
	c-0.527,0.059-0.791,0.118-0.791,0.176c-0.586,0-1.7-0.292-3.34-0.879c-1.29-0.644-1.935-1.023-1.935-1.143
	c0-0.233,0.233-0.353,0.703-0.353c1.288-0.058,2.753-0.205,4.396-0.438c6.093-0.585,11.426-1.112,15.996-1.582
	c0-2.813-0.382-5.155-1.144-7.031c-3.575,0.353-5.889,0.527-6.942,0.527c-1.582,0-2.959-0.088-4.132-0.265
	c-0.938-0.116-1.405-0.264-1.405-0.438c0-0.353,0.205-0.585,0.614-0.703c5.917-0.527,11.483-1.2,16.699-2.021
	c1.348-1.64,2.373-3.28,3.076-4.922c0.409-0.879,0.615-1.61,0.615-2.196c0-0.353-0.353-1.172-1.055-2.461
	c0-0.177,0.088-0.321,0.264-0.439c-2.229,0.118-4.307,0.264-6.24,0.439c-4.922,0.41-10.811,1.317-17.666,2.725
	c-0.411,0.118-0.85,0.176-1.317,0.176c-0.587,0-1.494-0.232-2.726-0.703c-0.997-0.409-1.494-0.673-1.494-0.791
	c0-0.232,0.233-0.352,0.703-0.352c4.804-0.703,8.701-1.2,11.689-1.494c2.987-0.292,6.532-0.761,10.635-1.406
	c0.058,0,0.117,0,0.176,0c-0.059-2.226-0.118-4.131-0.176-5.713c-2.403,0.353-4.219,0.527-5.449,0.527
	c-2.696,0-4.513-0.233-5.449-0.703c-0.586-0.292-0.879-0.497-0.879-0.615c0-0.292,0.117-0.438,0.353-0.438
	c4.511-0.233,8.262-0.585,11.25-1.056c-0.118-2.578-0.265-4.188-0.439-4.834c-0.176-0.644-0.411-1.171-0.703-1.582
	c-0.352-0.409-0.558-0.731-0.614-0.967c0-0.703,0.468-1.055,1.405-1.055c1.171,0,2.285,0.382,3.34,1.143
	c1.523,0.703,2.285,1.377,2.285,2.021c-0.059,0.176-0.118,0.438-0.176,0.791c-0.352,0.526-0.703,1.788-1.055,3.778
	c2.226-0.526,4.16-1.083,5.801-1.67C157.457,158.187,157.925,158.04,158.336,158.04z M130.211,138.704
	c0.761,0,1.67,0.176,2.725,0.526c0.353,0.118,0.645,0.294,0.879,0.527c4.628-0.468,10.576-1.112,17.843-1.934
	c4.219-0.469,7.938-1.024,11.161-1.671c0.527-0.116,1.024-0.176,1.494-0.176c0.645,0,1.847,0.353,3.604,1.056
	c2.285,1.055,3.428,1.846,3.428,2.373c-0.059,0.938-0.499,1.699-1.318,2.284c-1.523,1.29-4.014,4.746-7.471,10.371
	c-0.352,0.471-0.703,0.703-1.055,0.703c-1.173,0-1.758-0.352-1.758-1.055c0.176-0.233,0.352-0.497,0.526-0.791
	c-4.688,0.059-9.259,0.438-13.711,1.143c-4.337,0.703-6.974,1.056-7.91,1.056c-0.352,0-0.703-0.059-1.055-0.177
	c-0.118,1.114-0.352,1.67-0.703,1.67c-0.411,0-0.732-0.352-0.967-1.055c-0.294-0.585-0.439-1.083-0.439-1.494
	c-0.762-1.171-1.405-3.252-1.934-6.239c-0.527-1.875-1.173-3.311-1.934-4.308c-0.527-0.937-1.23-1.64-2.109-2.108
	C129.508,138.938,129.741,138.704,130.211,138.704z M137.506,151.711c1.699,0,3.955-0.205,6.768-0.615
	c-0.938-1.875-1.405-3.34-1.405-4.395c-0.06-0.585-0.118-1.348-0.177-2.285c-0.176-1.288-0.352-2.373-0.526-3.252
	c0-0.353-0.06-0.615-0.177-0.791c-1.992,0.234-4.16,0.499-6.504,0.791c-0.234,0-0.47,0-0.702,0L137.506,151.711z M137.594,172.805
	c0.409,0,0.879,0.088,1.406,0.264c1.347,0.587,2.373,1.23,3.076,1.935c0.526,0.586,0.791,1.523,0.791,2.813
	c0,0.471-0.147,0.938-0.439,1.406c-0.294,0.411-0.615,0.615-0.967,0.615c-0.353,0-0.733-0.233-1.144-0.703
	c-0.762-0.82-1.788-2.578-3.075-5.273c-0.235-0.292-0.353-0.526-0.353-0.702C136.948,172.923,137.183,172.805,137.594,172.805z
	 M145.064,150.92c0.469-0.059,0.967-0.146,1.494-0.264c1.699-0.233,3.222-0.469,4.57-0.703c0.526-2.227,0.967-4.396,1.317-6.504
	c0.177-1.288,0.265-2.285,0.265-2.988c0-0.117-0.118-0.527-0.353-1.23c-2.461,0.294-5.36,0.615-8.7,0.968
	c0.526,0.646,1.082,1.992,1.67,4.043c0.232,0.938,0.352,1.846,0.352,2.725C145.68,148.138,145.474,149.457,145.064,150.92z
	 M152.184,149.778c1.464-0.292,2.813-0.585,4.043-0.879c0.703-0.232,1.288-0.352,1.758-0.352c1.171,0,2.109,0.206,2.813,0.615
	c0.058,0,0.117,0,0.176,0c0.527-1.523,1.055-3.429,1.582-5.713c0.468-1.348,0.703-2.55,0.703-3.604c0-0.761-0.352-1.143-1.055-1.143
	c-1.174,0-3.604,0.117-7.295,0.352c0.702,0.47,1.055,0.938,1.055,1.406c0,0.234-0.147,0.615-0.439,1.143
	c-0.411,0.997-0.703,1.788-0.879,2.373C153.999,145.853,153.179,147.787,152.184,149.778z"/>
<path fill="#4C5125" d="M205.094,146.438c0.468,0,1.055,0.118,1.758,0.353c0.645,0.294,1.348,0.438,2.109,0.438
	c3.632,0,7.792-0.352,12.479-1.055c5.273-0.703,9.901-1.523,13.888-2.461c3.046-0.938,5.917-1.962,8.612-3.076
	c0.469-0.292,0.762-0.438,0.879-0.438c0.996,0,2.988,0.791,5.978,2.373c3.281,1.992,4.922,3.546,4.922,4.657
	c0,1.056-0.674,1.817-2.021,2.285c-3.163,1.055-6.621,2.608-10.37,4.658c-3.106,1.817-6.827,4.278-11.162,7.383
	c0.468,0.527,0.703,1.23,0.703,2.109c0,2.813,0.614,7.91,1.846,15.293c0.409,3.164,0.615,5.919,0.615,8.262
	c0,5.333-0.177,9.053-0.527,11.162c-0.586,2.929-1.318,5.186-2.197,6.768c-0.646,1.288-1.437,2.285-2.373,2.988
	c-1.055,0.82-1.934,1.23-2.637,1.23c-0.586,0-1.026-0.439-1.318-1.318c-2.228-2.813-5.068-6.007-8.524-9.58
	c0-0.233,0.117-0.352,0.352-0.352c2.638,1.875,4.863,2.813,6.681,2.813c2.226,0,3.69-0.382,4.395-1.143
	c0.761-0.938,1.406-3.135,1.934-6.593c0.233-2.05,0.353-4.159,0.353-6.327c0-6.681-0.264-11.747-0.791-15.205
	c-0.353-2.93-0.791-4.979-1.318-6.152c-0.646-1.406-1.964-2.694-3.955-3.867c-0.41-0.117-0.614-0.264-0.614-0.438
	c0-0.703,0.702-1.056,2.108-1.056c0.996,0,1.991,0.118,2.988,0.353c3.749-3.517,7.968-7.852,12.656-13.008
	c0.352-0.585,0.526-1.056,0.526-1.406c0.059-0.703-0.176-1.055-0.703-1.055c-1.758,0-4.014,0.264-6.768,0.791
	c-4.981,0.762-10.723,2.052-17.227,3.866c-3.106,0.938-5.305,1.406-6.593,1.406c-1.173,0-2.931-0.615-5.272-1.846
	c-1.406-0.82-2.109-1.494-2.109-2.021C204.394,146.702,204.624,146.438,205.094,146.438z"/>
<path fill="#4C5125" d="M299.663,139.055c0.938,0,2.14,0.703,3.604,2.109c1.112,1.229,1.67,2.402,1.67,3.516
	c0,0.762-0.322,1.406-0.967,1.935c-0.703,0.646-1.173,1.229-1.406,1.758c-3.105,5.859-6.007,10.665-8.701,14.414
	c1.759,2.228,2.638,3.926,2.638,5.098c0,0.411-0.118,1.114-0.353,2.109c-0.234,1.29-0.352,1.992-0.352,2.108l-0.353,28.478
	c0,1.111-0.176,2.313-0.526,3.604c-0.527,1.582-0.938,2.373-1.23,2.373c-1.055,0-2.081-1.788-3.076-5.361
	c-0.294-0.879-0.438-1.67-0.438-2.372c0-1.465,0.791-6.006,2.373-13.623c0.527-2.461,0.791-7.061,0.791-13.8
	c0-2.461-0.265-4.716-0.791-6.768c-3.75,4.454-7.149,7.706-10.195,9.756c-1.7,1.29-2.843,1.935-3.428,1.935
	c-0.235,0-0.353-0.233-0.353-0.703c5.331-5.684,9.668-11.074,13.009-16.172c2.519-3.984,4.511-8.027,5.977-12.13
	c0.703-2.461,1.055-4.275,1.055-5.448l-0.352-2.021C298.258,139.319,298.726,139.055,299.663,139.055z M318.648,159.446
	c3.516,0,5.273,0.471,5.273,1.406c0,0.527-0.322,0.879-0.968,1.056c-2.813,0.702-5.508,1.261-8.086,1.67c0,0.176,0,0.352,0,0.526
	c-0.47,4.57-1.055,9.142-1.758,13.711c0.117,0,0.233-0.028,0.353-0.088c0.995-0.058,2.051-0.38,3.164-0.967
	c0.232-0.058,0.438-0.088,0.614-0.088c0.233,0,1.318,0.438,3.252,1.318c2.052,0.879,3.076,1.493,3.076,1.846
	c0,0.411-0.233,0.879-0.703,1.406c-1.289,1.055-2.256,2.256-2.899,3.604c-0.763,1.406-1.524,3.223-2.285,5.449
	c0.409,0.059,0.82,0.206,1.229,0.438c0.996,0.646,1.494,1.144,1.494,1.494c-0.059,0.118-0.176,0.176-0.352,0.176
	c-2.755,0-5.449,0.206-8.086,0.615c-2.285,0.353-3.691,0.527-4.22,0.527c-0.47,0-0.879-0.059-1.229-0.176l0.176,1.582
	c0,1.641-0.233,2.461-0.703,2.461c-0.41,0-0.762-0.321-1.055-0.968c-0.234-0.585-0.352-1.082-0.352-1.493
	c-0.646-1.465-1.174-4.132-1.582-7.998c-0.41-2.344-0.938-4.16-1.582-5.449c-0.471-1.23-1.056-2.138-1.759-2.726
	c0-0.468,0.233-0.702,0.703-0.702c0.762,0,1.67,0.176,2.726,0.526c0.703,0.353,1.172,0.703,1.405,1.056
	c0.293-0.059,0.497-0.117,0.615-0.177c2.109-0.526,3.955-0.937,5.537-1.229c0.293-5.391,0.557-10.107,0.791-14.15
	c-2.637,0.411-4.337,0.615-5.098,0.615c-1.524,0-2.9-0.088-4.131-0.264c-0.997-0.117-1.494-0.265-1.494-0.439
	c0-0.352,0.232-0.585,0.703-0.703c3.572-0.526,6.942-1.2,10.106-2.021c0.293-5.858,0.439-9.989,0.439-12.394
	c0-1.464-0.41-3.134-1.23-5.01c-0.352-0.585-0.527-1.023-0.527-1.318c0-0.468,0.586-0.702,1.759-0.702
	c1.229,0,2.313,0.382,3.252,1.143c1.582,1.114,2.373,2.14,2.373,3.076c0,0.176-0.177,0.526-0.527,1.055
	c-0.294,1.114-0.498,2.403-0.615,3.867c-0.41,2.872-0.82,5.977-1.229,9.316c0.469-0.117,0.937-0.265,1.405-0.439
	C317.563,159.593,318.238,159.446,318.648,159.446z M306.344,191.79c0.996-0.059,2.343-0.265,4.043-0.615
	c1.875-0.233,3.396-0.556,4.569-0.967c0.059,0,0.117,0,0.177,0c0.352-1.348,0.673-2.841,0.967-4.482
	c0.293-1.814,0.438-3.661,0.438-5.537c0-0.644-0.586-0.996-1.758-1.055c-0.762,0-1.846,0.118-3.252,0.352
	c-2.108,0.411-4.276,1.056-6.504,1.935L306.344,191.79z M333.766,139.055c0.703,0,1.787,0.47,3.252,1.406
	c1.172,1.055,1.728,1.876,1.67,2.461c0,0.586-0.118,1.173-0.352,1.758c-1.935,3.926-3.486,7.442-4.658,10.547
	c-0.997,2.813-2.141,5.42-3.428,7.822c4.628-1.055,8.7-2.255,12.217-3.604c2.813-0.937,4.716-1.405,5.713-1.405
	c3.516,0.059,5.272,0.762,5.272,2.108c0,1.465-1.055,2.285-3.163,2.461c-2.521,0.294-5.771,0.763-9.757,1.406
	c-0.118,0-0.233,0.03-0.352,0.088c0.527,0.411,1.084,0.909,1.67,1.494c1.172,0.703,1.758,1.7,1.758,2.988
	c0,0.352-0.146,0.938-0.438,1.758c-0.646,1.173-1.113,2.579-1.406,4.219c-0.879,6.328-2.109,11.222-3.691,14.679
	c4.513,4.863,12.1,9.462,22.765,13.799c0,0.703-0.439,1.111-1.318,1.229c-5.859,1.056-9.287,1.582-10.283,1.582
	c-1.934,0-3.223-0.47-3.867-1.406c-2.813-3.634-5.801-7.703-8.965-12.217c-2.402,3.575-5.771,6.416-10.106,8.525
	c-3.34,1.522-6.71,2.285-10.107,2.285c-0.703,0-1.055-0.118-1.055-0.353c6.094-2.285,11.22-5.36,15.381-9.229
	c1.582-1.348,2.87-2.753,3.867-4.22c-1.35-2.167-2.755-4.395-4.219-6.68c-1.759-2.813-3.723-5.01-5.89-6.592
	c-0.233-0.058-0.352-0.409-0.352-1.055c0-0.233,0.352-0.353,1.055-0.353c0.996,0,2.021,0.323,3.076,0.967
	c1.229,1.23,2.373,2.784,3.428,4.658c1.172,2.168,2.666,4.337,4.482,6.504c0.585-1.288,1.023-2.666,1.317-4.131
	c1.172-3.925,1.759-8.466,1.759-13.623c0-1.814-0.234-3.017-0.703-3.604c-0.234-0.353-0.41-0.645-0.527-0.879
	c-1.7,0.176-3.282,0.264-4.746,0.264c-1.582,0-2.755-0.088-3.516-0.264c-0.527,1.173-1.144,2.256-1.847,3.252
	c-1.173,2.168-2.694,4.16-4.569,5.977c-0.471,0.353-0.909,0.527-1.318,0.527h-0.703c5.625-10.488,8.994-17.783,10.107-21.886
	c1.055-3.34,1.67-7.5,1.846-12.479C333.119,139.319,333.355,139.055,333.766,139.055z"/>
<path fill="#4C5125" d="M407.241,151.711c1.056,0,2.345,0.674,3.867,2.021c0.938,0.646,1.406,1.494,1.406,2.55
	c0,0.294-0.146,0.558-0.439,0.791c-0.526,0.47-1.112,1.143-1.758,2.021c-0.059,0.118-0.117,0.235-0.176,0.352
	c0.352,0.06,0.731,0.147,1.143,0.265c1.466,0.526,2.988,1.406,4.57,2.637c4.453,3.399,8.672,6.152,12.656,8.262
	c4.512,2.403,11.719,5.011,21.621,7.822v0.353c0,0.41-0.498,0.674-1.494,0.791c-4.922,0.938-9.346,1.405-13.271,1.405
	c-1.758,0-2.899-0.205-3.428-0.614c-3.984-2.754-9.111-7.384-15.381-13.888c-1.113-1.111-2.607-2.373-4.482-3.778
	c-1.112-0.82-2.108-1.465-2.987-1.935c-2.871,3.75-6.006,7.237-9.404,10.459c-4.16,3.75-8.438,6.886-12.832,9.404
	c-3.809,2.228-7.471,3.838-10.986,4.834c-1.289,0.47-2.196,0.703-2.725,0.703v-0.353c6.445-3.808,12.129-7.559,17.051-11.25
	c3.281-2.693,6.445-5.537,9.492-8.524c2.695-2.753,4.717-5.479,6.064-8.174c0.526-1.112,0.79-1.963,0.79-2.55
	c-0.469-0.996-0.702-1.962-0.702-2.899C405.836,151.946,406.305,151.711,407.241,151.711z M394.586,136.331
	c2.168,0,3.457,0.234,3.866,0.703c1.173,0.41,1.759,0.967,1.759,1.67c0,1.641,0.233,4.131,0.702,7.471
	c0-0.058,0.029-0.088,0.089-0.088c2.813-0.468,4.541-0.703,5.186-0.703h2.461c0,0.352-0.234,0.586-0.703,0.703
	c-2.051,0.586-4.336,1.173-6.854,1.758c0.233,1.641,0.526,3.516,0.879,5.625c0,1.23-0.234,1.846-0.703,1.846
	c-1.23,0-1.935-0.614-2.109-1.846c-0.41-1.758-0.85-3.396-1.317-4.922c-5.099,1.114-9.521,2.344-13.271,3.691
	c-0.293,0.117-0.586,0.176-0.879,0.176c-0.82,0-2.256-0.585-4.307-1.758c-1.349-0.703-2.021-1.288-2.021-1.759
	c0-0.644,0.234-0.967,0.703-0.967c0.293,0,0.762,0.088,1.406,0.264c0.645,0,2.666-0.116,6.063-0.352
	c3.81-0.292,7.734-0.703,11.777-1.229c-1.289-3.984-2.607-6.681-3.955-8.087c-0.352-0.408-0.527-0.702-0.527-0.879
	C392.827,136.77,393.413,136.331,394.586,136.331z M393.531,190.383c0.234,0,0.47,0.264,0.703,0.791
	c0.703,1.29,1.055,2.315,1.055,3.076c0,2.168-0.586,4.423-1.758,6.768c-0.645,1.641-1.553,2.9-2.725,3.779
	c-0.703,0.703-1.437,1.055-2.197,1.055c-0.527,0-0.938-0.321-1.229-0.967c-0.117-0.586-0.177-1.201-0.177-1.846
	c0-0.763,0.177-1.582,0.527-2.461c2.871-4.512,4.453-7.44,4.746-8.789C392.652,190.853,393.004,190.383,393.531,190.383z
	 M421.656,179.133c0.646,0,1.67,0.118,3.076,0.352c1.699,0.527,2.549,1.026,2.549,1.494c0,0.294-0.117,0.559-0.352,0.791
	c-0.353,0.294-0.82,0.471-1.406,0.527c-4.629,0.997-9.404,1.876-14.326,2.637c0,6.622,0.205,13.126,0.615,19.512
	c0,1.935-0.293,3.429-0.879,4.482c-1.055,2.167-2.168,3.252-3.34,3.252c-0.879,0-1.437-0.382-1.67-1.143
	c-1.759-3.224-4.132-6.358-7.119-9.404v-0.353c4.336,1.935,7.147,2.9,8.438,2.9c0.47,0,0.791-1.085,0.968-3.252
	c0.293-2.813,0.438-7.587,0.438-14.326c0-0.468,0-0.908,0-1.317c-2.871,0.352-5.098,0.526-6.68,0.526
	c-3.926,0-6.504-0.352-7.734-1.055c-0.938-0.527-1.406-0.879-1.406-1.055c0-0.233,0.234-0.353,0.703-0.353
	c6.095-0.292,11.104-0.703,15.029-1.229c-0.059-1.406-0.146-2.9-0.264-4.482c-0.117-1.875-0.558-3.896-1.318-6.063
	c-0.293-0.527-0.439-1.024-0.439-1.494c0-0.527,0.47-0.791,1.406-0.791c0.879,0,1.935,0.499,3.164,1.494
	c1.172,0.646,1.758,1.437,1.758,2.373c0,0.762-0.176,1.465-0.526,2.108c-0.763,1.935-1.172,4.103-1.23,6.504
	c3.457-0.703,6.387-1.435,8.789-2.197C420.543,179.281,421.129,179.133,421.656,179.133z M423.413,130.969
	c1.173,0,2.373,0.411,3.604,1.23c1.113,0.646,1.67,1.405,1.67,2.284c0,0.411-0.234,1.174-0.703,2.285
	c-1.055,2.052-1.875,3.634-2.461,4.746c-0.352,0.703-0.674,1.438-0.967,2.197c2.637-0.527,4.951-1.083,6.943-1.67
	c1.112-0.353,2.168-0.527,3.163-0.527c1.349,0,2.843,0.265,4.482,0.791c1.934,0.879,2.9,1.67,2.9,2.373
	c0,0.176-0.177,0.411-0.527,0.703c-0.353,0.235-0.762,0.352-1.23,0.352c-5.625,0-10.313,0.118-14.063,0.353
	c-0.938,0.059-1.963,0.146-3.076,0.264c-1.465,2.813-3.223,5.685-5.272,8.613c-0.646,0.411-1.261,0.615-1.847,0.615v-0.265
	c1.406-2.87,2.607-5.713,3.604-8.524c-0.586,0.059-1.23,0.176-1.935,0.352c-0.176,0.06-0.381,0.088-0.614,0.088
	c-0.527,0-1.377-0.232-2.55-0.703c-0.879-0.408-1.317-0.673-1.317-0.791c0-0.232,0.233-0.352,0.703-0.352
	c2.227-0.409,4.014-0.703,5.36-0.879c0.41-0.058,0.82-0.117,1.23-0.176c0.41-1.348,0.791-2.638,1.143-3.867
	c0.703-2.52,1.056-4.511,1.056-5.978c0-0.292-0.353-1.083-1.056-2.373C421.656,131.351,422.241,130.969,423.413,130.969z
	 M420.25,191.086c0.469,0,1.2,0.146,2.196,0.438c1.816,0.879,3.662,1.876,5.537,2.988c2.402,1.641,3.955,3.135,4.658,4.482
	c0.645,1.288,0.967,2.637,0.967,4.043c0,0.703-0.146,1.436-0.438,2.196c-0.234,0.646-0.558,0.968-0.968,0.968
	c-0.352,0-0.586-0.118-0.703-0.353c-0.938-0.703-2.344-2.228-4.219-4.57c-2.694-4.043-4.541-6.474-5.537-7.295
	c-1.229-1.171-1.846-2.021-1.846-2.549C419.898,191.205,420.016,191.086,420.25,191.086z"/>
<path fill="#4C5125" d="M482.213,134.485c0.936,0,2.078,0.646,3.428,1.935c0.936,0.526,1.406,1.29,1.406,2.285
	c0,0.411-0.119,0.762-0.353,1.055c-0.41,0.586-0.85,1.437-1.317,2.549c3.104,0.703,5.682,1.438,7.733,2.197
	c1.172,0.411,2.078,1.055,2.726,1.934c0.819,1.114,1.287,2.168,1.405,3.164c0,0.703-0.586,1.056-1.758,1.056h-0.703
	c-1.582-0.938-3.047-1.991-4.395-3.164c-1.877-1.582-3.724-2.93-5.537-4.043c-1.23,2.755-2.549,5.42-3.955,7.998
	c1.111,0.117,2.43,0.499,3.955,1.143c1.813,0.703,2.988,1.437,3.516,2.197c0.527,0.703,0.791,1.553,0.791,2.549
	c0,1.229-0.471,1.846-1.405,1.846c-1.175,0-2.757-1.055-4.746-3.164c-1.406-1.464-2.373-2.549-2.9-3.252
	c-0.998,1.758-2.021,3.458-3.076,5.099c-1.641,2.344-3.252,4.513-4.834,6.504c1.582,0,2.754,0.499,3.517,1.494
	c3.866-0.527,8.114-1.494,12.743-2.9c0.646,0,1.935,0.438,3.867,1.318c2.342,1.229,3.517,2.081,3.517,2.549
	c0,0.352-0.177,0.703-0.527,1.055c-1.113,1.582-2.053,3.428-2.813,5.537c-0.526,2.579-1.405,5.537-2.637,8.877
	c-0.119,0.703-0.438,1.29-0.967,1.758c-0.295,0.235-0.559,0.353-0.791,0.353c-0.41,0-0.762-0.265-1.055-0.791
	c-0.295-0.585-0.734-1.056-1.318-1.406c-1.701,0.176-3.398,0.47-5.098,0.879c-2.229,0.646-3.604,0.967-4.131,0.967
	c-0.234,0-0.472-0.029-0.703-0.088l-0.527,13.711c3.924-2.226,7.791-4.275,11.602-6.151c-0.702-1.112-1.438-2.49-2.196-4.132
	c-0.295-0.352-0.439-0.644-0.439-0.879c0.058-0.232,0.176-0.352,0.353-0.352c0.584,0,1.287,0.176,2.108,0.526
	c1.758,0.88,3.133,1.935,4.131,3.164c0.761,1.056,1.144,2.638,1.144,4.746c0,0.294-0.119,0.615-0.353,0.968
	c-0.233,0.352-0.471,0.526-0.702,0.526c-0.527,0-1.086-0.38-1.671-1.143c-0.471-0.527-1.055-1.318-1.758-2.373
	c-7.559,5.743-11.721,9.053-12.479,9.932c-1.992,2.228-3.34,3.34-4.043,3.34s-1.263-0.526-1.67-1.582
	c-0.586-0.82-0.879-1.465-0.879-1.934c0-1.055,0.116-1.846,0.352-2.373c0.645-0.47,1.406-1.173,2.285-2.109
	c0.82-0.761,1.287-2.021,1.406-3.778c0.819-5.039,1.229-10.225,1.229-15.558c0-5.507-0.264-8.965-0.791-10.371
	c-0.352-0.937-0.822-1.698-1.406-2.284c-0.118-0.117-0.207-0.205-0.264-0.265c-1.406,1.582-2.813,3.047-4.219,4.396
	c-2.933,2.813-5.744,4.863-8.438,6.151c-0.998,0.646-1.701,0.967-2.108,0.967v-0.438c4.922-4.863,9.229-9.638,12.92-14.326
	c2.518-3.457,4.891-7.089,7.119-10.897c2.051-3.517,3.604-7.001,4.657-10.459c0.408-1.406,0.615-2.52,0.615-3.341
	c-0.703-0.761-1.055-1.582-1.055-2.461C480.719,134.72,481.215,134.485,482.213,134.485z M476.5,167.18c0,0.118,0,0.235,0,0.353
	l-0.265,6.504c1.523-0.409,2.9-0.879,4.131-1.406c0.293-0.117,0.527-0.176,0.703-0.176c3.045,0,4.57,0.499,4.57,1.494
	c0,0.176-0.119,0.322-0.353,0.438c-1.35,0.411-2.606,0.703-3.778,0.879c-0.938,0.235-1.554,0.353-1.847,0.353
	c-1.289,0-2.461-0.088-3.516-0.265l-0.264,7.207c0.879-0.117,2.021-0.38,3.428-0.791c1.814-0.468,3.281-1.023,4.395-1.67
	c0.353-0.176,0.646-0.264,0.88-0.264c1.172,0,2.108,0.176,2.813,0.526c0.057,0.06,0.117,0.089,0.176,0.089
	c0.408-2.52,0.732-5.099,0.968-7.734c0.176-1.815,0.264-3.544,0.264-5.186c0-1.641-0.353-2.462-1.055-2.462
	C482.709,166.301,478.961,167.004,476.5,167.18z M508.844,169.29c0.996,0,1.934,0.438,2.813,1.317
	c1.875,1.29,2.813,2.403,2.813,3.341c0,0.352-0.119,0.702-0.353,1.055c-0.762,0.821-1.262,1.67-1.494,2.549
	c-0.471,1.641-0.909,3.164-1.317,4.57c0.117,0.059,0.264,0.118,0.438,0.176c1.172,0.586,2.314,1.582,3.429,2.988
	c3.457,3.81,6.68,6.886,9.668,9.229c3.396,2.755,8.846,5.742,16.348,8.965v0.703c0,0.293-0.471,0.469-1.406,0.527
	c-4.629,0.761-8.731,1.143-12.305,1.143c-1.174,0-1.934-0.176-2.285-0.526c-2.694-3.106-6.151-8.291-10.371-15.558
	c-0.762-1.288-1.789-2.725-3.075-4.307c-0.353-0.468-0.703-0.908-1.056-1.318c-0.879,2.813-1.758,5.04-2.637,6.681
	c-1.641,3.047-3.955,5.859-6.943,8.438c-2.871,2.226-5.744,3.837-8.612,4.834c-1.582,0.469-2.933,0.703-4.043,0.703
	c-0.472,0-0.703-0.118-0.703-0.353c2.166-1.055,4.16-2.14,5.977-3.252c4.043-2.813,7-5.448,8.877-7.909
	c1.814-2.285,3.281-5.126,4.396-8.525c1.229-3.281,1.846-6.68,1.846-10.195c0-1.347-0.586-2.725-1.758-4.131
	C507.086,169.671,507.67,169.29,508.844,169.29z M512.711,136.682c0.879,0,1.989,0.586,3.34,1.758
	c1.055,1.114,1.582,2.141,1.582,3.076c0,0.646-0.234,1.261-0.703,1.846c-0.586,0.527-0.998,1.056-1.23,1.582
	c-2.58,5.978-4.979,10.782-7.207,14.414c-0.703,0.938-1.35,1.847-1.934,2.726c6.033-0.879,11.602-2.255,16.699-4.131
	c0.645-0.177,1.229-0.265,1.758-0.265c0.584,0,1.846,0.527,3.779,1.582c2.401,1.465,3.604,2.608,3.604,3.429s-0.559,1.377-1.67,1.67
	c-2.053,0.702-5.129,2.49-9.229,5.36v-0.438c0.936-2.87,1.405-4.979,1.405-6.328c0-0.938-0.586-1.406-1.758-1.406
	c-4.453,0.586-8.557,1.377-12.305,2.373c-0.472,0.06-0.822,0.088-1.056,0.088c-0.821,0-1.582-0.117-2.284-0.352
	c-0.06,0-0.119,0-0.177,0c-1.815,2.228-3.516,3.955-5.098,5.186c-1.35,1.23-2.229,1.847-2.637,1.847
	c-0.234,0-0.353-0.205-0.353-0.615c3.867-5.214,6.974-10.137,9.316-14.767c1.813-3.632,3.252-7.295,4.307-10.985
	c0.527-2.227,0.791-3.867,0.791-4.922l-0.352-2.109C511.305,136.888,511.773,136.682,512.711,136.682z"/>
<path fill="#4C5125" d="M573.706,161.204c0,9.491-5.684,14.385-17.051,14.678v11.426h-3.34v-17.051c4.219,0,7.383-0.585,9.492-1.758
	c3.748-2.05,5.625-5.479,5.625-10.283c0-2.87-0.791-5.126-2.373-6.768c-1.351-1.465-3.021-2.197-5.01-2.197
	c-1.525,0-3.224,0.762-5.099,2.285c-1.815,1.465-3.311,2.196-4.481,2.196c-1.289,0-2.345-0.352-3.164-1.055
	c-0.763-0.703-1.144-1.64-1.144-2.813c0-3.517,3.105-5.273,9.316-5.273c4.512,0,8.438,1.524,11.777,4.57
	C571.891,152.386,573.706,156.4,573.706,161.204z M559.907,200.579c0,1.229-0.498,2.313-1.494,3.252
	c-0.997,0.819-2.196,1.229-3.604,1.229s-2.58-0.438-3.516-1.317c-0.938-0.879-1.406-1.935-1.406-3.164
	c0-1.29,0.469-2.373,1.406-3.252c0.936-0.82,2.108-1.23,3.516-1.23s2.637,0.439,3.69,1.318
	C559.438,198.293,559.907,199.348,559.907,200.579z"/>
</svg>
