<?xml version="1.0" encoding="utf-8"?>
<!-- Generator: Adobe Illustrator 16.0.0, SVG Export Plug-In . SVG Version: 6.00 Build 0)  -->
<!DOCTYPE svg PUBLIC "-//W3C//DTD SVG 1.1//EN" "http://www.w3.org/Graphics/SVG/1.1/DTD/svg11.dtd">
<svg version="1.1" id="圖層_1" xmlns="http://www.w3.org/2000/svg" xmlns:xlink="http://www.w3.org/1999/xlink" x="0px" y="0px"
	 width="595.279px" height="210px" viewBox="0 0 595.279 210" enable-background="new 0 0 595.279 210" xml:space="preserve">
<g>
	<path fill="#4C5125" d="M81.145,47.469c0.646,0,1.439,0.151,2.385,0.451c0.988,0.473,1.482,1.031,1.482,1.676v0.064
		c1.074-0.129,2.063-0.322,2.965-0.58c1.718-0.214,3.309-0.73,4.771-1.547c0.987-0.516,1.676-0.773,2.063-0.773
		c0.473,0,1.439,0.28,2.9,0.838c1.676,0.86,2.514,1.526,2.514,1.998c0,0.473-0.107,0.86-0.322,1.16
		c-1.934,2.449-3.094,4.34-3.479,5.672c-0.517,1.418-0.902,2.75-1.16,3.996c0.214,0.043,0.408,0.108,0.58,0.193
		c0.859,0.516,1.289,0.86,1.289,1.031c0,0.172-0.108,0.258-0.322,0.258c-2.105,0-4.168,0.237-6.188,0.709
		c-1.806,0.43-2.9,0.645-3.287,0.645c-0.301,0-0.58-0.042-0.838-0.129l0.321,2.965c-0.043,1.333-0.301,1.998-0.772,1.998
		c-0.301,0-0.56-0.279-0.773-0.838c-0.172-0.472-0.258-0.859-0.258-1.16c-0.516-1.676-0.946-4.641-1.289-8.895
		c-0.344-2.535-0.795-4.533-1.354-5.994c-0.388-1.289-0.882-2.277-1.482-2.965C80.887,47.727,80.973,47.469,81.145,47.469z
		 M86.366,61.584c0.687-0.042,1.61-0.193,2.771-0.451c1.418-0.214,2.578-0.494,3.48-0.838c0.171-0.129,0.343-0.193,0.516-0.193
		c0.772-4.383,1.16-7.562,1.16-9.539c0-0.343-0.172-0.516-0.517-0.516c-0.559,0-1.654,0.151-3.286,0.451
		c-1.892,0.387-3.546,0.58-4.964,0.58c-0.129,0-0.258,0-0.387,0L86.366,61.584z M101.512,65c0.646,0,1.181,0.258,1.611,0.773
		c0.645,0.301,0.967,0.817,0.967,1.547c0,0.86-0.086,1.59-0.258,2.191c-0.56,1.977-1.289,4.555-2.191,7.734
		c3.309-0.902,6.703-1.654,10.185-2.256c1.288-0.214,2.663-0.537,4.125-0.967c0.516-0.171,0.944-0.258,1.288-0.258
		c0.945,0,2.213,0.237,3.804,0.709c0.901,0.387,1.354,0.838,1.354,1.354c0,0.516-0.602,0.773-1.805,0.773l-7.734-0.258
		c-1.633,0-3.157,0.172-4.576,0.516c-2.706,0.258-4.813,0.667-6.315,1.225c-0.215,0.043-0.409,0.108-0.58,0.193
		c-0.043,0.129-0.086,0.258-0.129,0.387l-1.676,0.645l-0.388,0.193c-0.473,0-0.945-0.172-1.418-0.516
		c-0.559-0.258-0.838-0.537-0.838-0.838c1.676-1.46,2.75-2.878,3.224-4.254c0.729-1.289,1.096-3.48,1.096-6.574
		c-0.344-0.601-0.517-1.096-0.517-1.482C100.739,65.28,100.997,65,101.512,65z M103.059,36.125c0.646,0,1.439,0.151,2.385,0.451
		c0.43,0.215,0.773,0.451,1.031,0.709c6.66-0.773,11.816-1.697,15.469-2.771c0.215-0.129,0.451-0.193,0.709-0.193
		c0.388,0,1.226,0.258,2.515,0.773c1.934,0.902,2.899,1.59,2.899,2.063c0,0.258-0.15,0.538-0.45,0.838
		c-0.946,0.86-1.591,1.934-1.935,3.223c-1.204,3.524-2.643,6.983-4.318,10.377c-0.172,0.172-0.43,0.258-0.772,0.258
		c-0.258,0-0.495-0.214-0.709-0.645c-0.172-0.3-0.258-0.58-0.258-0.838c-2.063,0.086-4.083,0.301-6.06,0.645
		c-2.234,0.387-3.588,0.58-4.061,0.58c-0.172,0-0.344-0.021-0.517-0.063c-0.043,0.516-0.129,0.902-0.258,1.16
		c0.258,0.086,0.646,0.28,1.16,0.58c0.773,0.473,1.16,1.053,1.16,1.74c0,0.215-0.086,0.366-0.258,0.451
		c-0.646,0.43-1.375,1.118-2.191,2.063c-0.172,0.172-0.344,0.344-0.516,0.516c0.516,0.043,1.074,0.064,1.676,0.064
		c0.429,0,0.923-0.064,1.482-0.193c2.921-0.516,7.046-1.052,12.375-1.611c0.987-0.085,2.169-0.322,3.545-0.709
		c0.129-0.085,0.258-0.129,0.387-0.129c0.429,0,1.568,0.516,3.416,1.547c2.019,1.204,3.029,1.977,3.029,2.32
		c0,0.215-0.086,0.473-0.259,0.773c-1.461,2.364-2.319,4.34-2.577,5.93c-0.173,8.723-0.474,13.922-0.902,15.598
		c-0.43,1.761-1.397,3.308-2.9,4.641c-1.762,1.632-2.986,2.449-3.674,2.449c-0.816,0-1.354-0.258-1.611-0.773
		c-1.246-2.106-2.643-4.318-4.188-6.639l-0.646-0.838c0-0.172,0.086-0.258,0.259-0.258c3.437,1.203,5.585,1.805,6.444,1.805
		c0.688,0,1.268-0.43,1.74-1.289c0.988-1.461,1.74-4.512,2.256-9.152c0.085-2.277,0.129-4.791,0.129-7.541
		c0-2.277-0.129-3.781-0.387-4.512c-0.645-0.945-1.547-1.418-2.707-1.418c-1.461,0-2.922,0.043-4.383,0.129
		c-2.578,0.215-4.771,0.409-6.574,0.58c0.042,0,0.085,0,0.129,0c0.214,0,0.688,0.215,1.418,0.645c0.773,0.516,1.16,1.075,1.16,1.676
		c0,0.301-0.086,0.516-0.258,0.646c-0.473,0.344-0.967,0.838-1.482,1.482c1.16,0.344,2.298,0.752,3.416,1.225
		c1.589,0.731,2.621,1.418,3.095,2.063c0.429,0.559,0.645,1.16,0.645,1.805c0,0.516-0.086,1.053-0.258,1.611
		c-0.215,0.473-0.474,0.709-0.773,0.709c-0.258,0-0.43-0.085-0.516-0.258c-0.603-0.343-1.504-1.117-2.707-2.32
		c-1.762-1.976-2.944-3.179-3.545-3.609c-0.086-0.085-0.151-0.15-0.193-0.193c-1.633,2.02-3.18,3.631-4.641,4.834
		c-0.773,0.602-1.762,1.182-2.965,1.74c-0.345,0.258-0.646,0.387-0.902,0.387h-0.258c1.46-1.375,2.813-2.857,4.061-4.447
		c1.632-2.019,2.792-3.867,3.48-5.543c0.343-0.387,0.516-1.117,0.516-2.191c0-0.085,0.085-0.15,0.258-0.193
		c-1.117,0.129-2.084,0.258-2.899,0.387c-0.301,0.043-0.56,0.064-0.773,0.064c-0.901,0-1.805-0.171-2.707-0.516
		c-0.043,0-0.086,0-0.129,0c-1.031,0.989-2.042,1.805-3.029,2.449c-0.73,0.516-1.676,0.989-2.836,1.418
		c-0.301,0.215-0.579,0.322-0.838,0.322h-0.258c1.375-1.117,2.644-2.363,3.803-3.738c1.503-1.676,2.6-3.179,3.287-4.512
		c0.258-0.387,0.388-1.009,0.388-1.869v-0.064c-0.086-0.129-0.173-0.279-0.259-0.451c-0.172-0.516-0.258-0.945-0.258-1.289
		c-0.559-1.332-1.031-3.674-1.418-7.025c-0.344-2.019-0.816-3.609-1.418-4.77c-0.387-1.074-0.902-1.869-1.547-2.385
		C102.801,36.383,102.887,36.125,103.059,36.125z M108.924,50.563c0.988-0.085,2.32-0.279,3.996-0.58
		c1.934-0.258,3.501-0.601,4.705-1.031c0.343-0.129,0.645-0.193,0.901-0.193c0.602,0,1.117,0.064,1.548,0.193
		c0.129-0.258,0.258-0.601,0.387-1.031c0.472-1.589,0.944-3.845,1.418-6.768c0.171-1.117,0.258-2.191,0.258-3.223
		c0-0.687-0.516-1.031-1.547-1.031c-0.603,0-1.611,0.108-3.029,0.322c-3.438,0.387-6.961,0.881-10.569,1.482l0.772,4.834
		c2.02-0.3,3.867-0.666,5.543-1.096c0.387-0.085,0.666-0.129,0.838-0.129c2.578,0,3.867,0.344,3.867,1.031
		c0,0.172-0.129,0.301-0.387,0.387c-1.633,0.301-3.158,0.538-4.576,0.709c-1.16,0.129-1.913,0.193-2.256,0.193
		c-1.075,0-2.021-0.042-2.836-0.129L108.924,50.563z"/>
	<path fill="#4C5125" d="M161.067,33.805c0.816,0,1.848,0.451,3.095,1.354c1.375,0.773,2.063,1.526,2.063,2.256
		c0,0.43-0.151,0.773-0.451,1.031c-0.688,0.817-1.16,1.891-1.418,3.223c-1.289,4.727-2.471,8.852-3.545,12.375
		c0.902-0.171,1.826-0.343,2.771-0.516c2.276-0.601,3.674-0.902,4.188-0.902h0.451c0.042-0.387,0.064-0.816,0.064-1.289
		c0-0.945-0.431-1.976-1.289-3.094c0-0.516,0.429-0.773,1.289-0.773c0.772,0,1.481,0.301,2.127,0.902
		c1.332,1.031,1.998,1.848,1.998,2.449c0,0.387-0.086,0.731-0.259,1.031c-0.73,0.86-1.182,1.655-1.354,2.385
		c-1.289,5.758-2.578,9.99-3.867,12.697c-0.301,0.645-0.645,1.289-1.031,1.934c1.418,1.118,2.6,2.191,3.545,3.223
		c1.806,2.063,2.707,3.674,2.707,4.834c0,1.333-0.43,1.998-1.289,1.998c-0.602,0-1.03-0.429-1.289-1.289
		c-1.719-2.535-3.415-4.791-5.092-6.768c-0.988,1.461-2.148,2.815-3.479,4.061c-2.364,2.149-4.792,3.696-7.283,4.641
		c-1.418,0.429-2.578,0.645-3.48,0.645c-0.344,0-0.516-0.064-0.516-0.193c1.89-1.031,3.63-2.083,5.221-3.158
		c3.609-2.707,6.208-5.242,7.8-7.605c0.042-0.042,0.106-0.085,0.192-0.129c-1.762-1.847-3.502-3.458-5.221-4.834
		c-0.517-0.387-0.773-0.816-0.773-1.289c0-0.258,0.085-0.558,0.259-0.902c0.601-1.676,1.138-3.716,1.61-6.123
		c-3.352,0.902-6.295,1.891-8.83,2.965c-0.258,0.086-0.516,0.129-0.772,0.129c-0.603,0-1.655-0.408-3.158-1.225
		c-0.989-0.558-1.482-1.009-1.482-1.354c0-0.516,0.171-0.773,0.517-0.773c0.214,0,0.558,0.086,1.03,0.258
		c0.559,0,2.191-0.15,4.898-0.451c2.707-0.258,5.414-0.645,8.121-1.16c0.429-2.32,0.859-4.919,1.289-7.799
		c0.429-3.179,0.645-5.951,0.645-8.314c0-0.816-0.279-1.697-0.838-2.643c-0.301-0.645-0.451-1.074-0.451-1.289
		C159.778,33.977,160.207,33.805,161.067,33.805z M168.157,53.527c-2.063,0.602-4.341,1.225-6.832,1.869
		c-0.345,0.043-0.667,0.108-0.968,0.193c-0.772,2.407-1.461,4.512-2.063,6.316c-0.215,0.387-0.322,0.645-0.322,0.772
		c0,0.688,0.236,1.139,0.709,1.354c1.977,1.204,3.738,2.342,5.285,3.416c1.031-1.847,1.934-3.974,2.707-6.381
		C167.49,58.619,167.984,56.105,168.157,53.527z M173.442,39.992c0.259,0,0.623,0.086,1.097,0.258
		c0.387,0.172,0.794,0.258,1.225,0.258c1.547,0,3.308-0.214,5.285-0.645c2.234-0.429,4.188-0.967,5.865-1.611
		c1.332-0.601,2.578-1.267,3.737-1.998c0.171-0.214,0.279-0.322,0.322-0.322c0.559,0,1.697,0.473,3.416,1.418
		c1.847,1.16,2.771,2.042,2.771,2.643c0,0.773-0.322,1.311-0.968,1.611c-1.504,0.688-3.137,1.762-4.897,3.223
		c-1.504,1.247-3.287,2.944-5.351,5.092c0.13,0.086,0.236,0.172,0.322,0.258c0.73,0.731,1.375,1.59,1.935,2.578
		c0.472,0.86,0.858,1.719,1.159,2.578c2.75-0.516,5.457-1.052,8.121-1.611c1.117-0.214,2.041-0.322,2.771-0.322
		c1.16,0,2.385,0.193,3.674,0.58c1.16,0.387,1.74,0.881,1.74,1.482c0,1.031-0.344,1.547-1.031,1.547
		c-5.156,0-10.034,0.193-14.631,0.58c0.042,0.215,0.085,0.43,0.129,0.645c0.558,2.235,0.838,4.405,0.838,6.51
		c0,7.477-0.795,12.805-2.385,15.984c-1.289,2.965-2.644,4.447-4.062,4.447c-0.688,0-1.203-0.344-1.547-1.031
		c-1.333-2.191-3.309-4.362-5.93-6.51c0-0.3,0.085-0.451,0.258-0.451c0.129,0,0.646,0.366,1.547,1.096
		c1.332,0.816,2.707,1.225,4.125,1.225c1.891,0,3.158-1.482,3.804-4.447c0.901-4.039,1.354-7.477,1.354-10.313
		c0-2.578-0.237-4.898-0.709-6.961c-0.516,0.043-1.01,0.086-1.482,0.129c-2.621,0.215-5.5,0.58-8.637,1.096
		c-0.989,0.215-1.676,0.322-2.063,0.322c-0.817,0-1.827-0.171-3.029-0.516c-1.075-0.3-1.611-0.537-1.611-0.709
		c0-0.171,0.193-0.258,0.58-0.258c5.414-0.687,10.185-1.332,14.31-1.934c0.472-0.042,0.944-0.107,1.418-0.193
		c-0.431-1.375-0.924-2.363-1.482-2.965c-0.73-1.031-2.063-2.083-3.996-3.158c-0.344-0.387-0.516-0.666-0.516-0.838
		c0-0.343,0.085-0.516,0.258-0.516h1.805c0.73,0.258,1.375,0.559,1.935,0.902c1.418-2.449,3.007-5.457,4.77-9.023
		c0.171-0.343,0.258-0.645,0.258-0.902c0.042-0.3-0.129-0.451-0.516-0.451c-0.688,0-1.59,0.151-2.707,0.451
		c-1.977,0.516-4.233,1.354-6.768,2.514c-1.247,0.559-2.127,0.838-2.644,0.838c-0.688,0-1.655-0.3-2.899-0.902
		c-0.817-0.516-1.226-0.902-1.226-1.16C173.184,40.165,173.27,39.992,173.442,39.992z"/>
	<path fill="#4C5125" d="M239.958,44.375c0.772,0,1.718,0.495,2.836,1.482c0.687,0.473,1.031,1.096,1.031,1.869
		c0,0.215-0.108,0.409-0.322,0.58c-0.387,0.344-0.817,0.838-1.289,1.482c-0.043,0.086-0.086,0.172-0.129,0.258
		c0.258,0.043,0.537,0.108,0.838,0.193c1.074,0.387,2.19,1.031,3.352,1.934c3.266,2.493,6.359,4.512,9.281,6.059
		c3.308,1.762,8.593,3.674,15.855,5.736v0.258c0,0.301-0.366,0.495-1.097,0.58c-3.608,0.688-6.854,1.031-9.731,1.031
		c-1.289,0-2.127-0.15-2.515-0.451c-2.922-2.019-6.682-5.414-11.278-10.184c-0.817-0.816-1.913-1.74-3.287-2.771
		c-0.817-0.601-1.547-1.074-2.191-1.418c-2.105,2.75-4.404,5.307-6.896,7.67c-3.051,2.75-6.188,5.049-9.41,6.896
		c-2.793,1.633-5.479,2.815-8.057,3.545c-0.946,0.344-1.611,0.516-1.998,0.516v-0.258c4.726-2.792,8.895-5.543,12.504-8.25
		c2.405-1.976,4.726-4.061,6.961-6.252c1.976-2.019,3.458-4.017,4.446-5.994c0.388-0.816,0.58-1.438,0.58-1.869
		c-0.344-0.73-0.516-1.439-0.516-2.127C238.926,44.547,239.27,44.375,239.958,44.375z M230.676,33.096
		c1.589,0,2.535,0.172,2.836,0.516c0.859,0.301,1.289,0.709,1.289,1.225c0,1.204,0.171,3.029,0.516,5.479
		c0-0.042,0.021-0.064,0.064-0.064c2.063-0.343,3.33-0.516,3.803-0.516h1.805c0,0.258-0.172,0.43-0.516,0.516
		c-1.504,0.43-3.18,0.86-5.027,1.289c0.172,1.204,0.388,2.578,0.646,4.125c0,0.902-0.172,1.354-0.516,1.354
		c-0.902,0-1.419-0.451-1.548-1.354c-0.301-1.289-0.624-2.492-0.967-3.609c-3.738,0.817-6.982,1.719-9.731,2.707
		c-0.216,0.086-0.431,0.129-0.646,0.129c-0.602,0-1.655-0.429-3.158-1.289c-0.988-0.516-1.481-0.945-1.481-1.289
		c0-0.472,0.171-0.709,0.516-0.709c0.214,0,0.559,0.064,1.031,0.193c0.472,0,1.955-0.085,4.447-0.258
		c2.792-0.214,5.672-0.516,8.637-0.902c-0.946-2.921-1.913-4.898-2.9-5.93c-0.258-0.3-0.387-0.516-0.387-0.645
		C229.387,33.418,229.816,33.096,230.676,33.096z M229.903,72.734c0.172,0,0.344,0.193,0.517,0.58
		c0.516,0.946,0.772,1.698,0.772,2.256c0,1.59-0.43,3.244-1.289,4.963c-0.473,1.203-1.139,2.127-1.998,2.771
		c-0.516,0.516-1.053,0.773-1.61,0.773c-0.387,0-0.688-0.237-0.902-0.709c-0.086-0.43-0.129-0.881-0.129-1.354
		c0-0.559,0.129-1.16,0.387-1.805c2.105-3.308,3.266-5.457,3.48-6.445C229.258,73.079,229.516,72.734,229.903,72.734z
		 M250.528,64.484c0.473,0,1.226,0.086,2.257,0.258c1.245,0.387,1.868,0.752,1.868,1.096c0,0.215-0.086,0.409-0.258,0.58
		c-0.258,0.215-0.602,0.344-1.031,0.387c-3.395,0.731-6.896,1.375-10.506,1.934c0,4.856,0.15,9.625,0.451,14.309
		c0,1.418-0.215,2.514-0.645,3.287c-0.773,1.589-1.59,2.385-2.449,2.385c-0.646,0-1.053-0.28-1.226-0.838
		c-1.288-2.364-3.028-4.663-5.221-6.896v-0.258c3.179,1.418,5.242,2.127,6.188,2.127c0.343,0,0.58-0.795,0.709-2.385
		c0.214-2.063,0.321-5.563,0.321-10.506c0-0.343,0-0.666,0-0.967c-2.105,0.258-3.737,0.387-4.897,0.387
		c-2.879,0-4.771-0.258-5.672-0.773c-0.688-0.387-1.031-0.645-1.031-0.773c0-0.171,0.171-0.258,0.516-0.258
		c4.469-0.214,8.143-0.516,11.021-0.902c-0.043-1.031-0.108-2.127-0.193-3.287c-0.086-1.375-0.409-2.857-0.967-4.447
		c-0.215-0.387-0.322-0.751-0.322-1.096c0-0.387,0.344-0.58,1.031-0.58c0.646,0,1.418,0.366,2.32,1.096
		c0.858,0.473,1.289,1.053,1.289,1.74c0,0.559-0.129,1.075-0.388,1.547c-0.559,1.418-0.859,3.008-0.901,4.77
		c2.535-0.516,4.683-1.052,6.445-1.611C249.711,64.592,250.141,64.484,250.528,64.484z M251.817,29.164
		c0.859,0,1.74,0.301,2.644,0.902c0.815,0.473,1.225,1.031,1.225,1.676c0,0.301-0.172,0.86-0.516,1.676
		c-0.773,1.504-1.375,2.665-1.806,3.48c-0.258,0.516-0.494,1.053-0.709,1.611c1.935-0.387,3.631-0.794,5.093-1.225
		c0.815-0.258,1.589-0.387,2.319-0.387c0.988,0,2.083,0.193,3.287,0.58c1.418,0.645,2.127,1.225,2.127,1.74
		c0,0.129-0.129,0.301-0.387,0.516c-0.258,0.172-0.559,0.258-0.902,0.258c-4.125,0-7.563,0.086-10.313,0.258
		c-0.688,0.043-1.44,0.108-2.256,0.193c-1.075,2.063-2.364,4.168-3.867,6.316c-0.473,0.301-0.924,0.451-1.354,0.451v-0.193
		c1.031-2.105,1.912-4.189,2.644-6.252c-0.43,0.043-0.902,0.129-1.418,0.258c-0.129,0.043-0.28,0.064-0.451,0.064
		c-0.387,0-1.01-0.171-1.869-0.516c-0.645-0.3-0.967-0.494-0.967-0.58c0-0.171,0.171-0.258,0.516-0.258
		c1.632-0.3,2.943-0.516,3.933-0.645c0.3-0.042,0.601-0.085,0.901-0.129c0.301-0.988,0.58-1.934,0.838-2.836
		c0.517-1.847,0.773-3.308,0.773-4.383c0-0.214-0.258-0.794-0.773-1.74C250.528,29.444,250.957,29.164,251.817,29.164z
		 M249.497,73.25c0.343,0,0.88,0.108,1.61,0.322c1.332,0.645,2.686,1.375,4.062,2.191c1.761,1.204,2.899,2.299,3.416,3.287
		c0.472,0.945,0.709,1.934,0.709,2.965c0,0.516-0.108,1.052-0.322,1.611c-0.172,0.472-0.409,0.709-0.709,0.709
		c-0.258,0-0.43-0.086-0.516-0.258c-0.688-0.516-1.72-1.633-3.095-3.352c-1.977-2.965-3.331-4.748-4.061-5.35
		c-0.902-0.859-1.354-1.482-1.354-1.869C249.239,73.336,249.324,73.25,249.497,73.25z"/>
	<path fill="#4C5125" d="M289.393,57.846h66v1.998h-66V57.846z"/>
	<path fill="#4C5125" d="M355.393,57.846h66v1.998h-66V57.846z"/>
	<path fill="#4C5125" d="M43.442,114.552c0.945,0,1.955,0.173,3.029,0.517c0.902,0.258,1.354,0.602,1.354,1.031
		c0,0.901-0.259,1.354-0.773,1.354c-2.665,0-5.221,0.064-7.67,0.193c0.472,0.43,0.709,0.688,0.709,0.772
		c0,0.388-0.129,0.772-0.387,1.16c-0.259,0.56-0.388,1.118-0.388,1.676c0,13.879,0.085,27.394,0.259,40.541
		c0,1.632-0.173,2.644-0.517,3.029c-0.301,0.687-0.645,1.03-1.031,1.03c-0.344,0-0.688-0.494-1.03-1.481
		c-0.345-0.989-0.517-2.385-0.517-4.188c0-0.56,0.064-1.634,0.193-3.224c0.214-2.362,0.322-3.953,0.322-4.771
		c0.042-2.276,0.085-4.618,0.129-7.024c-2.021,1.075-4.834,2.449-8.443,4.125c-2.278,1.16-4.985,2.578-8.121,4.254
		c-0.43,0.302-0.795,0.451-1.096,0.451c-0.603,0-1.59-0.365-2.965-1.097c-1.118-0.687-1.676-1.18-1.676-1.481
		c0-0.3,0.258-0.451,0.772-0.451c1.074-0.085,2.105-0.321,3.094-0.709c1.806-0.516,4.039-1.202,6.703-2.063l0.387-17.468
		c0-2.791-0.236-5.392-0.709-7.799c-0.086-1.117-0.709-2.19-1.868-3.223c-0.216,0.043-0.409,0.086-0.58,0.129
		c-0.946,0.301-1.569,0.451-1.869,0.451c-0.688,0-1.547-0.171-2.578-0.516c-0.86-0.215-1.289-0.408-1.289-0.58
		s0.085-0.258,0.258-0.258c4.941-0.602,9.259-1.226,12.955-1.869c3.652-0.602,7.283-1.332,10.894-2.191
		C41.938,114.66,42.754,114.552,43.442,114.552z M37.125,143.941c0.085-6.659,0.129-13.877,0.129-21.655
		c0-1.503-0.237-2.578-0.709-3.224c-0.215-0.472-0.366-0.879-0.451-1.225c-1.977,0.172-3.911,0.387-5.801,0.645
		c-1.075,0.129-2.213,0.302-3.416,0.517c0.3,0.086,0.58,0.192,0.838,0.321c1.203,0.731,1.805,1.375,1.805,1.935
		c0,0.215-0.107,0.474-0.321,0.772c-0.474,1.031-0.817,2.923-1.031,5.673l-0.064,1.03c2.063-0.645,3.33-1.051,3.803-1.225
		c0.13-0.042,0.279-0.064,0.451-0.064c2.063,0,3.095,0.259,3.095,0.773c0,0.258,0.085,0.451,0.258,0.58
		c-1.461,0.387-3.353,0.773-5.672,1.16c-0.172,0.043-0.345,0.064-0.517,0.064c-0.344,0-0.816-0.064-1.418-0.193l-0.258,7.219
		c2.234-0.688,3.587-1.117,4.061-1.289c0.13-0.042,0.279-0.064,0.451-0.064c2.063,0,3.095,0.259,3.095,0.773
		c0,0.258,0.085,0.451,0.258,0.58c-1.461,0.387-3.353,0.773-5.672,1.16c-0.172,0.043-0.345,0.064-0.517,0.064
		c-0.387,0-0.945-0.064-1.676-0.193l-0.322,9.346c2.32-0.773,4.898-1.697,7.734-2.771C36.03,144.352,36.652,144.115,37.125,143.941z
		 M59.684,122.027c0.517,0,1.289,0.216,2.32,0.646c1.203,0.731,1.805,1.375,1.805,1.935c0,0.215-0.107,0.516-0.322,0.901
		c-1.246,1.677-2.277,4.083-3.094,7.22c-0.859,3.008-1.698,5.586-2.514,7.733c-0.474,0.946-1.053,1.978-1.74,3.095
		c4.125,3.652,10.635,7.133,19.529,10.44c0,0.56-0.366,0.901-1.097,1.03c-4.813,0.902-7.627,1.354-8.442,1.354
		c-1.762,0-2.944-0.407-3.545-1.225c-2.536-2.75-5.179-5.886-7.929-9.41c-0.086,0.043-0.129,0.086-0.129,0.129
		c-1.375,1.762-2.836,3.245-4.383,4.447c-1.676,1.288-3.266,2.256-4.77,2.899c-1.418,0.517-2.665,0.773-3.738,0.773
		c-0.344,0-0.516-0.064-0.516-0.193c0-0.085,0.278-0.236,0.838-0.451c0.772-0.516,1.676-1.096,2.707-1.74
		c1.632-1.202,3.201-2.577,4.705-4.125c1.203-1.375,2.276-2.836,3.223-4.383c-1.418-1.805-2.836-3.694-4.254-5.672
		c-1.59-2.277-3.396-4.061-5.414-5.35c-0.172-0.042-0.258-0.387-0.258-1.031c0-0.171,0.258-0.258,0.772-0.258
		c0.902,0,1.806,0.28,2.707,0.838c1.117,0.946,2.191,2.213,3.224,3.803c1.073,1.892,2.514,3.803,4.317,5.736
		c0.816-1.418,1.46-2.814,1.935-4.189c0.687-1.976,1.418-4.963,2.19-8.959c0.214-1.16,0.322-2.127,0.322-2.899
		c0,0.172-0.086,0.258-0.258,0.258c-2.922,0.646-5.522,1.333-7.799,2.063c-1.247,0.344-2.17,0.516-2.771,0.516
		c-0.86,0-1.74-0.15-2.643-0.451c-0.817-0.258-1.226-0.451-1.226-0.58c0-0.472,0.171-0.709,0.517-0.709
		c2.535,0,5.026-0.365,7.477-1.096c2.32-0.516,4.684-1.439,7.09-2.771C58.953,122.136,59.34,122.027,59.684,122.027z"/>
	<path fill="#4C5125" d="M86.239,132.341c0.602,0,1.311,0.108,2.128,0.322c1.934,0.56,3.394,1.247,4.383,2.063
		c0.815,0.688,1.225,1.697,1.225,3.028c0,0.431-0.129,0.838-0.387,1.226c-0.344,0.43-0.646,0.645-0.902,0.645
		c-0.559,0-1.096-0.279-1.61-0.838c-1.204-0.816-2.837-2.664-4.898-5.543c-0.301-0.258-0.451-0.473-0.451-0.645
		C85.809,132.427,85.981,132.341,86.239,132.341z M97.84,140.591c0.171,0.043,0.258,0.129,0.258,0.259
		c0,0.516-0.215,1.311-0.645,2.385c-2.707,6.832-4.384,11.172-5.027,13.02c-0.344,1.075-0.624,2.212-0.838,3.416
		c-0.473,1.891-1.053,2.836-1.74,2.836c-0.602,0-1.333-0.645-2.19-1.934c-0.946-1.676-1.419-2.836-1.419-3.48
		c0-0.343,0.172-0.58,0.517-0.709c1.289-0.902,2.256-1.783,2.899-2.643c1.375-1.848,4.018-6.23,7.929-13.148L97.84,140.591
		L97.84,140.591z M91.911,118.936c0.645,0,1.375,0.107,2.19,0.321c1.977,0.56,3.501,1.247,4.576,2.063
		c0.816,0.645,1.225,1.654,1.225,3.029c0,0.43-0.129,0.838-0.387,1.225c-0.301,0.43-0.58,0.645-0.838,0.645
		c-0.602,0-1.204-0.279-1.805-0.838c-1.204-0.816-2.879-2.664-5.027-5.543c-0.301-0.258-0.451-0.472-0.451-0.645
		C91.48,119.021,91.653,118.936,91.911,118.936z M124.395,125.702c0.343,0,1.418,0.28,3.224,0.838
		c1.632,0.772,2.448,1.44,2.448,1.998c0,0.301-0.279,0.667-0.838,1.096c-1.204,0.946-1.913,1.935-2.127,2.966
		c-0.989,3.953-1.784,6.531-2.385,7.733c2.492-0.388,4.619-0.794,6.381-1.226c0.387-0.041,0.646-0.063,0.773-0.063
		c1.203,0,2.643,0.301,4.317,0.901c1.418,0.731,2.127,1.482,2.127,2.257c0,0.473-0.43,0.709-1.289,0.709
		c-1.159,0-3.157-0.063-5.993-0.193c-1.806-0.171-3.331-0.258-4.576-0.258c-5.027,0-9.196,0.172-12.504,0.517
		c0,0.043,0,0.086,0,0.129c0.129,0.043,0.258,0.107,0.387,0.192c1.117,0.56,2.212,1.481,3.287,2.771
		c3.179,3.48,6.229,6.316,9.151,8.509c3.18,2.536,8.314,5.263,15.404,8.186v0.517c0,0.214-0.344,0.365-1.031,0.451
		c-3.395,0.601-6.402,0.901-9.022,0.901c-1.289,0-2.106-0.192-2.449-0.58c-3.008-2.793-6.768-7.519-11.279-14.18
		c-0.901-1.117-2.042-2.406-3.416-3.867c-0.473-0.472-0.924-0.923-1.354-1.354c-0.086,0.56-0.193,1.076-0.322,1.548
		c-0.688,2.448-1.547,4.792-2.578,7.024c-0.945,1.935-2.19,3.717-3.737,5.351c-1.892,1.976-4.576,3.674-8.058,5.092
		c-1.075,0.258-1.869,0.387-2.385,0.387c-0.344,0-0.516-0.086-0.516-0.258c3.394-2.19,5.801-3.933,7.219-5.221
		c1.632-1.375,3.072-3.115,4.317-5.222c1.677-2.578,2.879-5.306,3.609-8.186c0.171-0.602,0.343-1.203,0.516-1.805l-0.063-0.064
		c-1.978,0.258-3.932,0.624-5.865,1.096c-0.559,0.215-1.139,0.322-1.74,0.322c-1.03,0-2.148-0.15-3.352-0.451
		c-1.031-0.3-1.547-0.494-1.547-0.58c0-0.343,0.171-0.516,0.516-0.516c2.063,0,6.166-0.365,12.312-1.096
		c0.343-1.461,0.558-3.008,0.645-4.641c0.214-1.935,0.343-4.255,0.387-6.962c-3.266,0.773-5.393,1.16-6.381,1.16
		c-0.645,0-1.375-0.085-2.19-0.258c-0.946-0.129-1.418-0.322-1.418-0.58c0-0.343,0.472-0.58,1.418-0.709
		c3.308-0.129,5.864-0.388,7.67-0.772c0.3-0.043,0.623-0.107,0.967-0.193c0-1.117,0-2.299,0-3.545c0-2.148-0.129-4.748-0.387-7.799
		c-0.086-1.719-0.409-2.965-0.967-3.738c-0.302-0.602-0.451-1.096-0.451-1.482c0-0.558,0.343-0.838,1.03-0.838
		c1.203,0,2.191,0.258,2.966,0.773c1.116,0.387,1.676,0.988,1.676,1.805c0,0.688-0.129,1.204-0.387,1.547
		c-0.474,0.902-0.688,2.063-0.646,3.48c-0.086,2.922-0.237,5.994-0.451,9.217c1.762-0.559,3.889-1.268,6.381-2.127
		C122.891,125.939,123.75,125.702,124.395,125.702z M115.372,129.956c-0.129,1.849-0.28,3.76-0.451,5.735
		c-0.215,2.149-0.473,4.189-0.773,6.123c0.129-0.041,0.236-0.063,0.322-0.063c2.921-0.387,5.564-0.751,7.928-1.096
		c-0.043-0.73-0.063-1.181-0.063-1.354c0-0.516,0.258-2.127,0.772-4.834c0.517-2.792,0.773-4.447,0.773-4.963
		c0-0.859-0.43-1.289-1.289-1.289C119.84,128.947,117.434,129.527,115.372,129.956z"/>
	<path fill="#4C5125" d="M172.606,126.927c2.406,0.043,3.609,0.58,3.609,1.611c0,0.473-0.795,0.752-2.385,0.838
		c-2.879,0.172-6.167,0.688-9.861,1.547c-0.344,0.086-0.688,0.172-1.031,0.259c0.559,0.172,1.182,0.537,1.869,1.096
		c0.73,0.516,1.096,1.16,1.096,1.934c0,0.301-0.107,0.624-0.321,0.967c-0.86,1.375-1.461,2.385-1.806,3.029
		c1.246,0.129,3.072,0.236,5.479,0.322c0.687,0,1.418,0.494,2.19,1.481c0.602,0.646,0.902,1.183,0.902,1.611
		c0,0.387-0.129,0.709-0.387,0.967c-0.603,0.86-0.967,1.611-1.097,2.256c-1.117,4.813-2.063,8.443-2.836,10.894
		c-0.772,2.02-1.676,3.565-2.707,4.641c-0.988,0.945-1.912,1.418-2.771,1.418c-0.731,0-1.16-0.172-1.289-0.516
		c-0.129-1.16-0.322-1.978-0.58-2.449c-0.387-1.031-1.118-2.083-2.19-3.158c-0.216-0.343-0.322-0.645-0.322-0.902
		c0-0.17,0.085-0.258,0.258-0.258c2.406,1.075,4.039,1.611,4.898,1.611c0.429,0,0.751-0.236,0.967-0.709
		c0.472-0.258,0.944-0.945,1.418-2.063c0.901-1.59,1.589-3.373,2.063-5.351c0.473-1.847,0.709-3.608,0.709-5.285
		c0-0.429-0.107-0.858-0.321-1.289c-0.259-0.258-0.58-0.45-0.968-0.579c-1.59-0.43-2.922-0.859-3.996-1.289
		c-1.59,3.781-3.374,6.982-5.35,9.604c-2.493,3.48-5.372,6.059-8.637,7.734c-1.547,0.816-2.601,1.225-3.158,1.225h-0.258
		c3.651-2.878,6.681-5.865,9.088-8.959c2.063-2.449,3.867-5.543,5.414-9.281c0.988-2.363,1.481-4.533,1.481-6.51l-0.258-1.74
		c0-0.042,0-0.085,0-0.129c-2.449,0.645-5.329,1.525-8.637,2.643c-0.603,0.215-0.989,0.322-1.16,0.322
		c-0.344,0-1.311-0.258-2.9-0.773c-1.676-0.558-2.514-1.096-2.514-1.61c0-0.3,0.171-0.451,0.517-0.451
		c2.276-0.085,4.575-0.321,6.896-0.709c3.738-0.601,9.453-1.868,17.146-3.803C171.553,126.991,172.133,126.927,172.606,126.927z
		 M162.551,115.132c1.203,0,2.707,0.366,4.512,1.097c1.762,0.688,2.921,1.375,3.48,2.063c0.516,0.688,0.772,1.525,0.772,2.514
		c0,1.16-0.516,1.74-1.547,1.74c-1.118,0-2.622-1.009-4.512-3.029c-2.149-2.233-3.223-3.63-3.223-4.188
		C162.036,115.195,162.207,115.132,162.551,115.132z M185.497,112.296c0.645,0,1.418,0.302,2.319,0.902
		c1.074,0.602,1.611,1.311,1.611,2.127c0,0.387-0.151,0.731-0.451,1.03c-0.344,0.388-0.559,0.817-0.645,1.289
		c-0.431,1.633-0.838,3.138-1.226,4.513c0.085,0.086,0.171,0.151,0.258,0.192c0.816,0.56,1.654,1.397,2.515,2.515
		c2.406,3.18,4.683,5.78,6.832,7.799c2.406,2.278,6.315,4.749,11.729,7.412v0.258c0,0.258-0.321,0.409-0.967,0.451
		c-3.137,0.559-5.909,0.838-8.313,0.838c-0.86,0-1.44-0.149-1.74-0.451c-2.021-2.535-4.576-6.81-7.67-12.826
		c-0.603-1.03-1.354-2.19-2.256-3.479c-0.302-0.387-0.58-0.73-0.839-1.031c-0.988,3.309-1.891,5.952-2.707,7.928
		c-1.547,3.524-3.223,6.403-5.026,8.637c-1.633,1.978-3.48,3.416-5.543,4.318v-0.258c2.063-2.664,3.33-4.339,3.803-5.027
		c1.503-2.32,2.836-4.854,3.996-7.604c1.375-3.308,2.578-7.261,3.609-11.859c0.3-1.245,0.45-2.534,0.45-3.866
		c0-0.816-0.192-1.504-0.579-2.063c-0.302-0.517-0.451-0.859-0.451-1.031C184.208,112.533,184.637,112.296,185.497,112.296z
		 M181.178,153.288c0.343,0,0.902,0.086,1.676,0.258c1.503,0.56,3.007,1.204,4.513,1.935c1.934,1.117,3.2,2.127,3.803,3.028
		c0.516,0.859,0.772,1.761,0.772,2.707c0,0.601-0.129,1.203-0.387,1.806c-0.215,0.516-0.516,0.772-0.902,0.772
		c-0.344,0-0.602-0.086-0.772-0.258c-0.731-0.517-1.805-1.591-3.224-3.224c-2.19-2.75-3.652-4.446-4.383-5.092
		c-0.945-0.772-1.418-1.332-1.418-1.676C180.856,153.375,180.963,153.288,181.178,153.288z M182.661,142.202
		c0.645,0,1.375,0.108,2.19,0.321c1.977,0.56,3.501,1.205,4.576,1.935c0.816,0.731,1.225,1.762,1.225,3.094
		c0,0.431-0.15,0.86-0.45,1.289c-0.345,0.345-0.709,0.517-1.097,0.517c-0.559,0-1.118-0.236-1.676-0.709
		c-1.16-0.902-2.771-2.75-4.834-5.543c-0.301-0.301-0.451-0.517-0.451-0.646C182.23,142.289,182.403,142.202,182.661,142.202z"/>
	<path fill="#4C5125" d="M214.887,126.669c0.646,0,1.439,0.151,2.385,0.451c0.988,0.473,1.482,1.03,1.482,1.676v0.063
		c1.074-0.129,2.063-0.321,2.965-0.58c1.718-0.213,3.308-0.729,4.77-1.547c0.988-0.516,1.677-0.772,2.063-0.772
		c0.472,0,1.439,0.28,2.9,0.838c1.676,0.86,2.514,1.526,2.514,1.998c0,0.474-0.108,0.86-0.322,1.16
		c-1.934,2.448-3.094,4.34-3.479,5.672c-0.517,1.418-0.902,2.75-1.16,3.996c0.214,0.043,0.408,0.108,0.58,0.192
		c0.858,0.517,1.289,0.86,1.289,1.031c0,0.172-0.108,0.258-0.322,0.258c-2.106,0-4.168,0.237-6.188,0.709
		c-1.805,0.431-2.899,0.646-3.286,0.646c-0.302,0-0.58-0.042-0.839-0.129l0.322,2.965c-0.043,1.333-0.301,1.998-0.772,1.998
		c-0.302,0-0.56-0.278-0.773-0.838c-0.172-0.472-0.258-0.858-0.258-1.16c-0.517-1.676-0.946-4.642-1.289-8.896
		c-0.344-2.534-0.795-4.532-1.354-5.993c-0.387-1.289-0.881-2.277-1.481-2.966C214.629,126.927,214.715,126.669,214.887,126.669z
		 M220.108,140.784c0.688-0.042,1.611-0.193,2.771-0.451c1.418-0.214,2.578-0.494,3.479-0.838c0.171-0.129,0.344-0.193,0.517-0.193
		c0.772-4.383,1.16-7.562,1.16-9.538c0-0.344-0.173-0.517-0.517-0.517c-0.559,0-1.655,0.151-3.287,0.451
		c-1.891,0.387-3.545,0.579-4.963,0.579c-0.129,0-0.258,0-0.387,0L220.108,140.784z M235.254,144.2c0.645,0,1.181,0.258,1.61,0.772
		c0.646,0.301,0.968,0.817,0.968,1.547c0,0.86-0.086,1.59-0.258,2.191c-0.56,1.977-1.289,4.555-2.191,7.734
		c3.308-0.902,6.703-1.654,10.184-2.256c1.289-0.215,2.664-0.537,4.125-0.967c0.517-0.172,0.945-0.259,1.289-0.259
		c0.945,0,2.212,0.237,3.804,0.709c0.901,0.388,1.354,0.838,1.354,1.354c0,0.516-0.602,0.772-1.805,0.772l-7.734-0.258
		c-1.633,0-3.158,0.172-4.576,0.517c-2.707,0.258-4.813,0.666-6.315,1.225c-0.215,0.043-0.409,0.107-0.58,0.193
		c-0.043,0.129-0.086,0.258-0.129,0.387l-1.677,0.645l-0.387,0.193c-0.473,0-0.945-0.172-1.418-0.516
		c-0.559-0.259-0.838-0.537-0.838-0.838c1.676-1.461,2.75-2.879,3.223-4.255c0.73-1.289,1.097-3.479,1.097-6.573
		c-0.345-0.602-0.517-1.097-0.517-1.482C234.481,144.48,234.739,144.2,235.254,144.2z M236.801,115.325
		c0.645,0,1.438,0.151,2.385,0.45c0.429,0.216,0.773,0.451,1.031,0.709c6.66-0.772,11.816-1.696,15.469-2.771
		c0.214-0.129,0.451-0.192,0.709-0.192c0.387,0,1.226,0.258,2.515,0.772c1.934,0.901,2.899,1.59,2.899,2.063
		c0,0.258-0.15,0.537-0.451,0.838c-0.945,0.859-1.59,1.934-1.934,3.223c-1.204,3.523-2.644,6.982-4.318,10.377
		c-0.172,0.172-0.43,0.258-0.772,0.258c-0.258,0-0.495-0.214-0.709-0.645c-0.172-0.301-0.258-0.58-0.258-0.838
		c-2.063,0.086-4.083,0.301-6.06,0.645c-2.235,0.387-3.588,0.58-4.061,0.58c-0.172,0-0.345-0.021-0.517-0.064
		c-0.043,0.517-0.129,0.902-0.258,1.16c0.258,0.086,0.646,0.28,1.16,0.58c0.772,0.473,1.16,1.053,1.16,1.74
		c0,0.215-0.086,0.366-0.258,0.451c-0.646,0.43-1.375,1.118-2.191,2.063c-0.172,0.172-0.344,0.344-0.516,0.517
		c0.516,0.043,1.073,0.063,1.676,0.063c0.429,0,0.923-0.063,1.481-0.192c2.922-0.517,7.047-1.052,12.375-1.611
		c0.988-0.085,2.169-0.321,3.545-0.709c0.13-0.085,0.259-0.129,0.388-0.129c0.429,0,1.567,0.517,3.416,1.547
		c2.019,1.204,3.028,1.978,3.028,2.32c0,0.215-0.086,0.473-0.258,0.772c-1.461,2.364-2.319,4.34-2.578,5.93
		c-0.172,8.724-0.473,13.923-0.901,15.599c-0.431,1.761-1.397,3.308-2.9,4.642c-1.762,1.631-2.987,2.448-3.674,2.448
		c-0.817,0-1.354-0.258-1.611-0.772c-1.247-2.106-2.643-4.318-4.188-6.64l-0.646-0.838c0-0.172,0.085-0.258,0.258-0.258
		c3.438,1.203,5.585,1.805,6.445,1.805c0.688,0,1.268-0.43,1.74-1.288c0.988-1.462,1.74-4.513,2.256-9.152
		c0.085-2.277,0.129-4.791,0.129-7.541c0-2.277-0.129-3.781-0.387-4.512c-0.646-0.945-1.547-1.418-2.707-1.418
		c-1.461,0-2.922,0.043-4.383,0.129c-2.578,0.215-4.771,0.408-6.574,0.58c0.042,0,0.085,0,0.129,0c0.214,0,0.687,0.215,1.418,0.645
		c0.773,0.516,1.16,1.074,1.16,1.676c0,0.301-0.086,0.516-0.258,0.645c-0.474,0.345-0.968,0.838-1.482,1.482
		c1.16,0.344,2.298,0.752,3.416,1.225c1.589,0.731,2.621,1.418,3.094,2.063c0.43,0.56,0.646,1.16,0.646,1.806
		c0,0.516-0.086,1.053-0.258,1.61c-0.216,0.474-0.474,0.709-0.773,0.709c-0.258,0-0.43-0.085-0.516-0.258
		c-0.603-0.343-1.504-1.117-2.707-2.32c-1.763-1.976-2.944-3.179-3.545-3.608c-0.086-0.086-0.151-0.15-0.193-0.193
		c-1.633,2.02-3.18,3.631-4.641,4.834c-0.773,0.602-1.763,1.182-2.966,1.74c-0.344,0.258-0.645,0.387-0.901,0.387h-0.258
		c1.46-1.375,2.813-2.857,4.061-4.447c1.632-2.019,2.792-3.867,3.48-5.543c0.343-0.387,0.516-1.117,0.516-2.191
		c0-0.084,0.085-0.149,0.258-0.192c-1.118,0.129-2.084,0.258-2.899,0.388c-0.302,0.043-0.56,0.063-0.773,0.063
		c-0.902,0-1.805-0.171-2.707-0.517c-0.043,0-0.086,0-0.129,0c-1.031,0.989-2.042,1.806-3.029,2.449
		c-0.73,0.516-1.676,0.989-2.836,1.418c-0.301,0.215-0.58,0.322-0.838,0.322h-0.258c1.375-1.117,2.643-2.363,3.803-3.738
		c1.503-1.676,2.6-3.179,3.287-4.512c0.258-0.387,0.387-1.009,0.387-1.869v-0.064c-0.086-0.129-0.172-0.278-0.258-0.45
		c-0.172-0.517-0.258-0.945-0.258-1.289c-0.559-1.332-1.031-3.675-1.418-7.025c-0.344-2.019-0.817-3.608-1.418-4.77
		c-0.387-1.074-0.902-1.869-1.547-2.386C236.543,115.583,236.629,115.325,236.801,115.325z M242.667,129.764
		c0.987-0.086,2.319-0.279,3.996-0.58c1.934-0.259,3.501-0.602,4.705-1.031c0.343-0.129,0.645-0.193,0.901-0.193
		c0.602,0,1.117,0.064,1.547,0.193c0.129-0.258,0.259-0.602,0.388-1.031c0.472-1.589,0.944-3.846,1.418-6.768
		c0.171-1.117,0.258-2.191,0.258-3.224c0-0.687-0.517-1.03-1.547-1.03c-0.603,0-1.611,0.107-3.029,0.321
		c-3.438,0.388-6.961,0.881-10.57,1.481l0.773,4.834c2.019-0.299,3.867-0.666,5.543-1.096c0.387-0.084,0.666-0.129,0.838-0.129
		c2.578,0,3.867,0.344,3.867,1.031c0,0.172-0.129,0.301-0.387,0.387c-1.634,0.301-3.158,0.538-4.576,0.709
		c-1.16,0.129-1.913,0.193-2.256,0.193c-1.075,0-2.021-0.042-2.836-0.129L242.667,129.764z"/>
	<path fill="#4C5125" d="M307.698,123.575c0.773,0,1.72,0.495,2.836,1.481c0.688,0.474,1.031,1.096,1.031,1.869
		c0,0.215-0.106,0.409-0.322,0.58c-0.387,0.344-0.815,0.838-1.289,1.482c-0.043,0.086-0.086,0.172-0.129,0.258
		c0.259,0.043,0.537,0.107,0.838,0.193c1.074,0.387,2.191,1.03,3.353,1.934c3.266,2.493,6.359,4.512,9.281,6.059
		c3.309,1.762,8.594,3.674,15.854,5.736v0.258c0,0.301-0.365,0.495-1.096,0.58c-3.609,0.688-6.854,1.031-9.732,1.031
		c-1.289,0-2.127-0.15-2.514-0.451c-2.922-2.02-6.682-5.414-11.279-10.184c-0.815-0.816-1.912-1.74-3.287-2.771
		c-0.815-0.601-1.547-1.074-2.19-1.418c-2.105,2.75-4.404,5.307-6.896,7.67c-3.051,2.75-6.187,5.049-9.409,6.896
		c-2.793,1.633-5.479,2.814-8.058,3.545c-0.945,0.344-1.61,0.516-1.998,0.516v-0.258c4.727-2.792,8.896-5.543,12.504-8.25
		c2.406-1.977,4.727-4.061,6.96-6.252c1.978-2.02,3.459-4.018,4.447-5.994c0.387-0.816,0.58-1.439,0.58-1.869
		c-0.344-0.73-0.516-1.439-0.516-2.127C306.668,123.748,307.012,123.575,307.698,123.575z M298.418,112.296
		c1.589,0,2.534,0.172,2.835,0.517c0.858,0.301,1.288,0.709,1.288,1.225c0,1.204,0.173,3.029,0.517,5.479
		c0-0.041,0.021-0.063,0.063-0.063c2.063-0.343,3.33-0.517,3.804-0.517h1.805c0,0.258-0.172,0.431-0.516,0.517
		c-1.504,0.43-3.181,0.86-5.027,1.289c0.172,1.204,0.387,2.577,0.645,4.125c0,0.901-0.172,1.354-0.516,1.354
		c-0.902,0-1.418-0.45-1.547-1.354c-0.301-1.289-0.623-2.492-0.967-3.609c-3.738,0.817-6.982,1.72-9.732,2.707
		c-0.215,0.086-0.43,0.129-0.645,0.129c-0.603,0-1.655-0.429-3.158-1.289c-0.989-0.516-1.481-0.944-1.481-1.288
		c0-0.473,0.171-0.709,0.516-0.709c0.214,0,0.558,0.063,1.031,0.192c0.472,0,1.955-0.085,4.446-0.258
		c2.792-0.214,5.673-0.517,8.636-0.902c-0.944-2.921-1.911-4.897-2.899-5.93c-0.258-0.3-0.387-0.517-0.387-0.646
		C297.129,112.618,297.559,112.296,298.418,112.296z M297.645,151.936c0.171,0,0.343,0.192,0.516,0.58
		c0.517,0.945,0.773,1.697,0.773,2.256c0,1.59-0.43,3.244-1.289,4.963c-0.473,1.203-1.139,2.127-1.998,2.771
		c-0.516,0.517-1.053,0.772-1.61,0.772c-0.388,0-0.688-0.236-0.902-0.709c-0.086-0.43-0.129-0.881-0.129-1.354
		c0-0.559,0.129-1.16,0.387-1.805c2.105-3.309,3.266-5.457,3.48-6.445C297,152.279,297.258,151.936,297.645,151.936z
		 M318.27,143.686c0.473,0,1.225,0.086,2.256,0.258c1.246,0.387,1.869,0.752,1.869,1.096c0,0.215-0.086,0.409-0.258,0.58
		c-0.258,0.215-0.603,0.344-1.031,0.387c-3.395,0.73-6.896,1.375-10.506,1.934c0,4.856,0.149,9.625,0.451,14.31
		c0,1.418-0.215,2.515-0.646,3.287c-0.772,1.589-1.59,2.385-2.449,2.385c-0.645,0-1.053-0.28-1.225-0.838
		c-1.289-2.364-3.029-4.663-5.221-6.896v-0.258c3.18,1.418,5.242,2.127,6.188,2.127c0.344,0,0.58-0.796,0.709-2.386
		c0.215-2.063,0.322-5.563,0.322-10.506c0-0.343,0-0.666,0-0.967c-2.105,0.258-3.738,0.387-4.898,0.387
		c-2.879,0-4.77-0.258-5.671-0.772c-0.688-0.388-1.03-0.646-1.03-0.773c0-0.171,0.171-0.258,0.516-0.258
		c4.468-0.215,8.142-0.516,11.021-0.902c-0.043-1.031-0.106-2.127-0.192-3.287c-0.086-1.375-0.408-2.857-0.967-4.447
		c-0.216-0.387-0.322-0.75-0.322-1.096c0-0.387,0.344-0.58,1.031-0.58c0.645,0,1.418,0.366,2.319,1.096
		c0.859,0.474,1.289,1.054,1.289,1.74c0,0.56-0.129,1.075-0.387,1.547c-0.559,1.418-0.859,3.008-0.902,4.771
		c2.535-0.517,4.685-1.052,6.445-1.61C317.452,143.792,317.883,143.686,318.27,143.686z M319.559,108.364
		c0.859,0,1.74,0.301,2.643,0.901c0.816,0.474,1.226,1.031,1.226,1.676c0,0.302-0.172,0.86-0.517,1.677
		c-0.772,1.504-1.375,2.665-1.805,3.479c-0.258,0.517-0.494,1.053-0.709,1.611c1.934-0.387,3.631-0.794,5.092-1.225
		c0.816-0.258,1.59-0.387,2.32-0.387c0.988,0,2.084,0.192,3.287,0.579c1.418,0.646,2.127,1.226,2.127,1.74
		c0,0.129-0.129,0.301-0.387,0.517c-0.259,0.172-0.56,0.258-0.902,0.258c-4.125,0-7.563,0.086-10.313,0.258
		c-0.688,0.043-1.438,0.107-2.256,0.193c-1.073,2.063-2.362,4.168-3.867,6.315c-0.473,0.301-0.924,0.451-1.354,0.451v-0.193
		c1.031-2.104,1.912-4.188,2.643-6.252c-0.43,0.043-0.901,0.129-1.418,0.259c-0.129,0.043-0.278,0.063-0.45,0.063
		c-0.388,0-1.011-0.171-1.869-0.517c-0.646-0.299-0.967-0.494-0.967-0.58c0-0.17,0.172-0.258,0.516-0.258
		c1.633-0.3,2.943-0.516,3.932-0.645c0.301-0.042,0.603-0.085,0.902-0.129c0.301-0.988,0.58-1.934,0.838-2.836
		c0.516-1.848,0.773-3.309,0.773-4.383c0-0.215-0.259-0.795-0.773-1.74C318.27,108.645,318.698,108.364,319.559,108.364z
		 M317.238,152.45c0.344,0,0.881,0.108,1.611,0.321c1.332,0.646,2.686,1.375,4.061,2.191c1.763,1.204,2.9,2.299,3.416,3.287
		c0.474,0.945,0.709,1.934,0.709,2.965c0,0.516-0.106,1.053-0.321,1.611c-0.172,0.472-0.408,0.709-0.709,0.709
		c-0.259,0-0.431-0.086-0.517-0.258c-0.688-0.517-1.719-1.633-3.094-3.353c-1.977-2.965-3.33-4.748-4.062-5.35
		c-0.901-0.859-1.354-1.482-1.354-1.869C316.98,152.537,317.066,152.45,317.238,152.45z"/>
	<path fill="#4C5125" d="M360.034,116.355c0.988,0,1.978,0.322,2.966,0.968c0.944,0.559,1.418,1.182,1.418,1.868
		c0,0.302-0.216,0.839-0.646,1.611c-0.988,1.461-1.74,2.578-2.256,3.353c-1.547,2.793-3.631,5.694-6.252,8.7
		c0.043,0,0.086,0,0.129,0c0.258,0,0.537-0.041,0.838-0.129c1.762-0.472,4.232-1.031,7.412-1.676
		c0.559-0.042,1.246-0.279,2.063-0.709c0.087-0.042,0.173-0.064,0.259-0.064c0.387,0,1.438,0.496,3.157,1.482
		c1.849,1.075,2.771,1.805,2.771,2.191c0,0.215-0.086,0.43-0.258,0.645c-1.332,2.063-2.105,3.803-2.32,5.221
		c-0.086,7.734-0.258,12.354-0.516,13.857c-0.216,1.547-0.752,2.9-1.611,4.061c-0.945,1.461-1.611,2.191-1.998,2.191
		c-0.344,0-0.58-0.215-0.709-0.645c-0.516-1.676-1.074-3.438-1.676-5.285c-1.16,0.043-2.32,0.129-3.48,0.258
		c-2.147,0.172-3.459,0.258-3.932,0.258c-0.172,0-0.344,0-0.516,0v0.773c0,0.773-0.087,1.396-0.259,1.869
		c-0.129,0.645-0.387,0.967-0.772,0.967c-0.215,0-0.56-0.494-1.031-1.482c-0.344-0.729-0.516-1.181-0.516-1.354l0.258-2.836
		c-0.129-10.098-0.709-16.156-1.74-18.176c-0.387-0.988-0.58-1.719-0.58-2.191c0-0.688,0.517-1.031,1.547-1.031
		c0.345,0,0.816,0.172,1.418,0.516c0.345,0.173,0.603,0.367,0.773,0.58c2.02-2.965,3.588-5.864,4.705-8.701
		c0.729-1.76,1.096-3.178,1.096-4.254c0-0.258-0.344-0.944-1.031-2.063C358.745,116.614,359.176,116.355,360.034,116.355z
		 M354.879,153.225c0.901-0.086,2.104-0.193,3.608-0.322c1.892-0.172,3.416-0.365,4.576-0.58c0.344-0.086,0.623-0.129,0.838-0.129
		c0.773,0,1.439,0.129,1.998,0.387c0.215-1.246,0.408-3.91,0.58-7.992c0-1.977,0-4.146,0-6.51c0-2.063-0.129-3.438-0.387-4.125
		c-0.646-0.902-1.547-1.354-2.707-1.354c-0.773,0-1.525,0.063-2.256,0.192c-2.234,0.431-3.933,0.86-5.093,1.289
		c-0.129,0.086-0.258,0.129-0.387,0.129c-0.43,0-0.838-0.042-1.225-0.129l0.192,8.896c1.289-0.388,2.492-0.838,3.609-1.354
		c0.859-0.343,1.461-0.517,1.805-0.517c2.578,0.086,3.867,0.625,3.867,1.611c0,0.473-0.365,0.731-1.096,0.773
		c-0.902,0.086-2.084,0.236-3.545,0.451c-0.902,0.172-1.763,0.258-2.578,0.258c-0.859,0-1.547-0.042-2.063-0.129L354.879,153.225z
		 M384.012,112.747c0.688,0,1.547,0.517,2.578,1.547c0.858,0.901,1.289,1.763,1.289,2.578c0,0.517-0.15,0.989-0.451,1.418
		c-0.474,0.387-0.773,0.772-0.902,1.16c-1.59,3.866-3.051,7.047-4.383,9.539c0.172,0.043,0.365,0.063,0.58,0.063
		c0.301,0,0.602-0.063,0.902-0.193c1.848-0.516,4.426-1.051,7.733-1.61c0.603-0.085,1.332-0.322,2.191-0.709
		c0.086-0.085,0.172-0.129,0.258-0.129c0.43,0,1.547,0.516,3.352,1.547c2.063,1.204,3.095,1.978,3.095,2.319
		c0,0.302-0.086,0.646-0.259,1.031c-1.504,2.793-2.362,5.135-2.577,7.025c-0.173,10.614-0.474,16.93-0.902,18.949
		c-0.387,2.148-1.354,3.996-2.9,5.543c-1.805,2.019-3.028,3.029-3.674,3.029c-0.945,0-1.568-0.28-1.869-0.838
		c-1.461-2.106-3.071-4.384-4.834-6.832l-0.772-0.838c0-0.172,0.086-0.259,0.258-0.259c3.953,1.418,6.445,2.127,7.477,2.127
		c0.688,0,1.269-0.602,1.74-1.805c0.988-1.847,1.74-5.757,2.256-11.729c0.086-2.922,0.129-6.166,0.129-9.732
		c0-2.621-0.129-4.383-0.387-5.285c-0.645-1.074-1.547-1.611-2.707-1.611c-0.816,0-1.633,0.043-2.449,0.129
		c-2.362,0.344-4.168,0.688-5.414,1.031c-0.129,0.043-0.258,0.064-0.387,0.064c-0.516,0-1.031-0.064-1.547-0.193
		c-0.043,0.043-0.064,0.086-0.064,0.129c-2.147,3.309-4.082,5.715-5.801,7.219c-0.945,0.902-1.567,1.354-1.869,1.354
		c-0.172,0-0.258-0.171-0.258-0.517c2.621-3.953,4.748-7.711,6.381-11.278c1.203-2.707,2.17-5.5,2.9-8.379
		c0.344-1.718,0.516-2.966,0.516-3.738l-0.258-1.61C382.98,112.919,383.323,112.747,384.012,112.747z M377.051,140.075
		c0.559,0,1.182,0.151,1.869,0.45c1.762,0.646,3.094,1.44,3.995,2.386c0.73,0.817,1.097,2.021,1.097,3.608
		c0,0.431-0.172,0.86-0.517,1.289c-0.344,0.344-0.688,0.517-1.03,0.517c-0.474,0-0.945-0.279-1.418-0.839
		c-0.988-0.987-2.363-3.114-4.125-6.381c-0.259-0.299-0.388-0.558-0.388-0.772C376.62,140.162,376.793,140.075,377.051,140.075z"/>
	<path fill="#4C5125" d="M418.301,119.191c0.516,0,1.16,0.281,1.934,0.839c0.473,0.301,0.751,0.559,0.838,0.772
		c0.859-0.129,1.848-0.387,2.965-0.772c1.117-0.259,2.343-0.73,3.675-1.419c0.258-0.129,0.473-0.192,0.645-0.192
		c0.387,0,1.246,0.366,2.578,1.097c1.547,0.859,2.32,1.439,2.32,1.739c0,0.215-0.064,0.431-0.193,0.646
		c-1.074,3.566-1.611,6.102-1.611,7.604c0,3.567,0.193,7.649,0.58,12.246c0.129,4.211,0.193,6.854,0.193,7.928
		c0,1.591-0.301,3.245-0.902,4.964c-0.645,1.633-1.203,2.448-1.676,2.448c-0.087,0-0.236-0.343-0.451-1.03
		c-0.859-1.891-1.653-3.438-2.385-4.642c-0.989,0.043-1.934,0.129-2.836,0.258c-1.805,0.173-2.923,0.259-3.353,0.259
		c-0.087,0-0.15,0-0.192,0c0,0.645,0,1.268,0,1.868c-0.129,0.474-0.345,0.989-0.646,1.548c-0.387,0.516-0.709,0.772-0.967,0.772
		c-0.516,0-0.967-0.751-1.354-2.256c-0.302-1.16-0.451-2.063-0.451-2.707l0.063-0.709c0.603-3.136,0.968-5.585,1.097-7.349
		c0.258-4.039,0.387-9.088,0.387-15.146c-0.172-3.867-0.559-6.358-1.16-7.478c-0.087-0.387-0.129-0.645-0.129-0.772
		C417.27,119.365,417.613,119.191,418.301,119.191z M420.428,150.646c0.687-0.086,1.504-0.193,2.449-0.322
		c1.547-0.172,2.793-0.365,3.737-0.58c0.3-0.085,0.537-0.129,0.709-0.129c0.603,0,1.16,0.086,1.677,0.258
		c0.042-0.3,0.063-0.688,0.063-1.16c0.042-2.792,0.064-7.648,0.064-14.566c0-4.039-0.064-7.39-0.193-10.055
		c-0.172-1.289-0.516-2.083-1.031-2.385c-0.301-0.3-0.838-0.451-1.61-0.451c-0.088,0-0.217,0.021-0.388,0.064
		c-1.805,0.215-3.223,0.494-4.254,0.838c-0.172,0.086-0.345,0.129-0.516,0.129c-0.129,0-0.258-0.021-0.387-0.064
		c-0.088,0.989-0.13,2.385-0.13,4.189c0,3.395,0,6.531,0,9.41c0.688-0.301,1.312-0.602,1.869-0.902
		c0.646-0.3,1.054-0.451,1.226-0.451c2.578,0.043,3.866,0.538,3.866,1.482c0,0.387-0.258,0.602-0.772,0.645
		c-0.688,0.129-1.525,0.28-2.514,0.451c-0.646,0.172-1.269,0.258-1.869,0.258c-0.731,0-1.354-0.041-1.869-0.129
		C420.557,142.417,420.514,146.907,420.428,150.646z M456.973,117.968c0.387,0,1.053,0.064,1.998,0.193
		c1.073,0.301,1.61,0.559,1.61,0.772c0,0.172-0.087,0.322-0.258,0.451c-0.172,0.172-0.43,0.28-0.772,0.322
		c-2.363,1.031-4.771,1.869-7.22,2.514c-0.087,2.063-0.172,4.426-0.258,7.09c3.095-0.645,5.822-1.289,8.187-1.934
		c1.718-0.472,3.287-0.709,4.705-0.709c1.072,0,2.276,0.193,3.608,0.58c1.547,0.602,2.32,1.204,2.32,1.805
		c0,0.129-0.129,0.322-0.387,0.58c-0.259,0.258-0.56,0.387-0.902,0.387c-7.95,0-14.566,0.301-19.852,0.902
		c-3.311,0.387-7.307,1.16-11.988,2.32c-0.258,0.086-0.538,0.129-0.838,0.129c-0.517,0-1.203-0.15-2.063-0.451
		c-0.73-0.258-1.096-0.451-1.096-0.58c0-0.171,0.171-0.258,0.516-0.258c3.266-0.559,5.888-0.988,7.863-1.289
		c2.02-0.258,4.425-0.602,7.219-1.031c0.129,0,0.258-0.021,0.388-0.063c-0.088-2.492-0.173-4.726-0.259-6.703
		c-0.944,0.258-1.719,0.387-2.319,0.387c-2.449,0-4.039-0.258-4.771-0.772c-0.603-0.258-0.901-0.451-0.901-0.58
		c0-0.172,0.171-0.258,0.516-0.258c2.965-0.215,5.436-0.537,7.412-0.968c-0.216-4.597-0.451-7.368-0.709-8.313
		c-0.301-0.859-0.667-1.525-1.097-1.998c-0.43-0.559-0.667-0.988-0.709-1.289c0-0.73,0.517-1.096,1.548-1.096
		c1.03,0,2.04,0.365,3.028,1.096c1.418,0.688,2.127,1.354,2.127,1.998c-0.043,0.258-0.106,0.624-0.192,1.096
		c-0.431,0.989-0.752,3.523-0.968,7.605c1.375-0.517,2.557-1.053,3.546-1.611C456.393,118.076,456.715,117.968,456.973,117.968z
		 M462.645,137.305c1.031,0,2.148,0.192,3.352,0.579c1.031,0.345,1.548,0.817,1.548,1.418c0,0.688-0.346,1.031-1.031,1.031
		c-3.609,0-7.048,0.151-10.313,0.451c0.042,6.532,0.388,13.17,1.031,19.916c0,1.547-0.516,3.2-1.547,4.963
		c-0.902,1.503-1.654,2.256-2.256,2.256c-0.945,0-1.698-0.517-2.256-1.547c-0.86-1.333-2.858-3.396-5.994-6.188
		c0-0.344,0.149-0.516,0.451-0.516c3.051,1.589,5.284,2.385,6.702,2.385c0.646,0,1.054-1.01,1.226-3.029
		c0.215-3.308,0.322-8.356,0.322-15.146c0-0.858,0-1.805,0-2.836c-1.289,0.172-2.558,0.366-3.804,0.58
		c-2.277,0.301-4.792,0.86-7.541,1.676c-0.859,0.259-1.461,0.388-1.805,0.388c-0.688,0-1.59-0.172-2.707-0.517
		c-0.945-0.3-1.418-0.537-1.418-0.709c0-0.171,0.171-0.258,0.516-0.258c4.771-0.729,8.959-1.438,12.568-2.127
		c1.375-0.259,2.749-0.558,4.125-0.902c-0.043-0.944-0.087-1.955-0.129-3.028c-0.087-1.677-0.258-2.922-0.516-3.738
		c-0.044-0.516-0.064-0.859-0.064-1.031c0-0.387,0.171-0.58,0.516-0.58c0.559,0,1.202,0.366,1.935,1.096
		c0.772,0.773,1.16,1.633,1.16,2.578c0,0.215-0.043,0.451-0.129,0.709c-0.173,0.731-0.28,1.869-0.322,3.416
		c1.289-0.3,2.62-0.645,3.996-1.031C461.203,137.391,462,137.305,462.645,137.305z M440.988,146.264
		c0.429,0,0.967,0.107,1.611,0.321c1.375,0.56,2.449,1.247,3.223,2.063c0.559,0.688,0.838,1.697,0.838,3.028
		c0,0.431-0.129,0.839-0.387,1.226c-0.301,0.43-0.603,0.645-0.902,0.645c-0.387,0-0.772-0.279-1.159-0.838
		c-0.816-0.816-1.956-2.664-3.416-5.543c-0.217-0.258-0.322-0.473-0.322-0.645C440.559,146.35,440.73,146.264,440.988,146.264z"/>
	<path fill="#4C5125" d="M494.678,128.796c0.387,0,1.009,0.063,1.869,0.193c1.116,0.301,1.676,0.559,1.676,0.772
		c0,0.172-0.064,0.322-0.193,0.451c-0.216,0.172-0.494,0.28-0.838,0.322c-1.332,0.516-2.665,0.967-3.996,1.354
		c-0.087,1.375-0.129,2.687-0.129,3.933c0.042,0.043,0.086,0.063,0.129,0.063c0.73,0.344,1.482,0.773,2.256,1.289
		c0.944,0.688,1.568,1.333,1.869,1.934c0.258,0.56,0.387,1.14,0.387,1.74c0,0.387-0.087,0.795-0.258,1.226
		c-0.216,0.43-0.474,0.645-0.772,0.645c-0.258,0-0.431-0.085-0.517-0.258c-0.345-0.387-0.838-1.096-1.481-2.127
		c-0.731-1.289-1.269-2.19-1.611-2.707v22.815c0,0.816-0.192,1.633-0.58,2.449c-0.216,0.988-0.538,1.482-0.967,1.482
		c-0.516,0-0.945-0.688-1.289-2.063c-0.345-0.86-0.516-1.892-0.516-3.095c0.516-2.965,0.967-6.059,1.354-9.28
		c0.429-2.621,0.666-6.725,0.709-12.312c-2.319,5.114-4.576,8.938-6.768,11.474c-1.547,1.59-3.374,3.094-5.479,4.512
		c-0.859,0.602-1.676,0.901-2.449,0.901h-0.258c2.793-2.534,5.308-5.543,7.541-9.022c2.233-3.266,4.296-7.583,6.188-12.955
		c-0.431,0.129-0.86,0.236-1.289,0.322c-2.021,0.516-3.503,0.772-4.447,0.772c-2.407,0-4.019-0.214-4.834-0.646
		c-0.559-0.299-0.838-0.516-0.838-0.645c0-0.171,0.171-0.258,0.516-0.258c3.996-0.258,7.111-0.709,9.347-1.354
		c0.987-0.259,1.891-0.537,2.707-0.838c-0.043-7.434-0.217-11.796-0.517-13.084c-0.345-1.548-0.925-3.051-1.739-4.513
		c0-0.387,0.258-0.58,0.772-0.58c0.988,0,2.021,0.474,3.094,1.418c1.031,0.688,1.547,1.504,1.547,2.449
		c0,0.43-0.129,0.881-0.387,1.354c-0.559,4.469-0.945,8.571-1.16,12.311c0.129-0.042,0.235-0.085,0.322-0.129
		C493.99,128.904,494.332,128.796,494.678,128.796z M522.198,139.302c0.944,0,1.955,0.173,3.029,0.517
		c0.902,0.258,1.354,0.602,1.354,1.031c0,0.901-0.258,1.354-0.772,1.354c-2.75,0-5.35,0.15-7.799,0.451
		c1.246,3.867,2.836,7.283,4.77,10.248c0.646-0.73,1.246-1.482,1.805-2.256c0.988-1.289,1.482-2.492,1.482-3.609l-0.258-1.74
		c0-0.387,0.344-0.58,1.031-0.58c0.772,0,1.589,0.451,2.448,1.354c0.773,0.559,1.16,1.247,1.16,2.063
		c0,0.13-0.106,0.302-0.322,0.517c-0.901,0.772-1.524,1.332-1.868,1.676c-1.289,1.762-2.707,3.287-4.255,4.576
		c1.331,2.063,2.813,3.845,4.447,5.35c1.977,1.676,3.329,2.514,4.062,2.514c0.086,0,0.215-0.236,0.387-0.709
		c0.558-2.406,1.117-5.263,1.676-8.572c0.086-0.342,0.171-0.516,0.258-0.516c0.345,0,0.517,0.43,0.517,1.289
		c-0.087,5.629,0.129,9.045,0.645,10.248c0.258,0.43,0.388,0.881,0.388,1.354c0,1.074-0.346,1.611-1.031,1.611
		c-1.16,0-2.729-0.43-4.705-1.289c-1.719-0.988-3.416-2.406-5.092-4.254c-1.461-1.762-2.771-3.523-3.933-5.285
		c-2.19,1.547-4.663,2.686-7.412,3.416c-1.505,0.43-2.514,0.646-3.028,0.646h-0.322c3.438-1.633,6.338-3.287,8.701-4.963
		c0.344-0.259,0.687-0.537,1.031-0.838c0-0.042-0.022-0.085-0.064-0.13c-1.848-3.694-3.33-7.562-4.447-11.602
		c-0.043-0.085-0.087-0.171-0.129-0.258c-2.021,0.301-3.996,0.709-5.93,1.225c-1.203,0.258-2.472,0.646-3.803,1.16
		c0.3,0.172,0.622,0.387,0.967,0.646c0.901,0.645,1.354,1.288,1.354,1.934c0,0.129-0.087,0.28-0.258,0.451
		c-0.301,0.344-0.494,0.624-0.58,0.838c-0.043,0.129-0.063,0.237-0.063,0.322c0.772,0.215,1.523,0.45,2.256,0.709
		c1.418,0.559,2.319,1.053,2.707,1.481c0.387,0.387,0.58,0.817,0.58,1.289c0,0.517-0.087,1.053-0.258,1.611
		c-0.217,0.473-0.475,0.709-0.773,0.709c-0.216,0-0.387-0.085-0.516-0.258c-0.56-0.301-1.332-0.902-2.32-1.805
		c-0.989-0.988-1.763-1.719-2.32-2.191c-1.03,2.32-1.892,4.083-2.578,5.285c-1.159,1.718-2.448,3.094-3.866,4.125
		c-0.989,0.601-1.869,1.096-2.644,1.482c-0.772,0.213-1.183,0.321-1.225,0.321c-0.172,0-0.258-0.063-0.258-0.192
		c1.547-1.119,2.619-2.021,3.223-2.707c0.988-1.076,1.955-2.492,2.899-4.254c0.815-1.461,1.482-3.072,1.998-4.834
		c0.259-0.902,0.388-1.697,0.388-2.386c0-0.858-0.129-1.396-0.388-1.61c-0.043-0.129-0.063-0.236-0.063-0.322
		c-0.56,0.215-1.118,0.451-1.676,0.709c-0.86,0.43-1.44,0.645-1.74,0.645c-0.688,0-1.525-0.15-2.514-0.451
		c-0.902-0.214-1.354-0.408-1.354-0.58c0-0.17,0.086-0.258,0.258-0.258c4.642-0.988,8.701-1.934,12.183-2.836
		c1.976-0.516,3.952-1.117,5.93-1.805c-1.376-5.5-2.687-13.664-3.932-24.492c-0.173-1.46-0.409-2.643-0.709-3.545
		c-0.346-1.289-0.839-2.363-1.482-3.223c-0.258-0.258-0.387-0.559-0.387-0.902c0-0.387,0.344-0.58,1.03-0.58
		c1.073,0,2.084,0.322,3.029,0.967c0.902,0.43,1.354,0.967,1.354,1.611c0,0.387-0.087,0.73-0.259,1.031
		c-0.345,0.344-0.516,0.772-0.516,1.289c0,5.156,0.344,9.775,1.031,13.856c0.473,4.728,1.354,9.175,2.643,13.343
		c0.859-0.301,1.697-0.623,2.515-0.968C520.781,139.453,521.555,139.302,522.198,139.302z M505.184,117.968
		c0.645,0,1.311,0.302,1.998,0.902c0.729,0.56,1.096,1.204,1.096,1.935c0,0.172-0.106,0.365-0.322,0.579
		c-1.246,1.548-2.899,4.104-4.963,7.671c-0.258,0.344-0.474,0.688-0.645,1.03l4.77-0.387c0.171-0.343,0.322-0.666,0.451-0.968
		c0.258-0.516,0.408-1.116,0.451-1.805c0-0.816,0.429-1.225,1.289-1.225c0.258,0,0.709,0.344,1.354,1.031
		c0.646,0.473,0.968,0.967,0.968,1.481c0,0.216-0.13,0.409-0.388,0.58c-1.073,0.946-2.362,2.256-3.867,3.933
		c-1.505,1.762-2.965,3.737-4.383,5.93c1.719-0.387,3.373-0.773,4.963-1.16c-0.258-0.516-0.516-1.139-0.772-1.869
		c-0.129-0.171-0.193-0.322-0.193-0.451c0.042-0.171,0.215-0.258,0.517-0.258c0.258,0,0.58,0.086,0.967,0.258
		c0.814,0.344,1.438,0.773,1.869,1.289c0.344,0.516,0.516,1.204,0.516,2.063c0,0.345-0.107,0.709-0.322,1.097
		c-0.258,0.301-0.494,0.451-0.709,0.451c-0.216,0-0.43-0.171-0.645-0.517c-0.216-0.3-0.475-0.709-0.773-1.225
		c-1.634,0.43-3.052,0.989-4.254,1.676c-1.332,0.688-2.214,1.289-2.643,1.805c-0.346,0.259-0.58,0.388-0.709,0.388
		c-0.258,0-0.623-0.343-1.097-1.031c-0.301-0.429-0.45-0.794-0.45-1.096c0-0.259,0.215-0.58,0.645-0.968
		c0.387-0.129,0.709-0.299,0.967-0.516c0.43-0.387,1.418-1.654,2.965-3.803c1.073-1.547,1.998-2.943,2.771-4.189
		c-2.578,0.688-4.426,1.526-5.543,2.515c-0.516,0-0.967-0.3-1.354-0.902c-0.301-0.387-0.45-0.944-0.45-1.676v-0.772
		c0.858-0.559,1.805-1.783,2.836-3.675c0.558-0.987,1.201-2.621,1.934-4.897c0.258-0.816,0.387-1.311,0.387-1.482
		c-0.172-0.343-0.258-0.688-0.258-1.031C504.152,118.205,504.495,117.968,505.184,117.968z M522.715,113.777
		c0.602,0,1.267,0.322,1.998,0.968c0.729,0.56,1.096,1.182,1.096,1.869c0,0.172-0.107,0.366-0.322,0.579
		c-1.376,1.418-3.181,3.761-5.414,7.025c-0.129,0.215-0.279,0.451-0.451,0.709l5.156-0.451c0.344-0.516,0.622-0.987,0.838-1.418
		c0.258-0.516,0.408-1.117,0.451-1.805c0-0.859,0.429-1.289,1.289-1.289c0.258,0,0.73,0.366,1.418,1.096
		c0.603,0.474,0.902,0.967,0.902,1.482c0,0.172-0.129,0.366-0.388,0.58c-1.159,0.945-2.491,2.256-3.995,3.932
		c-1.591,1.762-3.158,3.76-4.705,5.994c1.676-0.343,3.287-0.688,4.834-1.031c-0.217-0.429-0.451-0.923-0.709-1.481
		c-0.129-0.214-0.193-0.388-0.193-0.517c0.042-0.17,0.215-0.258,0.516-0.258c0.345,0,0.709,0.086,1.097,0.258
		c0.901,0.431,1.633,0.946,2.19,1.547c0.388,0.517,0.58,1.312,0.58,2.386c0,0.344-0.106,0.688-0.322,1.03
		c-0.216,0.302-0.45,0.451-0.709,0.451c-0.301,0-0.58-0.192-0.838-0.58c-0.301-0.387-0.688-1.03-1.16-1.934
		c-1.59,0.387-3.008,0.924-4.254,1.611c-1.247,0.602-2.127,1.139-2.643,1.611c-0.301,0.215-0.516,0.321-0.646,0.321
		c-0.301,0-0.645-0.321-1.03-0.967c-0.346-0.429-0.517-0.772-0.517-1.031c0-0.3,0.235-0.646,0.709-1.03
		c0.388-0.129,0.709-0.301,0.968-0.517c0.473-0.387,1.504-1.653,3.094-3.803c1.072-1.375,1.955-2.621,2.643-3.738
		c-2.836,0.688-4.877,1.547-6.123,2.578c-0.516,0-0.944-0.322-1.289-0.967c-0.345-0.388-0.516-0.923-0.516-1.611v-0.772
		c0.944-0.517,1.998-1.633,3.158-3.353c0.558-0.858,1.246-2.298,2.063-4.317c0.3-0.73,0.451-1.182,0.451-1.354
		c-0.172-0.3-0.258-0.646-0.258-1.031C521.684,114.036,522.027,113.777,522.715,113.777z M528.129,137.046
		c0.473,0,1.009,0.086,1.61,0.259c1.46,0.473,2.601,1.03,3.416,1.676c0.603,0.645,0.902,1.525,0.902,2.643
		c0,0.387-0.107,0.752-0.322,1.096c-0.216,0.301-0.451,0.451-0.709,0.451c-0.43,0-0.859-0.193-1.289-0.58
		c-0.944-0.773-2.19-2.363-3.737-4.77c-0.217-0.258-0.322-0.43-0.322-0.517C527.72,137.132,527.87,137.046,528.129,137.046z"/>
	<path fill="#4C5125" d="M572.473,130.536c1.934,0,3.587,0.646,4.963,1.934c1.331,1.375,1.998,3.052,1.998,5.027
		c0,2.021-0.667,3.737-1.998,5.155c-1.505,1.375-3.158,2.063-4.963,2.063c-1.978,0-3.696-0.687-5.156-2.063
		c-1.376-1.418-2.063-3.135-2.063-5.155c0-1.89,0.687-3.501,2.063-4.834C568.691,131.245,570.409,130.536,572.473,130.536z
		 M572.473,142.46c1.289,0,2.362-0.494,3.223-1.481c0.988-0.902,1.482-2.063,1.482-3.48c0-1.289-0.475-2.406-1.418-3.352
		c-0.902-0.859-1.998-1.289-3.287-1.289c-1.461,0-2.644,0.43-3.545,1.289c-0.902,0.988-1.354,2.105-1.354,3.352
		c0,1.461,0.451,2.622,1.354,3.48C569.916,141.966,571.097,142.46,572.473,142.46z"/>
</g>
</svg>
